<svg xmlns="http://www.w3.org/2000/svg" xmlns:xlink="http://www.w3.org/1999/xlink" xmlns:lucid="lucid" width="312" height="260.35"><g transform="translate(-2404 261)" lucid:page-tab-id="0_0"><path d="M2580-220.83c0 10.6-8.95 19.18-20 19.18s-20-8.6-20-19.18 8.95-19.17 20-19.17 20 8.6 20 19.17z" stroke="#fe7070" stroke-width="2" fill="url(#a)"/><path d="M2545-229.83a6 6 0 0 1 6-6h18a6 6 0 0 1 6 6v18a6 6 0 0 1-6 6h-18a6 6 0 0 1-6-6z" stroke="#000" stroke-opacity="0" stroke-width="3" fill-opacity="0"/><use xlink:href="#b" transform="matrix(1,0,0,1,2550,-230.82555783901324) translate(-1.1111111111111072 15.999999999999995)"/><path d="M2500-180.83c0 10.6-8.95 19.18-20 19.18s-20-8.6-20-19.18 8.95-19.17 20-19.17 20 8.6 20 19.17z" stroke="#fe7070" stroke-width="2" fill="url(#c)"/><path d="M2465-189.83a6 6 0 0 1 6-6h18a6 6 0 0 1 6 6v18a6 6 0 0 1-6 6h-18a6 6 0 0 1-6-6z" stroke="#000" stroke-opacity="0" stroke-width="3" fill-opacity="0"/><use xlink:href="#d" transform="matrix(1,0,0,1,2470,-190.82555783901324) translate(4.444444444444446 17.249999999999993)"/><path d="M2660-180.83c0 10.6-8.95 19.18-20 19.18s-20-8.6-20-19.18 8.95-19.17 20-19.17 20 8.6 20 19.17z" stroke="#fe7070" stroke-width="2" fill="url(#e)"/><path d="M2625-189.83a6 6 0 0 1 6-6h18a6 6 0 0 1 6 6v18a6 6 0 0 1-6 6h-18a6 6 0 0 1-6-6z" stroke="#000" stroke-opacity="0" stroke-width="3" fill-opacity="0"/><use xlink:href="#f" transform="matrix(1,0,0,1,2630,-190.82555783901324) translate(-1.1111111111111072 15.999999999999995)"/><path d="M2465-110.5c0 10.6-8.95 19.17-20 19.17s-20-8.58-20-19.17c0-10.6 8.95-19.18 20-19.18s20 8.6 20 19.18z" stroke="#fe7070" stroke-width="2" fill="url(#g)"/><path d="M2430-119.5a6 6 0 0 1 6-6h18a6 6 0 0 1 6 6v18a6 6 0 0 1-6 6h-18a6 6 0 0 1-6-6z" stroke="#000" stroke-opacity="0" stroke-width="3" fill-opacity="0"/><use xlink:href="#h" transform="matrix(1,0,0,1,2435,-120.50049775984391) translate(4.444444444444446 17.249999999999993)"/><path d="M2540-110.5c0 10.6-8.95 19.17-20 19.17s-20-8.58-20-19.17c0-10.6 8.95-19.18 20-19.18s20 8.6 20 19.18z" stroke="#fe7070" stroke-width="2" fill="url(#i)"/><path d="M2505-119.5a6 6 0 0 1 6-6h18a6 6 0 0 1 6 6v18a6 6 0 0 1-6 6h-18a6 6 0 0 1-6-6z" stroke="#000" stroke-opacity="0" stroke-width="3" fill-opacity="0"/><use xlink:href="#j" transform="matrix(1,0,0,1,2510,-120.50049775984391) translate(4.444444444444446 17.249999999999993)"/><path d="M2695-110.5c0 10.6-8.95 19.17-20 19.17s-20-8.58-20-19.17c0-10.6 8.95-19.18 20-19.18s20 8.6 20 19.18z" stroke="#fe7070" stroke-width="2" fill="url(#k)"/><path d="M2660-119.5a6 6 0 0 1 6-6h18a6 6 0 0 1 6 6v18a6 6 0 0 1-6 6h-18a6 6 0 0 1-6-6z" stroke="#000" stroke-opacity="0" stroke-width="3" fill-opacity="0"/><use xlink:href="#l" transform="matrix(1,0,0,1,2665,-120.50049775984391) translate(-1.1111111111111072 15.999999999999995)"/><path d="M2630-110.5c0 10.6-8.95 19.17-20 19.17s-20-8.58-20-19.17c0-10.6 8.95-19.18 20-19.18s20 8.6 20 19.18z" stroke="#fe7070" stroke-width="2" fill="url(#m)"/><path d="M2595-119.5a6 6 0 0 1 6-6h18a6 6 0 0 1 6 6v18a6 6 0 0 1-6 6h-18a6 6 0 0 1-6-6z" stroke="#000" stroke-opacity="0" stroke-width="3" fill-opacity="0"/><use xlink:href="#n" transform="matrix(1,0,0,1,2600,-120.50049775984391) translate(-1.1111111111111072 15.999999999999995)"/><path d="M2559.37-199.38l-40.5 13.6-.65-1.9 40.5-13.6z" stroke="#979ea8" stroke-width=".05" fill="#979ea8"/><path d="M2563.16-200.66l-3.8 1.28-.5-1.4 1.1.13 1.65-.06 1.45-.3z" fill="#979ea8"/><path d="M2563.2-200.64l-3.87 1.3-.5-1.47 1.13.13 1.65-.06 1.47-.3zm-1.6-.04l-1.65.06-1.04-.13.46 1.34 3.77-1.27-.1-.3z" stroke="#979ea8" stroke-width=".05" fill="#979ea8"/><path d="M2519.07-182l-15 .14 12.04-8.93z" fill="#979ea8"/><path d="M2520.45-181.02l-19.45.2 15.62-11.6zm-13.3-1.87l10.53-.1-2.07-6.17z" stroke="#979ea8" stroke-width=".05" fill="#979ea8"/><use xlink:href="#o" transform="matrix(1,0,0,1,2530.5003119827898,-201.78837240640988) translate(0.005 18.26388888888889)"/><path d="M2560.95-200.33l40.5 13.6" stroke="#979ea8" stroke-width="2" fill="none"/><path d="M2559.95-200.65l1.14-.04-.45 1.32-3.8-1.28.1-.36z" stroke="#979ea8" stroke-width=".05" fill="#979ea8"/><path d="M2615.93-181.86l-15-.15 2.96-8.8z" stroke="#979ea8" stroke-width="2" fill="#979ea8"/><path d="M2480.8-160.05l24.4 18.28" stroke="#979ea8" stroke-width="2" fill="none"/><path d="M2479.95-160.65l1.37-.05-1.1 1.46-2.2-1.65z" stroke="#979ea8" stroke-width=".05" fill="#979ea8"/><path d="M2517.4-132.62l-14.18-4.84 5.55-7.42z" stroke="#979ea8" stroke-width="2" fill="#979ea8"/><path d="M2479.24-160l-20.2 17.3" stroke="#979ea8" stroke-width="2" fill="none"/><path d="M2479.95-160.65l1.65-.06-1.73 1.48-1.3-1.52.08-.07z" stroke="#979ea8" stroke-width=".05" fill="#979ea8"/><path d="M2447.46-132.78l7.82-12.8 6.03 7.04z" stroke="#979ea8" stroke-width="2" fill="#979ea8"/><path d="M2639.3-159.94l-16.2 16.2" stroke="#979ea8" stroke-width="2" fill="none"/><path d="M2639.95-160.65l1.52-.05-1.5 1.48-1.4-1.4.17-.18z" stroke="#979ea8" stroke-width=".05" fill="#979ea8"/><path d="M2612.3-132.96l6.8-13.36 6.56 6.55z" stroke="#979ea8" stroke-width="2" fill="#979ea8"/><path d="M2640.76-160l20.2 17.3" stroke="#979ea8" stroke-width="2" fill="none"/><path d="M2639.95-160.65l1.44-.05-1.27 1.48-1.92-1.65z" stroke="#979ea8" stroke-width=".05" fill="#979ea8"/><path d="M2672.54-132.78l-13.85-5.76 6.02-7.04z" stroke="#979ea8" stroke-width="2" fill="#979ea8"/><path d="M2600-40.83c0 10.6-8.95 19.18-20 19.18s-20-8.6-20-19.18c0-10.6 8.95-19.17 20-19.17s20 8.6 20 19.17z" stroke="#fe7070" stroke-width="2" fill="url(#p)"/><path d="M2565-49.83a6 6 0 0 1 6-6h18a6 6 0 0 1 6 6v18a6 6 0 0 1-6 6h-18a6 6 0 0 1-6-6z" stroke="#000" stroke-opacity="0" stroke-width="3" fill-opacity="0"/><use xlink:href="#q" transform="matrix(1,0,0,1,2570,-50.82555783901324) translate(-1.1111111111111072 15.999999999999995)"/><path d="M2608.7-89.7l-15.62 15.62" stroke="#979ea8" stroke-width="2" fill="none"/><path d="M2609.95-90.32l.82-.03-1.4 1.4-1.4-1.43.17-.17z" stroke="#979ea8" stroke-width=".05" fill="#979ea8"/><path d="M2582.3-63.3l6.8-13.35 6.55 6.55z" stroke="#979ea8" stroke-width="2" fill="#979ea8"/><defs><radialGradient gradientUnits="userSpaceOnUse" id="a" fx="2560" fy="-220.83" cx="2560" cy="-220.83" r="20.54"><stop offset="0%" stop-color="#fe7474" stop-opacity=".4"/><stop offset="60%" stop-color="#fe7070" stop-opacity=".6"/><stop offset="100%" stop-color="#fb6f6f"/></radialGradient><path d="M23 0v-37h61v-169l-59 37v-38l62-41h46v211h57V0H23" id="r"/><path d="M139-81c0-46-55-55-73-27H18l9-140h149v37H72l-4 63c44-38 133-4 122 66C201 21 21 35 11-62l49-4c5 18 15 30 39 30 26 0 40-18 40-45" id="s"/><g id="b"><use transform="matrix(0.05555555555555554,0,0,0.05555555555555554,0,0)" xlink:href="#r"/><use transform="matrix(0.05555555555555554,0,0,0.05555555555555554,11.111111111111107,0)" xlink:href="#s"/></g><radialGradient gradientUnits="userSpaceOnUse" id="c" fx="2480" fy="-180.83" cx="2480" cy="-180.83" r="20.54"><stop offset="0%" stop-color="#fe7474" stop-opacity=".4"/><stop offset="60%" stop-color="#fe7070" stop-opacity=".6"/><stop offset="100%" stop-color="#fb6f6f"/></radialGradient><path d="M52 0c1-96 47-148 87-207H15v-41h169v40c-36 62-79 113-81 208H52" id="t"/><use transform="matrix(0.05555555555555554,0,0,0.05555555555555554,0,0)" xlink:href="#t" id="d"/><radialGradient gradientUnits="userSpaceOnUse" id="e" fx="2640" fy="-180.83" cx="2640" cy="-180.83" r="20.54"><stop offset="0%" stop-color="#fe7474" stop-opacity=".4"/><stop offset="60%" stop-color="#fe7070" stop-opacity=".6"/><stop offset="100%" stop-color="#fb6f6f"/></radialGradient><path d="M182-182c0 78-84 86-111 141h115V0H12c-6-101 99-100 120-180 1-22-12-31-33-32-23 0-32 14-35 34l-49-3c5-45 32-70 84-70 51 0 83 22 83 69" id="u"/><path d="M101-251c68 0 84 54 84 127C185-50 166 4 99 4S15-52 14-124c-1-75 17-127 87-127zm-1 216c37-5 36-46 36-89s4-89-36-89c-39 0-36 45-36 89 0 43-3 85 36 89" id="v"/><g id="f"><use transform="matrix(0.05555555555555554,0,0,0.05555555555555554,0,0)" xlink:href="#u"/><use transform="matrix(0.05555555555555554,0,0,0.05555555555555554,11.111111111111107,0)" xlink:href="#v"/></g><radialGradient gradientUnits="userSpaceOnUse" id="g" fx="2445" fy="-110.5" cx="2445" cy="-110.5" r="20.54"><stop offset="0%" stop-color="#fe7474" stop-opacity=".4"/><stop offset="60%" stop-color="#fe7070" stop-opacity=".6"/><stop offset="100%" stop-color="#fb6f6f"/></radialGradient><path d="M128-127c34 4 56 21 59 58 7 91-148 94-172 28-4-9-6-17-7-26l51-5c1 24 16 35 40 36 23 0 39-12 38-36-1-31-31-36-65-34v-40c32 2 59-3 59-33 0-20-13-33-34-33s-33 13-35 32l-50-3c6-44 37-68 86-68 50 0 83 20 83 66 0 35-22 52-53 58" id="w"/><use transform="matrix(0.05555555555555554,0,0,0.05555555555555554,0,0)" xlink:href="#w" id="h"/><radialGradient gradientUnits="userSpaceOnUse" id="i" fx="2520" fy="-110.5" cx="2520" cy="-110.5" r="20.54"><stop offset="0%" stop-color="#fe7474" stop-opacity=".4"/><stop offset="60%" stop-color="#fe7070" stop-opacity=".6"/><stop offset="100%" stop-color="#fb6f6f"/></radialGradient><path d="M115-159c48 0 72 30 72 78 0 54-30 85-83 85-64 0-91-50-91-122 0-98 58-163 141-120 15 8 21 24 27 44l-47 6c-5-31-48-31-61-4-7 14-11 33-11 60 9-17 28-27 53-27zM102-35c24 0 36-20 36-45s-11-43-37-43c-23 0-36 14-36 38 0 27 11 50 37 50" id="x"/><use transform="matrix(0.05555555555555554,0,0,0.05555555555555554,0,0)" xlink:href="#x" id="j"/><radialGradient gradientUnits="userSpaceOnUse" id="k" fx="2675" fy="-110.5" cx="2675" cy="-110.5" r="20.54"><stop offset="0%" stop-color="#fe7474" stop-opacity=".4"/><stop offset="60%" stop-color="#fe7070" stop-opacity=".6"/><stop offset="100%" stop-color="#fb6f6f"/></radialGradient><g id="l"><use transform="matrix(0.05555555555555554,0,0,0.05555555555555554,0,0)" xlink:href="#u"/><use transform="matrix(0.05555555555555554,0,0,0.05555555555555554,11.111111111111107,0)" xlink:href="#t"/></g><radialGradient gradientUnits="userSpaceOnUse" id="m" fx="2610" fy="-110.5" cx="2610" cy="-110.5" r="20.54"><stop offset="0%" stop-color="#fe7474" stop-opacity=".4"/><stop offset="60%" stop-color="#fe7070" stop-opacity=".6"/><stop offset="100%" stop-color="#fb6f6f"/></radialGradient><path d="M138-131c27 9 52 24 51 61 0 53-36 74-89 74S11-19 11-69c0-35 22-54 51-61-78-25-46-121 38-121 51 0 83 19 83 66 0 30-18 49-45 54zm-38-16c24 0 32-13 32-36 1-23-11-34-32-34-22 0-33 12-32 34 0 22 9 36 32 36zm1 116c27 0 37-17 37-43 0-25-13-39-39-39-24 0-37 15-37 40 0 27 11 42 39 42" id="y"/><g id="n"><use transform="matrix(0.05555555555555554,0,0,0.05555555555555554,0,0)" xlink:href="#r"/><use transform="matrix(0.05555555555555554,0,0,0.05555555555555554,11.111111111111107,0)" xlink:href="#y"/></g><radialGradient gradientUnits="userSpaceOnUse" id="p" fx="2580" fy="-40.83" cx="2580" cy="-40.83" r="20.54"><stop offset="0%" stop-color="#fe7474" stop-opacity=".4"/><stop offset="60%" stop-color="#fe7070" stop-opacity=".6"/><stop offset="100%" stop-color="#fb6f6f"/></radialGradient><g id="q"><use transform="matrix(0.05555555555555554,0,0,0.05555555555555554,0,0)" xlink:href="#r"/><use transform="matrix(0.05555555555555554,0,0,0.05555555555555554,11.111111111111107,0)" xlink:href="#x"/></g></defs></g></svg>