<svg xmlns="http://www.w3.org/2000/svg" xmlns:xlink="http://www.w3.org/1999/xlink" xmlns:lucid="lucid" width="1300.89" height="370.19"><g transform="translate(-673.3752874752984 -87.16260938854373)" lucid:page-tab-id="0_0"><path d="M693.38 113.16a6 6 0 0 1 6-6h168a6 6 0 0 1 6 6v28a6 6 0 0 1-6 6h-168a6 6 0 0 1-6-6z" fill="none"/><use xlink:href="#a" transform="matrix(1,0,0,1,693.3752874752984,107.16260938854373) translate(54.63333333333333 30.244444444444444)"/><path d="M882.38 113.16a6 6 0 0 1 6-6h168a6 6 0 0 1 6 6v28a6 6 0 0 1-6 6h-168a6 6 0 0 1-6-6z" fill="none"/><use xlink:href="#b" transform="matrix(1,0,0,1,882.3753874752961,107.16260938854373) translate(63.8 30.244444444444444)"/><path d="M872.38 107.66a.5.5 0 0 1 .5.5v323.1a.5.5 0 0 1-.5.5.5.5 0 0 1-.5-.5v-323.1a.5.5 0 0 1 .5-.5z" stroke="#6f7681" fill="none"/><path d="M726.05 148.16a.5.5 0 0 1 .5-.5h678.25a.5.5 0 0 1 .5.5.5.5 0 0 1-.5.5H726.55a.5.5 0 0 1-.5-.5z" stroke="#6f7681" fill="none"/><path d="M782.38 193.16a6 6 0 0 1 6-6h28a6 6 0 0 1 6 6v28a6 6 0 0 1-6 6h-28a6 6 0 0 1-6-6z" stroke="#000" fill="#cfe4ff"/><path d="M812.38 207.16c0 5.53-4.48 10-10 10-5.53 0-10-4.47-10-10 0-5.52 4.47-10 10-10 5.52 0 10 4.48 10 10z" stroke="#000"/><path d="M742.38 164.16a6 6 0 0 1 6-6h108a6 6 0 0 1 6 6v18a6 6 0 0 1-6 6h-108a6 6 0 0 1-6-6z" fill="none"/><use xlink:href="#c" transform="matrix(1,0,0,1,742.3751874753004,158.16260938854373) translate(45.48444444444445 19.09777777777778)"/><path d="M911.38 183.16a6 6 0 0 1 6-6h148a6 6 0 0 1 6 6v48a6 6 0 0 1-6 6h-148a6 6 0 0 1-6-6z" stroke="#000" fill="#cfe4ff"/><path d="M921.87 192.27a6 6 0 0 1 6-6h28a6 6 0 0 1 6 6v28a6 6 0 0 1-6 6h-28a6 6 0 0 1-6-6z" stroke="#000" fill="#b8f5ed"/><use xlink:href="#d" transform="matrix(1,0,0,1,926.8686960201642,191.26945428035782) translate(8.827160493827162 19.65277777777778)"/><path d="M971.38 192.15a6 6 0 0 1 6-6h28a6 6 0 0 1 6 6v28a6 6 0 0 1-6 6h-28a6 6 0 0 1-6-6zM1020.88 192.15a6 6 0 0 1 6-6h28a6 6 0 0 1 6 6v28a6 6 0 0 1-6 6h-28a6 6 0 0 1-6-6z" stroke="#000" fill="#b8f5ed"/><path d="M1001.38 205.55c0 5.53-4.48 10-10 10-5.53 0-10-4.47-10-10 0-5.52 4.47-10 10-10 5.52 0 10 4.48 10 10zM1051.38 205.55c0 5.53-4.48 10-10 10-5.53 0-10-4.47-10-10 0-5.52 4.47-10 10-10 5.52 0 10 4.48 10 10z" stroke="#000"/><path d="M813.88 207.16h78.5" stroke="#000" stroke-width="2" stroke-linejoin="round" fill="none"/><path d="M813.9 208.16h-1.15l.13-1-.13-1h1.16z" stroke="#000" stroke-width=".05"/><path d="M907.64 207.16l-14.27 4.64v-9.27z" stroke="#000" stroke-width="2" fill="#fff"/><path d="M931.38 155.16a6 6 0 0 1 6-6h108a6 6 0 0 1 6 6v18a6 6 0 0 1-6 6h-108a6 6 0 0 1-6-6z" fill="none"/><use xlink:href="#e" transform="matrix(1,0,0,1,931.3752874752984,149.16260938854373) translate(32.47111111111113 19.09777777777778)"/><use xlink:href="#f" transform="matrix(1,0,0,1,931.3752874752984,149.16260938854373) translate(70.88 19.09777777777778)"/><path d="M991.3 217.06l-.04.73-.3 1.6-.52 1.5-.75 1.54-1.06 1.6-1.53 1.73-2.35 2.1-4.37 2.9-17 9.43" stroke="#000" stroke-width="2" stroke-linejoin="round" fill="none"/><path d="M992.3 217.15l-2-.13.08-1.1 1 .14 1-.13z" stroke="#000" stroke-width=".05"/><path d="M954.82 251.57l4.88-14.18 7.4 5.57z" stroke="#000" stroke-width="2" fill="#fff"/><path d="M1041.44 217.06l.07.38.1.45.14.44.16.45.2.46.25.47.3.5.34.5.42.56.52.57.63.63.8.7 1 .77 1.3.87 1.73 1 2.4 1.22 3.58 1.52 6 2.1 45.27 12.82 1.27.54" stroke="#000" stroke-width="2" stroke-linejoin="round" fill="none"/><path d="M1041.38 216.06l1-.13.03 1.12-2 .06-.03-1.17z" stroke="#000" stroke-width=".05"/><path d="M1118.3 253.8l-13.57-6.4 6.36-6.74z" stroke="#000" stroke-width="2" fill="#fff"/><path d="M847.3 260.16a6 6 0 0 1 6-6h203.08a6 6 0 0 1 6 6v7.25a6 6 0 0 1-6 6H853.3a6 6 0 0 1-6-6z" fill="none"/><use xlink:href="#g" transform="matrix(1,0,0,1,847.2966215904387,254.15844544966467) translate(31.293333333333365 14.097777777777775)"/><use xlink:href="#h" transform="matrix(1,0,0,1,847.2966215904387,254.15844544966467) translate(51.666666666666686 14.097777777777775)"/><use xlink:href="#i" transform="matrix(1,0,0,1,847.2966215904387,254.15844544966467) translate(154.10222222222222 14.097777777777775)"/><path d="M1071.8 262.52a6 6 0 0 1 6-6h85.72a6 6 0 0 1 6 6v13.76a6 6 0 0 1-6 6h-85.72a6 6 0 0 1-6-6z" stroke="#000" fill="#00c2a8"/><path d="M1078.52 265.78a6 6 0 0 1 6-6h8a6 6 0 0 1 6 6v7.25a6 6 0 0 1-6 6h-8a6 6 0 0 1-6-6z" stroke="#000" fill="#cfe4ff"/><path d="M1093.52 269.4c0 2.5-2.24 4.5-5 4.5s-5-2-5-4.5c0-2.48 2.24-4.5 5-4.5s5 2.02 5 4.5z" stroke="#000"/><path d="M1143.02 265.78a6 6 0 0 1 6-6h8a6 6 0 0 1 6 6v7.25a6 6 0 0 1-6 6h-8a6 6 0 0 1-6-6z" stroke="#000" fill="#cfe4ff"/><path d="M1158.02 269.4c0 2.5-2.24 4.5-5 4.5s-5-2-5-4.5c0-2.48 2.24-4.5 5-4.5s5 2.02 5 4.5z" stroke="#000"/><path d="M1110.66 265.78a6 6 0 0 1 6-6h8a6 6 0 0 1 6 6v7.25a6 6 0 0 1-6 6h-8a6 6 0 0 1-6-6z" stroke="#000" fill="#cfe4ff"/><path d="M1125.66 269.4c0 2.5-2.24 4.5-5 4.5s-5-2-5-4.5c0-2.48 2.24-4.5 5-4.5s5 2.02 5 4.5z" stroke="#000"/><path d="M959.1 306.87a6 6 0 0 1 6-6h85.7a6 6 0 0 1 6 6v13.75a6 6 0 0 1-6 6h-85.7a6 6 0 0 1-6-6z" stroke="#000" fill="#00c2a8"/><path d="M965.8 310.12a6 6 0 0 1 6-6h8a6 6 0 0 1 6 6v7.25a6 6 0 0 1-6 6h-8a6 6 0 0 1-6-6z" stroke="#000" fill="#cfe4ff"/><path d="M980.8 313.75c0 2.48-2.23 4.5-5 4.5-2.76 0-5-2.02-5-4.5 0-2.5 2.24-4.5 5-4.5 2.77 0 5 2 5 4.5z" stroke="#000"/><path d="M1030.3 310.12a6 6 0 0 1 6-6h8a6 6 0 0 1 6 6v7.25a6 6 0 0 1-6 6h-8a6 6 0 0 1-6-6z" stroke="#000" fill="#cfe4ff"/><path d="M1045.3 313.75c0 2.48-2.23 4.5-5 4.5-2.75 0-5-2.02-5-4.5 0-2.5 2.25-4.5 5-4.5 2.77 0 5 2 5 4.5z" stroke="#000"/><path d="M1017.95 310.12a6 6 0 0 0-6-6h-8a6 6 0 0 0-6 6v7.25a6 6 0 0 0 6 6h8a6 6 0 0 0 6-6z" stroke="#000" fill="#cfe4ff"/><path d="M1012.95 313.75c0 2.48-2.24 4.5-5 4.5-2.77 0-5-2.02-5-4.5 0-2.5 2.23-4.5 5-4.5 2.76 0 5 2 5 4.5z" stroke="#000"/><path d="M1186.23 306.37a6 6 0 0 1 6-6h85.7a6 6 0 0 1 6 6v13.75a6 6 0 0 1-6 6h-85.7a6 6 0 0 1-6-6z" stroke="#000" fill="#00c2a8"/><path d="M1192.94 309.62a6 6 0 0 1 6-6h8a6 6 0 0 1 6 6v7.25a6 6 0 0 1-6 6h-8a6 6 0 0 1-6-6z" stroke="#000" fill="#cfe4ff"/><path d="M1207.94 313.24c0 2.5-2.23 4.5-5 4.5-2.76 0-5-2-5-4.5 0-2.48 2.24-4.5 5-4.5 2.77 0 5 2.02 5 4.5z" stroke="#000"/><path d="M1257.45 309.62a6 6 0 0 1 6-6h8a6 6 0 0 1 6 6v7.25a6 6 0 0 1-6 6h-8a6 6 0 0 1-6-6z" stroke="#000" fill="#cfe4ff"/><path d="M1272.45 313.24c0 2.5-2.24 4.5-5 4.5s-5-2-5-4.5c0-2.48 2.24-4.5 5-4.5s5 2.02 5 4.5z" stroke="#000"/><path d="M1225.1 309.62a6 6 0 0 1 6-6h8a6 6 0 0 1 6 6v7.25a6 6 0 0 1-6 6h-8a6 6 0 0 1-6-6z" stroke="#000" fill="#cfe4ff"/><path d="M1240.1 313.24c0 2.5-2.25 4.5-5 4.5-2.77 0-5-2-5-4.5 0-2.48 2.23-4.5 5-4.5 2.75 0 5 2.02 5 4.5z" stroke="#000"/><path d="M1263.4 365.86a6 6 0 0 1 6-6h85.7a6 6 0 0 1 6 6v13.76a6 6 0 0 1-6 6h-85.7a6 6 0 0 1-6-6z" stroke="#000" fill="#00c2a8"/><path d="M1270.1 369.1a6 6 0 0 1 6-6h8a6 6 0 0 1 6 6v7.27a6 6 0 0 1-6 6h-8a6 6 0 0 1-6-6z" stroke="#000" fill="#cfe4ff"/><path d="M1285.1 372.74c0 2.48-2.23 4.5-5 4.5-2.75 0-5-2.02-5-4.5s2.25-4.5 5-4.5c2.77 0 5 2.02 5 4.5z" stroke="#000"/><path d="M1334.6 369.1a6 6 0 0 1 6-6h8a6 6 0 0 1 6 6v7.27a6 6 0 0 1-6 6h-8a6 6 0 0 1-6-6z" stroke="#000" fill="#cfe4ff"/><path d="M1349.6 372.74c0 2.48-2.22 4.5-5 4.5-2.75 0-5-2.02-5-4.5s2.25-4.5 5-4.5c2.78 0 5 2.02 5 4.5z" stroke="#000"/><path d="M1302.25 369.1a6 6 0 0 1 6-6h8a6 6 0 0 1 6 6v7.27a6 6 0 0 1-6 6h-8a6 6 0 0 1-6-6z" stroke="#000" fill="#cfe4ff"/><path d="M1317.25 372.74c0 2.48-2.24 4.5-5 4.5s-5-2.02-5-4.5 2.24-4.5 5-4.5 5 2.02 5 4.5z" stroke="#000"/><path d="M1035.3 363.6a6 6 0 0 1 6-6h85.72a6 6 0 0 1 6 6v13.77a6 6 0 0 1-6 6h-85.7a6 6 0 0 1-6-6z" stroke="#000" fill="#00c2a8"/><path d="M1042.02 366.87a6 6 0 0 1 6-6h8a6 6 0 0 1 6 6v7.25a6 6 0 0 1-6 6h-8a6 6 0 0 1-6-6z" stroke="#000" fill="#cfe4ff"/><path d="M1057.02 370.5c0 2.48-2.24 4.5-5 4.5s-5-2.02-5-4.5c0-2.5 2.24-4.5 5-4.5s5 2 5 4.5z" stroke="#000"/><path d="M1106.53 366.87a6 6 0 0 1 6-6h8a6 6 0 0 1 6 6v7.25a6 6 0 0 1-6 6h-8a6 6 0 0 1-6-6z" stroke="#000" fill="#cfe4ff"/><path d="M1121.53 370.5c0 2.48-2.24 4.5-5 4.5s-5-2.02-5-4.5c0-2.5 2.24-4.5 5-4.5s5 2 5 4.5z" stroke="#000"/><path d="M1074.17 366.87a6 6 0 0 1 6-6h8a6 6 0 0 1 6 6v7.25a6 6 0 0 1-6 6h-8a6 6 0 0 1-6-6z" stroke="#000" fill="#cfe4ff"/><path d="M1089.17 370.5c0 2.48-2.24 4.5-5 4.5-2.77 0-5-2.02-5-4.5 0-2.5 2.23-4.5 5-4.5 2.76 0 5 2 5 4.5z" stroke="#000"/><path d="M1088.45 275.4l-.37 5.82-1.22 6.36-1.84 5.62-2.26 4.75-2.52 3.93-2.68 3.2-2.8 2.57-.28.2" stroke="#000" stroke-width="2" stroke-linejoin="round" fill="none"/><path d="M1088.48 274.4l1.05-.14-.08 1.23-2-.13.08-1.24z" stroke="#000" stroke-width=".05"/><path d="M1060.37 312.7l12-9 3 8.76z" stroke="#000" stroke-width="2" fill="#fff"/><path d="M1040.37 319.74l.32 5.34.9 4.58 1.52 4.48 2.1 5.13" stroke="#000" stroke-width="2" stroke-linejoin="round" fill="none"/><path d="M1040.27 318.75l1.03-.15.07 1.1-2 .13-.08-1.37z" stroke="#000" stroke-width=".05"/><path d="M1048.62 353.96l-7.73-12.85 9.02-2.08z" stroke="#000" stroke-width="2" fill="#fff"/><path d="M1267.5 319.24l.25 4.13.7 3.92 1.1 3.42 1.66 3.67 4.08 7.4" stroke="#000" stroke-width="2" stroke-linejoin="round" fill="none"/><path d="M1267.4 318.25l1.04-.15.07 1.1-2 .13-.07-1.37z" stroke="#000" stroke-width=".05"/><path d="M1279.3 356.24l-8.3-12.5 8.94-2.5z" stroke="#000" stroke-width="2" fill="#fff"/><path d="M1294.6 425.35a6 6 0 0 1 6-6h28a6 6 0 0 1 6 6v6a6 6 0 0 1-6 6h-28a6 6 0 0 1-6-6z" fill="none"/><use xlink:href="#j" transform="matrix(1,0,0,1,1294.613574084644,419.35358898202537) translate(2.713333333333342 15.719999999999995)"/><path d="M1064.17 409.37a6 6 0 0 1 6-6h28a6 6 0 0 1 6 6v6a6 6 0 0 1-6 6h-28a6 6 0 0 1-6-6z" fill="none"/><use xlink:href="#j" transform="matrix(1,0,0,1,1064.1663376076738,403.3726396056457) translate(2.713333333333342 15.719999999999995)"/><path d="M1177.45 362.5a6 6 0 0 1 6-6h28a6 6 0 0 1 6 6v6a6 6 0 0 1-6 6h-28a6 6 0 0 1-6-6z" fill="none"/><use xlink:href="#j" transform="matrix(1,0,0,1,1177.4507962786695,356.4882436333579) translate(2.713333333333342 15.719999999999995)"/><path d="M945.8 370.04a6 6 0 0 1 6-6h28a6 6 0 0 1 6 6v6a6 6 0 0 1-6 6h-28a6 6 0 0 1-6-6z" fill="none"/><use xlink:href="#j" transform="matrix(1,0,0,1,945.8031130455752,364.0422018601511) translate(2.713333333333342 15.719999999999995)"/><path d="M975.75 319.74l-.6 12.72-1.43 13.2" stroke="#000" stroke-width="2" stroke-linejoin="round" fill="none"/><path d="M975.77 318.75l1.04-.15-.05 1.22-2-.1.07-1.25z" stroke="#000" stroke-width=".05"/><path d="M972.08 360.82L969 346.14l9.22 1z" stroke="#000" stroke-width="2" fill="#fff"/><path d="M1202.88 324.37l-.56 8.27-.92 5.6" stroke="#000" stroke-width="2" stroke-linejoin="round" fill="none"/><path d="M1203.87 324.46l-2-.13.07-.96h2z" stroke="#000" stroke-width=".05"/><path d="M1198.92 353.3l-2.25-14.83 9.14 1.5z" stroke="#000" stroke-width="2" fill="#fff"/><path d="M1280.17 378.74l.08 1.5.4 2.2.63 2.03.88 1.96 1.2 2 1.68 2.15 2.64 2.64 12.97 10.5" stroke="#000" stroke-width="2" stroke-linejoin="round" fill="none"/><path d="M1280.07 377.74l1.03-.15.07 1.1-2 .12-.08-1.37z" stroke="#000" stroke-width=".05"/><path d="M1307.5 416.5l-10.82-10.38 8.17-4.38z" stroke="#000" stroke-width="2" fill="#fff"/><path d="M1344.56 378.74l-.1 1.87-.46 2.48-.7 2.25-.96 2.16-1.32 2.18-1.92 2.46-3.55 3.52-8.28 7.47" stroke="#000" stroke-width="2" stroke-linejoin="round" fill="none"/><path d="M1344.58 377.74l1.04-.15-.07 1.22-2-.12.08-1.24z" stroke="#000" stroke-width=".05"/><path d="M1321.1 416.42l1.8-14.9 8.42 3.9z" stroke="#000" stroke-width="2" fill="#fff"/><path d="M1052.1 376.5l.08.74.43 1.57.76 1.56 1.22 1.67 2.12 2 5.24 3.34 5.95 3.34" stroke="#000" stroke-width="2" stroke-linejoin="round" fill="none"/><path d="M1052 375.5l1-.15.1 1.08-1.98.17-.13-1.4z" stroke="#000" stroke-width=".05"/><path d="M1077.67 401.02l-13.18-7.15 6.72-6.38z" stroke="#000" stroke-width="2" fill="#fff"/><path d="M1116.44 376.5l-.06.74-.44 1.57-.75 1.56-1.22 1.67-2.13 2-5.24 3.34-5.94 3.34" stroke="#000" stroke-width="2" stroke-linejoin="round" fill="none"/><path d="M1116.5 375.5l1.05-.15-.1 1.25-2-.17.1-1.2z" stroke="#000" stroke-width=".05"/><path d="M1090.88 401.02l6.45-13.53 6.73 6.37z" stroke="#000" stroke-width="2" fill="#fff"/><path d="M1153.1 280.53l.33 4.48 1.15 5.13 1.84 4.72 2.44 4.27 2.97 3.78 3.44 3.24 2.93 2.03" stroke="#000" stroke-width="2" stroke-linejoin="round" fill="none"/><path d="M1154.1 280.48l-2 .15-.08-1.1h2z" stroke="#000" stroke-width=".05"/><path d="M1182.62 312.35l-15 .48 2.6-8.9z" stroke="#000" stroke-width="2" fill="#fff"/><path d="M1023.77 370.5a.75.75 0 0 1 .75-.76h117a.75.75 0 0 1 .75.75.75.75 0 0 1-.75.74h-117a.75.75 0 0 1-.75-.75z" stroke="#e81313" stroke-width="1.5" fill="none"/><path d="M1250.75 373.5a.75.75 0 0 1 .75-.76h121.6a.75.75 0 0 1 .76.75.75.75 0 0 1-.75.74h-121.6a.75.75 0 0 1-.75-.75z" stroke="#fc9432" stroke-width="1.5" fill="none"/><path d="M948.7 315.22a.75.75 0 0 1 .75-.75h117a.75.75 0 0 1 .75.75.75.75 0 0 1-.75.75h-117a.75.75 0 0 1-.75-.75z" stroke="#635dff" stroke-width="1.5" fill="none"/><path d="M1175.84 315.22a.75.75 0 0 1 .75-.75h121.9a.75.75 0 0 1 .75.75.75.75 0 0 1-.75.75h-121.9a.75.75 0 0 1-.76-.75z" stroke="#fcce14" stroke-width="1.5" fill="none"/><path d="M1063.13 269.72a.75.75 0 0 1 .74-.75h117a.75.75 0 0 1 .76.75.75.75 0 0 1-.76.75h-117a.75.75 0 0 1-.74-.75z" stroke="#ffd9d9" stroke-width="1.5" fill="none"/><path d="M907.08 310.7a6 6 0 0 1 6-6h26.72a6 6 0 0 1 6 6v7a6 6 0 0 1-6 6h-26.72a6 6 0 0 1-6-6z" fill="none"/><use xlink:href="#k" transform="matrix(1,0,0,1,907.0789213070417,304.69163362979555) translate(7.761111111111118 15.12222222222222)"/><path d="M992.65 380.5a6 6 0 0 1 6-6h26.73a6 6 0 0 1 6 6v7a6 6 0 0 1-6 6h-26.73a6 6 0 0 1-6-6z" fill="none"/><use xlink:href="#l" transform="matrix(1,0,0,1,992.6510957367649,374.48824363335797) translate(9.672222222222228 15.12222222222222)"/><path d="M1374.6 369.03a6 6 0 0 1 6-6h26.74a6 6 0 0 1 6 6v7a6 6 0 0 1-6 6h-26.73a6 6 0 0 1-6-6z" fill="none"/><use xlink:href="#m" transform="matrix(1,0,0,1,1374.613574084644,363.0343876186358) translate(7.277777777777786 15.12222222222222)"/><path d="M1302.25 310.9a6 6 0 0 1 6-6h26.72a6 6 0 0 1 6 6v7.02a6 6 0 0 1-6 6h-26.72a6 6 0 0 1-6-6z" fill="none"/><use xlink:href="#n" transform="matrix(1,0,0,1,1302.250449522543,304.90793588020193) translate(7.600000000000007 15.12222222222222)"/><path d="M1186.36 266.02a6 6 0 0 1 6-6h26.73a6 6 0 0 1 6 6v7a6 6 0 0 1-6 6h-26.74a6 6 0 0 1-6-6z" fill="none"/><use xlink:href="#o" transform="matrix(1,0,0,1,1186.363479978035,260.0241814521463) translate(6.611111111111118 15.12222222222222)"/><path d="M1361.1 294.3a6 6 0 0 1 6-6h93a6 6 0 0 0 6-6v-16.52a3.06 3.06 0 0 1 4.86-2.47l45.3 32.95a4.36 4.36 0 0 1 0 7.06l-45.3 32.95a3.06 3.06 0 0 1-4.85-2.47v-16.53a6 6 0 0 0-6-6h-93a6 6 0 0 1-6-6z" fill-opacity="0"/><path d="M1362.1 294.3c0 .55-.44 1-1 1-.54 0-1-.45-1-1s.46-1 1-1c.56 0 1 .45 1 1zm1.76-4.24c0 .55-.44 1-1 1-.55 0-1-.45-1-1s.45-1 1-1c.56 0 1 .45 1 1zm4.25-1.76c0 .55-.44 1-1 1-.54 0-1-.45-1-1s.46-1 1-1c.56 0 1 .45 1 1zm4.05 0c0 .55-.45 1-1 1s-1-.45-1-1 .45-1 1-1 1 .45 1 1zm4.04 0c0 .55-.45 1-1 1-.56 0-1-.45-1-1s.44-1 1-1c.55 0 1 .45 1 1zm4.04 0c0 .55-.45 1-1 1-.56 0-1-.45-1-1s.44-1 1-1c.55 0 1 .45 1 1zm4.04 0c0 .55-.45 1-1 1s-1-.45-1-1 .45-1 1-1 1 .45 1 1zm4.04 0c0 .55-.44 1-1 1-.55 0-1-.45-1-1s.45-1 1-1c.56 0 1 .45 1 1zm4.05 0c0 .55-.45 1-1 1s-1-.45-1-1 .45-1 1-1 1 .45 1 1zm4.04 0c0 .55-.44 1-1 1-.54 0-1-.45-1-1s.46-1 1-1c.56 0 1 .45 1 1zm4.05 0c0 .55-.44 1-1 1-.55 0-1-.45-1-1s.45-1 1-1c.56 0 1 .45 1 1zm4.05 0c0 .55-.45 1-1 1s-1-.45-1-1 .45-1 1-1 1 .45 1 1zm4.04 0c0 .55-.45 1-1 1s-1-.45-1-1 .45-1 1-1 1 .45 1 1zm4.05 0c0 .55-.46 1-1 1-.57 0-1-.45-1-1s.43-1 1-1c.54 0 1 .45 1 1zm4.03 0c0 .55-.45 1-1 1s-1-.45-1-1 .45-1 1-1 1 .45 1 1zm4.04 0c0 .55-.45 1-1 1s-1-.45-1-1 .45-1 1-1 1 .45 1 1zm4.05 0c0 .55-.45 1-1 1-.56 0-1-.45-1-1s.44-1 1-1c.55 0 1 .45 1 1zm4.04 0c0 .55-.45 1-1 1s-1-.45-1-1 .45-1 1-1 1 .45 1 1zm4.04 0c0 .55-.44 1-1 1-.55 0-1-.45-1-1s.45-1 1-1c.56 0 1 .45 1 1zm4.05 0c0 .55-.45 1-1 1-.56 0-1-.45-1-1s.44-1 1-1c.55 0 1 .45 1 1zm4.04 0c0 .55-.46 1-1 1-.56 0-1-.45-1-1s.44-1 1-1c.54 0 1 .45 1 1zm4.03 0c0 .55-.45 1-1 1s-1-.45-1-1 .45-1 1-1 1 .45 1 1zm4.05 0c0 .55-.45 1-1 1-.56 0-1-.45-1-1s.44-1 1-1c.55 0 1 .45 1 1zm4.04 0c0 .55-.45 1-1 1s-1-.45-1-1 .45-1 1-1 1 .45 1 1zm4.04 0c0 .55-.44 1-1 1-.55 0-1-.45-1-1s.45-1 1-1c.56 0 1 .45 1 1zm4.05 0c0 .55-.44 1-1 1-.54 0-1-.45-1-1s.46-1 1-1c.56 0 1 .45 1 1zm4.25-1.76c0 .56-.45 1-1 1s-1-.44-1-1c0-.55.45-1 1-1s1 .45 1 1zm1.76-4.24c0 .55-.44 1-1 1-.54 0-1-.45-1-1s.46-1 1-1c.56 0 1 .45 1 1zm0-4.13c0 .55-.44 1-1 1-.54 0-1-.45-1-1s.46-1 1-1c.56 0 1 .45 1 1zm0-4.13c0 .55-.44 1-1 1-.54 0-1-.45-1-1s.46-1 1-1c.56 0 1 .45 1 1zm0-4.13c0 .56-.44 1-1 1-.54 0-1-.44-1-1 0-.54.46-1 1-1 .56 0 1 .46 1 1zm0-4.12c0 .55-.44 1-1 1-.54 0-1-.45-1-1 0-.56.46-1 1-1 .56 0 1 .44 1 1zm1.68-2.73c0 .56-.45 1-1 1-.56 0-1-.44-1-1 0-.55.44-1 1-1 .55 0 1 .45 1 1zm3.18.25c0 .56-.45 1-1 1s-1-.44-1-1c0-.55.45-1 1-1s1 .45 1 1zm3.23 2.36c0 .55-.45 1-1 1-.56 0-1-.45-1-1s.44-1 1-1c.55 0 1 .45 1 1zm3.23 2.35c0 .56-.45 1-1 1s-1-.44-1-1c0-.54.45-1 1-1s1 .46 1 1zm3.24 2.36c0 .56-.45 1-1 1-.56 0-1-.44-1-1 0-.55.44-1 1-1 .55 0 1 .45 1 1zm3.23 2.36c0 .55-.45 1-1 1s-1-.45-1-1c0-.56.45-1 1-1s1 .44 1 1zm3.24 2.35c0 .55-.45 1-1 1-.56 0-1-.45-1-1s.44-1 1-1c.55 0 1 .45 1 1zm3.23 2.35c0 .56-.45 1-1 1s-1-.44-1-1c0-.55.45-1 1-1s1 .45 1 1zm3.24 2.36c0 .55-.44 1-1 1-.54 0-1-.45-1-1 0-.56.46-1 1-1 .56 0 1 .44 1 1zm3.24 2.35c0 .55-.44 1-1 1-.55 0-1-.45-1-1s.45-1 1-1c.56 0 1 .45 1 1zm3.24 2.35c0 .56-.45 1-1 1s-1-.44-1-1c0-.55.45-1 1-1s1 .45 1 1zm3.23 2.35c0 .56-.43 1-1 1-.54 0-1-.44-1-1 0-.55.46-1 1-1 .57 0 1 .45 1 1zm3.25 2.36c0 .54-.45 1-1 1s-1-.46-1-1c0-.56.45-1 1-1s1 .44 1 1zm3.23 2.34c0 .55-.44 1-1 1-.55 0-1-.45-1-1s.45-1 1-1c.56 0 1 .45 1 1zm3.24 2.35c0 .55-.45 1-1 1s-1-.45-1-1c0-.56.45-1 1-1s1 .44 1 1zm3.24 2.35c0 .55-.45 1-1 1-.56 0-1-.45-1-1 0-.56.44-1 1-1 .55 0 1 .44 1 1zm1.8 3.53c0 .55-.46 1-1 1-.56 0-1-.45-1-1 0-.56.44-1 1-1 .54 0 1 .44 1 1zm-1.8 3.53c0 .56-.45 1-1 1-.56 0-1-.44-1-1 0-.55.44-1 1-1 .55 0 1 .45 1 1zm-3.24 2.36c0 .55-.45 1-1 1s-1-.45-1-1 .45-1 1-1 1 .45 1 1zm-3.24 2.35c0 .56-.44 1-1 1-.55 0-1-.44-1-1 0-.54.45-1 1-1 .56 0 1 .46 1 1zm-3.23 2.36c0 .56-.45 1-1 1s-1-.44-1-1c0-.55.45-1 1-1s1 .45 1 1zm-3.24 2.36c0 .55-.43 1-1 1-.54 0-1-.45-1-1 0-.56.46-1 1-1 .57 0 1 .44 1 1zm-3.22 2.35c0 .55-.45 1-1 1s-1-.45-1-1 .45-1 1-1 1 .45 1 1zm-3.24 2.35c0 .56-.44 1-1 1-.55 0-1-.44-1-1 0-.55.45-1 1-1 .56 0 1 .45 1 1zm-3.23 2.36c0 .55-.44 1-1 1-.54 0-1-.45-1-1 0-.56.46-1 1-1 .56 0 1 .44 1 1zm-3.23 2.35c0 .55-.45 1-1 1s-1-.45-1-1 .45-1 1-1 1 .45 1 1zm-3.23 2.35c0 .56-.45 1-1 1-.56 0-1-.44-1-1 0-.55.44-1 1-1 .55 0 1 .45 1 1zm-3.24 2.35c0 .56-.45 1-1 1s-1-.44-1-1c0-.55.45-1 1-1s1 .45 1 1zm-3.23 2.36c0 .54-.45 1-1 1-.56 0-1-.46-1-1 0-.56.44-1 1-1 .55 0 1 .44 1 1zm-3.24 2.34c0 .55-.45 1-1 1s-1-.45-1-1 .45-1 1-1 1 .45 1 1zm-3.24 2.35c0 .55-.45 1-1 1-.56 0-1-.45-1-1 0-.56.44-1 1-1 .55 0 1 .44 1 1zm-3.24 2.35c0 .55-.45 1-1 1s-1-.45-1-1c0-.56.45-1 1-1s1 .44 1 1zm-3.18.25c0 .55-.45 1-1 1-.56 0-1-.45-1-1s.44-1 1-1c.55 0 1 .45 1 1zm-1.67-2.72c0 .55-.44 1-1 1-.54 0-1-.45-1-1 0-.56.46-1 1-1 .56 0 1 .44 1 1zm0-4.13c0 .55-.44 1-1 1-.54 0-1-.45-1-1 0-.56.46-1 1-1 .56 0 1 .44 1 1zm0-4.14c0 .57-.44 1-1 1-.54 0-1-.43-1-1 0-.54.46-1 1-1 .56 0 1 .46 1 1zm0-4.12c0 .55-.44 1-1 1-.54 0-1-.45-1-1s.46-1 1-1c.56 0 1 .45 1 1zm0-4.13c0 .55-.44 1-1 1-.54 0-1-.45-1-1s.46-1 1-1c.56 0 1 .45 1 1zm-1.75-4.24c0 .56-.45 1-1 1s-1-.44-1-1c0-.54.45-1 1-1s1 .46 1 1zm-4.24-1.75c0 .55-.44 1-1 1-.54 0-1-.45-1-1s.46-1 1-1c.56 0 1 .45 1 1zm-4.04 0c0 .55-.44 1-1 1-.55 0-1-.45-1-1s.45-1 1-1c.56 0 1 .45 1 1zm-4.04 0c0 .55-.45 1-1 1s-1-.45-1-1 .45-1 1-1 1 .45 1 1zm-4.04 0c0 .55-.45 1-1 1-.56 0-1-.45-1-1s.44-1 1-1c.55 0 1 .45 1 1zm-4.05 0c0 .55-.45 1-1 1s-1-.45-1-1 .45-1 1-1 1 .45 1 1zm-4.04 0c0 .55-.46 1-1 1-.56 0-1-.45-1-1s.44-1 1-1c.54 0 1 .45 1 1zm-4.05 0c0 .55-.45 1-1 1-.56 0-1-.45-1-1s.44-1 1-1c.55 0 1 .45 1 1zm-4.05 0c0 .55-.44 1-1 1-.55 0-1-.45-1-1s.45-1 1-1c.56 0 1 .45 1 1zm-4.04 0c0 .55-.45 1-1 1s-1-.45-1-1 .45-1 1-1 1 .45 1 1zm-4.04 0c0 .55-.45 1-1 1-.56 0-1-.45-1-1s.44-1 1-1c.55 0 1 .45 1 1zm-4.05 0c0 .55-.45 1-1 1s-1-.45-1-1 .45-1 1-1 1 .45 1 1zm-4.04 0c0 .55-.45 1-1 1s-1-.45-1-1 .45-1 1-1 1 .45 1 1zm-4.05 0c0 .55-.44 1-1 1-.55 0-1-.45-1-1s.45-1 1-1c.56 0 1 .45 1 1zm-4.04 0c0 .55-.45 1-1 1s-1-.45-1-1 .45-1 1-1 1 .45 1 1zm-4.04 0c0 .55-.45 1-1 1s-1-.45-1-1 .45-1 1-1 1 .45 1 1zm-4.05 0c0 .55-.44 1-1 1-.55 0-1-.45-1-1s.45-1 1-1c.56 0 1 .45 1 1zm-4.04 0c0 .55-.44 1-1 1-.54 0-1-.45-1-1s.46-1 1-1c.56 0 1 .45 1 1zm-4.03 0c0 .55-.45 1-1 1s-1-.45-1-1 .45-1 1-1 1 .45 1 1zm-4.05 0c0 .55-.44 1-1 1-.55 0-1-.45-1-1s.45-1 1-1c.56 0 1 .45 1 1zm-4.04 0c0 .55-.45 1-1 1s-1-.45-1-1 .45-1 1-1 1 .45 1 1zm-4.04 0c0 .55-.45 1-1 1-.56 0-1-.45-1-1s.44-1 1-1c.55 0 1 .45 1 1zm-4.05 0c0 .55-.45 1-1 1-.56 0-1-.45-1-1s.44-1 1-1c.55 0 1 .45 1 1zm-4.05 0c0 .55-.45 1-1 1s-1-.45-1-1 .45-1 1-1 1 .45 1 1zm-4.04 0c0 .55-.44 1-1 1-.54 0-1-.45-1-1s.46-1 1-1c.56 0 1 .45 1 1zm-4.24-1.76c0 .55-.44 1-1 1-.55 0-1-.45-1-1 0-.56.45-1 1-1 .56 0 1 .44 1 1zm-1.75-4.25c0 .55-.44 1-1 1-.54 0-1-.45-1-1s.46-1 1-1c.56 0 1 .45 1 1zm0-3.65c0 .55-.44 1-1 1-.54 0-1-.45-1-1s.46-1 1-1c.56 0 1 .45 1 1zm0-3.65c0 .55-.44 1-1 1-.54 0-1-.45-1-1s.46-1 1-1c.56 0 1 .45 1 1z" fill="#d916a8"/><path d="M1521.1 204.53a6 6 0 0 1 6-6h168a6 6 0 0 1 6 6v28a6 6 0 0 1-6 6h-168a6 6 0 0 1-6-6z" fill="none"/><use xlink:href="#a" transform="matrix(1,0,0,1,1521.1070826295074,198.53524899418954) translate(54.63333333333333 30.244444444444444)"/><path d="M1710.1 204.53a6 6 0 0 1 6-6h168a6 6 0 0 1 6 6v28a6 6 0 0 1-6 6h-168a6 6 0 0 1-6-6z" fill="none"/><use xlink:href="#b" transform="matrix(1,0,0,1,1710.1071826295051,198.53524899418954) translate(63.8 30.244444444444444)"/><path d="M1700.1 199.03a.5.5 0 0 1 .5.5v220.84a.5.5 0 0 1-.5.5.5.5 0 0 1-.5-.5V199.53a.5.5 0 0 1 .5-.5z" stroke="#6f7681" fill="none"/><path d="M1553.8 239.53a.5.5 0 0 1 .5-.5h398.96a.5.5 0 0 1 .5.5.5.5 0 0 1-.5.5H1554.3a.5.5 0 0 1-.5-.5z" stroke="#6f7681" fill="none"/><path d="M1610.1 284.54a6 6 0 0 1 6-6h28a6 6 0 0 1 6 6v28a6 6 0 0 1-6 6h-28a6 6 0 0 1-6-6z" stroke="#000" fill="#cfe4ff"/><path d="M1640.1 298.54c0 5.52-4.47 10-10 10-5.52 0-10-4.48-10-10 0-5.53 4.48-10 10-10 5.53 0 10 4.47 10 10z" stroke="#000"/><path d="M1570.1 255.53a6 6 0 0 1 6-6h108a6 6 0 0 1 6 6v18a6 6 0 0 1-6 6h-108a6 6 0 0 1-6-6z" fill="none"/><use xlink:href="#c" transform="matrix(1,0,0,1,1570.1069826295095,249.53524899418954) translate(45.48444444444445 19.09777777777778)"/><path d="M1739.1 274.54a6 6 0 0 1 6-6h148a6 6 0 0 1 6 6v48a6 6 0 0 1-6 6h-148a6 6 0 0 1-6-6z" stroke="#000" fill="#cfe4ff"/><path d="M1749.6 283.64a6 6 0 0 1 6-6h28a6 6 0 0 1 6 6v28a6 6 0 0 1-6 6h-28a6 6 0 0 1-6-6z" stroke="#000" fill="#b8f5ed"/><use xlink:href="#p" transform="matrix(1,0,0,1,1754.6004911743732,282.64209388600364) translate(8.827160493827162 19.65277777777778)"/><path d="M1799.1 283.52a6 6 0 0 1 6-6h28a6 6 0 0 1 6 6v28a6 6 0 0 1-6 6h-28a6 6 0 0 1-6-6zM1848.6 283.52a6 6 0 0 1 6-6h28a6 6 0 0 1 6 6v28a6 6 0 0 1-6 6h-28a6 6 0 0 1-6-6z" stroke="#000" fill="#b8f5ed"/><path d="M1829.1 296.93c0 5.52-4.47 10-10 10-5.52 0-10-4.48-10-10 0-5.53 4.48-10 10-10 5.53 0 10 4.47 10 10zM1879.1 296.93c0 5.52-4.47 10-10 10-5.52 0-10-4.48-10-10 0-5.53 4.48-10 10-10 5.53 0 10 4.47 10 10z" stroke="#000"/><path d="M1641.6 298.54h78.5" stroke="#000" stroke-width="2" stroke-linejoin="round" fill="none"/><path d="M1641.64 299.54h-1.16l.13-1-.12-1h1.16z" stroke="#000" stroke-width=".05"/><path d="M1735.37 298.54l-14.26 4.63v-9.27z" stroke="#000" stroke-width="2" fill="#fff"/><path d="M1759.1 246.53a6 6 0 0 1 6-6h108a6 6 0 0 1 6 6v18a6 6 0 0 1-6 6h-108a6 6 0 0 1-6-6z" fill="none"/><g><use xlink:href="#e" transform="matrix(1,0,0,1,1759.1070826295074,240.53524899418954) translate(32.47111111111113 19.09777777777778)"/><use xlink:href="#f" transform="matrix(1,0,0,1,1759.1070826295074,240.53524899418954) translate(70.88 19.09777777777778)"/></g><path d="M1725.75 300.54a1.75 1.75 0 0 1 1.75-1.75h190.1a1.75 1.75 0 0 1 1.76 1.74 1.75 1.75 0 0 1-1.75 1.75h-190.1a1.75 1.75 0 0 1-1.75-1.76z" stroke="#e81313" stroke-width="3.5" fill="none"/><defs><path fill="#6f7681" d="M371-533c189 0 256 55 239 237-9 91-67 138-157 205C374-33 301-7 236-7 155-7 13-82 18-160c3-44 62-73 96-38 43 44 152 73 218 29 77-51 166-125 156-169 2-44-67-63-119-62-47 1-108 1-155 3C87-393 13-429 1-531c11-87 101-150 165-187 90-52 160-96 290-87 34 2 118 78 115 115-3 35-23 38-55 45-15 4-26-4-33-24-37-64-116-1-164 12-41 11-154 77-154 113 0 15 14 22 41 22 45 0 127-11 165-11" id="q"/><path fill="#6f7681" d="M382-556c-3 158-18 304-18 470 0 31 6 72-21 86-20 35-87 21-104-6-1-188 14-367 23-549 1-24 13-80-17-80-77 0-131 31-210 31-15-10-43-18-33-45 0-82 83-94 148-109 103-23 215-12 315-40 43-12 91-17 142-23 62-8 95 53 77 116-8 28-47 14-75 18-68 9-134 10-195 30-32 11-31 60-32 101" id="r"/><path fill="#6f7681" d="M103-24C79 10-2-14 8-59c42-186 129-353 193-524 23-62 63-135 99-197 39-38 106-10 109 47 27 100 51 209 81 307 8 25 72 24 72 63 0 44-26 46-37 75 12 83 46 156 55 243 7 63-106 47-114 11-13-58-36-170-57-231-3-4-7-8-9-14-69 4-134 40-198 52-53 21-53 108-81 160-4 16-8 29-18 43zm215-551c-16 18-92 195-73 208 46 2 100-12 123-31-5-30-32-162-38-171-2-3-6-5-12-6" id="s"/><path fill="#6f7681" d="M521-275c40-33 108-24 108 34 0 49-75 103-210 183-80 47-247 72-323 10-66-54-95-101-82-218 12-106 41-136 91-224 55-96 145-209 240-278 32-23 68-33 107-33 86 2 108 61 107 158 0 55-15 82-44 82-55 1-25-116-79-110-132 15-229 223-291 334-48 86-31 226 81 218 122-9 217-92 295-156" id="t"/><path fill="#6f7681" d="M583 1c26 5 52-17 51-41 24-60-22-103-43-144-74-69-132-138-184-228-37-64 44-88 81-120 65-56 138-104 195-168 35-39 5-108-40-113-66 17-104 68-150 105-81 65-158 127-245 187-18 12-48 33-70 13-6-6-8-14-7-23 3-63 18-122 28-181-3-53-39-88-92-91-82 12-51 140-71 216 1 133-13 257-20 381-3 58-27 167 27 193 35 29 78-2 98-20 30-59 16-164 24-251 3-31 38-61 73-59 78 41 118 121 174 184 38 44 71 96 112 139 15 15 32 34 59 21" id="u"/><g id="a"><use transform="matrix(0.022222222222222223,0,0,0.022222222222222223,0,0)" xlink:href="#q"/><use transform="matrix(0.022222222222222223,0,0,0.022222222222222223,12.666666666666668,0)" xlink:href="#r"/><use transform="matrix(0.022222222222222223,0,0,0.022222222222222223,27.91111111111111,0)" xlink:href="#s"/><use transform="matrix(0.022222222222222223,0,0,0.022222222222222223,40.955555555555556,0)" xlink:href="#t"/><use transform="matrix(0.022222222222222223,0,0,0.022222222222222223,55.044444444444444,0)" xlink:href="#u"/></g><path fill="#6f7681" d="M107-780c100 15 51 176 51 272 0 29 23 25 56 24 33-11 175 4 171-42 9-67 4-153 14-224 12-14 39-57 70-50 51 0 74 34 69 103L490-47c-6 28-25 57-57 56-118-5-54-182-54-299 0-34 3-75-15-85-65 6-127 12-191 19-52 29-23 162-29 239C135-7 87 19 22-30 10-48 7-67 13-88c-16-100 8-215 8-322 0-127-9-364 86-370" id="v"/><path fill="#6f7681" d="M330-158c82-22 193-18 286-31 38 11 58 81 24 113-25 24-71 25-116 25-135 0-238 34-358 47C61 7 4-52 15-159c12-113 37-213 32-340-2-59 2-121-2-178-2-44 35-62 81-61 104-31 222-52 345-64 68-7 103 34 111 94 2 12-3 22-9 31-33 14-62 15-103 16-100 2-196 10-270 40h-8c-18 23-11 79-15 106-1 13 5 22 16 25 82-10 176-25 264-12 44 7 78 26 71 72-7 49-76 30-125 30-78 0-138 22-210 29-24 1-35 28-36 52-2 41-10 83-8 126-19 84 122 51 181 35" id="w"/><path fill="#6f7681" d="M23-677c-68-88 127-122 212-122 113 0 253 24 291 82 92 144-48 310-153 365-52 27-102 48-161 69-56 20-53 15-58 80-4 49-8 103-13 153-3 31-19 46-43 46-44 0-65-28-63-81 5-162 8-330 16-486 3-53-4-75-28-106zm415 73c0-44-44-66-132-66-78 0-124 8-135 26-10 16-14 89-14 218 0 44 22 39 57 25 83-34 224-115 224-203" id="x"/><g id="b"><use transform="matrix(0.022222222222222223,0,0,0.022222222222222223,0,0)" xlink:href="#v"/><use transform="matrix(0.022222222222222223,0,0,0.022222222222222223,12.022222222222222,0)" xlink:href="#w"/><use transform="matrix(0.022222222222222223,0,0,0.022222222222222223,26.822222222222223,0)" xlink:href="#s"/><use transform="matrix(0.022222222222222223,0,0,0.022222222222222223,39.86666666666667,0)" xlink:href="#x"/></g><path fill="#6f7681" d="M608-642l-20 77c-36 56-69 94-113 138-49 48-58 40-29 81 33 46 69 89 97 147 44 89 52 141 40 147-3 38-20 49-63 52-68 5-97-106-129-160-40-68-56-162-144-164-53-1-27 78-45 121-7 56-12 123-28 170C157-4 113 24 66-1 46-11 40-39 49-87c19-111 19-139 19-313 0-144 1-187-40-242-27-37-13-94 26-108 103-36 250-59 389-41 63 8 182 85 165 149zm-140 11c-10-39-42-58-96-57-53 12-154 21-179 43-5 9-8 31-8 65 0 151 19 135 127 94 94-36 148-79 156-145" id="y"/><path fill="#6f7681" d="M68-174c-8-157-1-333-1-488 0-23-21-28-12-60 24-87 141-85 256-77 161 12 317 42 251 258-5 17-40 45-44 60 15 30 85 80 98 123 62 108 25 192-76 258C455-45 341-9 207-4 145-2 19-30 19-85c0-36 51-41 49-89zm137-510c-18 6-26 137-16 192 30 22 66 2 112-6 70-13 158-95 159-132 17-68-169-82-255-54zm-15 330c-15 57-2 155 5 215 6 4 6 12 18 11 101-5 211-32 267-82 52-46 58-91 12-140s-73-73-81-73c-39 14-121 48-173 54-15 2-34 14-48 15" id="z"/><path fill="#6f7681" d="M44-443c79-191 208-366 448-366 141 0 239 118 267 253 46 222-61 413-213 490-83 42-221 78-338 30-55-23-106-43-129-82-26-14-80-140-57-202 2-41 8-89 22-123zm103 115c1 136 75 191 208 191 130 0 180-50 241-135 38-53 55-111 55-169 0-109-73-236-179-227-143 12-260 151-311 271-9 24-14 47-14 69" id="A"/><path fill="#6f7681" d="M21-302C-7-136 9 24 196-12c147-28 263-93 386-142 57-23 26-120-26-120-111 32-240 115-378 126-13 1-22-26-25-45 30-174 59-350 88-524 10-62-86-124-120-61-39 73-49 196-69 277-19 77-22 145-31 199" id="B"/><g id="c"><use transform="matrix(0.008888888888888884,0,0,0.008888888888888884,0,0)" xlink:href="#s"/><use transform="matrix(0.008888888888888884,0,0,0.008888888888888884,5.2177777777777745,0)" xlink:href="#y"/><use transform="matrix(0.008888888888888884,0,0,0.008888888888888884,10.711111111111105,0)" xlink:href="#z"/><use transform="matrix(0.008888888888888884,0,0,0.008888888888888884,16.426666666666655,0)" xlink:href="#A"/><use transform="matrix(0.008888888888888884,0,0,0.008888888888888884,23.56444444444443,0)" xlink:href="#B"/></g><path d="M54-142c48-35 137-8 131 61C196 18 31 33 14-55l32-4c7 23 22 37 52 37 35-1 51-22 54-58 4-55-73-65-99-34H22l8-134h141v27H59" id="C"/><use transform="matrix(0.06172839506172839,0,0,0.06172839506172839,0,0)" xlink:href="#C" id="d"/><path fill="#6f7681" d="M371-533c189 0 256 55 239 237-9 91-67 138-157 205C374-33 301-7 236-7 155-7 13-82 18-160c3-44 62-73 96-38 43 44 152 73 218 29 77-51 166-125 156-169 2-44-67-63-119-62-47 1-108 1-155 3C87-393 13-429 1-531c11-87 101-150 165-187 90-52 160-96 290-87 34 2 118 78 115 115-3 35-23 38-55 45-15 4-26-4-33-24-37-64-116-1-164 12-41 11-154 77-154 113 0 15 14 22 41 22 45 0 127-11 165-11" id="D"/><path fill="#6f7681" d="M593-790c58 0 99 54 77 117-5 13-15 16-35 14-70-7-152-3-229 7-31 20-24 81-26 127-4 138-16 277-16 422 0 32 4 70-21 83-26 36-88 7-103-20 1-182 10-346 21-521 2-27 11-81-18-84-73-7-138 11-206 3-20-18-39-18-32-51-3-78 74-91 145-91 129 0 251 6 369-8 25-3 49 2 74 2" id="E"/><path fill="#6f7681" d="M106-737c41-53 131 12 108 86-42 139-71 285-71 455 0 88 72 66 143 48 49-12 128-35 183-63 38-19 36-69 44-119 17-114 31-247 31-354 0-57 26-85 79-85 37 0 55 27 55 81 0 190-34 397-59 573 4 31 20 93-13 105-8 10-30 7-65-8-16-20-33-38-51-54C397-48 305 0 205 0 79 0 5-43 13-176c13-196 50-391 93-561" id="F"/><g id="e"><use transform="matrix(0.008888888888888884,0,0,0.008888888888888884,0,0)" xlink:href="#D"/><use transform="matrix(0.008888888888888884,0,0,0.008888888888888884,5.6088888888888855,0)" xlink:href="#E"/><use transform="matrix(0.008888888888888884,0,0,0.008888888888888884,11.999999999999993,0)" xlink:href="#y"/><use transform="matrix(0.008888888888888884,0,0,0.008888888888888884,17.493333333333325,0)" xlink:href="#F"/><use transform="matrix(0.008888888888888884,0,0,0.008888888888888884,23.742222222222214,0)" xlink:href="#t"/><use transform="matrix(0.008888888888888884,0,0,0.008888888888888884,29.377777777777762,0)" xlink:href="#E"/></g><g id="f"><use transform="matrix(0.008888888888888884,0,0,0.008888888888888884,0,0)" xlink:href="#s"/><use transform="matrix(0.008888888888888884,0,0,0.008888888888888884,5.2177777777777745,0)" xlink:href="#z"/><use transform="matrix(0.008888888888888884,0,0,0.008888888888888884,10.933333333333326,0)" xlink:href="#z"/></g><path fill="#6f7681" d="M292-638c-67 2-113 14-176 21-81 9-112-68-58-103 132-46 304-52 470-66l65 5c50 52 43 111-50 111-45 0-75 15-112 18-18 16-19 83-24 152-7 108-21 214-33 322-5 46 36 20 67 20 54 0 81-10 139-16 43 25 50 62 23 110-151 29-311 50-490 79C58 24-8 22 3-44c14-83 161-45 224-90 22-16 24-69 29-107 17-126 33-258 36-397" id="G"/><path fill="#6f7681" d="M24-128c0-158-18-313-5-472 6-74-11-192 62-191 78 1 88 68 113 130 59 143 102 191 174 297 50 73 81 109 92 109 8 0 12-3 13-9 24-163 3-322-12-477-6-63 62-76 101-37 65 64 45 212 54 340 10 141 7 304-15 413-8 15-20 23-37 23-76 0-203-132-244-200-33-54-79-109-116-169l4 4c-9-20-41-55-54-51-14 102-5 244 6 344 3 30-15 69-41 68-9 0-28-1-56-3-44-28-39-45-39-119" id="H"/><g id="g"><use transform="matrix(0.008888888888888884,0,0,0.008888888888888884,0,0)" xlink:href="#G"/><use transform="matrix(0.008888888888888884,0,0,0.008888888888888884,5.644444444444441,0)" xlink:href="#H"/><use transform="matrix(0.008888888888888884,0,0,0.008888888888888884,11.342222222222215,0)" xlink:href="#E"/></g><path fill="#6f7681" d="M312-705c33-33 39-107-26-103-49 3-81 54-111 81-75 69-115 191-144 308-21 84-23 101-14 176 9 78 64 163 125 214 24 20 92 29 89-18-4-43-67-95-83-129-51-107-29-195 12-325 28-89 89-143 152-204" id="I"/><path fill="#6f7681" d="M629-645c28 177 9 401 28 582 3 29-18 50-47 50-97 0-67-194-71-306-1-24-4-66-3-92 1-39-15-57-30-33-49 79-88 161-139 243-9 15-21 23-34 23-33 0-70-69-89-115-10-23-57-152-73-152-28 0-27 119-31 162-9 93-16 174-27 265-2 3-35 21-48 20-71-3-50-117-43-176 24-211 38-410 84-595 39-67 121 2 138 59 22 73 63 167 84 249 7 23 13 34 20 34 17 0 54-75 107-225 17-48 42-155 115-96 31 25 52 57 59 103" id="J"/><path fill="#6f7681" d="M19-91c0-222 71-428 58-668-3-62 121-44 170-33 118 27 229 50 293 128 44 53 63 97 63 217 0 165-189 328-383 400-36 13-62 45-108 45-66 0-93-23-93-89zm185-582c-30 151-43 322-58 489 5 39 27 28 60 14 129-54 276-147 276-304 0-155-106-203-278-199" id="K"/><path fill="#6f7681" d="M326-672c47-13 117-11 117-73 0-69-77-55-133-49-71 9-36-80-58-137-21-55-106-22-95 35-4 10 15 48-3 53-23-22-47-62-88-62-20-1-38 17-37 37 2 32 48 80 67 106-10 12-32 12-55 11-79 22-11 125 48 117 33-5 73-11 66 36-8 59 3 111 63 117 42 4 32-88 52-111 15 5 75 36 84 37 20 2 38-22 37-42 6-25-64-61-65-75" id="L"/><path fill="#6f7681" d="M281-285c31-114 79-277 15-384-30-51-68-104-118-134-26-16-69-9-66 27 4 51 46 70 66 106 47 87 58 158 22 285-23 82-35 147-91 197C43-130 8-88 8-59 8-15 61 0 89-24c71-61 131-123 171-221 9-21 13-29 21-43v3" id="M"/><path fill="#6f7681" d="M109-735c-25-57-110-11-99 37 30 130 91 291 122 410 18 69 44 132 72 190 44 90 75 116 148 73 102-105 149-290 208-441 32-82 48-168 48-261 0-51-15-77-46-77-38 0-59 34-73 100-35 160-89 312-149 454-40 95-58 66-91-37-28-90-54-179-79-263-24-79-42-141-61-185" id="N"/><path fill="#6f7681" d="M39 59C84 43 157-10 157-69c0-34-42-63-77-61-70 4-68 99-68 162 0 18 9 27 27 27" id="O"/><g id="h"><use transform="matrix(0.008888888888888884,0,0,0.008888888888888884,0,0)" xlink:href="#I"/><use transform="matrix(0.008888888888888884,0,0,0.008888888888888884,3.0133333333333314,0)" xlink:href="#t"/><use transform="matrix(0.008888888888888884,0,0,0.008888888888888884,8.648888888888884,0)" xlink:href="#A"/><use transform="matrix(0.008888888888888884,0,0,0.008888888888888884,15.786666666666658,0)" xlink:href="#J"/><use transform="matrix(0.008888888888888884,0,0,0.008888888888888884,21.759999999999987,0)" xlink:href="#x"/><use transform="matrix(0.008888888888888884,0,0,0.008888888888888884,26.77333333333332,0)" xlink:href="#s"/><use transform="matrix(0.008888888888888884,0,0,0.008888888888888884,31.991111111111096,0)" xlink:href="#y"/><use transform="matrix(0.008888888888888884,0,0,0.008888888888888884,37.48444444444443,0)" xlink:href="#s"/><use transform="matrix(0.008888888888888884,0,0,0.008888888888888884,42.702222222222204,0)" xlink:href="#K"/><use transform="matrix(0.008888888888888884,0,0,0.008888888888888884,48.071111111111094,0)" xlink:href="#A"/><use transform="matrix(0.008888888888888884,0,0,0.008888888888888884,55.208888888888865,0)" xlink:href="#y"/><use transform="matrix(0.008888888888888884,0,0,0.008888888888888884,60.7022222222222,0)" xlink:href="#L"/><use transform="matrix(0.008888888888888884,0,0,0.008888888888888884,64.70222222222219,0)" xlink:href="#M"/><use transform="matrix(0.008888888888888884,0,0,0.008888888888888884,67.68888888888885,0)" xlink:href="#I"/><use transform="matrix(0.008888888888888884,0,0,0.008888888888888884,70.70222222222219,0)" xlink:href="#N"/><use transform="matrix(0.008888888888888884,0,0,0.008888888888888884,76.16888888888886,0)" xlink:href="#A"/><use transform="matrix(0.008888888888888884,0,0,0.008888888888888884,83.30666666666663,0)" xlink:href="#G"/><use transform="matrix(0.008888888888888884,0,0,0.008888888888888884,88.95111111111108,0)" xlink:href="#K"/><use transform="matrix(0.008888888888888884,0,0,0.008888888888888884,94.31999999999996,0)" xlink:href="#L"/><use transform="matrix(0.008888888888888884,0,0,0.008888888888888884,98.31999999999996,0)" xlink:href="#O"/></g><g id="i"><use transform="matrix(0.008888888888888884,0,0,0.008888888888888884,0,0)" xlink:href="#N"/><use transform="matrix(0.008888888888888884,0,0,0.008888888888888884,5.466666666666663,0)" xlink:href="#A"/><use transform="matrix(0.008888888888888884,0,0,0.008888888888888884,12.604444444444436,0)" xlink:href="#G"/><use transform="matrix(0.008888888888888884,0,0,0.008888888888888884,18.248888888888878,0)" xlink:href="#K"/><use transform="matrix(0.008888888888888884,0,0,0.008888888888888884,23.617777777777764,0)" xlink:href="#L"/><use transform="matrix(0.008888888888888884,0,0,0.008888888888888884,27.61777777777776,0)" xlink:href="#M"/></g><path fill="#6f7681" d="M24-128c0-158-18-313-5-472 6-74-11-192 62-191 78 1 88 68 113 130 59 143 102 191 174 297 50 73 81 109 92 109 8 0 12-3 13-9 24-163 3-322-12-477-6-63 62-76 101-37 65 64 45 212 54 340 10 141 7 304-15 413-8 15-20 23-37 23-76 0-203-132-244-200-33-54-79-109-116-169l4 4c-9-20-41-55-54-51-14 102-5 244 6 344 3 30-15 69-41 68-9 0-28-1-56-3-44-28-39-45-39-119" id="P"/><path fill="#6f7681" d="M109-754c29-56 120 5 113 55-24 164-73 311-76 498 0 44 17 66 52 66 44 0 193-39 283-82 16-8 27-24 32-45 27-114 44-316 44-439 0-57 27-86 82-86 38 0 57 27 57 82 0 195-35 406-61 587 5 33 20 94-14 106-8 12-30 10-67-7-15-20-33-39-52-56C437-54 255 2 210 0 80-5 5-44 13-182c11-186 48-366 83-531 3-12 5-27 13-41" id="Q"/><path fill="#6f7681" d="M21-302C-7-136 9 24 196-12c147-28 263-93 386-142 57-23 26-120-26-120-111 32-240 115-378 126-13 1-22-26-25-45 30-174 59-350 88-524 10-62-86-124-120-61-39 73-49 196-69 277-19 77-22 145-31 199" id="R"/><g id="j"><use transform="matrix(0.013333333333333329,0,0,0.013333333333333329,0,0)" xlink:href="#P"/><use transform="matrix(0.013333333333333329,0,0,0.013333333333333329,8.546666666666663,0)" xlink:href="#Q"/><use transform="matrix(0.013333333333333329,0,0,0.013333333333333329,17.94666666666666,0)" xlink:href="#R"/><use transform="matrix(0.013333333333333329,0,0,0.013333333333333329,26.37333333333332,0)" xlink:href="#R"/></g><path fill="#635dff" d="M489-785c107 0 154 111 116 214-29 79-213 255-300 345-26 27-38 39-16 63 95 2 204-5 287 7 22 4 49 51 49 77 0 63-95 31-141 31H320C244-52 124 2 73 14 50 19-1-26 3-53c6-51 111-140 150-182 94-98 182-189 275-285 55-57 80-102 80-129 1-31-28-24-56-21-120 11-265 81-296 145-13 26-15 67-56 65s-51-21-51-66c0-144 158-200 287-235 61-16 112-24 153-24" id="S"/><path fill="#635dff" d="M19-91c0-222 71-428 58-668-3-62 121-44 170-33 118 27 229 50 293 128 44 53 63 97 63 217 0 165-189 328-383 400-36 13-62 45-108 45-66 0-93-23-93-89zm185-582c-30 151-43 322-58 489 5 39 27 28 60 14 129-54 276-147 276-304 0-155-106-203-278-199" id="T"/><path fill="#635dff" d="M760-689c54 66 114 194 89 305-22 96-60 182-130 233C644-96 571-43 466-22 362-1 196 2 130-53 83-92 15-170 14-243c-3-132 48-208 100-291 87-138 222-257 433-251 99 3 168 41 213 96zM147-248c0 125 211 119 317 79 118-45 205-117 253-230 30-71-7-171-46-201-79-58-137-52-237-20-103 33-177 98-233 203-36 66-54 122-54 169" id="U"/><g id="k"><use transform="matrix(0.011111111111111105,0,0,0.011111111111111105,0,0)" xlink:href="#S"/><use transform="matrix(0.011111111111111105,0,0,0.011111111111111105,7.122222222222218,0)" xlink:href="#T"/><use transform="matrix(0.011111111111111105,0,0,0.011111111111111105,13.833333333333325,0)" xlink:href="#U"/></g><path fill="#e81313" d="M49-77C44-40 70-4 106-4c52 0 58-115 69-176 33-185 88-339 106-531 5-55-37-120-88-84-58 41-108 94-156 139-9 8-27 43-27 58-1 28 35 54 60 54 15-1 48-23 43 15" id="V"/><path fill="#e81313" d="M608-642l-20 77c-36 56-69 94-113 138-49 48-58 40-29 81 33 46 69 89 97 147 44 89 52 141 40 147-3 38-20 49-63 52-68 5-97-106-129-160-40-68-56-162-144-164-53-1-27 78-45 121-7 56-12 123-28 170C157-4 113 24 66-1 46-11 40-39 49-87c19-111 19-139 19-313 0-144 1-187-40-242-27-37-13-94 26-108 103-36 250-59 389-41 63 8 182 85 165 149zm-140 11c-10-39-42-58-96-57-53 12-154 21-179 43-5 9-8 31-8 65 0 151 19 135 127 94 94-36 148-79 156-145" id="W"/><path fill="#e81313" d="M760-689c54 66 114 194 89 305-22 96-60 182-130 233C644-96 571-43 466-22 362-1 196 2 130-53 83-92 15-170 14-243c-3-132 48-208 100-291 87-138 222-257 433-251 99 3 168 41 213 96zM147-248c0 125 211 119 317 79 118-45 205-117 253-230 30-71-7-171-46-201-79-58-137-52-237-20-103 33-177 98-233 203-36 66-54 122-54 169" id="X"/><g id="l"><use transform="matrix(0.011111111111111105,0,0,0.011111111111111105,0,0)" xlink:href="#V"/><use transform="matrix(0.011111111111111105,0,0,0.011111111111111105,3.1444444444444426,0)" xlink:href="#W"/><use transform="matrix(0.011111111111111105,0,0,0.011111111111111105,10.011111111111106,0)" xlink:href="#X"/></g><path fill="#fc9432" d="M694-661c-2 64-88 115-111 165 1 17 42 36 59 47 42 29 76 115 53 188-30 95-82 137-179 194C386 10 245 0 121-52 96-78 5-94 12-147c-3-30 39-60 66-58 10-5 95 37 147 52 50 14 141 11 184-13 64-35 159-87 167-152 7-58-74-71-141-61-44 7-88 21-136 26-61 7-96-80-43-117 65-45 147-89 217-133 33-21 50-38 50-49 0-57-104-57-169-46-78 14-147 44-200 90-12 10-25 23-51 23-35 0-77-40-55-77 74-122 237-149 435-148 101 1 214 52 211 149" id="Y"/><path fill="#fc9432" d="M608-642l-20 77c-36 56-69 94-113 138-49 48-58 40-29 81 33 46 69 89 97 147 44 89 52 141 40 147-3 38-20 49-63 52-68 5-97-106-129-160-40-68-56-162-144-164-53-1-27 78-45 121-7 56-12 123-28 170C157-4 113 24 66-1 46-11 40-39 49-87c19-111 19-139 19-313 0-144 1-187-40-242-27-37-13-94 26-108 103-36 250-59 389-41 63 8 182 85 165 149zm-140 11c-10-39-42-58-96-57-53 12-154 21-179 43-5 9-8 31-8 65 0 151 19 135 127 94 94-36 148-79 156-145" id="Z"/><path fill="#fc9432" d="M760-689c54 66 114 194 89 305-22 96-60 182-130 233C644-96 571-43 466-22 362-1 196 2 130-53 83-92 15-170 14-243c-3-132 48-208 100-291 87-138 222-257 433-251 99 3 168 41 213 96zM147-248c0 125 211 119 317 79 118-45 205-117 253-230 30-71-7-171-46-201-79-58-137-52-237-20-103 33-177 98-233 203-36 66-54 122-54 169" id="aa"/><g id="m"><use transform="matrix(0.011111111111111105,0,0,0.011111111111111105,0,0)" xlink:href="#Y"/><use transform="matrix(0.011111111111111105,0,0,0.011111111111111105,7.933333333333328,0)" xlink:href="#Z"/><use transform="matrix(0.011111111111111105,0,0,0.011111111111111105,14.799999999999988,0)" xlink:href="#aa"/></g><path fill="#fcce14" d="M507-712c85 21 58 156 75 252 15 28 37 66 16 97-49 73-23 203-39 323-4 28-48 49-75 23-22-21-25-21-31-66-9-66 6-122 8-189 2-76-65-30-115-24-69 8-187 40-227 40-73 0-140-72-111-150 27-73 71-119 103-192 19-43 54-103 78-153 18-39 24-47 54-51 29-4 54 45 50 73-11 77-60 137-90 200-39 83-63 123-63 125 3 35 44 12 70 11 65-16 127-28 196-43 38-8 57-22 57-42 2-69-19-156 5-210 7-17 22-24 39-24" id="ab"/><path fill="#fcce14" d="M593-790c58 0 99 54 77 117-5 13-15 16-35 14-70-7-152-3-229 7-31 20-24 81-26 127-4 138-16 277-16 422 0 32 4 70-21 83-26 36-88 7-103-20 1-182 10-346 21-521 2-27 11-81-18-84-73-7-138 11-206 3-20-18-39-18-32-51-3-78 74-91 145-91 129 0 251 6 369-8 25-3 49 2 74 2" id="ac"/><path fill="#fcce14" d="M44-443c79-191 208-366 448-366 141 0 239 118 267 253 46 222-61 413-213 490-83 42-221 78-338 30-55-23-106-43-129-82-26-14-80-140-57-202 2-41 8-89 22-123zm103 115c1 136 75 191 208 191 130 0 180-50 241-135 38-53 55-111 55-169 0-109-73-236-179-227-143 12-260 151-311 271-9 24-14 47-14 69" id="ad"/><g id="n"><use transform="matrix(0.011111111111111105,0,0,0.011111111111111105,0,0)" xlink:href="#ab"/><use transform="matrix(0.011111111111111105,0,0,0.011111111111111105,6.888888888888885,0)" xlink:href="#ac"/><use transform="matrix(0.011111111111111105,0,0,0.011111111111111105,14.87777777777777,0)" xlink:href="#ad"/></g><path fill="#ffd9d9" d="M446-647c-55 21-194-32-192 48 0 5 4 10 12 17 183-10 340 22 397 147 20 45 32 92 32 143C695-124 489-8 314-8 239-8-7-101 9-170c5-22 37-66 73-57 67 17 142 79 229 79 123 0 252-74 252-179 0-168-253-109-411-109-51 0-69-18-70-69-5-24 57-168 69-232 14-20 42-49 87-44 109 13 208-3 316-6 39-1 82-12 119-18 27-4 50 56 50 80-37 81-169 68-282 77" id="ae"/><path fill="#ffd9d9" d="M593-790c58 0 99 54 77 117-5 13-15 16-35 14-70-7-152-3-229 7-31 20-24 81-26 127-4 138-16 277-16 422 0 32 4 70-21 83-26 36-88 7-103-20 1-182 10-346 21-521 2-27 11-81-18-84-73-7-138 11-206 3-20-18-39-18-32-51-3-78 74-91 145-91 129 0 251 6 369-8 25-3 49 2 74 2" id="af"/><path fill="#ffd9d9" d="M760-689c54 66 114 194 89 305-22 96-60 182-130 233C644-96 571-43 466-22 362-1 196 2 130-53 83-92 15-170 14-243c-3-132 48-208 100-291 87-138 222-257 433-251 99 3 168 41 213 96zM147-248c0 125 211 119 317 79 118-45 205-117 253-230 30-71-7-171-46-201-79-58-137-52-237-20-103 33-177 98-233 203-36 66-54 122-54 169" id="ag"/><g id="o"><use transform="matrix(0.011111111111111105,0,0,0.011111111111111105,0,0)" xlink:href="#ae"/><use transform="matrix(0.011111111111111105,0,0,0.011111111111111105,8.14444444444444,0)" xlink:href="#af"/><use transform="matrix(0.011111111111111105,0,0,0.011111111111111105,16.133333333333326,0)" xlink:href="#ag"/></g><path d="M101-251c68 0 85 55 85 127S166 4 100 4C33 4 14-52 14-124c0-73 17-127 87-127zm-1 229c47 0 54-49 54-102s-4-102-53-102c-51 0-55 48-55 102 0 53 5 102 54 102" id="ah"/><use transform="matrix(0.06172839506172839,0,0,0.06172839506172839,0,0)" xlink:href="#ah" id="p"/></defs></g></svg>