<svg xmlns="http://www.w3.org/2000/svg" xmlns:xlink="http://www.w3.org/1999/xlink" xmlns:lucid="lucid" width="777.57" height="370.69"><g transform="translate(132.42782557027687 -64.89315510818591)" lucid:page-tab-id="0_0"><path d="M-112.43 90.9a6 6 0 0 1 6-6h168a6 6 0 0 1 6 6v28a6 6 0 0 1-6 6h-168a6 6 0 0 1-6-6z" fill="none"/><use xlink:href="#a" transform="matrix(1,0,0,1,-112.42782557027687,84.89315510818591) translate(54.63333333333333 30.244444444444444)"/><path d="M76.57 90.9a6 6 0 0 1 6-6h168a6 6 0 0 1 6 6v28a6 6 0 0 1-6 6h-168a6 6 0 0 1-6-6z" fill="none"/><use xlink:href="#b" transform="matrix(1,0,0,1,76.57227442972084,84.89315510818591) translate(63.8 30.244444444444444)"/><path d="M66.57 85.4a.5.5 0 0 1 .5.5V409a.5.5 0 0 1-.5.5.5.5 0 0 1-.5-.5V85.9a.5.5 0 0 1 .5-.5z" stroke="#6f7681" fill="none"/><path d="M-79.75 125.9a.5.5 0 0 1 .5-.5H599a.5.5 0 0 1 .5.5.5.5 0 0 1-.5.5H-79.25a.5.5 0 0 1-.5-.5z" stroke="#6f7681" fill="none"/><path d="M-23.43 170.9a6 6 0 0 1 6-6h28a6 6 0 0 1 6 6v28a6 6 0 0 1-6 6h-28a6 6 0 0 1-6-6z" stroke="#000" fill="#cfe4ff"/><path d="M6.57 184.9c0 5.52-4.48 10-10 10s-10-4.48-10-10c0-5.53 4.48-10 10-10 5.53 0 10 4.47 10 10z" stroke="#000"/><path d="M-63.43 141.9a6 6 0 0 1 6-6h108a6 6 0 0 1 6 6v18a6 6 0 0 1-6 6h-108a6 6 0 0 1-6-6z" fill="none"/><use xlink:href="#c" transform="matrix(1,0,0,1,-63.42792557027468,135.8931551081859) translate(45.48444444444445 19.09777777777778)"/><path d="M105.57 160.9a6 6 0 0 1 6-6h148a6 6 0 0 1 6 6v48a6 6 0 0 1-6 6h-148a6 6 0 0 1-6-6z" stroke="#000" fill="#cfe4ff"/><path d="M116.07 170a6 6 0 0 1 6-6h28a6 6 0 0 1 6 6v28a6 6 0 0 1-6 6h-28a6 6 0 0 1-6-6z" stroke="#000" fill="#b8f5ed"/><use xlink:href="#d" transform="matrix(1,0,0,1,121.06558297458895,169) translate(8.827160493827162 19.65277777777778)"/><path d="M165.57 169.88a6 6 0 0 1 6-6h28a6 6 0 0 1 6 6v28a6 6 0 0 1-6 6h-28a6 6 0 0 1-6-6zM215.08 169.88a6 6 0 0 1 6-6h28a6 6 0 0 1 6 6v28a6 6 0 0 1-6 6h-28a6 6 0 0 1-6-6z" stroke="#000" fill="#b8f5ed"/><path d="M195.57 183.28c0 5.53-4.47 10-10 10-5.52 0-10-4.47-10-10 0-5.52 4.48-10 10-10 5.53 0 10 4.48 10 10zM245.57 183.28c0 5.53-4.47 10-10 10-5.52 0-10-4.47-10-10 0-5.52 4.48-10 10-10 5.53 0 10 4.48 10 10z" stroke="#000"/><path d="M8.08 184.9h78.5" stroke="#000" stroke-width="2" stroke-linejoin="round" fill="none"/><path d="M8.1 185.9H6.95l.13-1-.13-1H8.1z" stroke="#000" stroke-width=".05"/><path d="M101.84 184.9l-14.27 4.63v-9.27z" stroke="#000" stroke-width="2" fill="#fff"/><path d="M125.57 132.9a6 6 0 0 1 6-6h108a6 6 0 0 1 6 6v18a6 6 0 0 1-6 6h-108a6 6 0 0 1-6-6z" fill="none"/><use xlink:href="#e" transform="matrix(1,0,0,1,125.57217442972313,126.89315510818591) translate(32.47111111111113 19.09777777777778)"/><use xlink:href="#f" transform="matrix(1,0,0,1,125.57217442972313,126.89315510818591) translate(70.88 19.09777777777778)"/><path d="M185.5 194.8l-.04.72-.3 1.6-.53 1.52-.74 1.53-1.07 1.6-1.52 1.73-2.35 2.1-4.38 2.9-16.98 9.43" stroke="#000" stroke-width="2" stroke-linejoin="round" fill="none"/><path d="M186.5 194.88l-2-.13.08-1.1 1 .14 1-.14z" stroke="#000" stroke-width=".05"/><path d="M149 229.3l4.9-14.18 7.4 5.58z" stroke="#000" stroke-width="2" fill="#fff"/><path d="M235.64 194.8l.06.37.1.45.13.45.17.45.2.47.24.46.3.5.35.5.42.56.5.58.65.63.8.7 1 .76 1.3.87 1.72 1 2.4 1.22 3.58 1.5 6 2.1 45.27 12.84 1.26.53" stroke="#fa0606" stroke-width="2" stroke-linejoin="round" fill="none"/><path d="M235.57 193.8l1-.14.03 1.12-2 .07-.03-1.2z" stroke="#fa0606" stroke-width=".05" fill="#fa0606"/><path d="M312.5 231.54l-13.57-6.4 6.35-6.75z" stroke="#fa0606" stroke-width="2" fill="#fff"/><path d="M41.5 237.9a6 6 0 0 1 6-6h203.07a6 6 0 0 1 6 6v7.25a6 6 0 0 1-6 6H47.5a6 6 0 0 1-6-6z" fill="none"/><use xlink:href="#g" transform="matrix(1,0,0,1,41.493508544863516,231.88899116930685) translate(31.293333333333365 14.097777777777775)"/><use xlink:href="#h" transform="matrix(1,0,0,1,41.493508544863516,231.88899116930685) translate(51.666666666666686 14.097777777777775)"/><use xlink:href="#i" transform="matrix(1,0,0,1,41.493508544863516,231.88899116930685) translate(154.10222222222222 14.097777777777775)"/><path d="M266 240.26a6 6 0 0 1 6-6h85.7a6 6 0 0 1 6 6V254a6 6 0 0 1-6 6H272a6 6 0 0 1-6-6z" stroke="#000" fill="#00c2a8"/><path d="M272.7 243.5a6 6 0 0 1 6-6h8a6 6 0 0 1 6 6v7.26a6 6 0 0 1-6 6h-8a6 6 0 0 1-6-6z" stroke="#000" fill="#cfe4ff"/><path d="M287.7 247.13c0 2.5-2.22 4.5-5 4.5-2.75 0-5-2-5-4.5 0-2.48 2.25-4.5 5-4.5 2.78 0 5 2.02 5 4.5z" stroke="#000"/><path d="M337.22 243.5a6 6 0 0 1 6-6h8a6 6 0 0 1 6 6v7.26a6 6 0 0 1-6 6h-8a6 6 0 0 1-6-6z" stroke="#000" fill="#cfe4ff"/><path d="M352.22 247.13c0 2.5-2.24 4.5-5 4.5s-5-2-5-4.5c0-2.48 2.24-4.5 5-4.5s5 2.02 5 4.5z" stroke="#000"/><path d="M304.86 243.5a6 6 0 0 1 6-6h8a6 6 0 0 1 6 6v7.26a6 6 0 0 1-6 6h-8a6 6 0 0 1-6-6z" stroke="#000" fill="#cfe4ff"/><path d="M319.86 247.13c0 2.5-2.24 4.5-5 4.5s-5-2-5-4.5c0-2.48 2.24-4.5 5-4.5s5 2.02 5 4.5z" stroke="#000"/><path d="M153.3 284.6a6 6 0 0 1 6-6H245a6 6 0 0 1 6 6v13.75a6 6 0 0 1-6 6h-85.7a6 6 0 0 1-6-6z" stroke="#000" fill="#00c2a8"/><path d="M160 287.85a6 6 0 0 1 6-6h8a6 6 0 0 1 6 6v7.25a6 6 0 0 1-6 6h-8a6 6 0 0 1-6-6z" stroke="#000" fill="#cfe4ff"/><path d="M175 291.48c0 2.48-2.24 4.5-5 4.5s-5-2.02-5-4.5c0-2.5 2.24-4.5 5-4.5s5 2 5 4.5z" stroke="#000"/><path d="M224.5 287.85a6 6 0 0 1 6-6h8a6 6 0 0 1 6 6v7.25a6 6 0 0 1-6 6h-8a6 6 0 0 1-6-6z" stroke="#000" fill="#cfe4ff"/><path d="M239.5 291.48c0 2.48-2.23 4.5-5 4.5-2.75 0-5-2.02-5-4.5 0-2.5 2.25-4.5 5-4.5 2.77 0 5 2 5 4.5z" stroke="#000"/><path d="M192.14 287.85a6 6 0 0 1 6-6h8a6 6 0 0 1 6 6v7.25a6 6 0 0 1-6 6h-8a6 6 0 0 1-6-6z" stroke="#000" fill="#cfe4ff"/><path d="M207.14 291.48c0 2.48-2.23 4.5-5 4.5-2.76 0-5-2.02-5-4.5 0-2.5 2.24-4.5 5-4.5 2.77 0 5 2 5 4.5z" stroke="#000"/><path d="M390.43 284.6a6 6 0 0 1 6-6h85.7a6 6 0 0 1 6 6v13.75a6 6 0 0 1-6 6h-85.7a6 6 0 0 1-6-6z" stroke="#000" fill="#ffe342"/><path d="M397.14 287.85a6 6 0 0 1 6-6h8a6 6 0 0 1 6 6v7.25a6 6 0 0 1-6 6h-8a6 6 0 0 1-6-6z" stroke="#000" fill="#cfe4ff"/><path d="M412.14 291.48c0 2.48-2.24 4.5-5 4.5s-5-2.02-5-4.5c0-2.5 2.24-4.5 5-4.5s5 2 5 4.5z" stroke="#000"/><path d="M461.65 287.85a6 6 0 0 1 6-6h8a6 6 0 0 1 6 6v7.25a6 6 0 0 1-6 6h-8a6 6 0 0 1-6-6z" stroke="#000" fill="#cfe4ff"/><path d="M476.65 291.48c0 2.48-2.24 4.5-5 4.5s-5-2.02-5-4.5c0-2.5 2.24-4.5 5-4.5s5 2 5 4.5z" stroke="#000"/><path d="M429.3 287.85a6 6 0 0 1 6-6h8a6 6 0 0 1 6 6v7.25a6 6 0 0 1-6 6h-8a6 6 0 0 1-6-6z" stroke="#000" fill="#cfe4ff"/><path d="M444.3 291.48c0 2.48-2.25 4.5-5 4.5-2.78 0-5-2.02-5-4.5 0-2.5 2.22-4.5 5-4.5 2.75 0 5 2 5 4.5z" stroke="#000"/><path d="M467.6 344.1a6 6 0 0 1 6-6h85.7a6 6 0 0 1 6 6v13.75a6 6 0 0 1-6 6h-85.7a6 6 0 0 1-6-6z" stroke="#000" fill="#008a0e"/><path d="M474.3 347.34a6 6 0 0 1 6-6h8a6 6 0 0 1 6 6v7.26a6 6 0 0 1-6 6h-8a6 6 0 0 1-6-6z" stroke="#000" fill="#cfe4ff"/><path d="M489.3 350.97c0 2.48-2.24 4.5-5 4.5s-5-2.02-5-4.5 2.24-4.5 5-4.5 5 2.02 5 4.5z" stroke="#000"/><path d="M538.8 347.34a6 6 0 0 1 6-6h8a6 6 0 0 1 6 6v7.26a6 6 0 0 1-6 6h-8a6 6 0 0 1-6-6z" stroke="#000" fill="#cfe4ff"/><path d="M553.8 350.97c0 2.48-2.23 4.5-5 4.5-2.75 0-5-2.02-5-4.5s2.25-4.5 5-4.5c2.77 0 5 2.02 5 4.5z" stroke="#000"/><path d="M506.45 347.34a6 6 0 0 1 6-6h8a6 6 0 0 1 6 6v7.26a6 6 0 0 1-6 6h-8a6 6 0 0 1-6-6z" stroke="#000" fill="#cfe4ff"/><path d="M521.45 350.97c0 2.48-2.24 4.5-5 4.5s-5-2.02-5-4.5 2.24-4.5 5-4.5 5 2.02 5 4.5z" stroke="#000"/><path d="M229.5 341.35a6 6 0 0 1 6-6h85.72a6 6 0 0 1 6 6v13.75a6 6 0 0 1-6 6h-85.7a6 6 0 0 1-6-6z" stroke="#000" fill="#00c2a8"/><path d="M236.22 344.6a6 6 0 0 1 6-6h8a6 6 0 0 1 6 6v7.25a6 6 0 0 1-6 6h-8a6 6 0 0 1-6-6z" stroke="#000" fill="#cfe4ff"/><path d="M251.22 348.22c0 2.5-2.24 4.5-5 4.5s-5-2-5-4.5c0-2.48 2.24-4.5 5-4.5s5 2.02 5 4.5z" stroke="#000"/><path d="M300.73 344.6a6 6 0 0 1 6-6h8a6 6 0 0 1 6 6v7.25a6 6 0 0 1-6 6h-8a6 6 0 0 1-6-6z" stroke="#000" fill="#cfe4ff"/><path d="M315.73 348.22c0 2.5-2.24 4.5-5 4.5-2.77 0-5-2-5-4.5 0-2.48 2.23-4.5 5-4.5 2.76 0 5 2.02 5 4.5z" stroke="#000"/><path d="M268.36 344.6a6 6 0 0 1 6-6h8a6 6 0 0 1 6 6v7.25a6 6 0 0 1-6 6h-8a6 6 0 0 1-6-6z" stroke="#000" fill="#cfe4ff"/><path d="M283.36 348.22c0 2.5-2.24 4.5-5 4.5s-5-2-5-4.5c0-2.48 2.24-4.5 5-4.5s5 2.02 5 4.5z" stroke="#000"/><path d="M282.65 253.13l-.37 5.82-1.22 6.37-1.84 5.6-2.26 4.76-2.52 3.93-2.68 3.2-2.8 2.58-.3.2" stroke="#000" stroke-width="2" stroke-linejoin="round" fill="none"/><path d="M282.68 252.14l1.05-.15-.08 1.22-2-.12.08-1.24z" stroke="#000" stroke-width=".05"/><path d="M254.56 290.43l12-9 3 8.76z" stroke="#000" stroke-width="2" fill="#fff"/><path d="M347.28 253.13l.2 3.7.8 4.42 1.25 4.16 1.7 3.96 2.2 3.74 2.63 3.52 3.13 3.28 3.6 3 4.1 2.66 4.58 2.25.4.15" stroke="#635dff" stroke-width="2" stroke-linejoin="round" fill="none"/><path d="M347.18 252.14l1.03-.15.08 1.1-2 .12-.08-1.37z" stroke="#635dff" stroke-width=".05" fill="#635dff"/><path d="M386.75 290.86l-14.9 1.8 1.8-9.08z" stroke="#635dff" stroke-width="2" fill="#fff"/><path d="M234.57 297.47l.32 5.34.9 4.6 1.5 4.47 2.12 5.13" stroke="#000" stroke-width="2" stroke-linejoin="round" fill="none"/><path d="M234.47 296.48l1.03-.15.07 1.1-2 .13-.08-1.37z" stroke="#000" stroke-width=".05"/><path d="M242.8 331.7l-7.7-12.87 9.02-2.08z" stroke="#000" stroke-width="2" fill="#fff"/><path d="M471.7 297.47l.24 4.13.72 3.92 1.07 3.43 1.68 3.67 4.08 7.42" stroke="#fc9432" stroke-width="2" stroke-linejoin="round" fill="none"/><path d="M471.6 296.48l1.04-.15.06 1.1-2 .13-.07-1.37z" stroke="#fc9432" stroke-width=".05" fill="#fc9432"/><path d="M483.5 334.47l-8.3-12.5 8.94-2.48z" stroke="#fc9432" stroke-width="2" fill="#fff"/><path d="M498.8 403.58a6 6 0 0 1 6-6h28a6 6 0 0 1 6 6v6a6 6 0 0 1-6 6h-28a6 6 0 0 1-6-6z" fill="none"/><use xlink:href="#j" transform="matrix(1,0,0,1,498.81046104531447,397.5847414174955) translate(2.713333333333342 15.719999999999995)"/><path d="M258.36 387.1a6 6 0 0 1 6-6h28a6 6 0 0 1 6 6v6a6 6 0 0 1-6 6h-28a6 6 0 0 1-6-6z" fill="none"/><use xlink:href="#j" transform="matrix(1,0,0,1,258.3632245620986,381.1031853252879) translate(2.713333333333342 15.719999999999995)"/><path d="M370.43 347.34a6 6 0 0 1 6-6h28a6 6 0 0 1 6 6v6a6 6 0 0 1-6 6h-28a6 6 0 0 1-6-6z" fill="none"/><use xlink:href="#j" transform="matrix(1,0,0,1,370.4279255702746,341.3415553414476) translate(2.713333333333342 15.719999999999995)"/><path d="M140 347.77a6 6 0 0 1 6-6h28a6 6 0 0 1 6 6v6a6 6 0 0 1-6 6h-28a6 6 0 0 1-6-6z" fill="none"/><use xlink:href="#j" transform="matrix(1,0,0,1,140,341.7727475797933) translate(2.713333333333342 15.719999999999995)"/><path d="M169.95 297.48l-.62 12.72-1.42 13.18" stroke="#000" stroke-width="2" stroke-linejoin="round" fill="none"/><path d="M169.96 296.48l1.05-.15-.05 1.22-2-.1.06-1.25z" stroke="#000" stroke-width=".05"/><path d="M166.28 338.56l-3.08-14.7 9.2 1z" stroke="#000" stroke-width="2" fill="#fff"/><path d="M407.08 302.6l-.25 4-.83 4.34-1.4 4.28-2.6 5.4-2.47 4.37" stroke="#000" stroke-width="2" stroke-linejoin="round" fill="none"/><path d="M408.08 302.7l-2-.13.06-.97h2z" stroke="#000" stroke-width=".05"/><path d="M392.02 338.3l2.98-14.72 8.07 4.56z" stroke="#000" stroke-width="2" fill="#fff"/><path d="M484.36 356.97l.1 1.5.4 2.2.62 2.03.88 1.96 1.2 2 1.68 2.15 2.64 2.65 12.97 10.5" stroke="#000" stroke-width="2" stroke-linejoin="round" fill="none"/><path d="M484.27 355.98l1.03-.15.06 1.1-2 .12-.07-1.36z" stroke="#000" stroke-width=".05"/><path d="M511.7 394.73l-10.83-10.38 8.18-4.38z" stroke="#000" stroke-width="2" fill="#fff"/><path d="M548.75 356.97l-.1 1.87-.46 2.47-.7 2.26-.97 2.16-1.32 2.2-1.9 2.45-3.55 3.52-8.28 7.46" stroke="#000" stroke-width="2" stroke-linejoin="round" fill="none"/><path d="M548.77 355.98l1.05-.16-.07 1.23-2-.1.08-1.25z" stroke="#000" stroke-width=".05"/><path d="M525.3 394.65l1.8-14.9 8.4 3.92z" stroke="#000" stroke-width="2" fill="#fff"/><path d="M246.3 354.22l.07.74.44 1.58.76 1.56 1.2 1.66 2.14 2 5.24 3.34 5.95 3.34" stroke="#000" stroke-width="2" stroke-linejoin="round" fill="none"/><path d="M246.18 353.23l1.03-.15.1 1.08-2 .17-.1-1.4z" stroke="#000" stroke-width=".05"/><path d="M271.87 378.76l-13.18-7.16 6.7-6.38z" stroke="#000" stroke-width="2" fill="#fff"/><path d="M310.64 354.22l-.07.74-.43 1.58-.75 1.56-1.23 1.66-2.12 2-5.24 3.34-5.94 3.34" stroke="#000" stroke-width="2" stroke-linejoin="round" fill="none"/><path d="M310.7 353.23l1.04-.15-.1 1.25-2-.17.1-1.2z" stroke="#000" stroke-width=".05"/><path d="M285.07 378.76l6.46-13.54 6.73 6.38z" stroke="#000" stroke-width="2" fill="#fff"/><path d="M580 367.1a6 6 0 0 1 6-6h28a6 6 0 0 1 6 6v6a6 6 0 0 1-6 6h-28a6 6 0 0 1-6-6z" fill="none"/><use xlink:href="#k" transform="matrix(1,0,0,1,580,361.10318532528794) translate(-2.8533333333333246 15.719999999999995)"/><path d="M421.65 262.76a6 6 0 0 1 6-6h28a6 6 0 0 1 6 6v6a6 6 0 0 1-6 6h-28a6 6 0 0 1-6-6z" fill="none"/><use xlink:href="#l" transform="matrix(1,0,0,1,421.6476832393399,256.7625414133039) translate(-0.2599999999999909 15.719999999999995)"/><path d="M482.72 310.35a6 6 0 0 1 6-6h26.73a6 6 0 0 1 6 6v7a6 6 0 0 1-6 6h-26.73a6 6 0 0 1-6-6z" fill="none"/><use xlink:href="#m" transform="matrix(1,0,0,1,482.7231447446801,304.35408321120843) translate(7.277777777777786 15.12222222222222)"/><path d="M357.22 266a6 6 0 0 1 6-6h26.72a6 6 0 0 1 6 6v7.02a6 6 0 0 1-6 6h-26.72a6 6 0 0 1-6-6z" fill="none"/><use xlink:href="#n" transform="matrix(1,0,0,1,357.2198576690631,260.0134392992244) translate(7.761111111111118 15.12222222222222)"/><path d="M277 201.37a6 6 0 0 1 6-6h26.73a6 6 0 0 1 6 6v7a6 6 0 0 1-6 6H283a6 6 0 0 1-6-6z" fill="none"/><g><use xlink:href="#o" transform="matrix(1,0,0,1,277.002157385666,195.37028047047932) translate(9.672222222222228 15.12222222222222)"/></g><defs><path fill="#6f7681" d="M371-533c189 0 256 55 239 237-9 91-67 138-157 205C374-33 301-7 236-7 155-7 13-82 18-160c3-44 62-73 96-38 43 44 152 73 218 29 77-51 166-125 156-169 2-44-67-63-119-62-47 1-108 1-155 3C87-393 13-429 1-531c11-87 101-150 165-187 90-52 160-96 290-87 34 2 118 78 115 115-3 35-23 38-55 45-15 4-26-4-33-24-37-64-116-1-164 12-41 11-154 77-154 113 0 15 14 22 41 22 45 0 127-11 165-11" id="p"/><path fill="#6f7681" d="M382-556c-3 158-18 304-18 470 0 31 6 72-21 86-20 35-87 21-104-6-1-188 14-367 23-549 1-24 13-80-17-80-77 0-131 31-210 31-15-10-43-18-33-45 0-82 83-94 148-109 103-23 215-12 315-40 43-12 91-17 142-23 62-8 95 53 77 116-8 28-47 14-75 18-68 9-134 10-195 30-32 11-31 60-32 101" id="q"/><path fill="#6f7681" d="M103-24C79 10-2-14 8-59c42-186 129-353 193-524 23-62 63-135 99-197 39-38 106-10 109 47 27 100 51 209 81 307 8 25 72 24 72 63 0 44-26 46-37 75 12 83 46 156 55 243 7 63-106 47-114 11-13-58-36-170-57-231-3-4-7-8-9-14-69 4-134 40-198 52-53 21-53 108-81 160-4 16-8 29-18 43zm215-551c-16 18-92 195-73 208 46 2 100-12 123-31-5-30-32-162-38-171-2-3-6-5-12-6" id="r"/><path fill="#6f7681" d="M521-275c40-33 108-24 108 34 0 49-75 103-210 183-80 47-247 72-323 10-66-54-95-101-82-218 12-106 41-136 91-224 55-96 145-209 240-278 32-23 68-33 107-33 86 2 108 61 107 158 0 55-15 82-44 82-55 1-25-116-79-110-132 15-229 223-291 334-48 86-31 226 81 218 122-9 217-92 295-156" id="s"/><path fill="#6f7681" d="M583 1c26 5 52-17 51-41 24-60-22-103-43-144-74-69-132-138-184-228-37-64 44-88 81-120 65-56 138-104 195-168 35-39 5-108-40-113-66 17-104 68-150 105-81 65-158 127-245 187-18 12-48 33-70 13-6-6-8-14-7-23 3-63 18-122 28-181-3-53-39-88-92-91-82 12-51 140-71 216 1 133-13 257-20 381-3 58-27 167 27 193 35 29 78-2 98-20 30-59 16-164 24-251 3-31 38-61 73-59 78 41 118 121 174 184 38 44 71 96 112 139 15 15 32 34 59 21" id="t"/><g id="a"><use transform="matrix(0.022222222222222223,0,0,0.022222222222222223,0,0)" xlink:href="#p"/><use transform="matrix(0.022222222222222223,0,0,0.022222222222222223,12.666666666666668,0)" xlink:href="#q"/><use transform="matrix(0.022222222222222223,0,0,0.022222222222222223,27.91111111111111,0)" xlink:href="#r"/><use transform="matrix(0.022222222222222223,0,0,0.022222222222222223,40.955555555555556,0)" xlink:href="#s"/><use transform="matrix(0.022222222222222223,0,0,0.022222222222222223,55.044444444444444,0)" xlink:href="#t"/></g><path fill="#6f7681" d="M107-780c100 15 51 176 51 272 0 29 23 25 56 24 33-11 175 4 171-42 9-67 4-153 14-224 12-14 39-57 70-50 51 0 74 34 69 103L490-47c-6 28-25 57-57 56-118-5-54-182-54-299 0-34 3-75-15-85-65 6-127 12-191 19-52 29-23 162-29 239C135-7 87 19 22-30 10-48 7-67 13-88c-16-100 8-215 8-322 0-127-9-364 86-370" id="u"/><path fill="#6f7681" d="M330-158c82-22 193-18 286-31 38 11 58 81 24 113-25 24-71 25-116 25-135 0-238 34-358 47C61 7 4-52 15-159c12-113 37-213 32-340-2-59 2-121-2-178-2-44 35-62 81-61 104-31 222-52 345-64 68-7 103 34 111 94 2 12-3 22-9 31-33 14-62 15-103 16-100 2-196 10-270 40h-8c-18 23-11 79-15 106-1 13 5 22 16 25 82-10 176-25 264-12 44 7 78 26 71 72-7 49-76 30-125 30-78 0-138 22-210 29-24 1-35 28-36 52-2 41-10 83-8 126-19 84 122 51 181 35" id="v"/><path fill="#6f7681" d="M23-677c-68-88 127-122 212-122 113 0 253 24 291 82 92 144-48 310-153 365-52 27-102 48-161 69-56 20-53 15-58 80-4 49-8 103-13 153-3 31-19 46-43 46-44 0-65-28-63-81 5-162 8-330 16-486 3-53-4-75-28-106zm415 73c0-44-44-66-132-66-78 0-124 8-135 26-10 16-14 89-14 218 0 44 22 39 57 25 83-34 224-115 224-203" id="w"/><g id="b"><use transform="matrix(0.022222222222222223,0,0,0.022222222222222223,0,0)" xlink:href="#u"/><use transform="matrix(0.022222222222222223,0,0,0.022222222222222223,12.022222222222222,0)" xlink:href="#v"/><use transform="matrix(0.022222222222222223,0,0,0.022222222222222223,26.822222222222223,0)" xlink:href="#r"/><use transform="matrix(0.022222222222222223,0,0,0.022222222222222223,39.86666666666667,0)" xlink:href="#w"/></g><path fill="#6f7681" d="M608-642l-20 77c-36 56-69 94-113 138-49 48-58 40-29 81 33 46 69 89 97 147 44 89 52 141 40 147-3 38-20 49-63 52-68 5-97-106-129-160-40-68-56-162-144-164-53-1-27 78-45 121-7 56-12 123-28 170C157-4 113 24 66-1 46-11 40-39 49-87c19-111 19-139 19-313 0-144 1-187-40-242-27-37-13-94 26-108 103-36 250-59 389-41 63 8 182 85 165 149zm-140 11c-10-39-42-58-96-57-53 12-154 21-179 43-5 9-8 31-8 65 0 151 19 135 127 94 94-36 148-79 156-145" id="x"/><path fill="#6f7681" d="M68-174c-8-157-1-333-1-488 0-23-21-28-12-60 24-87 141-85 256-77 161 12 317 42 251 258-5 17-40 45-44 60 15 30 85 80 98 123 62 108 25 192-76 258C455-45 341-9 207-4 145-2 19-30 19-85c0-36 51-41 49-89zm137-510c-18 6-26 137-16 192 30 22 66 2 112-6 70-13 158-95 159-132 17-68-169-82-255-54zm-15 330c-15 57-2 155 5 215 6 4 6 12 18 11 101-5 211-32 267-82 52-46 58-91 12-140s-73-73-81-73c-39 14-121 48-173 54-15 2-34 14-48 15" id="y"/><path fill="#6f7681" d="M44-443c79-191 208-366 448-366 141 0 239 118 267 253 46 222-61 413-213 490-83 42-221 78-338 30-55-23-106-43-129-82-26-14-80-140-57-202 2-41 8-89 22-123zm103 115c1 136 75 191 208 191 130 0 180-50 241-135 38-53 55-111 55-169 0-109-73-236-179-227-143 12-260 151-311 271-9 24-14 47-14 69" id="z"/><path fill="#6f7681" d="M21-302C-7-136 9 24 196-12c147-28 263-93 386-142 57-23 26-120-26-120-111 32-240 115-378 126-13 1-22-26-25-45 30-174 59-350 88-524 10-62-86-124-120-61-39 73-49 196-69 277-19 77-22 145-31 199" id="A"/><g id="c"><use transform="matrix(0.008888888888888884,0,0,0.008888888888888884,0,0)" xlink:href="#r"/><use transform="matrix(0.008888888888888884,0,0,0.008888888888888884,5.2177777777777745,0)" xlink:href="#x"/><use transform="matrix(0.008888888888888884,0,0,0.008888888888888884,10.711111111111105,0)" xlink:href="#y"/><use transform="matrix(0.008888888888888884,0,0,0.008888888888888884,16.426666666666655,0)" xlink:href="#z"/><use transform="matrix(0.008888888888888884,0,0,0.008888888888888884,23.56444444444443,0)" xlink:href="#A"/></g><path d="M54-142c48-35 137-8 131 61C196 18 31 33 14-55l32-4c7 23 22 37 52 37 35-1 51-22 54-58 4-55-73-65-99-34H22l8-134h141v27H59" id="B"/><use transform="matrix(0.06172839506172839,0,0,0.06172839506172839,0,0)" xlink:href="#B" id="d"/><path fill="#6f7681" d="M371-533c189 0 256 55 239 237-9 91-67 138-157 205C374-33 301-7 236-7 155-7 13-82 18-160c3-44 62-73 96-38 43 44 152 73 218 29 77-51 166-125 156-169 2-44-67-63-119-62-47 1-108 1-155 3C87-393 13-429 1-531c11-87 101-150 165-187 90-52 160-96 290-87 34 2 118 78 115 115-3 35-23 38-55 45-15 4-26-4-33-24-37-64-116-1-164 12-41 11-154 77-154 113 0 15 14 22 41 22 45 0 127-11 165-11" id="C"/><path fill="#6f7681" d="M593-790c58 0 99 54 77 117-5 13-15 16-35 14-70-7-152-3-229 7-31 20-24 81-26 127-4 138-16 277-16 422 0 32 4 70-21 83-26 36-88 7-103-20 1-182 10-346 21-521 2-27 11-81-18-84-73-7-138 11-206 3-20-18-39-18-32-51-3-78 74-91 145-91 129 0 251 6 369-8 25-3 49 2 74 2" id="D"/><path fill="#6f7681" d="M106-737c41-53 131 12 108 86-42 139-71 285-71 455 0 88 72 66 143 48 49-12 128-35 183-63 38-19 36-69 44-119 17-114 31-247 31-354 0-57 26-85 79-85 37 0 55 27 55 81 0 190-34 397-59 573 4 31 20 93-13 105-8 10-30 7-65-8-16-20-33-38-51-54C397-48 305 0 205 0 79 0 5-43 13-176c13-196 50-391 93-561" id="E"/><g id="e"><use transform="matrix(0.008888888888888884,0,0,0.008888888888888884,0,0)" xlink:href="#C"/><use transform="matrix(0.008888888888888884,0,0,0.008888888888888884,5.6088888888888855,0)" xlink:href="#D"/><use transform="matrix(0.008888888888888884,0,0,0.008888888888888884,11.999999999999993,0)" xlink:href="#x"/><use transform="matrix(0.008888888888888884,0,0,0.008888888888888884,17.493333333333325,0)" xlink:href="#E"/><use transform="matrix(0.008888888888888884,0,0,0.008888888888888884,23.742222222222214,0)" xlink:href="#s"/><use transform="matrix(0.008888888888888884,0,0,0.008888888888888884,29.377777777777762,0)" xlink:href="#D"/></g><g id="f"><use transform="matrix(0.008888888888888884,0,0,0.008888888888888884,0,0)" xlink:href="#r"/><use transform="matrix(0.008888888888888884,0,0,0.008888888888888884,5.2177777777777745,0)" xlink:href="#y"/><use transform="matrix(0.008888888888888884,0,0,0.008888888888888884,10.933333333333326,0)" xlink:href="#y"/></g><path fill="#6f7681" d="M292-638c-67 2-113 14-176 21-81 9-112-68-58-103 132-46 304-52 470-66l65 5c50 52 43 111-50 111-45 0-75 15-112 18-18 16-19 83-24 152-7 108-21 214-33 322-5 46 36 20 67 20 54 0 81-10 139-16 43 25 50 62 23 110-151 29-311 50-490 79C58 24-8 22 3-44c14-83 161-45 224-90 22-16 24-69 29-107 17-126 33-258 36-397" id="F"/><path fill="#6f7681" d="M24-128c0-158-18-313-5-472 6-74-11-192 62-191 78 1 88 68 113 130 59 143 102 191 174 297 50 73 81 109 92 109 8 0 12-3 13-9 24-163 3-322-12-477-6-63 62-76 101-37 65 64 45 212 54 340 10 141 7 304-15 413-8 15-20 23-37 23-76 0-203-132-244-200-33-54-79-109-116-169l4 4c-9-20-41-55-54-51-14 102-5 244 6 344 3 30-15 69-41 68-9 0-28-1-56-3-44-28-39-45-39-119" id="G"/><g id="g"><use transform="matrix(0.008888888888888884,0,0,0.008888888888888884,0,0)" xlink:href="#F"/><use transform="matrix(0.008888888888888884,0,0,0.008888888888888884,5.644444444444441,0)" xlink:href="#G"/><use transform="matrix(0.008888888888888884,0,0,0.008888888888888884,11.342222222222215,0)" xlink:href="#D"/></g><path fill="#6f7681" d="M312-705c33-33 39-107-26-103-49 3-81 54-111 81-75 69-115 191-144 308-21 84-23 101-14 176 9 78 64 163 125 214 24 20 92 29 89-18-4-43-67-95-83-129-51-107-29-195 12-325 28-89 89-143 152-204" id="H"/><path fill="#6f7681" d="M629-645c28 177 9 401 28 582 3 29-18 50-47 50-97 0-67-194-71-306-1-24-4-66-3-92 1-39-15-57-30-33-49 79-88 161-139 243-9 15-21 23-34 23-33 0-70-69-89-115-10-23-57-152-73-152-28 0-27 119-31 162-9 93-16 174-27 265-2 3-35 21-48 20-71-3-50-117-43-176 24-211 38-410 84-595 39-67 121 2 138 59 22 73 63 167 84 249 7 23 13 34 20 34 17 0 54-75 107-225 17-48 42-155 115-96 31 25 52 57 59 103" id="I"/><path fill="#6f7681" d="M19-91c0-222 71-428 58-668-3-62 121-44 170-33 118 27 229 50 293 128 44 53 63 97 63 217 0 165-189 328-383 400-36 13-62 45-108 45-66 0-93-23-93-89zm185-582c-30 151-43 322-58 489 5 39 27 28 60 14 129-54 276-147 276-304 0-155-106-203-278-199" id="J"/><path fill="#6f7681" d="M326-672c47-13 117-11 117-73 0-69-77-55-133-49-71 9-36-80-58-137-21-55-106-22-95 35-4 10 15 48-3 53-23-22-47-62-88-62-20-1-38 17-37 37 2 32 48 80 67 106-10 12-32 12-55 11-79 22-11 125 48 117 33-5 73-11 66 36-8 59 3 111 63 117 42 4 32-88 52-111 15 5 75 36 84 37 20 2 38-22 37-42 6-25-64-61-65-75" id="K"/><path fill="#6f7681" d="M281-285c31-114 79-277 15-384-30-51-68-104-118-134-26-16-69-9-66 27 4 51 46 70 66 106 47 87 58 158 22 285-23 82-35 147-91 197C43-130 8-88 8-59 8-15 61 0 89-24c71-61 131-123 171-221 9-21 13-29 21-43v3" id="L"/><path fill="#6f7681" d="M109-735c-25-57-110-11-99 37 30 130 91 291 122 410 18 69 44 132 72 190 44 90 75 116 148 73 102-105 149-290 208-441 32-82 48-168 48-261 0-51-15-77-46-77-38 0-59 34-73 100-35 160-89 312-149 454-40 95-58 66-91-37-28-90-54-179-79-263-24-79-42-141-61-185" id="M"/><path fill="#6f7681" d="M39 59C84 43 157-10 157-69c0-34-42-63-77-61-70 4-68 99-68 162 0 18 9 27 27 27" id="N"/><g id="h"><use transform="matrix(0.008888888888888884,0,0,0.008888888888888884,0,0)" xlink:href="#H"/><use transform="matrix(0.008888888888888884,0,0,0.008888888888888884,3.0133333333333314,0)" xlink:href="#s"/><use transform="matrix(0.008888888888888884,0,0,0.008888888888888884,8.648888888888884,0)" xlink:href="#z"/><use transform="matrix(0.008888888888888884,0,0,0.008888888888888884,15.786666666666658,0)" xlink:href="#I"/><use transform="matrix(0.008888888888888884,0,0,0.008888888888888884,21.759999999999987,0)" xlink:href="#w"/><use transform="matrix(0.008888888888888884,0,0,0.008888888888888884,26.77333333333332,0)" xlink:href="#r"/><use transform="matrix(0.008888888888888884,0,0,0.008888888888888884,31.991111111111096,0)" xlink:href="#x"/><use transform="matrix(0.008888888888888884,0,0,0.008888888888888884,37.48444444444443,0)" xlink:href="#r"/><use transform="matrix(0.008888888888888884,0,0,0.008888888888888884,42.702222222222204,0)" xlink:href="#J"/><use transform="matrix(0.008888888888888884,0,0,0.008888888888888884,48.071111111111094,0)" xlink:href="#z"/><use transform="matrix(0.008888888888888884,0,0,0.008888888888888884,55.208888888888865,0)" xlink:href="#x"/><use transform="matrix(0.008888888888888884,0,0,0.008888888888888884,60.7022222222222,0)" xlink:href="#K"/><use transform="matrix(0.008888888888888884,0,0,0.008888888888888884,64.70222222222219,0)" xlink:href="#L"/><use transform="matrix(0.008888888888888884,0,0,0.008888888888888884,67.68888888888885,0)" xlink:href="#H"/><use transform="matrix(0.008888888888888884,0,0,0.008888888888888884,70.70222222222219,0)" xlink:href="#M"/><use transform="matrix(0.008888888888888884,0,0,0.008888888888888884,76.16888888888886,0)" xlink:href="#z"/><use transform="matrix(0.008888888888888884,0,0,0.008888888888888884,83.30666666666663,0)" xlink:href="#F"/><use transform="matrix(0.008888888888888884,0,0,0.008888888888888884,88.95111111111108,0)" xlink:href="#J"/><use transform="matrix(0.008888888888888884,0,0,0.008888888888888884,94.31999999999996,0)" xlink:href="#K"/><use transform="matrix(0.008888888888888884,0,0,0.008888888888888884,98.31999999999996,0)" xlink:href="#N"/></g><g id="i"><use transform="matrix(0.008888888888888884,0,0,0.008888888888888884,0,0)" xlink:href="#M"/><use transform="matrix(0.008888888888888884,0,0,0.008888888888888884,5.466666666666663,0)" xlink:href="#z"/><use transform="matrix(0.008888888888888884,0,0,0.008888888888888884,12.604444444444436,0)" xlink:href="#F"/><use transform="matrix(0.008888888888888884,0,0,0.008888888888888884,18.248888888888878,0)" xlink:href="#J"/><use transform="matrix(0.008888888888888884,0,0,0.008888888888888884,23.617777777777764,0)" xlink:href="#K"/><use transform="matrix(0.008888888888888884,0,0,0.008888888888888884,27.61777777777776,0)" xlink:href="#L"/></g><path fill="#6f7681" d="M24-128c0-158-18-313-5-472 6-74-11-192 62-191 78 1 88 68 113 130 59 143 102 191 174 297 50 73 81 109 92 109 8 0 12-3 13-9 24-163 3-322-12-477-6-63 62-76 101-37 65 64 45 212 54 340 10 141 7 304-15 413-8 15-20 23-37 23-76 0-203-132-244-200-33-54-79-109-116-169l4 4c-9-20-41-55-54-51-14 102-5 244 6 344 3 30-15 69-41 68-9 0-28-1-56-3-44-28-39-45-39-119" id="O"/><path fill="#6f7681" d="M109-754c29-56 120 5 113 55-24 164-73 311-76 498 0 44 17 66 52 66 44 0 193-39 283-82 16-8 27-24 32-45 27-114 44-316 44-439 0-57 27-86 82-86 38 0 57 27 57 82 0 195-35 406-61 587 5 33 20 94-14 106-8 12-30 10-67-7-15-20-33-39-52-56C437-54 255 2 210 0 80-5 5-44 13-182c11-186 48-366 83-531 3-12 5-27 13-41" id="P"/><path fill="#6f7681" d="M21-302C-7-136 9 24 196-12c147-28 263-93 386-142 57-23 26-120-26-120-111 32-240 115-378 126-13 1-22-26-25-45 30-174 59-350 88-524 10-62-86-124-120-61-39 73-49 196-69 277-19 77-22 145-31 199" id="Q"/><g id="j"><use transform="matrix(0.013333333333333329,0,0,0.013333333333333329,0,0)" xlink:href="#O"/><use transform="matrix(0.013333333333333329,0,0,0.013333333333333329,8.546666666666663,0)" xlink:href="#P"/><use transform="matrix(0.013333333333333329,0,0,0.013333333333333329,17.94666666666666,0)" xlink:href="#Q"/><use transform="matrix(0.013333333333333329,0,0,0.013333333333333329,26.37333333333332,0)" xlink:href="#Q"/></g><path fill="#008a0e" d="M24-128c0-158-18-313-5-472 6-74-11-192 62-191 78 1 88 68 113 130 59 143 102 191 174 297 50 73 81 109 92 109 8 0 12-3 13-9 24-163 3-322-12-477-6-63 62-76 101-37 65 64 45 212 54 340 10 141 7 304-15 413-8 15-20 23-37 23-76 0-203-132-244-200-33-54-79-109-116-169l4 4c-9-20-41-55-54-51-14 102-5 244 6 344 3 30-15 69-41 68-9 0-28-1-56-3-44-28-39-45-39-119" id="R"/><path fill="#008a0e" d="M106-737c41-53 131 12 108 86-42 139-71 285-71 455 0 88 72 66 143 48 49-12 128-35 183-63 38-19 36-69 44-119 17-114 31-247 31-354 0-57 26-85 79-85 37 0 55 27 55 81 0 190-34 397-59 573 4 31 20 93-13 105-8 10-30 7-65-8-16-20-33-38-51-54C397-48 305 0 205 0 79 0 5-43 13-176c13-196 50-391 93-561" id="S"/><path fill="#008a0e" d="M330-158c82-22 193-18 286-31 38 11 58 81 24 113-25 24-71 25-116 25-135 0-238 34-358 47C61 7 4-52 15-159c12-113 37-213 32-340-2-59 2-121-2-178-2-44 35-62 81-61 104-31 222-52 345-64 68-7 103 34 111 94 2 12-3 22-9 31-33 14-62 15-103 16-100 2-196 10-270 40h-8c-18 23-11 79-15 106-1 13 5 22 16 25 82-10 176-25 264-12 44 7 78 26 71 72-7 49-76 30-125 30-78 0-138 22-210 29-24 1-35 28-36 52-2 41-10 83-8 126-19 84 122 51 181 35" id="T"/><path fill="#008a0e" d="M109-735c-25-57-110-11-99 37 30 130 91 291 122 410 18 69 44 132 72 190 44 90 75 116 148 73 102-105 149-290 208-441 32-82 48-168 48-261 0-51-15-77-46-77-38 0-59 34-73 100-35 160-89 312-149 454-40 95-58 66-91-37-28-90-54-179-79-263-24-79-42-141-61-185" id="U"/><path fill="#008a0e" d="M44-443c79-191 208-366 448-366 141 0 239 118 267 253 46 222-61 413-213 490-83 42-221 78-338 30-55-23-106-43-129-82-26-14-80-140-57-202 2-41 8-89 22-123zm103 115c1 136 75 191 208 191 130 0 180-50 241-135 38-53 55-111 55-169 0-109-73-236-179-227-143 12-260 151-311 271-9 24-14 47-14 69" id="V"/><g id="k"><use transform="matrix(0.013333333333333329,0,0,0.013333333333333329,0,0)" xlink:href="#R"/><use transform="matrix(0.013333333333333329,0,0,0.013333333333333329,8.546666666666663,0)" xlink:href="#S"/><use transform="matrix(0.013333333333333329,0,0,0.013333333333333329,17.919999999999995,0)" xlink:href="#T"/><use transform="matrix(0.013333333333333329,0,0,0.013333333333333329,26.79999999999999,0)" xlink:href="#U"/><use transform="matrix(0.013333333333333329,0,0,0.013333333333333329,34.999999999999986,0)" xlink:href="#V"/></g><path fill="#fcce14" d="M23-677c-68-88 127-122 212-122 113 0 253 24 291 82 92 144-48 310-153 365-52 27-102 48-161 69-56 20-53 15-58 80-4 49-8 103-13 153-3 31-19 46-43 46-44 0-65-28-63-81 5-162 8-330 16-486 3-53-4-75-28-106zm415 73c0-44-44-66-132-66-78 0-124 8-135 26-10 16-14 89-14 218 0 44 22 39 57 25 83-34 224-115 224-203" id="W"/><path fill="#fcce14" d="M103-24C79 10-2-14 8-59c42-186 129-353 193-524 23-62 63-135 99-197 39-38 106-10 109 47 27 100 51 209 81 307 8 25 72 24 72 63 0 44-26 46-37 75 12 83 46 156 55 243 7 63-106 47-114 11-13-58-36-170-57-231-3-4-7-8-9-14-69 4-134 40-198 52-53 21-53 108-81 160-4 16-8 29-18 43zm215-551c-16 18-92 195-73 208 46 2 100-12 123-31-5-30-32-162-38-171-2-3-6-5-12-6" id="X"/><path fill="#fcce14" d="M19-91c0-222 71-428 58-668-3-62 121-44 170-33 118 27 229 50 293 128 44 53 63 97 63 217 0 165-189 328-383 400-36 13-62 45-108 45-66 0-93-23-93-89zm185-582c-30 151-43 322-58 489 5 39 27 28 60 14 129-54 276-147 276-304 0-155-106-203-278-199" id="Y"/><path fill="#fcce14" d="M608-642l-20 77c-36 56-69 94-113 138-49 48-58 40-29 81 33 46 69 89 97 147 44 89 52 141 40 147-3 38-20 49-63 52-68 5-97-106-129-160-40-68-56-162-144-164-53-1-27 78-45 121-7 56-12 123-28 170C157-4 113 24 66-1 46-11 40-39 49-87c19-111 19-139 19-313 0-144 1-187-40-242-27-37-13-94 26-108 103-36 250-59 389-41 63 8 182 85 165 149zm-140 11c-10-39-42-58-96-57-53 12-154 21-179 43-5 9-8 31-8 65 0 151 19 135 127 94 94-36 148-79 156-145" id="Z"/><path fill="#fcce14" d="M330-158c82-22 193-18 286-31 38 11 58 81 24 113-25 24-71 25-116 25-135 0-238 34-358 47C61 7 4-52 15-159c12-113 37-213 32-340-2-59 2-121-2-178-2-44 35-62 81-61 104-31 222-52 345-64 68-7 103 34 111 94 2 12-3 22-9 31-33 14-62 15-103 16-100 2-196 10-270 40h-8c-18 23-11 79-15 106-1 13 5 22 16 25 82-10 176-25 264-12 44 7 78 26 71 72-7 49-76 30-125 30-78 0-138 22-210 29-24 1-35 28-36 52-2 41-10 83-8 126-19 84 122 51 181 35" id="aa"/><g id="l"><use transform="matrix(0.013333333333333329,0,0,0.013333333333333329,0,0)" xlink:href="#W"/><use transform="matrix(0.013333333333333329,0,0,0.013333333333333329,7.519999999999998,0)" xlink:href="#X"/><use transform="matrix(0.013333333333333329,0,0,0.013333333333333329,15.346666666666662,0)" xlink:href="#Y"/><use transform="matrix(0.013333333333333329,0,0,0.013333333333333329,23.39999999999999,0)" xlink:href="#Z"/><use transform="matrix(0.013333333333333329,0,0,0.013333333333333329,31.639999999999983,0)" xlink:href="#aa"/></g><path fill="#fc9432" d="M694-661c-2 64-88 115-111 165 1 17 42 36 59 47 42 29 76 115 53 188-30 95-82 137-179 194C386 10 245 0 121-52 96-78 5-94 12-147c-3-30 39-60 66-58 10-5 95 37 147 52 50 14 141 11 184-13 64-35 159-87 167-152 7-58-74-71-141-61-44 7-88 21-136 26-61 7-96-80-43-117 65-45 147-89 217-133 33-21 50-38 50-49 0-57-104-57-169-46-78 14-147 44-200 90-12 10-25 23-51 23-35 0-77-40-55-77 74-122 237-149 435-148 101 1 214 52 211 149" id="ab"/><path fill="#fc9432" d="M608-642l-20 77c-36 56-69 94-113 138-49 48-58 40-29 81 33 46 69 89 97 147 44 89 52 141 40 147-3 38-20 49-63 52-68 5-97-106-129-160-40-68-56-162-144-164-53-1-27 78-45 121-7 56-12 123-28 170C157-4 113 24 66-1 46-11 40-39 49-87c19-111 19-139 19-313 0-144 1-187-40-242-27-37-13-94 26-108 103-36 250-59 389-41 63 8 182 85 165 149zm-140 11c-10-39-42-58-96-57-53 12-154 21-179 43-5 9-8 31-8 65 0 151 19 135 127 94 94-36 148-79 156-145" id="ac"/><path fill="#fc9432" d="M760-689c54 66 114 194 89 305-22 96-60 182-130 233C644-96 571-43 466-22 362-1 196 2 130-53 83-92 15-170 14-243c-3-132 48-208 100-291 87-138 222-257 433-251 99 3 168 41 213 96zM147-248c0 125 211 119 317 79 118-45 205-117 253-230 30-71-7-171-46-201-79-58-137-52-237-20-103 33-177 98-233 203-36 66-54 122-54 169" id="ad"/><g id="m"><use transform="matrix(0.011111111111111105,0,0,0.011111111111111105,0,0)" xlink:href="#ab"/><use transform="matrix(0.011111111111111105,0,0,0.011111111111111105,7.933333333333328,0)" xlink:href="#ac"/><use transform="matrix(0.011111111111111105,0,0,0.011111111111111105,14.799999999999988,0)" xlink:href="#ad"/></g><path fill="#635dff" d="M489-785c107 0 154 111 116 214-29 79-213 255-300 345-26 27-38 39-16 63 95 2 204-5 287 7 22 4 49 51 49 77 0 63-95 31-141 31H320C244-52 124 2 73 14 50 19-1-26 3-53c6-51 111-140 150-182 94-98 182-189 275-285 55-57 80-102 80-129 1-31-28-24-56-21-120 11-265 81-296 145-13 26-15 67-56 65s-51-21-51-66c0-144 158-200 287-235 61-16 112-24 153-24" id="ae"/><path fill="#635dff" d="M19-91c0-222 71-428 58-668-3-62 121-44 170-33 118 27 229 50 293 128 44 53 63 97 63 217 0 165-189 328-383 400-36 13-62 45-108 45-66 0-93-23-93-89zm185-582c-30 151-43 322-58 489 5 39 27 28 60 14 129-54 276-147 276-304 0-155-106-203-278-199" id="af"/><path fill="#635dff" d="M760-689c54 66 114 194 89 305-22 96-60 182-130 233C644-96 571-43 466-22 362-1 196 2 130-53 83-92 15-170 14-243c-3-132 48-208 100-291 87-138 222-257 433-251 99 3 168 41 213 96zM147-248c0 125 211 119 317 79 118-45 205-117 253-230 30-71-7-171-46-201-79-58-137-52-237-20-103 33-177 98-233 203-36 66-54 122-54 169" id="ag"/><g id="n"><use transform="matrix(0.011111111111111105,0,0,0.011111111111111105,0,0)" xlink:href="#ae"/><use transform="matrix(0.011111111111111105,0,0,0.011111111111111105,7.122222222222218,0)" xlink:href="#af"/><use transform="matrix(0.011111111111111105,0,0,0.011111111111111105,13.833333333333325,0)" xlink:href="#ag"/></g><path fill="#fa0606" d="M49-77C44-40 70-4 106-4c52 0 58-115 69-176 33-185 88-339 106-531 5-55-37-120-88-84-58 41-108 94-156 139-9 8-27 43-27 58-1 28 35 54 60 54 15-1 48-23 43 15" id="ah"/><path fill="#fa0606" d="M608-642l-20 77c-36 56-69 94-113 138-49 48-58 40-29 81 33 46 69 89 97 147 44 89 52 141 40 147-3 38-20 49-63 52-68 5-97-106-129-160-40-68-56-162-144-164-53-1-27 78-45 121-7 56-12 123-28 170C157-4 113 24 66-1 46-11 40-39 49-87c19-111 19-139 19-313 0-144 1-187-40-242-27-37-13-94 26-108 103-36 250-59 389-41 63 8 182 85 165 149zm-140 11c-10-39-42-58-96-57-53 12-154 21-179 43-5 9-8 31-8 65 0 151 19 135 127 94 94-36 148-79 156-145" id="ai"/><path fill="#fa0606" d="M760-689c54 66 114 194 89 305-22 96-60 182-130 233C644-96 571-43 466-22 362-1 196 2 130-53 83-92 15-170 14-243c-3-132 48-208 100-291 87-138 222-257 433-251 99 3 168 41 213 96zM147-248c0 125 211 119 317 79 118-45 205-117 253-230 30-71-7-171-46-201-79-58-137-52-237-20-103 33-177 98-233 203-36 66-54 122-54 169" id="aj"/><g id="o"><use transform="matrix(0.011111111111111105,0,0,0.011111111111111105,0,0)" xlink:href="#ah"/><use transform="matrix(0.011111111111111105,0,0,0.011111111111111105,3.1444444444444426,0)" xlink:href="#ai"/><use transform="matrix(0.011111111111111105,0,0,0.011111111111111105,10.011111111111106,0)" xlink:href="#aj"/></g></defs></g></svg>