<svg xmlns="http://www.w3.org/2000/svg" xmlns:xlink="http://www.w3.org/1999/xlink" xmlns:lucid="lucid" width="1274.86" height="425.46"><g transform="translate(132.42782557027687 -64.89315510818591)" lucid:page-tab-id="0_0"><path d="M-112.43 90.9a6 6 0 0 1 6-6h168a6 6 0 0 1 6 6v28a6 6 0 0 1-6 6h-168a6 6 0 0 1-6-6z" fill="none"/><use xlink:href="#a" transform="matrix(1,0,0,1,-112.42782557027687,84.89315510818591) translate(54.63333333333333 30.244444444444444)"/><path d="M76.57 90.9a6 6 0 0 1 6-6h168a6 6 0 0 1 6 6v28a6 6 0 0 1-6 6h-168a6 6 0 0 1-6-6z" fill="none"/><use xlink:href="#b" transform="matrix(1,0,0,1,76.57227442972084,84.89315510818591) translate(63.8 30.244444444444444)"/><path d="M66.57 85.4a.5.5 0 0 1 .5.5V469a.5.5 0 0 1-.5.5.5.5 0 0 1-.5-.5V85.9a.5.5 0 0 1 .5-.5z" stroke="#6f7681" fill="none"/><path d="M-79.75 125.9a.5.5 0 0 1 .5-.5H489a.5.5 0 0 1 .5.5.5.5 0 0 1-.5.5H-79.25a.5.5 0 0 1-.5-.5z" stroke="#6f7681" fill="none"/><path d="M-23.43 170.9a6 6 0 0 1 6-6h28a6 6 0 0 1 6 6v28a6 6 0 0 1-6 6h-28a6 6 0 0 1-6-6z" stroke="#000" fill="#cfe4ff"/><path d="M6.57 184.9c0 5.52-4.48 10-10 10s-10-4.48-10-10c0-5.53 4.48-10 10-10 5.53 0 10 4.47 10 10z" stroke="#000"/><path d="M-63.43 141.9a6 6 0 0 1 6-6h108a6 6 0 0 1 6 6v18a6 6 0 0 1-6 6h-108a6 6 0 0 1-6-6z" fill="none"/><use xlink:href="#c" transform="matrix(1,0,0,1,-63.42792557027468,135.8931551081859) translate(45.48444444444445 19.09777777777778)"/><path d="M105.57 160.9a6 6 0 0 1 6-6h148a6 6 0 0 1 6 6v48a6 6 0 0 1-6 6h-148a6 6 0 0 1-6-6z" stroke="#000" fill="#cfe4ff"/><path d="M116.07 170a6 6 0 0 1 6-6h28a6 6 0 0 1 6 6v28a6 6 0 0 1-6 6h-28a6 6 0 0 1-6-6z" stroke="#000" fill="#b8f5ed"/><use xlink:href="#d" transform="matrix(1,0,0,1,121.06558297458895,169) translate(8.827160493827162 19.65277777777778)"/><path d="M165.57 169.88a6 6 0 0 1 6-6h28a6 6 0 0 1 6 6v28a6 6 0 0 1-6 6h-28a6 6 0 0 1-6-6zM215.08 169.88a6 6 0 0 1 6-6h28a6 6 0 0 1 6 6v28a6 6 0 0 1-6 6h-28a6 6 0 0 1-6-6z" stroke="#000" fill="#b8f5ed"/><path d="M195.57 183.28c0 5.53-4.47 10-10 10-5.52 0-10-4.47-10-10 0-5.52 4.48-10 10-10 5.53 0 10 4.48 10 10zM245.57 183.28c0 5.53-4.47 10-10 10-5.52 0-10-4.47-10-10 0-5.52 4.48-10 10-10 5.53 0 10 4.48 10 10z" stroke="#000"/><path d="M8.08 184.9h78.5" stroke="#000" stroke-width="2" stroke-linejoin="round" fill="none"/><path d="M8.1 185.9H6.95l.13-1-.13-1H8.1z" stroke="#000" stroke-width=".05"/><path d="M101.84 184.9l-14.27 4.63v-9.27z" stroke="#000" stroke-width="2" fill="#fff"/><path d="M125.57 132.9a6 6 0 0 1 6-6h108a6 6 0 0 1 6 6v18a6 6 0 0 1-6 6h-108a6 6 0 0 1-6-6z" fill="none"/><use xlink:href="#e" transform="matrix(1,0,0,1,125.57217442972313,126.89315510818591) translate(32.47111111111113 19.09777777777778)"/><use xlink:href="#f" transform="matrix(1,0,0,1,125.57217442972313,126.89315510818591) translate(70.88 19.09777777777778)"/><path d="M185.5 194.8l-.04.72-.3 1.6-.53 1.52-.74 1.53-1.07 1.6-1.52 1.73-2.35 2.1-4.38 2.9-16.98 9.43" stroke="#000" stroke-width="2" stroke-linejoin="round" fill="none"/><path d="M186.5 194.88l-2-.13.08-1.1 1 .14 1-.14z" stroke="#000" stroke-width=".05"/><path d="M149 229.3l4.9-14.18 7.4 5.58z" stroke="#000" stroke-width="2" fill="#fff"/><path d="M235.64 194.8l.06.37.1.45.13.45.17.45.2.47.24.46.3.5.35.5.42.56.5.58.65.63.8.7 1 .76 1.3.87 1.72 1 2.4 1.22 3.58 1.5 6 2.1 45.27 12.84 1.26.53" stroke="#000" stroke-width="2" stroke-linejoin="round" fill="none"/><path d="M235.57 193.8l1-.14.03 1.12-2 .07-.03-1.2z" stroke="#000" stroke-width=".05"/><path d="M312.5 231.54l-13.57-6.4 6.35-6.75z" stroke="#000" stroke-width="2" fill="#fff"/><path d="M41.5 237.9a6 6 0 0 1 6-6h203.07a6 6 0 0 1 6 6v7.25a6 6 0 0 1-6 6H47.5a6 6 0 0 1-6-6z" fill="none"/><use xlink:href="#g" transform="matrix(1,0,0,1,41.493508544863516,231.88899116930685) translate(31.293333333333365 14.097777777777775)"/><use xlink:href="#h" transform="matrix(1,0,0,1,41.493508544863516,231.88899116930685) translate(51.666666666666686 14.097777777777775)"/><use xlink:href="#i" transform="matrix(1,0,0,1,41.493508544863516,231.88899116930685) translate(154.10222222222222 14.097777777777775)"/><path d="M266 240.26a6 6 0 0 1 6-6h85.7a6 6 0 0 1 6 6V254a6 6 0 0 1-6 6H272a6 6 0 0 1-6-6z" stroke="#000" fill="#00c2a8"/><path d="M272.7 243.5a6 6 0 0 1 6-6h8a6 6 0 0 1 6 6v7.26a6 6 0 0 1-6 6h-8a6 6 0 0 1-6-6z" stroke="#000" fill="#cfe4ff"/><path d="M287.7 247.13c0 2.5-2.22 4.5-5 4.5-2.75 0-5-2-5-4.5 0-2.48 2.25-4.5 5-4.5 2.78 0 5 2.02 5 4.5z" stroke="#000"/><path d="M337.22 243.5a6 6 0 0 1 6-6h8a6 6 0 0 1 6 6v7.26a6 6 0 0 1-6 6h-8a6 6 0 0 1-6-6z" stroke="#000" fill="#cfe4ff"/><path d="M352.22 247.13c0 2.5-2.24 4.5-5 4.5s-5-2-5-4.5c0-2.48 2.24-4.5 5-4.5s5 2.02 5 4.5z" stroke="#000"/><path d="M304.86 243.5a6 6 0 0 1 6-6h8a6 6 0 0 1 6 6v7.26a6 6 0 0 1-6 6h-8a6 6 0 0 1-6-6z" stroke="#000" fill="#cfe4ff"/><path d="M319.86 247.13c0 2.5-2.24 4.5-5 4.5s-5-2-5-4.5c0-2.48 2.24-4.5 5-4.5s5 2.02 5 4.5z" stroke="#000"/><path d="M153.3 284.6a6 6 0 0 1 6-6H245a6 6 0 0 1 6 6v13.75a6 6 0 0 1-6 6h-85.7a6 6 0 0 1-6-6z" stroke="#000" fill="#008a0e"/><path d="M160 287.85a6 6 0 0 1 6-6h8a6 6 0 0 1 6 6v7.25a6 6 0 0 1-6 6h-8a6 6 0 0 1-6-6z" stroke="#000" fill="#cfe4ff"/><path d="M175 291.48c0 2.48-2.24 4.5-5 4.5s-5-2.02-5-4.5c0-2.5 2.24-4.5 5-4.5s5 2 5 4.5z" stroke="#000"/><path d="M224.5 287.85a6 6 0 0 1 6-6h8a6 6 0 0 1 6 6v7.25a6 6 0 0 1-6 6h-8a6 6 0 0 1-6-6z" stroke="#000" fill="#cfe4ff"/><path d="M239.5 291.48c0 2.48-2.23 4.5-5 4.5-2.75 0-5-2.02-5-4.5 0-2.5 2.25-4.5 5-4.5 2.77 0 5 2 5 4.5z" stroke="#000"/><path d="M212.14 287.85a6 6 0 0 0-6-6h-8a6 6 0 0 0-6 6v7.25a6 6 0 0 0 6 6h8a6 6 0 0 0 6-6z" stroke="#000" fill="#cfe4ff"/><path d="M207.14 291.48c0 2.48-2.23 4.5-5 4.5-2.76 0-5-2.02-5-4.5 0-2.5 2.24-4.5 5-4.5 2.77 0 5 2 5 4.5z" stroke="#000"/><path d="M390.43 284.6a6 6 0 0 1 6-6h85.7a6 6 0 0 1 6 6v13.75a6 6 0 0 1-6 6h-85.7a6 6 0 0 1-6-6z" stroke="#000" fill="#00c2a8"/><path d="M397.14 287.85a6 6 0 0 1 6-6h8a6 6 0 0 1 6 6v7.25a6 6 0 0 1-6 6h-8a6 6 0 0 1-6-6z" stroke="#000" fill="#cfe4ff"/><path d="M412.14 291.48c0 2.48-2.24 4.5-5 4.5s-5-2.02-5-4.5c0-2.5 2.24-4.5 5-4.5s5 2 5 4.5z" stroke="#000"/><path d="M461.65 287.85a6 6 0 0 1 6-6h8a6 6 0 0 1 6 6v7.25a6 6 0 0 1-6 6h-8a6 6 0 0 1-6-6z" stroke="#000" fill="#cfe4ff"/><path d="M476.65 291.48c0 2.48-2.24 4.5-5 4.5s-5-2.02-5-4.5c0-2.5 2.24-4.5 5-4.5s5 2 5 4.5z" stroke="#000"/><path d="M429.3 287.85a6 6 0 0 1 6-6h8a6 6 0 0 1 6 6v7.25a6 6 0 0 1-6 6h-8a6 6 0 0 1-6-6z" stroke="#000" fill="#cfe4ff"/><path d="M444.3 291.48c0 2.48-2.25 4.5-5 4.5-2.78 0-5-2.02-5-4.5 0-2.5 2.22-4.5 5-4.5 2.75 0 5 2 5 4.5z" stroke="#000"/><path d="M158.5 398.86a6 6 0 0 1 6-6h85.72a6 6 0 0 1 6 6v13.75a6 6 0 0 1-6 6h-85.7a6 6 0 0 1-6-6z" stroke="#000" fill="#635dff"/><path d="M165.22 402.1a6 6 0 0 1 6-6h8a6 6 0 0 1 6 6v7.26a6 6 0 0 1-6 6h-8a6 6 0 0 1-6-6z" stroke="#000" fill="#cfe4ff"/><path d="M180.22 405.74c0 2.48-2.24 4.5-5 4.5s-5-2.02-5-4.5c0-2.5 2.24-4.5 5-4.5s5 2 5 4.5z" stroke="#000"/><path d="M229.73 402.1a6 6 0 0 1 6-6h8a6 6 0 0 1 6 6v7.26a6 6 0 0 1-6 6h-8a6 6 0 0 1-6-6z" stroke="#000" fill="#cfe4ff"/><path d="M244.73 405.74c0 2.48-2.24 4.5-5 4.5s-5-2.02-5-4.5c0-2.5 2.24-4.5 5-4.5s5 2 5 4.5z" stroke="#000"/><path d="M197.36 402.1a6 6 0 0 1 6-6h8a6 6 0 0 1 6 6v7.26a6 6 0 0 1-6 6h-8a6 6 0 0 1-6-6z" stroke="#000" fill="#cfe4ff"/><path d="M212.36 405.74c0 2.48-2.24 4.5-5 4.5s-5-2.02-5-4.5c0-2.5 2.24-4.5 5-4.5s5 2 5 4.5z" stroke="#000"/><path d="M246.57 341.35a6 6 0 0 1 6-6h85.72a6 6 0 0 1 6 6v13.75a6 6 0 0 1-6 6h-85.73a6 6 0 0 1-6-6z" stroke="#000" fill="#00c2a8"/><path d="M253.28 344.6a6 6 0 0 1 6-6h8a6 6 0 0 1 6 6v7.25a6 6 0 0 1-6 6h-8a6 6 0 0 1-6-6z" stroke="#000" fill="#cfe4ff"/><path d="M268.3 348.22c0 2.5-2.25 4.5-5 4.5-2.78 0-5-2-5-4.5 0-2.48 2.22-4.5 5-4.5 2.75 0 5 2.02 5 4.5z" stroke="#000"/><path d="M317.8 344.6a6 6 0 0 1 6-6h8a6 6 0 0 1 6 6v7.25a6 6 0 0 1-6 6h-8a6 6 0 0 1-6-6z" stroke="#000" fill="#cfe4ff"/><path d="M332.8 348.22c0 2.5-2.25 4.5-5 4.5-2.77 0-5-2-5-4.5 0-2.48 2.23-4.5 5-4.5 2.75 0 5 2.02 5 4.5z" stroke="#000"/><path d="M285.43 344.6a6 6 0 0 1 6-6h8a6 6 0 0 1 6 6v7.25a6 6 0 0 1-6 6h-8a6 6 0 0 1-6-6z" stroke="#000" fill="#cfe4ff"/><path d="M300.43 348.22c0 2.5-2.24 4.5-5 4.5s-5-2-5-4.5c0-2.48 2.24-4.5 5-4.5s5 2.02 5 4.5z" stroke="#000"/><path d="M282.65 253.13l-.37 5.82-1.22 6.37-1.84 5.6-2.26 4.76-2.52 3.93-2.68 3.2-2.8 2.58-.3.2" stroke="#000" stroke-width="2" stroke-linejoin="round" fill="none"/><path d="M282.68 252.14l1.05-.15-.08 1.22-2-.12.08-1.24z" stroke="#000" stroke-width=".05"/><path d="M254.56 290.43l12-9 3 8.76z" stroke="#000" stroke-width="2" fill="#fff"/><path d="M234.57 297.47l.08 1.2.38 1.94.62 1.83.88 1.8 1.24 1.86 1.82 2.06 3.02 2.65 13.07 9.24" stroke="#000" stroke-width="2" stroke-linejoin="round" fill="none"/><path d="M234.47 296.48l1.03-.15.07 1.1-2 .13-.08-1.37z" stroke="#000" stroke-width=".05"/><path d="M263.44 332.12l-11.6-9.5 7.8-5z" stroke="#000" stroke-width="2" fill="#fff"/><path d="M189.73 458.35a6 6 0 0 1 6-6h28a6 6 0 0 1 6 6v6a6 6 0 0 1-6 6h-28a6 6 0 0 1-6-6z" fill="none"/><use xlink:href="#j" transform="matrix(1,0,0,1,189.72624912420176,452.35152884893) translate(2.713333333333342 15.719999999999995)"/><path d="M279.86 386a6 6 0 0 1 6-6h28a6 6 0 0 1 6 6v6a6 6 0 0 1-6 6h-28a6 6 0 0 1-6-6z" fill="none"/><use xlink:href="#j" transform="matrix(1,0,0,1,279.8567331069622,380) translate(2.713333333333342 15.719999999999995)"/><path d="M421.65 334.47a6 6 0 0 1 6-6h28a6 6 0 0 1 6 6v6a6 6 0 0 1-6 6h-28a6 6 0 0 1-6-6z" fill="none"/><use xlink:href="#j" transform="matrix(1,0,0,1,421.6476832393399,328.47444671198707) translate(2.713333333333342 15.719999999999995)"/><path d="M169.94 297.47l-.05.73-.32 1.6-.5 1.52-.74 1.5-1.04 1.6-1.5 1.72-2.27 2.05-4.13 2.8-17.75 9.88" stroke="#000" stroke-width="2" stroke-linejoin="round" fill="none"/><path d="M169.96 296.48l1.05-.15-.07 1.23-2-.12.08-1.24z" stroke="#000" stroke-width=".05"/><path d="M133.1 332.26l4.87-14.2 7.4 5.6z" stroke="#000" stroke-width="2" fill="#fff"/><path d="M407.23 302.6l.06.64.4 1.5.7 1.46 1.18 1.58 2.03 1.9 4.92 3.1 6.07 3.33" stroke="#000" stroke-width="2" stroke-linejoin="round" fill="none"/><path d="M408.23 302.54l-2 .17-.1-1.1h2z" stroke="#000" stroke-width=".05"/><path d="M432.6 326.18l-13.33-6.84 6.57-6.54z" stroke="#000" stroke-width="2" fill="#fff"/><path d="M175.28 411.74l.1 1.5.4 2.2.62 2.03.87 1.96 1.2 2 1.7 2.15 2.63 2.64 12.97 10.5" stroke="#000" stroke-width="2" stroke-linejoin="round" fill="none"/><path d="M175.18 410.74l1.03-.15.08 1.1-2 .12-.08-1.37z" stroke="#000" stroke-width=".05"/><path d="M202.6 449.5l-10.8-10.38 8.16-4.38z" stroke="#000" stroke-width="2" fill="#fff"/><path d="M239.67 411.74l-.1 1.86-.46 2.48-.7 2.25-.95 2.16-1.32 2.18-1.92 2.45-3.53 3.53-8.28 7.47" stroke="#000" stroke-width="2" stroke-linejoin="round" fill="none"/><path d="M239.7 410.74l1.04-.15-.08 1.22-2-.12.08-1.24z" stroke="#000" stroke-width=".05"/><path d="M216.2 449.42l1.82-14.9 8.4 3.9z" stroke="#000" stroke-width="2" fill="#fff"/><path d="M327.7 354.22l-.1.96-.5 1.74-.85 1.7-1.42 1.84-2.72 2.4-6.08 4.06" stroke="#000" stroke-width="2" stroke-linejoin="round" fill="none"/><path d="M327.76 353.23l1.05-.15-.1 1.26-2-.2.1-1.2z" stroke="#000" stroke-width=".05"/><path d="M306.5 377.6l6.05-13.74 6.9 6.18z" stroke="#000" stroke-width="2" fill="#fff"/><path d="M529.06 285.15a6 6 0 0 1 6.1-5.9l38.84.65a6 6 0 0 0 6.1-5.9l.3-18.67a2.5 2.5 0 0 1 4.3-1.7l31.12 32.07a5.98 5.98 0 0 1-.14 8.46l-32.18 31a2.5 2.5 0 0 1-4.23-1.84l.32-18.67a6 6 0 0 0-5.9-6.1l-38.86-.65a6 6 0 0 1-5.9-6.1z" fill-opacity="0"/><path d="M530.06 285.16c0 .56-.47 1-1.02 1-.55-.02-1-.48-.98-1.03 0-.55.46-1 1-.98.56 0 1 .46 1 1zm1.82-4.2c0 .54-.46.98-1 .97-.56 0-1-.46-1-1 0-.56.47-1 1.02-1s1 .47.98 1.02zm4.28-1.7c0 .56-.47 1-1.02 1-.55-.02-1-.48-.98-1.03 0-.55.46-1 1-.98.56 0 1 .46 1 1zm3.88.07c0 .55-.46 1-1.02.98-.55 0-1-.45-.98-1 0-.56.46-1 1.02-1 .55.02 1 .48.98 1.03zm3.88.07c0 .55-.46 1-1 .98-.56 0-1-.47-1-1.02s.47-1 1.02-.98c.55 0 1 .46.98 1.02zm3.9.06c-.02.55-.48 1-1.03.98-.56 0-1-.46-1-1 .02-.57.47-1 1.03-1 .55 0 1 .47.98 1.02zm3.87.07c-.02.55-.47 1-1.02.98-.55 0-1-.46-1-1 .02-.56.48-1 1.03-1 .56.02 1 .47 1 1.03zm3.88.06c0 .54-.47.98-1.02.97-.55 0-1-.46-.98-1 0-.56.46-1 1-1 .57 0 1 .47 1 1.02zm3.88.06c0 .55-.46 1-1 .98-.57 0-1-.47-1-1.02s.47-1 1.02-.98c.55 0 1 .46.98 1.02zm3.9.06c-.02.55-.48 1-1.03.98-.55 0-1-.46-.98-1 0-.56.46-1 1-1 .57 0 1 .47 1 1.02zm3.87.07c0 .54-.46.98-1.02.97-.54 0-.98-.47-.97-1.02 0-.55.47-1 1.02-.98.55 0 1 .46.98 1.02zm3.9.05c-.02.55-.48 1-1.03.98-.55 0-1-.46-.98-1 0-.56.46-1 1-1 .57 0 1 .47 1 1.02zm3.87.07c0 .55-.46 1-1.02.98-.55 0-1-.47-.98-1.02 0-.55.47-1 1.02-.98.55 0 1 .46.98 1.02zm4.27-1.7c0 .56-.46 1-1 1-.57-.02-1-.47-1-1.02 0-.56.47-1 1.02-1 .54.02.98.48.97 1.03zm1.83-4.2c0 .55-.46 1-1.02.98-.55 0-1-.46-.98-1.02 0-.55.47-1 1.02-.98.55 0 1 .47.98 1.02zm.06-3.74c0 .56-.46 1-1 1-.57-.02-1-.48-1-1.03s.47-1 1.02-.98c.55 0 1 .46.98 1zm.07-3.73c0 .55-.47 1-1.02.98-.54 0-.98-.46-.97-1 0-.57.46-1 1-1 .57 0 1 .47 1 1.02zm.06-3.73c-.02.55-.48 1-1.03.98-.55 0-1-.47-.98-1.02 0-.55.45-1 1-.98.56 0 1 .46 1 1.02zm.05-3.74c0 .55-.46 1-1.02 1-.55-.02-1-.48-.98-1.03 0-.55.47-1 1.02-.98.55 0 1 .46.98 1zm.06-3.73c0 .55-.45 1-1 .98-.56 0-1-.46-1-1.02.02-.54.48-.98 1.03-.97.55 0 1 .47.98 1.02zm4.3-1.7c-.02.56-.47 1-1.02 1-.56-.02-1-.48-1-1.03.02-.55.48-1 1.03-.98.56 0 1 .46 1 1zm2.82 2.92c0 .55-.46 1-1 .98-.57 0-1-.46-1-1.02 0-.55.47-1 1.02-.98.55 0 1 .47.98 1.02zm2.83 2.9c0 .57-.46 1-1 1-.57 0-1-.47-1-1.02s.47-1 1.02-.98c.55 0 1 .46.98 1zm2.83 2.93c0 .55-.46 1-1 .98-.57 0-1-.46-1-1.02 0-.55.47-1 1.02-.98.55 0 1 .47.98 1.02zm2.83 2.9c0 .56-.45 1-1 1-.56-.02-1-.47-1-1.02.02-.55.48-1 1.03-1 .55.02 1 .48.98 1.03zm2.84 2.93c0 .55-.46 1-1 .98-.57 0-1-.46-1-1 0-.56.47-1 1.02-1 .55.02 1 .47.98 1.03zm2.83 2.9c0 .56-.46 1-1.02 1-.55-.02-1-.47-.98-1.02 0-.55.47-1 1.02-.98.54 0 .98.47.97 1.02zm2.83 2.92c0 .56-.46 1-1 1-.57-.02-1-.48-1-1.03s.47-1 1.02-.98c.55 0 1 .46.98 1zm2.83 2.92c0 .55-.46 1-1.02.98-.54 0-.98-.46-.97-1 0-.57.47-1 1.02-1s1 .47.98 1.02zm2.83 2.9c0 .57-.46 1-1.02 1-.55 0-1-.47-.98-1.02 0-.55.47-1 1.02-.98.55 0 1 .46.98 1zm2.83 2.93c-.02.55-.47 1-1.03.98-.55 0-1-.46-.98-1.02 0-.55.46-1 1-.98.56 0 1 .47 1 1.02zm2.82 2.9c0 .56-.46 1-1.02 1-.55 0-1-.47-.98-1.02 0-.55.47-1 1.02-.98.55 0 1 .46.98 1zm1.7 4.27c-.02.56-.48 1-1.03 1-.56-.02-1-.48-1-1.03.02-.55.47-1 1.02-.98.56 0 1 .46 1 1zm-1.84 4.2c0 .56-.47 1-1.02 1-.55-.02-1-.47-.98-1.02 0-.56.46-1 1-1 .57.02 1 .48 1 1.03zm-2.93 2.83c0 .55-.46 1-1 .98-.57 0-1-.46-1-1.02 0-.55.47-1 1.02-.98.55 0 1 .46.98 1.02zm-2.92 2.8c0 .57-.47 1-1.02 1-.54 0-.98-.47-.97-1.02 0-.55.46-1 1-.98.57 0 1 .46 1 1zm-2.93 2.83c0 .55-.46 1-1.02 1-.55-.02-1-.48-.98-1.03 0-.55.47-1 1.02-.98.55 0 1 .46.98 1zm-2.92 2.82c0 .55-.47 1-1.02.98-.55 0-1-.46-.98-1 0-.57.46-1 1-1 .56 0 1 .47 1 1.02zm-2.93 2.82c0 .55-.46 1-1.02.98-.55 0-1-.46-.98-1.02 0-.55.46-1 1.02-.98.55 0 1 .47.98 1.02zm-2.93 2.82c0 .54-.46.98-1 .97-.57 0-1-.46-1-1.02 0-.55.47-1 1.02-.98.55 0 1 .46.98 1.02zm-2.92 2.8c0 .56-.47 1-1.02 1-.55-.02-1-.48-.98-1.03 0-.55.46-1 1-.98.57 0 1 .45 1 1zm-2.93 2.82c0 .55-.46 1-1 1-.57-.02-1-.48-1-1.03 0-.56.47-1 1.02-1 .54.02.98.47.97 1.02zm-2.92 2.82c0 .55-.47 1-1.02.98-.55 0-1-.46-.98-1 0-.57.46-1 1-1 .57 0 1 .47 1 1.02zm-2.93 2.82c0 .55-.46 1-1.02.98-.55 0-1-.46-.98-1.02 0-.55.46-1 1.02-.98.55 0 1 .47.98 1.02zm-2.92 2.82c0 .55-.47 1-1.02.98-.55 0-1-.47-.98-1.02 0-.55.46-1 1-.98.56 0 1 .46 1 1.02zm-4.23-1.84c0 .55-.46 1-1 .98-.57 0-1-.46-1-1 0-.57.47-1 1.02-1 .54 0 .98.47.97 1.02zm.07-3.73c0 .56-.47 1-1.02 1-.55-.02-1-.48-.98-1.03 0-.55.46-1 1-.98.57 0 1 .45 1 1zm.06-3.73c0 .55-.47 1-1.02.98-.55 0-1-.46-.98-1 0-.56.46-1 1.02-1 .55 0 1 .47.98 1.02zm.06-3.73c0 .55-.46 1-1.02.98-.55 0-1-.46-.98-1.02 0-.55.47-1 1.02-.98.55 0 1 .47.98 1.02zm.06-3.74c0 .56-.46 1-1 1-.56-.02-1-.48-1-1.03s.47-1 1.02-.98c.55 0 1 .45.98 1zm.07-3.73c-.02.55-.48 1-1.03.98-.55 0-1-.46-.98-1 0-.57.45-1 1-1 .56 0 1 .47 1 1.02zm-1.7-4.27c0 .55-.46 1-1.02.98-.55 0-1-.46-.98-1.02 0-.55.47-1 1.02-.98.55 0 1 .47.98 1.02zm-4.2-1.83c-.02.55-.48 1-1.03.98-.55 0-1-.46-.98-1 0-.57.45-1 1-1 .56 0 1 .47 1 1.02zm-3.9-.07c0 .56-.46 1-1 1-.57-.02-1-.48-1-1.03s.47-1 1.02-.98c.55 0 1 .45.98 1zm-3.88-.06c0 .55-.47 1-1.02.98-.55 0-1-.46-.98-1 0-.57.46-1 1.02-1 .55 0 1 .47.98 1.02zm-3.9-.07c0 .56-.45 1-1 1-.55-.02-1-.48-1-1.03.02-.55.48-1 1.03-.98.55 0 1 .46.98 1zm-3.87-.06c0 .56-.46 1-1.02 1-.55-.02-1-.47-.98-1.02 0-.56.46-1 1.02-1 .55.02 1 .48.98 1.03zm-3.88-.06c0 .56-.47 1-1.02 1-.55-.02-1-.48-.98-1.03 0-.54.46-.98 1-.97.56 0 1 .46 1 1zm-3.9-.06c0 .55-.45 1-1 .98-.56 0-1-.46-1-1 .02-.57.48-1 1.03-1s1 .47.98 1.02zm-3.87-.07c0 .57-.47 1-1.02 1s-1-.47-.98-1.02c0-.55.46-1 1-.98.57 0 1 .46 1 1zm-3.9-.05c0 .55-.45 1-1 .98-.56 0-1-.46-1-1.02.02-.54.48-.98 1.03-.97.55 0 1 .47.98 1.02zm-3.87-.07c0 .56-.47 1-1.02 1-.54-.02-.98-.48-.97-1.03 0-.55.46-1 1-.98.57 0 1 .46 1 1zm-3.9-.06c0 .55-.45 1-1 .98-.56 0-1-.46-1-1.02.02-.55.48-1 1.03-.98.55 0 1 .47.98 1.02zm-4.2-1.83c0 .54-.46.98-1.02.97-.54 0-.98-.46-.97-1 0-.57.47-1 1.02-1s1 .47.98 1.02zm-1.7-4.28c0 .55-.45 1-1 .98-.56 0-1-.46-1-1 .02-.57.48-1 1.03-1s1 .47.98 1.02zm.07-3.33c0 .54-.46.98-1.02.97-.55 0-1-.46-.98-1 0-.56.46-1 1.02-1 .55 0 1 .47.98 1.02zm.06-3.34c0 .56-.47 1-1.02 1-.55-.02-1-.48-.98-1.03 0-.55.46-1 1-.98.56 0 1 .46 1 1z" fill="#d916a8"/><path d="M347.28 253.13l.2 3.7.8 4.42 1.25 4.16 1.7 3.96 2.2 3.74 2.63 3.52 3.13 3.28 3.6 3 4.1 2.66 4.58 2.25.4.15" stroke="#000" stroke-width="2" stroke-linejoin="round" fill="none"/><path d="M347.18 252.14l1.03-.15.08 1.1-2 .12-.08-1.37z" stroke="#000" stroke-width=".05"/><path d="M386.75 290.86l-14.9 1.8 1.8-9.08z" stroke="#000" stroke-width="2" fill="#fff"/><path d="M471.57 297.47l-.1 1.28-.47 2-.77 1.86-1.16 1.9-1.83 2.15-3.65 3.07-5.94 4.37" stroke="#000" stroke-width="2" stroke-linejoin="round" fill="none"/><path d="M471.6 296.48l1.06-.15-.1 1.25-2-.16.1-1.22z" stroke="#000" stroke-width=".05"/><path d="M449.38 325.83l4.43-14.33 7.6 5.34z" stroke="#000" stroke-width="2" fill="#fff"/><path d="M82.3 341.35a6 6 0 0 1 6-6H174a6 6 0 0 1 6 6v13.75a6 6 0 0 1-6 6H88.3a6 6 0 0 1-6-6z" stroke="#000" fill="#00c2a8"/><path d="M89 344.6a6 6 0 0 1 6-6h8a6 6 0 0 1 6 6v7.25a6 6 0 0 1-6 6h-8a6 6 0 0 1-6-6z" stroke="#000" fill="#cfe4ff"/><path d="M104 348.22c0 2.5-2.24 4.5-5 4.5s-5-2-5-4.5c0-2.48 2.24-4.5 5-4.5s5 2.02 5 4.5z" stroke="#000"/><path d="M153.5 344.6a6 6 0 0 1 6-6h8a6 6 0 0 1 6 6v7.25a6 6 0 0 1-6 6h-8a6 6 0 0 1-6-6z" stroke="#000" fill="#cfe4ff"/><path d="M168.5 347.5c0 2.48-2.23 4.5-5 4.5-2.75 0-5-2.02-5-4.5 0-2.5 2.25-4.5 5-4.5 2.77 0 5 2 5 4.5z" stroke="#000"/><path d="M121.14 344.6a6 6 0 0 1 6-6h8a6 6 0 0 1 6 6v7.25a6 6 0 0 1-6 6h-8a6 6 0 0 1-6-6z" stroke="#000" fill="#cfe4ff"/><path d="M136.14 348.22c0 2.5-2.23 4.5-5 4.5-2.76 0-5-2-5-4.5 0-2.48 2.24-4.5 5-4.5 2.77 0 5 2.02 5 4.5z" stroke="#000"/><path d="M76.07 389.24a6 6 0 0 1 6-6h28a6 6 0 0 1 6 6v6a6 6 0 0 1-6 6h-28a6 6 0 0 1-6-6z" fill="none"/><use xlink:href="#k" transform="matrix(1,0,0,1,76.06558297458895,383.2412341434216) translate(2.713333333333342 15.719999999999995)"/><path d="M98.92 354.22l-.82 10.57" stroke="#000" stroke-width="2" stroke-linejoin="round" fill="none"/><path d="M98.96 353.23l1.05-.15-.08 1.25-2-.16.1-1.22z" stroke="#000" stroke-width=".05"/><path d="M96.92 380l-3.52-14.57 9.24.72z" stroke="#000" stroke-width="2" fill="#fff"/><path d="M163.56 353.5l.4 7.06 1.08 5.66 2.22 8.03" stroke="#000" stroke-width="2" stroke-linejoin="round" fill="none"/><path d="M163.47 352.5l1.03-.15.06 1.1-2 .13-.07-1.37z" stroke="#000" stroke-width=".05"/><path d="M169.93 389.17l-7.08-13.22 9.13-1.64z" stroke="#000" stroke-width="2" fill="#fff"/><path d="M184.5 266a6 6 0 0 1 6-6h28a6 6 0 0 1 6 6v6a6 6 0 0 1-6 6h-28a6 6 0 0 1-6-6z" fill="none"/><use xlink:href="#l" transform="matrix(1,0,0,1,184.50659145513418,260.0134392992244) translate(-13.793333333333322 15.719999999999995)"/><path d="M199.5 377.6a6 6 0 0 1 6-6h28a6 6 0 0 1 6 6v6a6 6 0 0 1-6 6h-28a6 6 0 0 1-6-6z" fill="none"/><use xlink:href="#m" transform="matrix(1,0,0,1,199.50659145513418,371.60654700104106) translate(-23.13333333333332 15.719999999999995)"/><path d="M263.37 354.22l.05.55.38 1.42.66 1.38 1.05 1.5 1.8 1.75 3.8 2.56 8.2 4.43" stroke="#000" stroke-width="2" stroke-linejoin="round" fill="none"/><path d="M263.25 353.23l1.03-.15.1 1.08-2 .17-.12-1.4z" stroke="#000" stroke-width=".05"/><path d="M289.47 377.74l-13.45-6.65 6.48-6.64z" stroke="#000" stroke-width="2" fill="#fff"/><path d="M520 91.25a6 6 0 0 1 6-6h168a6 6 0 0 1 6 6v28a6 6 0 0 1-6 6H526a6 6 0 0 1-6-6z" fill="none"/><use xlink:href="#n" transform="matrix(1,0,0,1,520,85.24468395711597) translate(54.63333333333333 30.244444444444444)"/><path d="M709 91.25a6 6 0 0 1 6-6h168a6 6 0 0 1 6 6v28a6 6 0 0 1-6 6H715a6 6 0 0 1-6-6z" fill="none"/><use xlink:href="#o" transform="matrix(1,0,0,1,709.0000999999977,85.24468395711597) translate(63.8 30.244444444444444)"/><path d="M699 85.75a.5.5 0 0 1 .5.5v383.1a.5.5 0 0 1-.5.5.5.5 0 0 1-.5-.5V86.25a.5.5 0 0 1 .5-.5z" stroke="#6f7681" fill="none"/><path d="M552.68 126.25a.5.5 0 0 1 .5-.5h568.25a.5.5 0 0 1 .5.5.5.5 0 0 1-.5.5H553.18a.5.5 0 0 1-.5-.5z" stroke="#6f7681" fill="none"/><path d="M609 171.25a6 6 0 0 1 6-6h28a6 6 0 0 1 6 6v28a6 6 0 0 1-6 6h-28a6 6 0 0 1-6-6z" stroke="#000" fill="#cfe4ff"/><path d="M639 185.25c0 5.52-4.48 10-10 10s-10-4.48-10-10c0-5.53 4.48-10 10-10s10 4.47 10 10z" stroke="#000"/><path d="M569 142.25a6 6 0 0 1 6-6h108a6 6 0 0 1 6 6v18a6 6 0 0 1-6 6H575a6 6 0 0 1-6-6z" fill="none"/><use xlink:href="#p" transform="matrix(1,0,0,1,568.9999000000022,136.24468395711597) translate(45.48444444444445 19.09777777777778)"/><path d="M738 161.25a6 6 0 0 1 6-6h148a6 6 0 0 1 6 6v48a6 6 0 0 1-6 6H744a6 6 0 0 1-6-6z" stroke="#000" fill="#cfe4ff"/><path d="M748.5 170.35a6 6 0 0 1 6-6h28a6 6 0 0 1 6 6v28a6 6 0 0 1-6 6h-28a6 6 0 0 1-6-6z" stroke="#000" fill="#b8f5ed"/><use xlink:href="#q" transform="matrix(1,0,0,1,753.4934085448658,169.35152884893006) translate(8.827160493827162 19.65277777777778)"/><path d="M798 170.23a6 6 0 0 1 6-6h28a6 6 0 0 1 6 6v28a6 6 0 0 1-6 6h-28a6 6 0 0 1-6-6zM847.5 170.23a6 6 0 0 1 6-6h28a6 6 0 0 1 6 6v28a6 6 0 0 1-6 6h-28a6 6 0 0 1-6-6z" stroke="#000" fill="#b8f5ed"/><path d="M828 183.64c0 5.52-4.48 10-10 10s-10-4.48-10-10c0-5.53 4.48-10 10-10s10 4.47 10 10zM878 183.64c0 5.52-4.48 10-10 10s-10-4.48-10-10c0-5.53 4.48-10 10-10s10 4.47 10 10z" stroke="#000"/><path d="M640.5 185.25H719" stroke="#000" stroke-width="2" stroke-linejoin="round" fill="none"/><path d="M640.53 186.25h-1.16l.13-1-.13-1h1.16z" stroke="#000" stroke-width=".05"/><path d="M734.26 185.25L720 189.88v-9.27z" stroke="#000" stroke-width="2" fill="#fff"/><path d="M758 133.25a6 6 0 0 1 6-6h108a6 6 0 0 1 6 6v18a6 6 0 0 1-6 6H764a6 6 0 0 1-6-6z" fill="none"/><use xlink:href="#r" transform="matrix(1,0,0,1,758,127.24468395711597) translate(32.47111111111113 19.09777777777778)"/><use xlink:href="#s" transform="matrix(1,0,0,1,758,127.24468395711597) translate(70.88 19.09777777777778)"/><path d="M817.94 195.14l-.05.74-.32 1.6-.52 1.52-.74 1.52-1.06 1.6-1.52 1.74-2.36 2.08-4.38 2.92-16.98 9.42" stroke="#000" stroke-width="2" stroke-linejoin="round" fill="none"/><path d="M818.93 195.23l-2-.13.08-1.1 1 .14 1-.13z" stroke="#000" stroke-width=".05"/><path d="M781.44 229.66l4.9-14.2 7.4 5.6z" stroke="#000" stroke-width="2" fill="#fff"/><path d="M868.07 195.14l.06.38.1.45.13.45.17.46.2.46.24.47.3.5.35.52.42.55.52.58.64.64.8.68 1 .77 1.3.87 1.72 1 2.4 1.22 3.6 1.52 5.97 2.1 45.28 12.83 1.26.52" stroke="#000" stroke-width="2" stroke-linejoin="round" fill="none"/><path d="M868 194.14l1-.13.03 1.13-2 .07-.03-1.2z" stroke="#000" stroke-width=".05"/><path d="M944.93 231.9l-13.57-6.4 6.35-6.76z" stroke="#000" stroke-width="2" fill="#fff"/><path d="M673.92 238.24a6 6 0 0 1 6-6H883a6 6 0 0 1 6 6v7.26a6 6 0 0 1-6 6H679.92a6 6 0 0 1-6-6z" fill="none"/><use xlink:href="#t" transform="matrix(1,0,0,1,673.9213341151404,232.24052001823688) translate(31.293333333333365 14.097777777777775)"/><use xlink:href="#u" transform="matrix(1,0,0,1,673.9213341151404,232.24052001823688) translate(51.666666666666686 14.097777777777775)"/><use xlink:href="#v" transform="matrix(1,0,0,1,673.9213341151404,232.24052001823688) translate(154.10222222222222 14.097777777777775)"/><path d="M898.43 240.6a6 6 0 0 1 6-6h85.7a6 6 0 0 1 6 6v13.77a6 6 0 0 1-6 6h-85.7a6 6 0 0 1-6-6z" stroke="#000" fill="#00c2a8"/><path d="M905.14 243.86a6 6 0 0 1 6-6h8a6 6 0 0 1 6 6v7.25a6 6 0 0 1-6 6h-8a6 6 0 0 1-6-6z" stroke="#000" fill="#cfe4ff"/><path d="M920.14 247.5c0 2.47-2.24 4.48-5 4.48s-5-2-5-4.5c0-2.48 2.24-4.5 5-4.5s5 2.02 5 4.5z" stroke="#000"/><path d="M969.65 243.86a6 6 0 0 1 6-6h8a6 6 0 0 1 6 6v7.25a6 6 0 0 1-6 6h-8a6 6 0 0 1-6-6z" stroke="#000" fill="#cfe4ff"/><path d="M984.65 247.5c0 2.47-2.24 4.48-5 4.48s-5-2-5-4.5c0-2.48 2.24-4.5 5-4.5s5 2.02 5 4.5z" stroke="#000"/><path d="M937.3 243.86a6 6 0 0 1 6-6h8a6 6 0 0 1 6 6v7.25a6 6 0 0 1-6 6h-8a6 6 0 0 1-6-6z" stroke="#000" fill="#cfe4ff"/><path d="M952.3 247.5c0 2.47-2.25 4.48-5 4.48-2.78 0-5-2-5-4.5 0-2.48 2.22-4.5 5-4.5 2.75 0 5 2.02 5 4.5z" stroke="#000"/><path d="M785.7 284.95a6 6 0 0 1 6-6h85.73a6 6 0 0 1 6 6v13.76a6 6 0 0 1-6 6h-85.7a6 6 0 0 1-6-6z" stroke="#000" fill="#008a0e"/><path d="M792.43 288.2a6 6 0 0 1 6-6h8a6 6 0 0 1 6 6v7.25a6 6 0 0 1-6 6h-8a6 6 0 0 1-6-6z" stroke="#000" fill="#cfe4ff"/><path d="M807.43 291.83c0 2.48-2.24 4.5-5 4.5s-5-2.02-5-4.5c0-2.5 2.24-4.5 5-4.5s5 2 5 4.5z" stroke="#000"/><path d="M856.93 288.2a6 6 0 0 1 6-6h8a6 6 0 0 1 6 6v7.25a6 6 0 0 1-6 6h-8a6 6 0 0 1-6-6z" stroke="#000" fill="#cfe4ff"/><path d="M871.93 291.83c0 2.48-2.23 4.5-5 4.5-2.76 0-5-2.02-5-4.5 0-2.5 2.24-4.5 5-4.5 2.77 0 5 2 5 4.5z" stroke="#000"/><path d="M844.57 288.2a6 6 0 0 0-6-6h-8a6 6 0 0 0-6 6v7.25a6 6 0 0 0 6 6h8a6 6 0 0 0 6-6z" stroke="#000" fill="#cfe4ff"/><path d="M839.57 291.83c0 2.48-2.24 4.5-5 4.5s-5-2.02-5-4.5c0-2.5 2.24-4.5 5-4.5s5 2 5 4.5z" stroke="#000"/><path d="M1022.86 284.95a6 6 0 0 1 6-6h85.7a6 6 0 0 1 6 6v13.76a6 6 0 0 1-6 6h-85.7a6 6 0 0 1-6-6z" stroke="#000" fill="#00c2a8"/><path d="M1029.57 288.2a6 6 0 0 1 6-6h8a6 6 0 0 1 6 6v7.25a6 6 0 0 1-6 6h-8a6 6 0 0 1-6-6z" stroke="#000" fill="#cfe4ff"/><path d="M1044.57 291.83c0 2.48-2.24 4.5-5 4.5s-5-2.02-5-4.5c0-2.5 2.24-4.5 5-4.5s5 2 5 4.5z" stroke="#000"/><path d="M1094.08 288.2a6 6 0 0 1 6-6h8a6 6 0 0 1 6 6v7.25a6 6 0 0 1-6 6h-8a6 6 0 0 1-6-6z" stroke="#000" fill="#cfe4ff"/><path d="M1109.08 291.83c0 2.48-2.24 4.5-5 4.5-2.77 0-5-2.02-5-4.5 0-2.5 2.23-4.5 5-4.5 2.76 0 5 2 5 4.5z" stroke="#000"/><path d="M1061.7 288.2a6 6 0 0 1 6-6h8a6 6 0 0 1 6 6v7.25a6 6 0 0 1-6 6h-8a6 6 0 0 1-6-6z" stroke="#000" fill="#cfe4ff"/><path d="M1076.7 291.83c0 2.48-2.23 4.5-5 4.5-2.75 0-5-2.02-5-4.5 0-2.5 2.25-4.5 5-4.5 2.77 0 5 2 5 4.5z" stroke="#000"/><path d="M790.93 399.2a6 6 0 0 1 6-6h85.72a6 6 0 0 1 6 6v13.77a6 6 0 0 1-6 6h-85.72a6 6 0 0 1-6-6z" stroke="#000" fill="#635dff"/><path d="M797.65 402.46a6 6 0 0 1 6-6h8a6 6 0 0 1 6 6v7.26a6 6 0 0 1-6 6h-8a6 6 0 0 1-6-6z" stroke="#000" fill="#cfe4ff"/><path d="M812.65 406.1c0 2.47-2.24 4.48-5 4.48s-5-2-5-4.5c0-2.47 2.24-4.5 5-4.5s5 2.03 5 4.5z" stroke="#000"/><path d="M862.15 402.46a6 6 0 0 1 6-6h8a6 6 0 0 1 6 6v7.26a6 6 0 0 1-6 6h-8a6 6 0 0 1-6-6z" stroke="#000" fill="#cfe4ff"/><path d="M877.15 406.1c0 2.47-2.24 4.48-5 4.48s-5-2-5-4.5c0-2.47 2.24-4.5 5-4.5s5 2.03 5 4.5z" stroke="#000"/><path d="M829.8 402.46a6 6 0 0 1 6-6h8a6 6 0 0 1 6 6v7.26a6 6 0 0 1-6 6h-8a6 6 0 0 1-6-6z" stroke="#000" fill="#cfe4ff"/><path d="M844.8 406.1c0 2.47-2.25 4.48-5 4.48-2.77 0-5-2-5-4.5 0-2.47 2.23-4.5 5-4.5 2.75 0 5 2.03 5 4.5z" stroke="#000"/><path d="M879 341.7a6 6 0 0 1 6-6h85.7a6 6 0 0 1 6 6v13.75a6 6 0 0 1-6 6H885a6 6 0 0 1-6-6z" stroke="#000" fill="#00c2a8"/><path d="M885.7 344.95a6 6 0 0 1 6-6h8a6 6 0 0 1 6 6v7.25a6 6 0 0 1-6 6h-8a6 6 0 0 1-6-6z" stroke="#000" fill="#cfe4ff"/><path d="M900.7 348.58c0 2.48-2.23 4.5-5 4.5-2.75 0-5-2.02-5-4.5 0-2.5 2.25-4.5 5-4.5 2.77 0 5 2 5 4.5z" stroke="#000"/><path d="M950.22 344.95a6 6 0 0 1 6-6h8a6 6 0 0 1 6 6v7.25a6 6 0 0 1-6 6h-8a6 6 0 0 1-6-6z" stroke="#000" fill="#cfe4ff"/><path d="M965.22 348.58c0 2.48-2.24 4.5-5 4.5s-5-2.02-5-4.5c0-2.5 2.24-4.5 5-4.5s5 2 5 4.5z" stroke="#000"/><path d="M917.86 344.95a6 6 0 0 1 6-6h8a6 6 0 0 1 6 6v7.25a6 6 0 0 1-6 6h-8a6 6 0 0 1-6-6z" stroke="#000" fill="#cfe4ff"/><path d="M932.86 348.58c0 2.48-2.24 4.5-5 4.5s-5-2.02-5-4.5c0-2.5 2.24-4.5 5-4.5s5 2 5 4.5z" stroke="#000"/><path d="M915.12 253.5l-.06 2.77-.22 3.53-.35 3.33-.47 3.16-.58 3-.68 2.9-.78 2.8-.9 2.72-1 2.67-1.1 2.63-1.23 2.6-1.37 2.64-1.54 2.66-1.73 2.72-1.96 2.83-2.27 3-2.68 3.23-3.3 3.68-4.44 4.5-8.15 7.6-17.35 15.82-4.43 4.52-3.3 3.67-2.7 3.23-2.26 3-1.97 2.8-1.73 2.74-1.54 2.65-1.37 2.63-1.24 2.62-1.1 2.63-1 2.68-.9 2.72-.77 2.8-.33 1.36" stroke="#fe7070" stroke-width="2" stroke-linejoin="round" fill="none"/><path d="M915.1 252.5l1.04-.16-.02 1.2-2-.05.03-1.3z" stroke="#fe7070" stroke-width=".05" fill="#fe7070"/><path d="M836.68 389.5l-3.02-14.7 9.2 1.03z" stroke="#fe7070" stroke-width="2" fill="#fff"/><path d="M912.3 386.35a6 6 0 0 1 6-6h28a6 6 0 0 1 6 6v6a6 6 0 0 1-6 6h-28a6 6 0 0 1-6-6z" fill="none"/><use xlink:href="#k" transform="matrix(1,0,0,1,912.284558677239,380.3515288489299) translate(2.713333333333342 15.719999999999995)"/><path d="M1054.08 334.83a6 6 0 0 1 6-6h28a6 6 0 0 1 6 6v6a6 6 0 0 1-6 6h-28a6 6 0 0 1-6-6z" fill="none"/><use xlink:href="#k" transform="matrix(1,0,0,1,1054.0755088096168,328.8259755609172) translate(2.713333333333342 15.719999999999995)"/><path d="M1039.66 302.95l.05.64.43 1.48.7 1.47 1.17 1.58 2.04 1.9 4.9 3.1 6.08 3.33" stroke="#000" stroke-width="2" stroke-linejoin="round" fill="none"/><path d="M1040.66 302.9l-2 .17-.1-1.12h2z" stroke="#000" stroke-width=".05"/><path d="M1065.04 326.53l-13.35-6.84 6.57-6.55z" stroke="#000" stroke-width="2" fill="#fff"/><path d="M796.15 406.03l-2.62-.14-3.3-.58-3.1-.9-2.9-1.2-2.8-1.58-2.7-1.94-2.63-2.4-2.58-2.93-2.48-3.58-2.34-4.36-2.1-5.22-.27-1.04" stroke="#fc9432" stroke-width="2" stroke-linejoin="round" fill="none"/><path d="M797.15 405.1v2l-1.08-.07.1-2z" stroke="#fc9432" stroke-width=".05" fill="#fc9432"/><path d="M764.06 365.15l6.7 13.42-9.15 1.38z" stroke="#fc9432" stroke-width="2" fill="#fff"/><path d="M878.66 406.03l1.22-.06 1.85-.32 1.6-.46 1.4-.6 1.3-.73 1.22-.87 1.15-1.05 1.13-1.28 1.1-1.6 1.12-2.07 1.12-2.8 1.1-4.1 1.02-6.75.06-2.9" stroke="#fc9432" stroke-width="2" stroke-linejoin="round" fill="none"/><path d="M878.74 407.03l-1.42.08.35-.97-.2-1.03 1.16-.07z" stroke="#fc9432" stroke-width=".05" fill="#fc9432"/><path d="M895.44 365.2l4.28 14.37-9.27-.23z" stroke="#fc9432" stroke-width="2" fill="#fff"/><path d="M960.13 354.57l-.1.97-.5 1.74-.85 1.7-1.42 1.83-2.72 2.4-6.1 4.08" stroke="#000" stroke-width="2" stroke-linejoin="round" fill="none"/><path d="M960.18 353.58l1.06-.15-.12 1.26-2-.2.12-1.2z" stroke="#000" stroke-width=".05"/><path d="M938.92 377.94l6.05-13.73 6.92 6.2z" stroke="#000" stroke-width="2" fill="#fff"/><path d="M979.7 253.5l.22 3.7.78 4.4 1.26 4.16 1.7 3.95 2.2 3.75 2.63 3.52 3.12 3.28 3.62 3 4.1 2.66 4.57 2.27.4.14" stroke="#000" stroke-width="2" stroke-linejoin="round" fill="none"/><path d="M979.6 252.5l1.04-.16.07 1.1-2 .13-.07-1.37z" stroke="#000" stroke-width=".05"/><path d="M1019.18 291.2l-14.9 1.83 1.8-9.1z" stroke="#000" stroke-width="2" fill="#fff"/><path d="M1104 297.82l-.1 1.28-.47 2-.77 1.86-1.16 1.9-1.83 2.14-3.65 3.07-5.94 4.37" stroke="#000" stroke-width="2" stroke-linejoin="round" fill="none"/><path d="M1104.04 296.83l1.05-.15-.1 1.25-2-.16.1-1.2z" stroke="#000" stroke-width=".05"/><path d="M1081.8 326.18l4.44-14.33 7.58 5.34z" stroke="#000" stroke-width="2" fill="#fff"/><path d="M714.7 341.7a6 6 0 0 1 6-6h85.73a6 6 0 0 1 6 6v13.75a6 6 0 0 1-6 6h-85.7a6 6 0 0 1-6-6z" stroke="#000" fill="#00c2a8"/><path d="M721.43 344.95a6 6 0 0 1 6-6h8a6 6 0 0 1 6 6v7.25a6 6 0 0 1-6 6h-8a6 6 0 0 1-6-6z" stroke="#000" fill="#cfe4ff"/><path d="M736.43 348.58c0 2.48-2.24 4.5-5 4.5s-5-2.02-5-4.5c0-2.5 2.24-4.5 5-4.5s5 2 5 4.5z" stroke="#000"/><path d="M785.93 344.95a6 6 0 0 1 6-6h8a6 6 0 0 1 6 6v7.25a6 6 0 0 1-6 6h-8a6 6 0 0 1-6-6z" stroke="#000" fill="#cfe4ff"/><path d="M800.93 347.85c0 2.48-2.23 4.5-5 4.5-2.76 0-5-2.02-5-4.5s2.24-4.5 5-4.5c2.77 0 5 2.02 5 4.5z" stroke="#000"/><path d="M753.57 344.95a6 6 0 0 1 6-6h8a6 6 0 0 1 6 6v7.25a6 6 0 0 1-6 6h-8a6 6 0 0 1-6-6z" stroke="#000" fill="#cfe4ff"/><path d="M768.57 348.58c0 2.48-2.24 4.5-5 4.5s-5-2.02-5-4.5c0-2.5 2.24-4.5 5-4.5s5 2 5 4.5z" stroke="#000"/><path d="M708.5 389.6a6 6 0 0 1 6-6h28a6 6 0 0 1 6 6v6a6 6 0 0 1-6 6h-28a6 6 0 0 1-6-6z" fill="none"/><use xlink:href="#k" transform="matrix(1,0,0,1,708.4934085448659,383.5927629923516) translate(2.713333333333342 15.719999999999995)"/><path d="M731.35 354.57l-.82 10.58" stroke="#000" stroke-width="2" stroke-linejoin="round" fill="none"/><path d="M731.4 353.58l1.04-.15-.1 1.25-2-.16.1-1.22z" stroke="#000" stroke-width=".05"/><path d="M729.34 380.37l-3.5-14.6 9.23.73z" stroke="#000" stroke-width="2" fill="#fff"/><path d="M795.9 353.85l-.03.57-.18 1.6-.34 1.7-.5 1.77-.68 1.92-.95 2.13-1.32 2.43-1.86 2.9-2.8 3.68-4.93 5.5-23.78 24.1-2.9 3.8-1.92 2.98-1.38 2.53-1 2.22-.7 2-.52 1.87-.18.8-.4 2.83-.1 2.65.17 2.52.42 2.45.7 2.42.96 2.4 1.3 2.44 1.7 2.5 2.16 2.56 2.75 2.65 3.48 2.7 4.37 2.7 5.3 2.56 6.2 2.22.23.05" stroke="#e81313" stroke-width="2" stroke-linejoin="round" fill="none"/><path d="M795.9 352.86l1.04-.16-.05 1.2-2-.06.04-1.26z" stroke="#e81313" stroke-width=".05" fill="#e81313"/><path d="M794.23 456.28l-14.8 2.48 1.37-9.17z" stroke="#e81313" stroke-width="2" fill="#fff"/><path d="M816.93 266.37a6 6 0 0 1 6-6h28a6 6 0 0 1 6 6v6a6 6 0 0 1-6 6h-28a6 6 0 0 1-6-6z" fill="none"/><use xlink:href="#l" transform="matrix(1,0,0,1,816.934417025411,260.3649681481544) translate(-13.793333333333322 15.719999999999995)"/><path d="M824.57 424.97a6 6 0 0 1 6-6h28a6 6 0 0 1 6 6v6a6 6 0 0 1-6 6h-28a6 6 0 0 1-6-6z" fill="none"/><use xlink:href="#m" transform="matrix(1,0,0,1,824.5712924633101,418.9664834535413) translate(-23.13333333333332 15.719999999999995)"/><path d="M895.8 354.57l.05.55.38 1.42.65 1.4 1.06 1.48 1.8 1.76 3.8 2.56 8.2 4.44" stroke="#000" stroke-width="2" stroke-linejoin="round" fill="none"/><path d="M895.68 353.58l1.03-.15.1 1.08-2 .18-.12-1.4z" stroke="#000" stroke-width=".05"/><path d="M921.9 378.1l-13.45-6.66 6.47-6.63z" stroke="#000" stroke-width="2" fill="#fff"/><path d="M780.75 292.33a.75.75 0 0 1 .75-.75h107a.75.75 0 0 1 .75.75.75.75 0 0 1-.75.75h-107a.75.75 0 0 1-.75-.75z" stroke="#d916a8" stroke-width="1.5" fill="none"/><path d="M714.7 421.72a6 6 0 0 1 6-6h26.87a6 6 0 0 1 6 6v6a6 6 0 0 1-6 6H720.7a6 6 0 0 1-6-6z" fill="none"/><use xlink:href="#w" transform="matrix(1,0,0,1,714.714559356348,415.71558556762074) translate(10.00555555555556 14.883333333333331)"/><path d="M756.14 406.6a6 6 0 0 1 6-6H789a6 6 0 0 1 6 6v6a6 6 0 0 1-6 6h-26.86a6 6 0 0 1-6-6z" fill="none"/><use xlink:href="#x" transform="matrix(1,0,0,1,756.1421293386229,400.61495460461117) translate(8.111111111111118 14.883333333333331)"/><path d="M886.28 399.2a6 6 0 0 1 6-6h26.86a6 6 0 0 1 6 6v6a6 6 0 0 1-6 6h-26.86a6 6 0 0 1-6-6z" fill="none"/><use xlink:href="#x" transform="matrix(1,0,0,1,886.2844586772414,393.2089737358917) translate(8.111111111111118 14.883333333333331)"/><path d="M734.7 289.33a6 6 0 0 1 6-6h26.87a6 6 0 0 1 6 6v6a6 6 0 0 1-6 6H740.7a6 6 0 0 1-6-6z" fill="none"/><g><use xlink:href="#y" transform="matrix(1,0,0,1,734.714559356348,283.3268572013134) translate(7.2222222222222285 14.883333333333331)"/></g><path d="M797.43 451.35a6 6 0 0 1 6-6h28a6 6 0 0 1 6 6v6a6 6 0 0 1-6 6h-28a6 6 0 0 1-6-6z" fill="none"/><g><use xlink:href="#k" transform="matrix(1,0,0,1,797.4278255702768,445.3502727100011) translate(2.713333333333342 15.719999999999995)"/></g><path d="M889 312.3a6 6 0 0 1 6-6h28a6 6 0 0 1 6 6v6a6 6 0 0 1-6 6h-28a6 6 0 0 1-6-6z" fill="none"/><g><use xlink:href="#z" transform="matrix(1,0,0,1,889.0000999999977,306.2887462544724) translate(5.766666666666673 15.719999999999995)"/></g><defs><path fill="#6f7681" d="M371-533c189 0 256 55 239 237-9 91-67 138-157 205C374-33 301-7 236-7 155-7 13-82 18-160c3-44 62-73 96-38 43 44 152 73 218 29 77-51 166-125 156-169 2-44-67-63-119-62-47 1-108 1-155 3C87-393 13-429 1-531c11-87 101-150 165-187 90-52 160-96 290-87 34 2 118 78 115 115-3 35-23 38-55 45-15 4-26-4-33-24-37-64-116-1-164 12-41 11-154 77-154 113 0 15 14 22 41 22 45 0 127-11 165-11" id="A"/><path fill="#6f7681" d="M382-556c-3 158-18 304-18 470 0 31 6 72-21 86-20 35-87 21-104-6-1-188 14-367 23-549 1-24 13-80-17-80-77 0-131 31-210 31-15-10-43-18-33-45 0-82 83-94 148-109 103-23 215-12 315-40 43-12 91-17 142-23 62-8 95 53 77 116-8 28-47 14-75 18-68 9-134 10-195 30-32 11-31 60-32 101" id="B"/><path fill="#6f7681" d="M103-24C79 10-2-14 8-59c42-186 129-353 193-524 23-62 63-135 99-197 39-38 106-10 109 47 27 100 51 209 81 307 8 25 72 24 72 63 0 44-26 46-37 75 12 83 46 156 55 243 7 63-106 47-114 11-13-58-36-170-57-231-3-4-7-8-9-14-69 4-134 40-198 52-53 21-53 108-81 160-4 16-8 29-18 43zm215-551c-16 18-92 195-73 208 46 2 100-12 123-31-5-30-32-162-38-171-2-3-6-5-12-6" id="C"/><path fill="#6f7681" d="M521-275c40-33 108-24 108 34 0 49-75 103-210 183-80 47-247 72-323 10-66-54-95-101-82-218 12-106 41-136 91-224 55-96 145-209 240-278 32-23 68-33 107-33 86 2 108 61 107 158 0 55-15 82-44 82-55 1-25-116-79-110-132 15-229 223-291 334-48 86-31 226 81 218 122-9 217-92 295-156" id="D"/><path fill="#6f7681" d="M583 1c26 5 52-17 51-41 24-60-22-103-43-144-74-69-132-138-184-228-37-64 44-88 81-120 65-56 138-104 195-168 35-39 5-108-40-113-66 17-104 68-150 105-81 65-158 127-245 187-18 12-48 33-70 13-6-6-8-14-7-23 3-63 18-122 28-181-3-53-39-88-92-91-82 12-51 140-71 216 1 133-13 257-20 381-3 58-27 167 27 193 35 29 78-2 98-20 30-59 16-164 24-251 3-31 38-61 73-59 78 41 118 121 174 184 38 44 71 96 112 139 15 15 32 34 59 21" id="E"/><g id="a"><use transform="matrix(0.022222222222222223,0,0,0.022222222222222223,0,0)" xlink:href="#A"/><use transform="matrix(0.022222222222222223,0,0,0.022222222222222223,12.666666666666668,0)" xlink:href="#B"/><use transform="matrix(0.022222222222222223,0,0,0.022222222222222223,27.91111111111111,0)" xlink:href="#C"/><use transform="matrix(0.022222222222222223,0,0,0.022222222222222223,40.955555555555556,0)" xlink:href="#D"/><use transform="matrix(0.022222222222222223,0,0,0.022222222222222223,55.044444444444444,0)" xlink:href="#E"/></g><path fill="#6f7681" d="M107-780c100 15 51 176 51 272 0 29 23 25 56 24 33-11 175 4 171-42 9-67 4-153 14-224 12-14 39-57 70-50 51 0 74 34 69 103L490-47c-6 28-25 57-57 56-118-5-54-182-54-299 0-34 3-75-15-85-65 6-127 12-191 19-52 29-23 162-29 239C135-7 87 19 22-30 10-48 7-67 13-88c-16-100 8-215 8-322 0-127-9-364 86-370" id="F"/><path fill="#6f7681" d="M330-158c82-22 193-18 286-31 38 11 58 81 24 113-25 24-71 25-116 25-135 0-238 34-358 47C61 7 4-52 15-159c12-113 37-213 32-340-2-59 2-121-2-178-2-44 35-62 81-61 104-31 222-52 345-64 68-7 103 34 111 94 2 12-3 22-9 31-33 14-62 15-103 16-100 2-196 10-270 40h-8c-18 23-11 79-15 106-1 13 5 22 16 25 82-10 176-25 264-12 44 7 78 26 71 72-7 49-76 30-125 30-78 0-138 22-210 29-24 1-35 28-36 52-2 41-10 83-8 126-19 84 122 51 181 35" id="G"/><path fill="#6f7681" d="M23-677c-68-88 127-122 212-122 113 0 253 24 291 82 92 144-48 310-153 365-52 27-102 48-161 69-56 20-53 15-58 80-4 49-8 103-13 153-3 31-19 46-43 46-44 0-65-28-63-81 5-162 8-330 16-486 3-53-4-75-28-106zm415 73c0-44-44-66-132-66-78 0-124 8-135 26-10 16-14 89-14 218 0 44 22 39 57 25 83-34 224-115 224-203" id="H"/><g id="b"><use transform="matrix(0.022222222222222223,0,0,0.022222222222222223,0,0)" xlink:href="#F"/><use transform="matrix(0.022222222222222223,0,0,0.022222222222222223,12.022222222222222,0)" xlink:href="#G"/><use transform="matrix(0.022222222222222223,0,0,0.022222222222222223,26.822222222222223,0)" xlink:href="#C"/><use transform="matrix(0.022222222222222223,0,0,0.022222222222222223,39.86666666666667,0)" xlink:href="#H"/></g><path fill="#6f7681" d="M608-642l-20 77c-36 56-69 94-113 138-49 48-58 40-29 81 33 46 69 89 97 147 44 89 52 141 40 147-3 38-20 49-63 52-68 5-97-106-129-160-40-68-56-162-144-164-53-1-27 78-45 121-7 56-12 123-28 170C157-4 113 24 66-1 46-11 40-39 49-87c19-111 19-139 19-313 0-144 1-187-40-242-27-37-13-94 26-108 103-36 250-59 389-41 63 8 182 85 165 149zm-140 11c-10-39-42-58-96-57-53 12-154 21-179 43-5 9-8 31-8 65 0 151 19 135 127 94 94-36 148-79 156-145" id="I"/><path fill="#6f7681" d="M68-174c-8-157-1-333-1-488 0-23-21-28-12-60 24-87 141-85 256-77 161 12 317 42 251 258-5 17-40 45-44 60 15 30 85 80 98 123 62 108 25 192-76 258C455-45 341-9 207-4 145-2 19-30 19-85c0-36 51-41 49-89zm137-510c-18 6-26 137-16 192 30 22 66 2 112-6 70-13 158-95 159-132 17-68-169-82-255-54zm-15 330c-15 57-2 155 5 215 6 4 6 12 18 11 101-5 211-32 267-82 52-46 58-91 12-140s-73-73-81-73c-39 14-121 48-173 54-15 2-34 14-48 15" id="J"/><path fill="#6f7681" d="M44-443c79-191 208-366 448-366 141 0 239 118 267 253 46 222-61 413-213 490-83 42-221 78-338 30-55-23-106-43-129-82-26-14-80-140-57-202 2-41 8-89 22-123zm103 115c1 136 75 191 208 191 130 0 180-50 241-135 38-53 55-111 55-169 0-109-73-236-179-227-143 12-260 151-311 271-9 24-14 47-14 69" id="K"/><path fill="#6f7681" d="M21-302C-7-136 9 24 196-12c147-28 263-93 386-142 57-23 26-120-26-120-111 32-240 115-378 126-13 1-22-26-25-45 30-174 59-350 88-524 10-62-86-124-120-61-39 73-49 196-69 277-19 77-22 145-31 199" id="L"/><g id="c"><use transform="matrix(0.008888888888888884,0,0,0.008888888888888884,0,0)" xlink:href="#C"/><use transform="matrix(0.008888888888888884,0,0,0.008888888888888884,5.2177777777777745,0)" xlink:href="#I"/><use transform="matrix(0.008888888888888884,0,0,0.008888888888888884,10.711111111111105,0)" xlink:href="#J"/><use transform="matrix(0.008888888888888884,0,0,0.008888888888888884,16.426666666666655,0)" xlink:href="#K"/><use transform="matrix(0.008888888888888884,0,0,0.008888888888888884,23.56444444444443,0)" xlink:href="#L"/></g><path d="M110-160c48 1 74 30 74 79 0 53-28 85-80 85-65 0-83-55-86-122-5-90 50-162 133-122 14 7 22 21 27 39l-31 6c-5-40-67-38-82-6-9 19-15 44-15 74 11-20 30-34 60-33zm-7 138c34 0 49-23 49-58s-16-56-50-56c-29 0-50 16-49 49 1 36 15 65 50 65" id="M"/><use transform="matrix(0.06172839506172839,0,0,0.06172839506172839,0,0)" xlink:href="#M" id="d"/><path fill="#6f7681" d="M371-533c189 0 256 55 239 237-9 91-67 138-157 205C374-33 301-7 236-7 155-7 13-82 18-160c3-44 62-73 96-38 43 44 152 73 218 29 77-51 166-125 156-169 2-44-67-63-119-62-47 1-108 1-155 3C87-393 13-429 1-531c11-87 101-150 165-187 90-52 160-96 290-87 34 2 118 78 115 115-3 35-23 38-55 45-15 4-26-4-33-24-37-64-116-1-164 12-41 11-154 77-154 113 0 15 14 22 41 22 45 0 127-11 165-11" id="N"/><path fill="#6f7681" d="M593-790c58 0 99 54 77 117-5 13-15 16-35 14-70-7-152-3-229 7-31 20-24 81-26 127-4 138-16 277-16 422 0 32 4 70-21 83-26 36-88 7-103-20 1-182 10-346 21-521 2-27 11-81-18-84-73-7-138 11-206 3-20-18-39-18-32-51-3-78 74-91 145-91 129 0 251 6 369-8 25-3 49 2 74 2" id="O"/><path fill="#6f7681" d="M106-737c41-53 131 12 108 86-42 139-71 285-71 455 0 88 72 66 143 48 49-12 128-35 183-63 38-19 36-69 44-119 17-114 31-247 31-354 0-57 26-85 79-85 37 0 55 27 55 81 0 190-34 397-59 573 4 31 20 93-13 105-8 10-30 7-65-8-16-20-33-38-51-54C397-48 305 0 205 0 79 0 5-43 13-176c13-196 50-391 93-561" id="P"/><g id="e"><use transform="matrix(0.008888888888888884,0,0,0.008888888888888884,0,0)" xlink:href="#N"/><use transform="matrix(0.008888888888888884,0,0,0.008888888888888884,5.6088888888888855,0)" xlink:href="#O"/><use transform="matrix(0.008888888888888884,0,0,0.008888888888888884,11.999999999999993,0)" xlink:href="#I"/><use transform="matrix(0.008888888888888884,0,0,0.008888888888888884,17.493333333333325,0)" xlink:href="#P"/><use transform="matrix(0.008888888888888884,0,0,0.008888888888888884,23.742222222222214,0)" xlink:href="#D"/><use transform="matrix(0.008888888888888884,0,0,0.008888888888888884,29.377777777777762,0)" xlink:href="#O"/></g><g id="f"><use transform="matrix(0.008888888888888884,0,0,0.008888888888888884,0,0)" xlink:href="#C"/><use transform="matrix(0.008888888888888884,0,0,0.008888888888888884,5.2177777777777745,0)" xlink:href="#J"/><use transform="matrix(0.008888888888888884,0,0,0.008888888888888884,10.933333333333326,0)" xlink:href="#J"/></g><path fill="#6f7681" d="M292-638c-67 2-113 14-176 21-81 9-112-68-58-103 132-46 304-52 470-66l65 5c50 52 43 111-50 111-45 0-75 15-112 18-18 16-19 83-24 152-7 108-21 214-33 322-5 46 36 20 67 20 54 0 81-10 139-16 43 25 50 62 23 110-151 29-311 50-490 79C58 24-8 22 3-44c14-83 161-45 224-90 22-16 24-69 29-107 17-126 33-258 36-397" id="Q"/><path fill="#6f7681" d="M24-128c0-158-18-313-5-472 6-74-11-192 62-191 78 1 88 68 113 130 59 143 102 191 174 297 50 73 81 109 92 109 8 0 12-3 13-9 24-163 3-322-12-477-6-63 62-76 101-37 65 64 45 212 54 340 10 141 7 304-15 413-8 15-20 23-37 23-76 0-203-132-244-200-33-54-79-109-116-169l4 4c-9-20-41-55-54-51-14 102-5 244 6 344 3 30-15 69-41 68-9 0-28-1-56-3-44-28-39-45-39-119" id="R"/><g id="g"><use transform="matrix(0.008888888888888884,0,0,0.008888888888888884,0,0)" xlink:href="#Q"/><use transform="matrix(0.008888888888888884,0,0,0.008888888888888884,5.644444444444441,0)" xlink:href="#R"/><use transform="matrix(0.008888888888888884,0,0,0.008888888888888884,11.342222222222215,0)" xlink:href="#O"/></g><path fill="#6f7681" d="M312-705c33-33 39-107-26-103-49 3-81 54-111 81-75 69-115 191-144 308-21 84-23 101-14 176 9 78 64 163 125 214 24 20 92 29 89-18-4-43-67-95-83-129-51-107-29-195 12-325 28-89 89-143 152-204" id="S"/><path fill="#6f7681" d="M629-645c28 177 9 401 28 582 3 29-18 50-47 50-97 0-67-194-71-306-1-24-4-66-3-92 1-39-15-57-30-33-49 79-88 161-139 243-9 15-21 23-34 23-33 0-70-69-89-115-10-23-57-152-73-152-28 0-27 119-31 162-9 93-16 174-27 265-2 3-35 21-48 20-71-3-50-117-43-176 24-211 38-410 84-595 39-67 121 2 138 59 22 73 63 167 84 249 7 23 13 34 20 34 17 0 54-75 107-225 17-48 42-155 115-96 31 25 52 57 59 103" id="T"/><path fill="#6f7681" d="M19-91c0-222 71-428 58-668-3-62 121-44 170-33 118 27 229 50 293 128 44 53 63 97 63 217 0 165-189 328-383 400-36 13-62 45-108 45-66 0-93-23-93-89zm185-582c-30 151-43 322-58 489 5 39 27 28 60 14 129-54 276-147 276-304 0-155-106-203-278-199" id="U"/><path fill="#6f7681" d="M326-672c47-13 117-11 117-73 0-69-77-55-133-49-71 9-36-80-58-137-21-55-106-22-95 35-4 10 15 48-3 53-23-22-47-62-88-62-20-1-38 17-37 37 2 32 48 80 67 106-10 12-32 12-55 11-79 22-11 125 48 117 33-5 73-11 66 36-8 59 3 111 63 117 42 4 32-88 52-111 15 5 75 36 84 37 20 2 38-22 37-42 6-25-64-61-65-75" id="V"/><path fill="#6f7681" d="M281-285c31-114 79-277 15-384-30-51-68-104-118-134-26-16-69-9-66 27 4 51 46 70 66 106 47 87 58 158 22 285-23 82-35 147-91 197C43-130 8-88 8-59 8-15 61 0 89-24c71-61 131-123 171-221 9-21 13-29 21-43v3" id="W"/><path fill="#6f7681" d="M109-735c-25-57-110-11-99 37 30 130 91 291 122 410 18 69 44 132 72 190 44 90 75 116 148 73 102-105 149-290 208-441 32-82 48-168 48-261 0-51-15-77-46-77-38 0-59 34-73 100-35 160-89 312-149 454-40 95-58 66-91-37-28-90-54-179-79-263-24-79-42-141-61-185" id="X"/><path fill="#6f7681" d="M39 59C84 43 157-10 157-69c0-34-42-63-77-61-70 4-68 99-68 162 0 18 9 27 27 27" id="Y"/><g id="h"><use transform="matrix(0.008888888888888884,0,0,0.008888888888888884,0,0)" xlink:href="#S"/><use transform="matrix(0.008888888888888884,0,0,0.008888888888888884,3.0133333333333314,0)" xlink:href="#D"/><use transform="matrix(0.008888888888888884,0,0,0.008888888888888884,8.648888888888884,0)" xlink:href="#K"/><use transform="matrix(0.008888888888888884,0,0,0.008888888888888884,15.786666666666658,0)" xlink:href="#T"/><use transform="matrix(0.008888888888888884,0,0,0.008888888888888884,21.759999999999987,0)" xlink:href="#H"/><use transform="matrix(0.008888888888888884,0,0,0.008888888888888884,26.77333333333332,0)" xlink:href="#C"/><use transform="matrix(0.008888888888888884,0,0,0.008888888888888884,31.991111111111096,0)" xlink:href="#I"/><use transform="matrix(0.008888888888888884,0,0,0.008888888888888884,37.48444444444443,0)" xlink:href="#C"/><use transform="matrix(0.008888888888888884,0,0,0.008888888888888884,42.702222222222204,0)" xlink:href="#U"/><use transform="matrix(0.008888888888888884,0,0,0.008888888888888884,48.071111111111094,0)" xlink:href="#K"/><use transform="matrix(0.008888888888888884,0,0,0.008888888888888884,55.208888888888865,0)" xlink:href="#I"/><use transform="matrix(0.008888888888888884,0,0,0.008888888888888884,60.7022222222222,0)" xlink:href="#V"/><use transform="matrix(0.008888888888888884,0,0,0.008888888888888884,64.70222222222219,0)" xlink:href="#W"/><use transform="matrix(0.008888888888888884,0,0,0.008888888888888884,67.68888888888885,0)" xlink:href="#S"/><use transform="matrix(0.008888888888888884,0,0,0.008888888888888884,70.70222222222219,0)" xlink:href="#X"/><use transform="matrix(0.008888888888888884,0,0,0.008888888888888884,76.16888888888886,0)" xlink:href="#K"/><use transform="matrix(0.008888888888888884,0,0,0.008888888888888884,83.30666666666663,0)" xlink:href="#Q"/><use transform="matrix(0.008888888888888884,0,0,0.008888888888888884,88.95111111111108,0)" xlink:href="#U"/><use transform="matrix(0.008888888888888884,0,0,0.008888888888888884,94.31999999999996,0)" xlink:href="#V"/><use transform="matrix(0.008888888888888884,0,0,0.008888888888888884,98.31999999999996,0)" xlink:href="#Y"/></g><g id="i"><use transform="matrix(0.008888888888888884,0,0,0.008888888888888884,0,0)" xlink:href="#X"/><use transform="matrix(0.008888888888888884,0,0,0.008888888888888884,5.466666666666663,0)" xlink:href="#K"/><use transform="matrix(0.008888888888888884,0,0,0.008888888888888884,12.604444444444436,0)" xlink:href="#Q"/><use transform="matrix(0.008888888888888884,0,0,0.008888888888888884,18.248888888888878,0)" xlink:href="#U"/><use transform="matrix(0.008888888888888884,0,0,0.008888888888888884,23.617777777777764,0)" xlink:href="#V"/><use transform="matrix(0.008888888888888884,0,0,0.008888888888888884,27.61777777777776,0)" xlink:href="#W"/></g><path fill="#6f7681" d="M24-128c0-158-18-313-5-472 6-74-11-192 62-191 78 1 88 68 113 130 59 143 102 191 174 297 50 73 81 109 92 109 8 0 12-3 13-9 24-163 3-322-12-477-6-63 62-76 101-37 65 64 45 212 54 340 10 141 7 304-15 413-8 15-20 23-37 23-76 0-203-132-244-200-33-54-79-109-116-169l4 4c-9-20-41-55-54-51-14 102-5 244 6 344 3 30-15 69-41 68-9 0-28-1-56-3-44-28-39-45-39-119" id="Z"/><path fill="#6f7681" d="M109-754c29-56 120 5 113 55-24 164-73 311-76 498 0 44 17 66 52 66 44 0 193-39 283-82 16-8 27-24 32-45 27-114 44-316 44-439 0-57 27-86 82-86 38 0 57 27 57 82 0 195-35 406-61 587 5 33 20 94-14 106-8 12-30 10-67-7-15-20-33-39-52-56C437-54 255 2 210 0 80-5 5-44 13-182c11-186 48-366 83-531 3-12 5-27 13-41" id="aa"/><path fill="#6f7681" d="M21-302C-7-136 9 24 196-12c147-28 263-93 386-142 57-23 26-120-26-120-111 32-240 115-378 126-13 1-22-26-25-45 30-174 59-350 88-524 10-62-86-124-120-61-39 73-49 196-69 277-19 77-22 145-31 199" id="ab"/><g id="j"><use transform="matrix(0.013333333333333329,0,0,0.013333333333333329,0,0)" xlink:href="#Z"/><use transform="matrix(0.013333333333333329,0,0,0.013333333333333329,8.546666666666663,0)" xlink:href="#aa"/><use transform="matrix(0.013333333333333329,0,0,0.013333333333333329,17.94666666666666,0)" xlink:href="#ab"/><use transform="matrix(0.013333333333333329,0,0,0.013333333333333329,26.37333333333332,0)" xlink:href="#ab"/></g><g id="k"><use transform="matrix(0.013333333333333329,0,0,0.013333333333333329,0,0)" xlink:href="#Z"/><use transform="matrix(0.013333333333333329,0,0,0.013333333333333329,8.546666666666663,0)" xlink:href="#aa"/><use transform="matrix(0.013333333333333329,0,0,0.013333333333333329,17.94666666666666,0)" xlink:href="#ab"/><use transform="matrix(0.013333333333333329,0,0,0.013333333333333329,26.37333333333332,0)" xlink:href="#ab"/></g><path fill="#008a0e" d="M330-158c82-22 193-18 286-31 38 11 58 81 24 113-25 24-71 25-116 25-135 0-238 34-358 47C61 7 4-52 15-159c12-113 37-213 32-340-2-59 2-121-2-178-2-44 35-62 81-61 104-31 222-52 345-64 68-7 103 34 111 94 2 12-3 22-9 31-33 14-62 15-103 16-100 2-196 10-270 40h-8c-18 23-11 79-15 106-1 13 5 22 16 25 82-10 176-25 264-12 44 7 78 26 71 72-7 49-76 30-125 30-78 0-138 22-210 29-24 1-35 28-36 52-2 41-10 83-8 126-19 84 122 51 181 35" id="ac"/><path fill="#008a0e" d="M21-302C-7-136 9 24 196-12c147-28 263-93 386-142 57-23 26-120-26-120-111 32-240 115-378 126-13 1-22-26-25-45 30-174 59-350 88-524 10-62-86-124-120-61-39 73-49 196-69 277-19 77-22 145-31 199" id="ad"/><path fill="#008a0e" d="M292-638c-67 2-113 14-176 21-81 9-112-68-58-103 132-46 304-52 470-66l65 5c50 52 43 111-50 111-45 0-75 15-112 18-18 16-19 83-24 152-7 108-21 214-33 322-5 46 36 20 67 20 54 0 81-10 139-16 43 25 50 62 23 110-151 29-311 50-490 79C58 24-8 22 3-44c14-83 161-45 224-90 22-16 24-69 29-107 17-126 33-258 36-397" id="ae"/><path fill="#008a0e" d="M629-645c28 177 9 401 28 582 3 29-18 50-47 50-97 0-67-194-71-306-1-24-4-66-3-92 1-39-15-57-30-33-49 79-88 161-139 243-9 15-21 23-34 23-33 0-70-69-89-115-10-23-57-152-73-152-28 0-27 119-31 162-9 93-16 174-27 265-2 3-35 21-48 20-71-3-50-117-43-176 24-211 38-410 84-595 39-67 121 2 138 59 22 73 63 167 84 249 7 23 13 34 20 34 17 0 54-75 107-225 17-48 42-155 115-96 31 25 52 57 59 103" id="af"/><path fill="#008a0e" d="M24-128c0-158-18-313-5-472 6-74-11-192 62-191 78 1 88 68 113 130 59 143 102 191 174 297 50 73 81 109 92 109 8 0 12-3 13-9 24-163 3-322-12-477-6-63 62-76 101-37 65 64 45 212 54 340 10 141 7 304-15 413-8 15-20 23-37 23-76 0-203-132-244-200-33-54-79-109-116-169l4 4c-9-20-41-55-54-51-14 102-5 244 6 344 3 30-15 69-41 68-9 0-28-1-56-3-44-28-39-45-39-119" id="ag"/><path fill="#008a0e" d="M103-24C79 10-2-14 8-59c42-186 129-353 193-524 23-62 63-135 99-197 39-38 106-10 109 47 27 100 51 209 81 307 8 25 72 24 72 63 0 44-26 46-37 75 12 83 46 156 55 243 7 63-106 47-114 11-13-58-36-170-57-231-3-4-7-8-9-14-69 4-134 40-198 52-53 21-53 108-81 160-4 16-8 29-18 43zm215-551c-16 18-92 195-73 208 46 2 100-12 123-31-5-30-32-162-38-171-2-3-6-5-12-6" id="ah"/><path fill="#008a0e" d="M608-642l-20 77c-36 56-69 94-113 138-49 48-58 40-29 81 33 46 69 89 97 147 44 89 52 141 40 147-3 38-20 49-63 52-68 5-97-106-129-160-40-68-56-162-144-164-53-1-27 78-45 121-7 56-12 123-28 170C157-4 113 24 66-1 46-11 40-39 49-87c19-111 19-139 19-313 0-144 1-187-40-242-27-37-13-94 26-108 103-36 250-59 389-41 63 8 182 85 165 149zm-140 11c-10-39-42-58-96-57-53 12-154 21-179 43-5 9-8 31-8 65 0 151 19 135 127 94 94-36 148-79 156-145" id="ai"/><g id="l"><use transform="matrix(0.013333333333333329,0,0,0.013333333333333329,0,0)" xlink:href="#ac"/><use transform="matrix(0.013333333333333329,0,0,0.013333333333333329,8.879999999999997,0)" xlink:href="#ad"/><use transform="matrix(0.013333333333333329,0,0,0.013333333333333329,17.079999999999995,0)" xlink:href="#ae"/><use transform="matrix(0.013333333333333329,0,0,0.013333333333333329,25.54666666666666,0)" xlink:href="#af"/><use transform="matrix(0.013333333333333329,0,0,0.013333333333333329,34.50666666666666,0)" xlink:href="#ae"/><use transform="matrix(0.013333333333333329,0,0,0.013333333333333329,42.97333333333332,0)" xlink:href="#ag"/><use transform="matrix(0.013333333333333329,0,0,0.013333333333333329,51.51999999999998,0)" xlink:href="#ah"/><use transform="matrix(0.013333333333333329,0,0,0.013333333333333329,59.34666666666665,0)" xlink:href="#ai"/></g><path fill="#635dff" d="M23-677c-68-88 127-122 212-122 113 0 253 24 291 82 92 144-48 310-153 365-52 27-102 48-161 69-56 20-53 15-58 80-4 49-8 103-13 153-3 31-19 46-43 46-44 0-65-28-63-81 5-162 8-330 16-486 3-53-4-75-28-106zm415 73c0-44-44-66-132-66-78 0-124 8-135 26-10 16-14 89-14 218 0 44 22 39 57 25 83-34 224-115 224-203" id="aj"/><path fill="#635dff" d="M608-642l-20 77c-36 56-69 94-113 138-49 48-58 40-29 81 33 46 69 89 97 147 44 89 52 141 40 147-3 38-20 49-63 52-68 5-97-106-129-160-40-68-56-162-144-164-53-1-27 78-45 121-7 56-12 123-28 170C157-4 113 24 66-1 46-11 40-39 49-87c19-111 19-139 19-313 0-144 1-187-40-242-27-37-13-94 26-108 103-36 250-59 389-41 63 8 182 85 165 149zm-140 11c-10-39-42-58-96-57-53 12-154 21-179 43-5 9-8 31-8 65 0 151 19 135 127 94 94-36 148-79 156-145" id="ak"/><path fill="#635dff" d="M330-158c82-22 193-18 286-31 38 11 58 81 24 113-25 24-71 25-116 25-135 0-238 34-358 47C61 7 4-52 15-159c12-113 37-213 32-340-2-59 2-121-2-178-2-44 35-62 81-61 104-31 222-52 345-64 68-7 103 34 111 94 2 12-3 22-9 31-33 14-62 15-103 16-100 2-196 10-270 40h-8c-18 23-11 79-15 106-1 13 5 22 16 25 82-10 176-25 264-12 44 7 78 26 71 72-7 49-76 30-125 30-78 0-138 22-210 29-24 1-35 28-36 52-2 41-10 83-8 126-19 84 122 51 181 35" id="al"/><path fill="#635dff" d="M19-91c0-222 71-428 58-668-3-62 121-44 170-33 118 27 229 50 293 128 44 53 63 97 63 217 0 165-189 328-383 400-36 13-62 45-108 45-66 0-93-23-93-89zm185-582c-30 151-43 322-58 489 5 39 27 28 60 14 129-54 276-147 276-304 0-155-106-203-278-199" id="am"/><path fill="#635dff" d="M521-275c40-33 108-24 108 34 0 49-75 103-210 183-80 47-247 72-323 10-66-54-95-101-82-218 12-106 41-136 91-224 55-96 145-209 240-278 32-23 68-33 107-33 86 2 108 61 107 158 0 55-15 82-44 82-55 1-25-116-79-110-132 15-229 223-291 334-48 86-31 226 81 218 122-9 217-92 295-156" id="an"/><path fill="#635dff" d="M371-533c189 0 256 55 239 237-9 91-67 138-157 205C374-33 301-7 236-7 155-7 13-82 18-160c3-44 62-73 96-38 43 44 152 73 218 29 77-51 166-125 156-169 2-44-67-63-119-62-47 1-108 1-155 3C87-393 13-429 1-531c11-87 101-150 165-187 90-52 160-96 290-87 34 2 118 78 115 115-3 35-23 38-55 45-15 4-26-4-33-24-37-64-116-1-164 12-41 11-154 77-154 113 0 15 14 22 41 22 45 0 127-11 165-11" id="ao"/><path fill="#635dff" d="M44-443c79-191 208-366 448-366 141 0 239 118 267 253 46 222-61 413-213 490-83 42-221 78-338 30-55-23-106-43-129-82-26-14-80-140-57-202 2-41 8-89 22-123zm103 115c1 136 75 191 208 191 130 0 180-50 241-135 38-53 55-111 55-169 0-109-73-236-179-227-143 12-260 151-311 271-9 24-14 47-14 69" id="ap"/><g id="m"><use transform="matrix(0.013333333333333329,0,0,0.013333333333333329,0,0)" xlink:href="#aj"/><use transform="matrix(0.013333333333333329,0,0,0.013333333333333329,7.519999999999998,0)" xlink:href="#ak"/><use transform="matrix(0.013333333333333329,0,0,0.013333333333333329,15.759999999999994,0)" xlink:href="#al"/><use transform="matrix(0.013333333333333329,0,0,0.013333333333333329,24.639999999999993,0)" xlink:href="#am"/><use transform="matrix(0.013333333333333329,0,0,0.013333333333333329,32.69333333333333,0)" xlink:href="#al"/><use transform="matrix(0.013333333333333329,0,0,0.013333333333333329,41.57333333333332,0)" xlink:href="#an"/><use transform="matrix(0.013333333333333329,0,0,0.013333333333333329,50.02666666666666,0)" xlink:href="#al"/><use transform="matrix(0.013333333333333329,0,0,0.013333333333333329,58.906666666666645,0)" xlink:href="#ao"/><use transform="matrix(0.013333333333333329,0,0,0.013333333333333329,67.31999999999998,0)" xlink:href="#ap"/><use transform="matrix(0.013333333333333329,0,0,0.013333333333333329,78.02666666666664,0)" xlink:href="#ak"/></g><g id="n"><use transform="matrix(0.022222222222222223,0,0,0.022222222222222223,0,0)" xlink:href="#A"/><use transform="matrix(0.022222222222222223,0,0,0.022222222222222223,12.666666666666668,0)" xlink:href="#B"/><use transform="matrix(0.022222222222222223,0,0,0.022222222222222223,27.91111111111111,0)" xlink:href="#C"/><use transform="matrix(0.022222222222222223,0,0,0.022222222222222223,40.955555555555556,0)" xlink:href="#D"/><use transform="matrix(0.022222222222222223,0,0,0.022222222222222223,55.044444444444444,0)" xlink:href="#E"/></g><g id="o"><use transform="matrix(0.022222222222222223,0,0,0.022222222222222223,0,0)" xlink:href="#F"/><use transform="matrix(0.022222222222222223,0,0,0.022222222222222223,12.022222222222222,0)" xlink:href="#G"/><use transform="matrix(0.022222222222222223,0,0,0.022222222222222223,26.822222222222223,0)" xlink:href="#C"/><use transform="matrix(0.022222222222222223,0,0,0.022222222222222223,39.86666666666667,0)" xlink:href="#H"/></g><g id="p"><use transform="matrix(0.008888888888888884,0,0,0.008888888888888884,0,0)" xlink:href="#C"/><use transform="matrix(0.008888888888888884,0,0,0.008888888888888884,5.2177777777777745,0)" xlink:href="#I"/><use transform="matrix(0.008888888888888884,0,0,0.008888888888888884,10.711111111111105,0)" xlink:href="#J"/><use transform="matrix(0.008888888888888884,0,0,0.008888888888888884,16.426666666666655,0)" xlink:href="#K"/><use transform="matrix(0.008888888888888884,0,0,0.008888888888888884,23.56444444444443,0)" xlink:href="#L"/></g><path d="M54-142c48-35 137-8 131 61C196 18 31 33 14-55l32-4c7 23 22 37 52 37 35-1 51-22 54-58 4-55-73-65-99-34H22l8-134h141v27H59" id="aq"/><use transform="matrix(0.06172839506172839,0,0,0.06172839506172839,0,0)" xlink:href="#aq" id="q"/><g id="r"><use transform="matrix(0.008888888888888884,0,0,0.008888888888888884,0,0)" xlink:href="#N"/><use transform="matrix(0.008888888888888884,0,0,0.008888888888888884,5.6088888888888855,0)" xlink:href="#O"/><use transform="matrix(0.008888888888888884,0,0,0.008888888888888884,11.999999999999993,0)" xlink:href="#I"/><use transform="matrix(0.008888888888888884,0,0,0.008888888888888884,17.493333333333325,0)" xlink:href="#P"/><use transform="matrix(0.008888888888888884,0,0,0.008888888888888884,23.742222222222214,0)" xlink:href="#D"/><use transform="matrix(0.008888888888888884,0,0,0.008888888888888884,29.377777777777762,0)" xlink:href="#O"/></g><g id="s"><use transform="matrix(0.008888888888888884,0,0,0.008888888888888884,0,0)" xlink:href="#C"/><use transform="matrix(0.008888888888888884,0,0,0.008888888888888884,5.2177777777777745,0)" xlink:href="#J"/><use transform="matrix(0.008888888888888884,0,0,0.008888888888888884,10.933333333333326,0)" xlink:href="#J"/></g><g id="t"><use transform="matrix(0.008888888888888884,0,0,0.008888888888888884,0,0)" xlink:href="#Q"/><use transform="matrix(0.008888888888888884,0,0,0.008888888888888884,5.644444444444441,0)" xlink:href="#R"/><use transform="matrix(0.008888888888888884,0,0,0.008888888888888884,11.342222222222215,0)" xlink:href="#O"/></g><g id="u"><use transform="matrix(0.008888888888888884,0,0,0.008888888888888884,0,0)" xlink:href="#S"/><use transform="matrix(0.008888888888888884,0,0,0.008888888888888884,3.0133333333333314,0)" xlink:href="#D"/><use transform="matrix(0.008888888888888884,0,0,0.008888888888888884,8.648888888888884,0)" xlink:href="#K"/><use transform="matrix(0.008888888888888884,0,0,0.008888888888888884,15.786666666666658,0)" xlink:href="#T"/><use transform="matrix(0.008888888888888884,0,0,0.008888888888888884,21.759999999999987,0)" xlink:href="#H"/><use transform="matrix(0.008888888888888884,0,0,0.008888888888888884,26.77333333333332,0)" xlink:href="#C"/><use transform="matrix(0.008888888888888884,0,0,0.008888888888888884,31.991111111111096,0)" xlink:href="#I"/><use transform="matrix(0.008888888888888884,0,0,0.008888888888888884,37.48444444444443,0)" xlink:href="#C"/><use transform="matrix(0.008888888888888884,0,0,0.008888888888888884,42.702222222222204,0)" xlink:href="#U"/><use transform="matrix(0.008888888888888884,0,0,0.008888888888888884,48.071111111111094,0)" xlink:href="#K"/><use transform="matrix(0.008888888888888884,0,0,0.008888888888888884,55.208888888888865,0)" xlink:href="#I"/><use transform="matrix(0.008888888888888884,0,0,0.008888888888888884,60.7022222222222,0)" xlink:href="#V"/><use transform="matrix(0.008888888888888884,0,0,0.008888888888888884,64.70222222222219,0)" xlink:href="#W"/><use transform="matrix(0.008888888888888884,0,0,0.008888888888888884,67.68888888888885,0)" xlink:href="#S"/><use transform="matrix(0.008888888888888884,0,0,0.008888888888888884,70.70222222222219,0)" xlink:href="#X"/><use transform="matrix(0.008888888888888884,0,0,0.008888888888888884,76.16888888888886,0)" xlink:href="#K"/><use transform="matrix(0.008888888888888884,0,0,0.008888888888888884,83.30666666666663,0)" xlink:href="#Q"/><use transform="matrix(0.008888888888888884,0,0,0.008888888888888884,88.95111111111108,0)" xlink:href="#U"/><use transform="matrix(0.008888888888888884,0,0,0.008888888888888884,94.31999999999996,0)" xlink:href="#V"/><use transform="matrix(0.008888888888888884,0,0,0.008888888888888884,98.31999999999996,0)" xlink:href="#Y"/></g><g id="v"><use transform="matrix(0.008888888888888884,0,0,0.008888888888888884,0,0)" xlink:href="#X"/><use transform="matrix(0.008888888888888884,0,0,0.008888888888888884,5.466666666666663,0)" xlink:href="#K"/><use transform="matrix(0.008888888888888884,0,0,0.008888888888888884,12.604444444444436,0)" xlink:href="#Q"/><use transform="matrix(0.008888888888888884,0,0,0.008888888888888884,18.248888888888878,0)" xlink:href="#U"/><use transform="matrix(0.008888888888888884,0,0,0.008888888888888884,23.617777777777764,0)" xlink:href="#V"/><use transform="matrix(0.008888888888888884,0,0,0.008888888888888884,27.61777777777776,0)" xlink:href="#W"/></g><path fill="#e81313" d="M150-24c58 0 67-118 77-183 28-176 77-324 93-509 6-65-46-141-105-95-50 39-97 91-138 134-26 27-45 93-3 118l-3-1c21 19 38 27 67 18-19 145-42 289-56 435-4 41 26 83 68 83" id="ar"/><path fill="#e81313" d="M173-13c102-20 79-163 100-261 0-7 2-19 3-27-8-47 57-27 68-2 40 53 67 131 101 192l-1-1c19 54 59 97 104 92 43-5 70-16 73-58 13-23 7-37-3-71-6-23-15-54-34-88-35-66-68-105-104-161 56-50 105-104 147-170 6-29 17-55 20-85 6-72-103-151-170-159l2 1c-139-21-303 2-392 48-38 20-46 85-18 123 36 48 34 126 35 220 2 188-7 191-22 334-6 57 41 80 92 72zm83-631c46-6 199-69 222 5-8 54-52 92-132 119-94 31-95 61-95-72 0-28 2-45 5-52zm67 321l-3-1c1 1 2 1 3 1" id="as"/><path fill="#e81313" d="M776-292c25-58 39-113 39-189 0-186-105-335-289-347-115-8-264 80-335 176-54 72-128 174-130 306-17 72 19 171 60 209C155-80 284-35 371-30c125 8 185-36 261-79 69-40 112-103 145-184zM507-656c91 0 151 106 151 197 0 107-87 221-167 253-29 11-88 21-133 13l1 1c-87-19-148-53-141-159 8-119 91-193 166-254 44-35 86-51 123-51" id="at"/><g id="w"><use transform="matrix(0.011111111111111105,0,0,0.011111111111111105,0,0)" xlink:href="#ar"/><use transform="matrix(0.011111111111111105,0,0,0.011111111111111105,3.188888888888887,0)" xlink:href="#as"/><use transform="matrix(0.011111111111111105,0,0,0.011111111111111105,10.066666666666661,0)" xlink:href="#at"/></g><path fill="#fc9432" d="M359-66c85 2 167 0 243 8 69 7 73-64 45-112-26-45-84-41-156-43-50-1-103 1-152-1 38-51 91-102 134-147 89-94 152-161 171-214 40-109-6-240-126-231-178 13-370 74-424 218-22 58-7 130 59 130 47 0 53-41 68-72 31-62 180-131 296-127-23 87-163 200-223 269-59 68-124 131-187 196-31 32-57 59-64 102-6 37 52 88 84 83 50-8 161-61 232-59" id="au"/><path fill="#fc9432" d="M80-334C68-194 2 14 192-26c62-30 136-63 191-92 174-92 259-210 259-347 0-142-33-193-97-253-69-64-182-82-292-104-16-3-35-3-56-3-90 0-82 55-82 133 0 95-9 196-26 279l1-1c-6 25-8 57-10 80zm133 125c17-153 24-313 53-452 153-5 243 55 220 201l-1-2c-24 127-149 211-272 253zm48-441v3-3zm-8 53c0-1 0-1 1-2" id="av"/><path fill="#fc9432" d="M776-292c25-58 39-113 39-189 0-186-105-335-289-347-115-8-264 80-335 176-54 72-128 174-130 306-17 72 19 171 60 209C155-80 284-35 371-30c125 8 185-36 261-79 69-40 112-103 145-184zM507-656c91 0 151 106 151 197 0 107-87 221-167 253-29 11-88 21-133 13l1 1c-87-19-148-53-141-159 8-119 91-193 166-254 44-35 86-51 123-51" id="aw"/><g id="x"><use transform="matrix(0.011111111111111105,0,0,0.011111111111111105,0,0)" xlink:href="#au"/><use transform="matrix(0.011111111111111105,0,0,0.011111111111111105,7.133333333333329,0)" xlink:href="#av"/><use transform="matrix(0.011111111111111105,0,0,0.011111111111111105,13.855555555555547,0)" xlink:href="#aw"/></g><path fill="#d916a8" d="M616-328c6-38 42-58 28-106-8-29-30-53-25-95-8-93-1-193-85-207-98 7-55 153-60 243-53 37-159 38-223 62l1-1c-17 3-29 5-42 7 39-83 105-184 138-277 22-61-29-146-90-111-12 4-35 38-46 67l1-1c-49 94-92 182-144 268-16 27-25 51-27 86-2 69 61 130 128 129 60-1 109-14 169-29l-1 1c10-2 19-4 27-6l-1 1c33-9 72-12 103-22l-5 2c12-4 10 5 10 17 0 77-25 164 2 230 13 32 68 64 105 29 41-39 19-129 29-205l-1 1c2-27 4-58 10-84" id="ax"/><path fill="#d916a8" d="M450-642c81-9 156-10 231-4 26-13 36-35 36-67 0-81-74-112-168-99-140 19-319-7-450 25-32 17-54 46-55 91v-3c-8 40 21 48 42 67 65 10 127-7 202-2-4 181-23 372-21 564 20 34 93 71 130 26 41-30 19-113 21-180 3-100 12-190 18-284l-1 1c5-43-7-105 15-135" id="ay"/><path fill="#d916a8" d="M206-53c215 83 434-15 553-115 71-59 127-167 135-272 8-102-39-209-95-268l1 3c-84-129-346-127-484-26-98 72-184 186-234 304-23 55-45 143-19 211 26 70 76 137 143 163zm146-139c-63 1-137-26-133-83 10-137 121-279 236-325 94-38 230-44 268 60 31 84-7 147-44 200-29 41-72 72-120 98l1-1c-62 27-125 50-208 51" id="az"/><g id="y"><use transform="matrix(0.011111111111111105,0,0,0.011111111111111105,0,0)" xlink:href="#ax"/><use transform="matrix(0.011111111111111105,0,0,0.011111111111111105,6.911111111111107,0)" xlink:href="#ay"/><use transform="matrix(0.011111111111111105,0,0,0.011111111111111105,14.899999999999991,0)" xlink:href="#az"/></g><path fill="#fe7070" d="M694-661c-2 64-88 115-111 165 1 17 42 36 59 47 42 29 76 115 53 188-30 95-82 137-179 194C386 10 245 0 121-52 96-78 5-94 12-147c-3-30 39-60 66-58 10-5 95 37 147 52 50 14 141 11 184-13 64-35 159-87 167-152 7-58-74-71-141-61-44 7-88 21-136 26-61 7-96-80-43-117 65-45 147-89 217-133 33-21 50-38 50-49 0-57-104-57-169-46-78 14-147 44-200 90-12 10-25 23-51 23-35 0-77-40-55-77 74-122 237-149 435-148 101 1 214 52 211 149" id="aA"/><path fill="#fe7070" d="M608-642l-20 77c-36 56-69 94-113 138-49 48-58 40-29 81 33 46 69 89 97 147 44 89 52 141 40 147-3 38-20 49-63 52-68 5-97-106-129-160-40-68-56-162-144-164-53-1-27 78-45 121-7 56-12 123-28 170C157-4 113 24 66-1 46-11 40-39 49-87c19-111 19-139 19-313 0-144 1-187-40-242-27-37-13-94 26-108 103-36 250-59 389-41 63 8 182 85 165 149zm-140 11c-10-39-42-58-96-57-53 12-154 21-179 43-5 9-8 31-8 65 0 151 19 135 127 94 94-36 148-79 156-145" id="aB"/><path fill="#fe7070" d="M44-443c79-191 208-366 448-366 141 0 239 118 267 253 46 222-61 413-213 490-83 42-221 78-338 30-55-23-106-43-129-82-26-14-80-140-57-202 2-41 8-89 22-123zm103 115c1 136 75 191 208 191 130 0 180-50 241-135 38-53 55-111 55-169 0-109-73-236-179-227-143 12-260 151-311 271-9 24-14 47-14 69" id="aC"/><g id="z"><use transform="matrix(0.013333333333333329,0,0,0.013333333333333329,0,0)" xlink:href="#aA"/><use transform="matrix(0.013333333333333329,0,0,0.013333333333333329,9.519999999999996,0)" xlink:href="#aB"/><use transform="matrix(0.013333333333333329,0,0,0.013333333333333329,17.75999999999999,0)" xlink:href="#aC"/></g></defs></g></svg>