<svg xmlns="http://www.w3.org/2000/svg" xmlns:xlink="http://www.w3.org/1999/xlink" xmlns:lucid="lucid" width="541" height="306.76"><g transform="translate(-2279.5 313.48375017401645)" lucid:page-tab-id="0_0"><path d="M2580-220.83c0 10.6-8.95 19.18-20 19.18s-20-8.6-20-19.18 8.95-19.17 20-19.17 20 8.6 20 19.17z" stroke="#7769e0" stroke-width="2" fill="url(#a)"/><path d="M2545-229.83a6 6 0 0 1 6-6h18a6 6 0 0 1 6 6v18a6 6 0 0 1-6 6h-18a6 6 0 0 1-6-6z" stroke="#000" stroke-opacity="0" stroke-width="3" fill="#fff" fill-opacity="0"/><path d="M2500-180.83c0 10.6-8.95 19.18-20 19.18s-20-8.6-20-19.18 8.95-19.17 20-19.17 20 8.6 20 19.17z" stroke="#d916a8" stroke-width="2" fill="url(#b)"/><path d="M2465-189.83a6 6 0 0 1 6-6h18a6 6 0 0 1 6 6v18a6 6 0 0 1-6 6h-18a6 6 0 0 1-6-6z" stroke="#000" stroke-opacity="0" stroke-width="3" fill="#fff" fill-opacity="0"/><path d="M2660-180.83c0 10.6-8.95 19.18-20 19.18s-20-8.6-20-19.18 8.95-19.17 20-19.17 20 8.6 20 19.17z" stroke="#7769e0" stroke-width="2" fill="url(#c)"/><path d="M2625-189.83a6 6 0 0 1 6-6h18a6 6 0 0 1 6 6v18a6 6 0 0 1-6 6h-18a6 6 0 0 1-6-6z" stroke="#000" stroke-opacity="0" stroke-width="3" fill="#fff" fill-opacity="0"/><path d="M2440-110.5c0 10.6-8.95 19.17-20 19.17s-20-8.58-20-19.17c0-10.6 8.95-19.18 20-19.18s20 8.6 20 19.18z" stroke="#fe7070" stroke-width="2" fill="url(#d)"/><path d="M2405-119.5a6 6 0 0 1 6-6h18a6 6 0 0 1 6 6v18a6 6 0 0 1-6 6h-18a6 6 0 0 1-6-6z" stroke="#000" stroke-opacity="0" stroke-width="3" fill-opacity="0"/><path d="M2500-110.5c0 10.6-8.95 19.17-20 19.17s-20-8.58-20-19.17c0-10.6 8.95-19.18 20-19.18s20 8.6 20 19.18z" stroke="#e81313" stroke-width="2" fill="url(#e)"/><path d="M2465-119.5a6 6 0 0 1 6-6h18a6 6 0 0 1 6 6v18a6 6 0 0 1-6 6h-18a6 6 0 0 1-6-6z" stroke="#000" stroke-opacity="0" stroke-width="3" fill="#fff" fill-opacity="0"/><path d="M2560-110.5c0 10.6-8.95 19.17-20 19.17s-20-8.58-20-19.17c0-10.6 8.95-19.18 20-19.18s20 8.6 20 19.18z" stroke="#e81313" stroke-width="2" fill="url(#f)"/><path d="M2525-119.5a6 6 0 0 1 6-6h18a6 6 0 0 1 6 6v18a6 6 0 0 1-6 6h-18a6 6 0 0 1-6-6z" stroke="#000" stroke-opacity="0" stroke-width="3" fill="#fff" fill-opacity="0"/><path d="M2695-110.5c0 10.6-8.95 19.17-20 19.17s-20-8.58-20-19.17c0-10.6 8.95-19.18 20-19.18s20 8.6 20 19.18z" stroke="#7769e0" stroke-width="2" fill="url(#g)"/><path d="M2660-119.5a6 6 0 0 1 6-6h18a6 6 0 0 1 6 6v18a6 6 0 0 1-6 6h-18a6 6 0 0 1-6-6z" stroke="#000" stroke-opacity="0" stroke-width="3" fill="#fff" fill-opacity="0"/><path d="M2630-110.5c0 10.6-8.95 19.17-20 19.17s-20-8.58-20-19.17c0-10.6 8.95-19.18 20-19.18s20 8.6 20 19.18z" stroke="#7769e0" stroke-width="2" fill="url(#h)"/><path d="M2595-119.5a6 6 0 0 1 6-6h18a6 6 0 0 1 6 6v18a6 6 0 0 1-6 6h-18a6 6 0 0 1-6-6z" stroke="#000" stroke-opacity="0" stroke-width="3" fill="#fff" fill-opacity="0"/><path d="M2559.96-199.65l-.05 1.12-.22 1.8-.33 1.58-.43 1.4-.5 1.27-.6 1.16-.66 1.08-.75 1.02-.85.98-.98.94-1.14.93-1.34.9-1.6.9-1.97.9-2.48.86-3.28.85-4.6.8-7.37.6-11.3-.1" stroke="#979ea8" stroke-width="2" stroke-linejoin="round" fill="none"/><path d="M2559.95-200.65l1.05-.04-.04 1.12-2-.1.04-1.1z" stroke="#979ea8" stroke-width=".05" fill="#979ea8"/><path d="M2504.24-180.8l14.3-4.5-.08 9.28z" stroke="#979ea8" stroke-width="2" fill="#979ea8"/><path d="M2560.04-199.65l.05 1.12.22 1.8.33 1.58.43 1.4.5 1.27.6 1.16.66 1.08.75 1.02.85.98.98.94 1.14.93 1.34.9 1.6.9 1.97.9 2.48.86 3.28.85 4.6.8 7.37.6 11.3-.1" stroke="#979ea8" stroke-width="2" stroke-linejoin="round" fill="none"/><path d="M2559.95-200.65l1.05-.04.04 1.03-2 .1-.05-1.2z" stroke="#979ea8" stroke-width=".05" fill="#979ea8"/><path d="M2615.76-180.8l-14.22 4.78-.1-9.27z" stroke="#979ea8" stroke-width="2" fill="#979ea8"/><path d="M2480-159.65v10.47" stroke="#979ea8" stroke-width="2" stroke-linejoin="round" fill="none"/><path d="M2479.95-160.65l1.05-.04v1.08h-2v-1.15z" stroke="#979ea8" stroke-width=".05" fill="#979ea8"/><path d="M2480-133.9l-4.64-14.28h9.28z" stroke="#979ea8" stroke-width="2" fill="#979ea8"/><path d="M2480.1-159.66l.07.36.13.44.18.45.23.46.3.48.38.53.48.56.64.62.85.7 1.18.84 1.72 1 2.7 1.27 4.92 1.84 32.1 9.24" stroke="#979ea8" stroke-width="2" stroke-linejoin="round" fill="none"/><path d="M2479.95-160.65l1.05-.04.04 1.03-2 .1-.05-1.2z" stroke="#979ea8" stroke-width=".05" fill="#979ea8"/><path d="M2537.38-132.58l-14.27-4.62 5.45-7.5z" stroke="#979ea8" stroke-width="2" fill="#979ea8"/><path d="M2479.9-159.66l-.07.36-.13.44-.18.45-.23.46-.3.48-.38.53-.48.56-.64.62-.85.7-1.18.84-1.72 1-2.7 1.27-4.92 1.84-32.1 9.24" stroke="#979ea8" stroke-width="2" stroke-linejoin="round" fill="none"/><path d="M2479.95-160.65l1.05-.04-.04 1.12-2-.1.04-1.1z" stroke="#979ea8" stroke-width=".05" fill="#979ea8"/><path d="M2422.62-132.58l8.83-12.12 5.44 7.5z" stroke="#979ea8" stroke-width="2" fill="#979ea8"/><path d="M2639.92-159.65l-.06.75-.4 1.58-.7 1.54-1.07 1.62-1.75 1.85-3.33 2.5-10.84 6.3" stroke="#979ea8" stroke-width="2" stroke-linejoin="round" fill="none"/><path d="M2639.95-160.65l1.06-.04-.1 1.15-1.98-.16.1-1.07z" stroke="#979ea8" stroke-width=".05" fill="#979ea8"/><path d="M2612.2-133.06l6.22-13.64 6.83 6.27z" stroke="#979ea8" stroke-width="2" fill="#979ea8"/><path d="M2640.07-159.65l.02.3.26 1.22.44 1.18.66 1.2.98 1.3 1.52 1.5 2.6 1.93 6.33 3.34 9.84 4.67" stroke="#979ea8" stroke-width="2" stroke-linejoin="round" fill="none"/><path d="M2639.95-160.65l1.05-.04.07 1-2 .14-.08-1.2z" stroke="#979ea8" stroke-width=".05" fill="#979ea8"/><path d="M2672.72-132.97l-13.35-6.85 6.58-6.54z" stroke="#979ea8" stroke-width="2" fill="#979ea8"/><path d="M2585-210.75a.25.25 0 0 1 .25.25v129a.25.25 0 0 1-.25.25.25.25 0 0 1-.25-.25v-129a.25.25 0 0 1 .25-.25zM2700.5-210.75a.25.25 0 0 1 .25.25v129a.25.25 0 0 1-.25.25.25.25 0 0 1-.25-.25v-129a.25.25 0 0 1 .25-.25z" stroke="#fcce14" stroke-width=".5" fill="none"/><path d="M2584.75-210.5a.25.25 0 0 1 .25-.25h114.5a.25.25 0 0 1 .25.25.25.25 0 0 1-.25.25H2585a.25.25 0 0 1-.25-.25zM2585.1-80.5a.25.25 0 0 1 .24-.25h114.5a.25.25 0 0 1 .25.25.25.25 0 0 1-.26.25h-114.5a.25.25 0 0 1-.25-.25z" stroke="#fcce14" stroke-width=".5" fill="none"/><path d="M2740-226.13a6 6 0 0 1 6-6h48a6 6 0 0 1 6 6V-200c-10.02-5.37-16.26-5.37-20.04-5.37-6 0-13.98 5.37-19.98 5.37-3.72 0-10.02 0-19.98-5.37z" stroke="#fcce14" fill-opacity="0"/><use xlink:href="#i" transform="matrix(1,0,0,1,2745,-227.13043871041532) translate(-3.069661458333318 13.910156249999996)"/><path d="M2739.5-215.95c0 .28-.22.5-.5.5s-.5-.22-.5-.5.22-.5.5-.5.5.22.5.5zm-2 .12c0 .28-.24.5-.5.5-.3 0-.5-.22-.5-.5 0-.27.2-.5.5-.5.26 0 .5.23.5.5zm-2.03.13c0 .27-.22.5-.5.5-.27 0-.5-.23-.5-.5 0-.28.23-.5.5-.5.28 0 .5.22.5.5zm-2 .3c0 .27-.2.5-.5.5-.27 0-.5-.23-.5-.5 0-.28.23-.5.5-.5.3 0 .5.22.5.5zm-1.97.38c0 .27-.23.5-.5.5-.28 0-.5-.23-.5-.5 0-.28.22-.5.5-.5.27 0 .5.22.5.5zm-1.96.48c0 .28-.22.5-.5.5-.27 0-.5-.22-.5-.5 0-.27.23-.5.5-.5.28 0 .5.23.5.5zm-1.9.63c0 .27-.24.5-.5.5-.3 0-.5-.23-.5-.5 0-.28.2-.5.5-.5.26 0 .5.22.5.5zm-1.92.65c0 .27-.23.5-.5.5-.28 0-.5-.23-.5-.5 0-.28.22-.5.5-.5.27 0 .5.22.5.5zm-1.82.87c0 .28-.22.5-.5.5s-.5-.22-.5-.5c0-.27.22-.5.5-.5s.5.23.5.5zm-1.82.88c0 .28-.22.5-.5.5-.27 0-.5-.22-.5-.5 0-.27.23-.5.5-.5.28 0 .5.23.5.5zm-1.8.88c0 .28-.24.5-.5.5-.3 0-.5-.22-.5-.5s.2-.5.5-.5c.26 0 .5.22.5.5zm-1.8.94c0 .27-.23.5-.5.5-.28 0-.5-.23-.5-.5 0-.28.22-.5.5-.5.27 0 .5.22.5.5zm-1.78.95c0 .28-.22.5-.5.5-.27 0-.5-.22-.5-.5 0-.27.23-.5.5-.5.28 0 .5.23.5.5z" fill="#fcce14"/><path d="M2739.5-215.48l-.48.03-.06-1 .54-.03z" stroke="#fcce14" stroke-width=".05" fill="#fcce14"/><path d="M2701.43-200.77l10.36-10.84 4.38 8.15z" stroke="#fcce14" fill="#fff"/><path d="M2488.42-286.98a6 6 0 0 1 6-6h48a6 6 0 0 1 6 6v26.13c-10.02-5.37-16.26-5.37-20.04-5.37-6 0-13.98 5.37-19.98 5.37-3.72 0-10.02 0-19.98-5.37z" stroke="#008a0e" fill-opacity="0"/><use xlink:href="#j" transform="matrix(1,0,0,1,2493.42354715031,-287.98375017401645) translate(12.584635416666673 14.539062499999993)"/><path d="M2518.95-262.8c0 .27-.23.5-.5.5-.28 0-.5-.23-.5-.5 0-.28.22-.5.5-.5.27 0 .5.22.5.5zm.1 1.98c0 .28-.23.5-.5.5-.3 0-.5-.22-.5-.5 0-.27.2-.5.5-.5.27 0 .5.23.5.5zm.1 2c0 .27-.24.5-.5.5-.3 0-.5-.23-.5-.5 0-.28.2-.5.5-.5.26 0 .5.22.5.5zm.08 2c0 .26-.22.5-.5.5s-.5-.24-.5-.5c0-.3.22-.5.5-.5s.5.2.5.5zm.1 1.98c0 .28-.23.5-.5.5-.28 0-.5-.22-.5-.5s.22-.5.5-.5c.27 0 .5.22.5.5zm.1 2c0 .27-.23.5-.5.5-.3 0-.5-.23-.5-.5 0-.28.2-.5.5-.5.27 0 .5.22.5.5zm.08 2c0 .26-.2.5-.5.5-.26 0-.5-.24-.5-.5 0-.3.24-.5.5-.5.3 0 .5.2.5.5zm.1 1.98c0 .27-.22.5-.5.5-.27 0-.5-.23-.5-.5 0-.28.23-.5.5-.5.28 0 .5.22.5.5zm.1 2c0 .27-.22.5-.5.5-.27 0-.5-.23-.5-.5 0-.3.23-.5.5-.5.28 0 .5.2.5.5zm.3 1.96c0 .28-.24.5-.5.5-.3 0-.5-.22-.5-.5s.2-.5.5-.5c.26 0 .5.22.5.5zm.33 1.97c0 .27-.22.5-.5.5s-.5-.23-.5-.5c0-.28.22-.5.5-.5s.5.22.5.5zm.34 1.96c0 .28-.22.5-.5.5s-.5-.22-.5-.5c0-.27.22-.5.5-.5s.5.23.5.5zm.34 1.97c0 .27-.22.5-.5.5-.27 0-.5-.23-.5-.5 0-.28.23-.5.5-.5.28 0 .5.22.5.5zm.55 1.9c0 .3-.22.5-.5.5-.27 0-.5-.2-.5-.5 0-.26.23-.5.5-.5.28 0 .5.24.5.5zm.58 1.92c0 .28-.23.5-.5.5-.28 0-.5-.22-.5-.5 0-.27.22-.5.5-.5.27 0 .5.23.5.5zm.65 1.88c0 .28-.22.5-.5.5-.27 0-.5-.22-.5-.5 0-.27.23-.5.5-.5.28 0 .5.23.5.5zm.8 1.83c0 .28-.22.5-.5.5s-.5-.22-.5-.5c0-.27.22-.5.5-.5s.5.23.5.5zm.92 1.77c0 .28-.23.5-.5.5-.28 0-.5-.22-.5-.5s.22-.5.5-.5c.27 0 .5.22.5.5zm1.04 1.7c0 .27-.22.5-.5.5s-.5-.23-.5-.5c0-.28.22-.5.5-.5s.5.22.5.5z" fill="#008a0e"/><path d="M2518.95-262.82l-1 .05-.02-.4 1-.28z" stroke="#008a0e" stroke-width=".05" fill="#008a0e"/><path d="M2537.56-221.56l-14.8-2.4 4.23-8.25z" stroke="#008a0e" fill="#fff"/><path d="M2450-53.35a6 6 0 0 1 6-6h48a6 6 0 0 1 6 6v26.13c-10.02-5.37-16.26-5.37-20.04-5.37-6 .02-13.98 5.38-19.98 5.38-3.72 0-10.02 0-19.98-5.37z" stroke="#e81313" fill-opacity="0"/><use xlink:href="#k" transform="matrix(1,0,0,1,2455,-54.349879841661334) translate(7.268880208333343 14.539062499999993)"/><path d="M2480.48-60.35c0 .28-.23.5-.5.5-.28 0-.5-.22-.5-.5s.22-.5.5-.5c.27 0 .5.22.5.5zm-.52-1.9c0 .27-.23.5-.5.5-.28 0-.5-.23-.5-.5 0-.3.22-.5.5-.5.27 0 .5.2.5.5zm-1.1-1.67c0 .28-.2.5-.5.5-.26 0-.5-.22-.5-.5s.24-.5.5-.5c.3 0 .5.22.5.5zm-1.4-1.38c0 .27-.24.5-.5.5-.3 0-.5-.23-.5-.5 0-.28.2-.5.5-.5.26 0 .5.22.5.5zm-1.62-1.18c0 .28-.22.5-.5.5-.27 0-.5-.22-.5-.5 0-.27.23-.5.5-.5.28 0 .5.23.5.5zm-1.72-1c0 .28-.22.5-.5.5-.27 0-.5-.22-.5-.5 0-.27.23-.5.5-.5.28 0 .5.23.5.5zm-1.8-.85c0 .27-.22.5-.5.5-.27 0-.5-.23-.5-.5 0-.28.23-.5.5-.5.28 0 .5.22.5.5zm-1.82-.8c0 .28-.22.5-.5.5s-.5-.22-.5-.5c0-.27.22-.5.5-.5s.5.23.5.5zm-1.86-.7c0 .3-.23.5-.5.5-.28 0-.5-.2-.5-.5 0-.27.22-.5.5-.5.27 0 .5.23.5.5zm-1.87-.7c0 .3-.22.5-.5.5-.27 0-.5-.2-.5-.5 0-.26.23-.5.5-.5.28 0 .5.24.5.5zm-1.9-.58c0 .26-.22.5-.5.5-.27 0-.5-.24-.5-.5 0-.3.23-.5.5-.5.28 0 .5.2.5.5zm-1.9-.57c0 .28-.23.5-.5.5-.28 0-.5-.22-.5-.5s.22-.5.5-.5c.27 0 .5.22.5.5zm-1.9-.56c-.02.28-.24.5-.52.5-.27 0-.5-.22-.5-.5 0-.27.23-.5.5-.5.28 0 .5.23.5.5zm-1.93-.55c0 .27-.22.5-.5.5-.27 0-.5-.23-.5-.5 0-.28.23-.5.5-.5.28 0 .5.22.5.5zm-1.9-.56c0 .28-.23.5-.5.5-.28 0-.5-.22-.5-.5 0-.27.22-.5.5-.5.27 0 .5.23.5.5zm-1.92-.55c0 .28-.22.5-.5.5-.27 0-.5-.22-.5-.5 0-.27.23-.5.5-.5.28 0 .5.23.5.5zm-1.9-.55c0 .28-.23.5-.5.5-.28 0-.5-.22-.5-.5s.22-.5.5-.5c.27 0 .5.22.5.5zm-1.92-.56c0 .27-.22.5-.5.5s-.5-.23-.5-.5c0-.28.22-.5.5-.5s.5.22.5.5zm-1.9-.56c0 .27-.23.5-.5.5-.28 0-.5-.23-.5-.5 0-.28.22-.5.5-.5.27 0 .5.22.5.5zm-1.92-.56c0 .28-.22.5-.5.5s-.5-.22-.5-.5c0-.27.22-.5.5-.5s.5.23.5.5zm-1.9-.55c0 .27-.24.5-.5.5-.3 0-.5-.23-.5-.5 0-.28.2-.5.5-.5.26 0 .5.22.5.5zm-1.92-.56c0 .28-.22.5-.5.5s-.5-.22-.5-.5.22-.5.5-.5.5.22.5.5zm-1.9-.56c0 .3-.24.5-.5.5-.3 0-.5-.2-.5-.5 0-.26.2-.5.5-.5.26 0 .5.24.5.5zm-1.92-.54c0 .27-.23.5-.5.5-.28 0-.5-.23-.5-.5 0-.28.22-.5.5-.5.27 0 .5.22.5.5zm-1.9-.56c0 .28-.24.5-.5.5-.3 0-.5-.22-.5-.5 0-.27.2-.5.5-.5.26 0 .5.23.5.5zm-1.92-.55c0 .27-.23.5-.5.5-.28 0-.5-.23-.5-.5 0-.28.22-.5.5-.5.27 0 .5.22.5.5zm-1.9-.56c-.02.27-.24.5-.52.5-.27 0-.5-.23-.5-.5 0-.3.23-.5.5-.5.28 0 .5.2.5.5z" fill="#e81313"/><path d="M2480.5-59.85h-1l-.02-.5 1-.03z" stroke="#e81313" stroke-width=".05" fill="#e81313"/><path d="M2421.25-89.3l13.97 5.47-5.88 7.16z" stroke="#e81313" fill="#e81313"/><path d="M2480.5-60.35c0 .28-.22.5-.5.5s-.5-.22-.5-.5.22-.5.5-.5.5.22.5.5zm0-1.94c0 .28-.22.5-.5.5s-.5-.22-.5-.5c0-.27.22-.5.5-.5s.5.23.5.5zm0-1.93c0 .27-.22.5-.5.5s-.5-.23-.5-.5c0-.28.22-.5.5-.5s.5.22.5.5zm0-1.94c0 .27-.22.5-.5.5s-.5-.23-.5-.5c0-.28.22-.5.5-.5s.5.22.5.5zm0-1.95c0 .28-.22.5-.5.5s-.5-.22-.5-.5c0-.27.22-.5.5-.5s.5.23.5.5zm0-1.94c0 .28-.22.5-.5.5s-.5-.22-.5-.5c0-.27.22-.5.5-.5s.5.23.5.5zm0-1.94c0 .28-.22.5-.5.5s-.5-.22-.5-.5.22-.5.5-.5.5.22.5.5z" fill="#e81313"/><path d="M2480.5-59.85h-1v-.5h1z" stroke="#e81313" stroke-width=".05" fill="#e81313"/><path d="M2480-88.7l4.64 14.26h-9.28z" stroke="#e81313" fill="#e81313"/><path d="M2480.52-60.35c0 .28-.22.5-.5.5-.27 0-.5-.22-.5-.5s.23-.5.5-.5c.28 0 .5.22.5.5zm.52-1.9c0 .27-.22.5-.5.5-.27 0-.5-.23-.5-.5 0-.3.23-.5.5-.5.28 0 .5.2.5.5zm1.1-1.67c0 .28-.24.5-.5.5-.3 0-.5-.22-.5-.5s.2-.5.5-.5c.26 0 .5.22.5.5zm1.4-1.38c0 .27-.2.5-.5.5-.26 0-.5-.23-.5-.5 0-.28.24-.5.5-.5.3 0 .5.22.5.5zm1.62-1.18c0 .28-.23.5-.5.5-.28 0-.5-.22-.5-.5 0-.27.22-.5.5-.5.27 0 .5.23.5.5zm1.72-1c0 .28-.23.5-.5.5-.28 0-.5-.22-.5-.5 0-.27.22-.5.5-.5.27 0 .5.23.5.5zm1.8-.85c0 .27-.23.5-.5.5-.28 0-.5-.23-.5-.5 0-.28.22-.5.5-.5.27 0 .5.22.5.5zm1.82-.8c0 .28-.22.5-.5.5s-.5-.22-.5-.5c0-.27.22-.5.5-.5s.5.23.5.5zm1.86-.7c0 .3-.22.5-.5.5-.27 0-.5-.2-.5-.5 0-.27.23-.5.5-.5.28 0 .5.23.5.5zm1.87-.7c0 .3-.23.5-.5.5-.28 0-.5-.2-.5-.5 0-.26.22-.5.5-.5.27 0 .5.24.5.5zm1.9-.58c0 .26-.23.5-.5.5-.28 0-.5-.24-.5-.5 0-.3.22-.5.5-.5.27 0 .5.2.5.5zm1.9-.57c0 .28-.22.5-.5.5-.27 0-.5-.22-.5-.5s.23-.5.5-.5c.28 0 .5.22.5.5zm1.9-.56c.02.28-.2.5-.48.5-.28 0-.5-.22-.5-.5 0-.27.22-.5.5-.5.27 0 .5.23.5.5zm1.93-.55c0 .27-.23.5-.5.5-.28 0-.5-.23-.5-.5 0-.28.22-.5.5-.5.27 0 .5.22.5.5zm1.9-.56c0 .28-.22.5-.5.5-.27 0-.5-.22-.5-.5 0-.27.23-.5.5-.5.28 0 .5.23.5.5zm1.92-.55c0 .28-.23.5-.5.5-.28 0-.5-.22-.5-.5 0-.27.22-.5.5-.5.27 0 .5.23.5.5zm1.9-.55c0 .28-.22.5-.5.5-.27 0-.5-.22-.5-.5s.23-.5.5-.5c.28 0 .5.22.5.5zm1.92-.56c0 .27-.22.5-.5.5s-.5-.23-.5-.5c0-.28.22-.5.5-.5s.5.22.5.5zm1.9-.56c0 .27-.22.5-.5.5-.27 0-.5-.23-.5-.5 0-.28.23-.5.5-.5.28 0 .5.22.5.5zm1.92-.56c0 .28-.22.5-.5.5s-.5-.22-.5-.5c0-.27.22-.5.5-.5s.5.23.5.5zm1.9-.55c0 .27-.2.5-.5.5-.26 0-.5-.23-.5-.5 0-.28.24-.5.5-.5.3 0 .5.22.5.5zm1.92-.56c0 .28-.22.5-.5.5s-.5-.22-.5-.5.22-.5.5-.5.5.22.5.5zm1.9-.56c0 .3-.2.5-.5.5-.26 0-.5-.2-.5-.5 0-.26.24-.5.5-.5.3 0 .5.24.5.5zm1.92-.54c0 .27-.22.5-.5.5-.27 0-.5-.23-.5-.5 0-.28.23-.5.5-.5.28 0 .5.22.5.5zm1.9-.56c0 .28-.2.5-.5.5-.26 0-.5-.22-.5-.5 0-.27.24-.5.5-.5.3 0 .5.23.5.5zm1.92-.55c0 .27-.22.5-.5.5-.27 0-.5-.23-.5-.5 0-.28.23-.5.5-.5.28 0 .5.22.5.5zm1.9-.56c.02.27-.2.5-.48.5-.28 0-.5-.23-.5-.5 0-.3.22-.5.5-.5.27 0 .5.2.5.5z" fill="#e81313"/><path d="M2480.52-60.34l-.02.5h-1l.02-.54z" stroke="#e81313" stroke-width=".05" fill="#e81313"/><path d="M2538.75-89.3l-8.1 12.63-5.87-7.16z" stroke="#e81313" fill="#e81313"/><path d="M2341.58-200.3a6 6 0 0 1 6-6h48a6 6 0 0 1 6 6v26.12c-10.02-5.36-16.26-5.36-20.04-5.36-6 0-13.98 5.36-19.98 5.36-3.72 0-10.02 0-19.98-5.36z" stroke="#d916a8" fill-opacity="0"/><use xlink:href="#l" transform="matrix(1,0,0,1,2346.5757861358143,-201.3091215322546) translate(7.057291666666675 14.539062499999993)"/><path d="M2403.08-190.14c0 .28-.23.5-.5.5-.28 0-.5-.22-.5-.5s.22-.5.5-.5c.27 0 .5.22.5.5zm1.95.08c0 .28-.22.5-.5.5-.27 0-.5-.22-.5-.5s.23-.5.5-.5c.28 0 .5.22.5.5zm1.96.08c0 .28-.23.5-.5.5-.28 0-.5-.22-.5-.5s.22-.5.5-.5c.27 0 .5.22.5.5zm1.95.08c0 .28-.22.5-.5.5s-.5-.22-.5-.5.22-.5.5-.5.5.22.5.5zm1.96.08c0 .28-.22.5-.5.5-.27 0-.5-.22-.5-.5s.23-.5.5-.5c.28 0 .5.22.5.5zm1.96.2c0 .28-.23.5-.5.5-.28 0-.5-.22-.5-.5 0-.27.22-.5.5-.5.27 0 .5.23.5.5zm1.94.26c0 .27-.23.5-.5.5-.28 0-.5-.23-.5-.5 0-.28.22-.5.5-.5.27 0 .5.22.5.5zm1.94.25c0 .27-.22.5-.5.5-.27 0-.5-.23-.5-.5 0-.28.23-.5.5-.5.28 0 .5.22.5.5zm1.93.32c0 .27-.22.5-.5.5-.27 0-.5-.23-.5-.5 0-.28.23-.5.5-.5.28 0 .5.22.5.5zm1.9.42c0 .28-.2.5-.5.5-.26 0-.5-.22-.5-.5 0-.27.24-.5.5-.5.3 0 .5.23.5.5zm1.93.43c0 .28-.23.5-.5.5-.28 0-.5-.22-.5-.5s.22-.5.5-.5c.27 0 .5.22.5.5zm1.9.48c0 .27-.23.5-.5.5-.28 0-.5-.23-.5-.5 0-.28.22-.5.5-.5.27 0 .5.22.5.5zm1.88.54c0 .27-.22.5-.5.5s-.5-.23-.5-.5c0-.3.22-.5.5-.5s.5.2.5.5zm1.88.53c0 .28-.22.5-.5.5-.27 0-.5-.22-.5-.5 0-.27.23-.5.5-.5.28 0 .5.23.5.5zm1.9.55c0 .27-.24.5-.5.5-.3 0-.5-.23-.5-.5 0-.28.2-.5.5-.5.26 0 .5.22.5.5zm1.87.54c0 .28-.22.5-.5.5s-.5-.22-.5-.5.22-.5.5-.5.5.22.5.5zm1.88.54c0 .28-.2.5-.5.5-.26 0-.5-.22-.5-.5 0-.27.24-.5.5-.5.3 0 .5.23.5.5zm1.9.55c0 .28-.23.5-.5.5-.28 0-.5-.22-.5-.5 0-.27.22-.5.5-.5.27 0 .5.23.5.5zm1.88.55c0 .27-.23.5-.5.5-.28 0-.5-.23-.5-.5 0-.28.22-.5.5-.5.27 0 .5.22.5.5zm1.88.54c0 .27-.22.5-.5.5s-.5-.23-.5-.5c0-.28.22-.5.5-.5s.5.22.5.5zm1.88.53c0 .28-.22.5-.5.5-.27 0-.5-.22-.5-.5 0-.27.23-.5.5-.5.28 0 .5.23.5.5z" fill="#d916a8"/><path d="M2402.6-190.64l-.03 1-.5-.02v-1z" stroke="#d916a8" stroke-width=".05" fill="#d916a8"/><path d="M2457.4-180.7l-14.63 3.34.84-9.24z" stroke="#d916a8" fill="#d916a8"/><path d="M2300-123.67a6 6 0 0 1 6-6h48a6 6 0 0 1 6 6v28.58c-10.02-5.77-16.26-5.77-20.04-5.77-6 0-13.98 5.78-19.98 5.78-3.72 0-10.02 0-19.98-5.77z" stroke="#fe7070" fill-opacity="0"/><use xlink:href="#m" transform="matrix(1,0,0,1,2305,-124.67493992083067) translate(12.779947916666673 14.664062499999993)"/><path d="M2361.5-112.3c0 .3-.22.5-.5.5s-.5-.2-.5-.5c0-.27.22-.5.5-.5s.5.23.5.5zm2 0c0 .3-.24.5-.5.5-.3 0-.5-.2-.5-.5 0-.27.2-.5.5-.5.26 0 .5.23.5.5zm1.97 0c0 .3-.22.5-.5.5s-.5-.2-.5-.5c0-.27.22-.5.5-.5s.5.23.5.5zm2 0c0 .3-.24.5-.5.5-.3 0-.5-.2-.5-.5 0-.27.2-.5.5-.5.26 0 .5.23.5.5zm1.97 0c0 .3-.22.5-.5.5s-.5-.2-.5-.5c0-.27.22-.5.5-.5s.5.23.5.5zm1.98 0c0 .3-.22.5-.5.5-.27 0-.5-.2-.5-.5 0-.27.23-.5.5-.5.28 0 .5.23.5.5zm2 0c0 .3-.24.5-.5.5-.3 0-.5-.2-.5-.5 0-.27.2-.5.5-.5.26 0 .5.23.5.5zm1.97 0c0 .3-.23.5-.5.5-.28 0-.5-.2-.5-.5 0-.27.22-.5.5-.5.27 0 .5.23.5.5zm1.98 0c0 .3-.23.5-.5.5-.28 0-.5-.2-.5-.5 0-.27.22-.5.5-.5.27 0 .5.23.5.5zm1.98 0c0 .3-.22.5-.5.5-.27 0-.5-.2-.5-.5 0-.27.23-.5.5-.5.28 0 .5.23.5.5zm2 0c0 .3-.24.5-.5.5-.3 0-.5-.2-.5-.5 0-.27.2-.5.5-.5.26 0 .5.23.5.5z" fill="#fe7070"/><path d="M2361-111.8h-.5v-1h.5z" stroke="#fe7070" stroke-width=".05" fill="#fe7070"/><path d="M2397.6-112.3l-14.27 4.65v-9.27z" stroke="#fe7070" fill="#fe7070"/><defs><radialGradient gradientUnits="userSpaceOnUse" id="a" fx="2560" fy="-220.83" cx="2560" cy="-220.83" r="20.54"><stop offset="0%" stop-color="#7b6ee1" stop-opacity=".4"/><stop offset="60%" stop-color="#7769e0" stop-opacity=".6"/><stop offset="100%" stop-color="#7668dd"/></radialGradient><radialGradient gradientUnits="userSpaceOnUse" id="b" fx="2480" fy="-180.83" cx="2480" cy="-180.83" r="20.54"><stop offset="0%" stop-color="#da1dab" stop-opacity=".4"/><stop offset="60%" stop-color="#d916a8" stop-opacity=".6"/><stop offset="100%" stop-color="#d616a6"/></radialGradient><radialGradient gradientUnits="userSpaceOnUse" id="c" fx="2640" fy="-180.83" cx="2640" cy="-180.83" r="20.54"><stop offset="0%" stop-color="#7b6ee1" stop-opacity=".4"/><stop offset="60%" stop-color="#7769e0" stop-opacity=".6"/><stop offset="100%" stop-color="#7668dd"/></radialGradient><radialGradient gradientUnits="userSpaceOnUse" id="d" fx="2420" fy="-110.5" cx="2420" cy="-110.5" r="20.54"><stop offset="0%" stop-color="#fe7474" stop-opacity=".4"/><stop offset="60%" stop-color="#fe7070" stop-opacity=".6"/><stop offset="100%" stop-color="#fb6f6f"/></radialGradient><radialGradient gradientUnits="userSpaceOnUse" id="e" fx="2480" fy="-110.5" cx="2480" cy="-110.5" r="20.54"><stop offset="0%" stop-color="#e91a1a" stop-opacity=".4"/><stop offset="60%" stop-color="#e81313" stop-opacity=".6"/><stop offset="100%" stop-color="#e51313"/></radialGradient><radialGradient gradientUnits="userSpaceOnUse" id="f" fx="2540" fy="-110.5" cx="2540" cy="-110.5" r="20.54"><stop offset="0%" stop-color="#e91a1a" stop-opacity=".4"/><stop offset="60%" stop-color="#e81313" stop-opacity=".6"/><stop offset="100%" stop-color="#e51313"/></radialGradient><radialGradient gradientUnits="userSpaceOnUse" id="g" fx="2675" fy="-110.5" cx="2675" cy="-110.5" r="20.54"><stop offset="0%" stop-color="#7b6ee1" stop-opacity=".4"/><stop offset="60%" stop-color="#7769e0" stop-opacity=".6"/><stop offset="100%" stop-color="#7668dd"/></radialGradient><radialGradient gradientUnits="userSpaceOnUse" id="h" fx="2610" fy="-110.5" cx="2610" cy="-110.5" r="20.54"><stop offset="0%" stop-color="#7b6ee1" stop-opacity=".4"/><stop offset="60%" stop-color="#7769e0" stop-opacity=".6"/><stop offset="100%" stop-color="#7668dd"/></radialGradient><path fill="#fcce14" d="M196-1063c0-251 371-378 608-255 71 37 119 87 150 151 35 73-14 152-87 150-26 0-63-25-111-73s-102-72-162-72c-72 0-200 37-200 99 0 43 47 111 142 203 145 142 234 232 266 271 95 116 142 225 142 328C944-95 791 0 613 0 494 0 170-60 118-111c-29-29-48-55-48-87-1-69 67-120 140-92h-2c162 59 305 89 429 89 69 0 104-25 104-75 0-69-47-151-142-245-86-86-177-167-261-254-98-100-142-199-142-288" id="n"/><path fill="#fcce14" d="M807-1260c0-54 40-105 96-105 43 0 76 24 99 73 18 39 27 131 27 277 0 274-20 485-61 631C895-128 757 0 555 0 385 0 262-90 189-270c-51-126-76-289-76-488 0-289 18-467 53-534 26-49 59-73 99-73 52 0 105 52 99 104-14 128-48 300-48 513 0 128 14 239 41 332 41 144 108 216 201 216 105 0 179-98 225-293 29-124 45-265 45-422 0-66-21-279-21-345" id="o"/><path fill="#fcce14" d="M111-254c0-80 75-479 73-483 3-23 17-167 40-434-41-20-62-51-62-94 0-67 48-100 145-100 431 0 647 127 647 380 0 161-86 280-258 359 120 81 180 177 180 290 0 173-116 256-272 302C530-12 459 0 391 0 204 0 111-85 111-254zm642-722c0-105-210-177-326-186-9 140-24 282-43 426 246-59 369-139 369-240zm-77 638c-27-89-136-153-326-193-27 162-48 229-34 323 82 18 157 3 237-24 75-26 116-61 123-106" id="p"/><path fill="#fcce14" d="M922-654c-9 182 20 369 29 555 5 90-140 139-183 58-2-3-13-31-31-85-54-160-191-263-414-306-19 75-30 243-58 360-12 50-51 72-98 72-55 0-99-53-99-108 1-366 195-896 360-1117 69-92 141-140 222-140 182 0 273 207 273 621 0 19 1 49-1 90zM724-476v-400c-20-103-13-145-35-225-11-40-25-60-40-60-32 0-83 65-154 195-56 103-99 215-130 336 137 27 256 79 359 154" id="q"/><path fill="#fcce14" d="M432-1365c342 0 623 232 623 568 0 219-132 374-395 466 145 90 217 167 217 230 0 52-52 98-104 96-17 0-39-10-66-29-90-65-203-166-304-203v78C403-53 368 0 299 0c-53 0-99-44-99-97v-374c17-145 25-361 25-650-2 5-10 7-24 7-53 2-99-46-99-99 0-112 194-152 330-152zm257 786c221-128 209-317 21-469-89-71-178-111-268-119-1 97-2 329-2 698 90-27 172-66 249-110" id="r"/><path fill="#fcce14" d="M609-1364c323 0 519 229 519 557 0 183-51 357-152 522C860-95 716 0 544 0 271 0 97-283 97-570c0-191 38-362 113-512 95-188 228-282 399-282zm319 550c0-231-116-347-349-347-81 0-151 81-210 243-48 132-72 248-72 348 0 161 47 272 142 333 35 23 69 34 100 34 113 0 208-76 287-229 68-131 102-258 102-382" id="s"/><path fill="#fcce14" d="M759-451c68-46 151 19 151 87 0 27-17 54-48 86C767-182 491 0 329 0 186 0 114-109 114-326c0-169 46-507 46-695 0-139-8-341 120-344 53-2 103 46 101 99-4-2-27 472-40 636-16 198-27 312-27 343 0 57 11 86 32 86 61 0 169-62 325-185 19-16 49-38 88-65" id="t"/><g id="i"><use transform="matrix(0.0065104166666666635,0,0,0.0065104166666666635,0,0)" xlink:href="#n"/><use transform="matrix(0.0065104166666666635,0,0,0.0065104166666666635,6.9531249999999964,0)" xlink:href="#o"/><use transform="matrix(0.0065104166666666635,0,0,0.0065104166666666635,14.374999999999993,0)" xlink:href="#p"/><use transform="matrix(0.0065104166666666635,0,0,0.0065104166666666635,21.13281249999999,0)" xlink:href="#q"/><use transform="matrix(0.0065104166666666635,0,0,0.0065104166666666635,28.085937499999986,0)" xlink:href="#r"/><use transform="matrix(0.0065104166666666635,0,0,0.0065104166666666635,35.47526041666665,0)" xlink:href="#p"/><use transform="matrix(0.0065104166666666635,0,0,0.0065104166666666635,42.23307291666664,0)" xlink:href="#s"/><use transform="matrix(0.0065104166666666635,0,0,0.0065104166666666635,50.17578124999997,0)" xlink:href="#t"/></g><path fill="#008a0e" d="M430-1365c342 0 623 231 623 568 0 219-131 374-394 466 145 90 217 167 217 230 0 52-53 98-105 96-17 0-39-10-66-29-90-66-201-166-304-203v78C401-53 366 0 297 0c-53 0-99-44-99-97v-374c17-145 26-361 26-650-3 5-11 7-24 7-53 2-99-46-99-99 0-112 193-152 329-152zm258 786c221-128 209-317 20-469-89-71-178-111-268-119-1 97-1 329-1 698 89-27 172-65 249-110" id="u"/><path fill="#008a0e" d="M922-654c-9 182 20 369 29 555 5 90-140 139-183 58-2-3-13-31-31-85-54-160-191-263-414-306-19 75-30 243-58 360-12 50-51 72-98 72-55 0-99-53-99-108 1-366 195-896 360-1117 69-92 141-140 222-140 182 0 273 207 273 621 0 19 1 49-1 90zM724-476v-400c-20-103-13-145-35-225-11-40-25-60-40-60-32 0-83 65-154 195-56 103-99 215-130 336 137 27 256 79 359 154" id="v"/><path fill="#008a0e" d="M270-1365c53 0 101 46 100 99-5 357-80 777-80 1073C290-64 254 0 183 0 132 0 82-50 82-101c0-298 47-662 55-976 2-76 19-138 34-189 19-66 52-99 99-99" id="w"/><path fill="#008a0e" d="M981-266c49-2 92 51 92 99 0 65-78 111-235 140C740-9 634 0 521 0 381 0 189-69 189-191c0-93 52-207 157-340 30-39 126-147 289-324 104-113 157-190 157-232 0-53-70-80-210-80-152 0-488 76-488-91 0-143 266-107 411-107 340 0 510 87 510 261 0 71-44 165-136 278-136 168-404 420-475 602 150 56 400-33 577-42" id="x"/><g id="j"><use transform="matrix(0.0065104166666666635,0,0,0.0065104166666666635,0,0)" xlink:href="#u"/><use transform="matrix(0.0065104166666666635,0,0,0.0065104166666666635,7.369791666666663,0)" xlink:href="#v"/><use transform="matrix(0.0065104166666666635,0,0,0.0065104166666666635,14.322916666666659,0)" xlink:href="#w"/><use transform="matrix(0.0065104166666666635,0,0,0.0065104166666666635,17.220052083333325,0)" xlink:href="#x"/></g><path fill="#e81313" d="M925-1365c50 0 101 48 101 99 0 165-53 833-94 1164C923-33 882 0 831 0c-53 0-101-49-101-102 0-145 29-345 45-490-111 9-252 35-425 78-6 58-9 145-9 260 0 35-10 86-22 153C307-33 270 0 220 0c-53 0-103-48-102-101 6-372 65-764 56-1090-3-108 18-171 108-174 55-2 99 41 99 97v544c167-44 304-66 413-66 7-75 10-182 10-321 8-35 11-88 22-155s48-99 99-99" id="y"/><path fill="#e81313" d="M609-1364c323 0 519 229 519 557 0 183-51 357-152 522C860-95 716 0 544 0 271 0 97-283 97-570c0-191 38-362 113-512 95-188 228-282 399-282zm319 550c0-231-116-347-349-347-81 0-151 81-210 243-48 132-72 248-72 348 0 161 47 272 142 333 35 23 69 34 100 34 113 0 208-76 287-229 68-131 102-258 102-382" id="z"/><path fill="#e81313" d="M393-1106c-85 0-123-115-69-169 75-41 289-90 328-90 67 0 116 76 148 227 21 100 33 204 33 312 0 359-41 594-120 707C607 32 419 27 252-68c-82-47-144-100-184-161-19-29-29-54-29-75-2-51 53-99 104-94 70 6 117 81 165 118 43 33 92 80 158 80 65 0 111-88 140-264 32-197 40-527-17-686-74 29-139 44-196 44" id="A"/><path fill="#e81313" d="M922-654c-9 182 20 369 29 555 5 90-140 139-183 58-2-3-13-31-31-85-54-160-191-263-414-306-19 75-30 243-58 360-12 50-51 72-98 72-55 0-99-53-99-108 1-366 195-896 360-1117 69-92 141-140 222-140 182 0 273 207 273 621 0 19 1 49-1 90zM724-476v-400c-20-103-13-145-35-225-11-40-25-60-40-60-32 0-83 65-154 195-56 103-99 215-130 336 137 27 256 79 359 154" id="B"/><path fill="#e81313" d="M196-1063c0-251 371-378 608-255 71 37 119 87 150 151 35 73-14 152-87 150-26 0-63-25-111-73s-102-72-162-72c-72 0-200 37-200 99 0 43 47 111 142 203 145 142 234 232 266 271 95 116 142 225 142 328C944-95 791 0 613 0 494 0 170-60 118-111c-29-29-48-55-48-87-1-69 67-120 140-92h-2c162 59 305 89 429 89 69 0 104-25 104-75 0-69-47-151-142-245-86-86-177-167-261-254-98-100-142-199-142-288" id="C"/><g id="k"><use transform="matrix(0.0065104166666666635,0,0,0.0065104166666666635,0,0)" xlink:href="#y"/><use transform="matrix(0.0065104166666666635,0,0,0.0065104166666666635,7.4348958333333295,0)" xlink:href="#z"/><use transform="matrix(0.0065104166666666635,0,0,0.0065104166666666635,15.377604166666659,0)" xlink:href="#A"/><use transform="matrix(0.0065104166666666635,0,0,0.0065104166666666635,21.54296874999999,0)" xlink:href="#B"/><use transform="matrix(0.0065104166666666635,0,0,0.0065104166666666635,28.496093749999986,0)" xlink:href="#C"/></g><path fill="#d916a8" d="M492-1365c272 0 549 114 549 360 0 140-81 265-244 374-130 87-276 146-439 180-7 56-15 301-32 372-12 53-46 79-94 79-53 0-99-48-99-101 0-201 55-864 50-1044-38-23-57-56-57-99 0-39 24-69 72-90s147-31 294-31zm348 355c0-132-280-161-454-151-1 136-2 303-2 501 100-31 192-72 276-122 120-70 180-146 180-228" id="D"/><path fill="#d916a8" d="M922-654c-9 182 20 369 29 555 5 90-140 139-183 58-2-3-13-31-31-85-54-160-191-263-414-306-19 75-30 243-58 360-12 50-51 72-98 72-55 0-99-53-99-108 1-366 195-896 360-1117 69-92 141-140 222-140 182 0 273 207 273 621 0 19 1 49-1 90zM724-476v-400c-20-103-13-145-35-225-11-40-25-60-40-60-32 0-83 65-154 195-56 103-99 215-130 336 137 27 256 79 359 154" id="E"/><path fill="#d916a8" d="M387-1365c369 0 678 217 678 573 0 172-83 346-249 522C647-90 478 0 307 0 194 0 137-80 137-239c0-257 30-558 68-915-53-11-80-43-80-95 0-56 32-93 97-108 26-6 81-8 165-8zm21 204c-15 76-47 491-72 917 0 13 1 27 2 41 116-22 231-92 346-210 120-123 180-241 180-355-1-196-67-277-209-343-74-35-157-50-247-50" id="F"/><path fill="#d916a8" d="M432-1365c342 0 623 232 623 568 0 219-132 374-395 466 145 90 217 167 217 230 0 52-52 98-104 96-17 0-39-10-66-29-90-65-203-166-304-203v78C403-53 368 0 299 0c-53 0-99-44-99-97v-374c17-145 25-361 25-650-2 5-10 7-24 7-53 2-99-46-99-99 0-112 194-152 330-152zm257 786c221-128 209-317 21-469-89-71-178-111-268-119-1 97-2 329-2 698 90-27 172-66 249-110" id="G"/><path fill="#d916a8" d="M369 0C201 0 119-119 119-294c0-119 26-272 77-457 80-290 99-377 125-524 7-13 27-26 60-41 71-33 211-49 419-49 129 0 193 36 193 107 0 50-48 105-99 101-142-10-258-9-397 20-11 59-34 158-69 297 146-57 246-85 301-85 53 0 100 43 100 96 0 43-23 80-73 99-127 49-178 54-389 129-29 119-44 224-44 314 0 58 10 87 30 87 66 0 151-30 256-90s173-91 205-91c50 0 101 49 101 99 0 30-19 57-51 87C794-129 500 0 369 0" id="H"/><g id="l"><use transform="matrix(0.0065104166666666635,0,0,0.0065104166666666635,0,0)" xlink:href="#D"/><use transform="matrix(0.0065104166666666635,0,0,0.0065104166666666635,6.920572916666663,0)" xlink:href="#E"/><use transform="matrix(0.0065104166666666635,0,0,0.0065104166666666635,13.87369791666666,0)" xlink:href="#F"/><use transform="matrix(0.0065104166666666635,0,0,0.0065104166666666635,21.24999999999999,0)" xlink:href="#G"/><use transform="matrix(0.0065104166666666635,0,0,0.0065104166666666635,28.639322916666654,0)" xlink:href="#H"/></g><path fill="#fe7070" d="M925-1365c50 0 101 48 101 99 0 165-53 833-94 1164C923-33 882 0 831 0c-53 0-101-49-101-102 0-145 29-345 45-490-111 9-252 35-425 78-6 58-9 145-9 260 0 35-10 86-22 153C307-33 270 0 220 0c-53 0-103-48-102-101 6-372 65-764 56-1090-3-108 18-171 108-174 55-2 99 41 99 97v544c167-44 304-66 413-66 7-75 10-182 10-321 8-35 11-88 22-155s48-99 99-99" id="I"/><path fill="#fe7070" d="M270-1365c53 0 101 46 100 99-5 357-80 777-80 1073C290-64 254 0 183 0 132 0 82-50 82-101c0-298 47-662 55-976 2-76 19-138 34-189 19-66 52-99 99-99" id="J"/><path fill="#fe7070" d="M393-1106c-85 0-123-115-69-169 75-41 289-90 328-90 67 0 116 76 148 227 21 100 33 204 33 312 0 359-41 594-120 707C607 32 419 27 252-68c-82-47-144-100-184-161-19-29-29-54-29-75-2-51 53-99 104-94 70 6 117 81 165 118 43 33 92 80 158 80 65 0 111-88 140-264 32-197 40-527-17-686-74 29-139 44-196 44" id="K"/><path fill="#fe7070" d="M609-1364c323 0 519 229 519 557 0 183-51 357-152 522C860-95 716 0 544 0 271 0 97-283 97-570c0-191 38-362 113-512 95-188 228-282 399-282zm319 550c0-231-116-347-349-347-81 0-151 81-210 243-48 132-72 248-72 348 0 161 47 272 142 333 35 23 69 34 100 34 113 0 208-76 287-229 68-131 102-258 102-382" id="L"/><g id="m"><use transform="matrix(0.0065104166666666635,0,0,0.0065104166666666635,0,0)" xlink:href="#I"/><use transform="matrix(0.0065104166666666635,0,0,0.0065104166666666635,7.4348958333333295,0)" xlink:href="#J"/><use transform="matrix(0.0065104166666666635,0,0,0.0065104166666666635,10.332031249999995,0)" xlink:href="#K"/><use transform="matrix(0.0065104166666666635,0,0,0.0065104166666666635,16.497395833333325,0)" xlink:href="#L"/></g></defs></g></svg>