<svg xmlns="http://www.w3.org/2000/svg" xmlns:xlink="http://www.w3.org/1999/xlink" xmlns:lucid="lucid" width="369.5" height="300.35"><g transform="translate(-2534 661)" lucid:page-tab-id="0_0"><path d="M2675-620.83c0 10.6-8.95 19.18-20 19.18s-20-8.6-20-19.18 8.95-19.17 20-19.17 20 8.6 20 19.17z" stroke="#fe7070" stroke-width="2" fill="url(#a)"/><path d="M2640-629.83a6 6 0 0 1 6-6h18a6 6 0 0 1 6 6v18a6 6 0 0 1-6 6h-18a6 6 0 0 1-6-6z" stroke="#000" stroke-opacity="0" stroke-width="3" fill-opacity="0"/><use xlink:href="#b" transform="matrix(1,0,0,1,2645,-630.8255578390132) translate(-1.1111111111111072 15.999999999999995)"/><path d="M2595-580.83c0 10.6-8.95 19.18-20 19.18s-20-8.6-20-19.18 8.95-19.17 20-19.17 20 8.6 20 19.17z" stroke="#fe7070" stroke-width="2" fill="url(#c)"/><path d="M2560-589.83a6 6 0 0 1 6-6h18a6 6 0 0 1 6 6v18a6 6 0 0 1-6 6h-18a6 6 0 0 1-6-6z" stroke="#000" stroke-opacity="0" stroke-width="3" fill-opacity="0"/><use xlink:href="#d" transform="matrix(1,0,0,1,2565,-590.8255578390132) translate(4.444444444444446 17.249999999999993)"/><path d="M2755-580.83c0 10.6-8.95 19.18-20 19.18s-20-8.6-20-19.18 8.95-19.17 20-19.17 20 8.6 20 19.17z" stroke="#fe7070" stroke-width="2" fill="url(#e)"/><path d="M2720-589.83a6 6 0 0 1 6-6h18a6 6 0 0 1 6 6v18a6 6 0 0 1-6 6h-18a6 6 0 0 1-6-6z" stroke="#000" stroke-opacity="0" stroke-width="3" fill-opacity="0"/><use xlink:href="#f" transform="matrix(1,0,0,1,2725,-590.8255578390132) translate(-1.1111111111111072 15.999999999999995)"/><path d="M2654.37-599.38l-40.5 13.6-.65-1.9 40.5-13.6z" stroke="#979ea8" stroke-width=".05" fill="#979ea8"/><path d="M2658.16-600.66l-3.8 1.28-.5-1.4 1.1.13 1.65-.06 1.45-.3z" fill="#979ea8"/><path d="M2658.2-600.64l-3.87 1.3-.5-1.47 1.13.13 1.65-.06 1.47-.3zm-1.6-.04l-1.65.06-1.04-.13.46 1.34 3.77-1.27-.1-.3z" stroke="#979ea8" stroke-width=".05" fill="#979ea8"/><path d="M2614.07-582l-15 .14 12.04-8.93z" fill="#979ea8"/><path d="M2615.45-581.02l-19.45.2 15.62-11.6zm-13.3-1.87l10.53-.1-2.07-6.17z" stroke="#979ea8" stroke-width=".05" fill="#979ea8"/><use xlink:href="#g" transform="matrix(1,0,0,1,2625.5003119827898,-601.7883724064098) translate(0.005 18.26388888888889)"/><path d="M2655.95-600.33l40.5 13.6" stroke="#979ea8" stroke-width="2" fill="none"/><path d="M2654.95-600.65l1.14-.04-.45 1.32-3.8-1.28.1-.36z" stroke="#979ea8" stroke-width=".05" fill="#979ea8"/><path d="M2710.93-581.86l-15-.15 2.96-8.8z" stroke="#979ea8" stroke-width="2" fill="#979ea8"/><path d="M2800-520.83c0 10.6-8.95 19.18-20 19.18s-20-8.6-20-19.18 8.95-19.17 20-19.17 20 8.6 20 19.17z" stroke="#fe7070" stroke-width="2" fill="url(#h)"/><path d="M2765-529.83a6 6 0 0 1 6-6h18a6 6 0 0 1 6 6v18a6 6 0 0 1-6 6h-18a6 6 0 0 1-6-6z" stroke="#000" stroke-opacity="0" stroke-width="3" fill-opacity="0"/><use xlink:href="#i" transform="matrix(1,0,0,1,2770,-530.8255578390131) translate(-1.1111111111111072 15.999999999999995)"/><path d="M2842.5-459.82c0 10.58-8.95 19.17-20 19.17s-20-8.6-20-19.18c0-10.6 8.95-19.17 20-19.17s20 8.58 20 19.18z" stroke="#fe7070" stroke-width="2" fill="url(#j)"/><path d="M2807.5-468.82a6 6 0 0 1 6-6h18a6 6 0 0 1 6 6v18a6 6 0 0 1-6 6h-18a6 6 0 0 1-6-6z" stroke="#000" stroke-opacity="0" stroke-width="3" fill-opacity="0"/><use xlink:href="#k" transform="matrix(1,0,0,1,2812.5,-469.8249343683519) translate(-1.1111111111111072 15.999999999999995)"/><path d="M2882.5-400.83c0 10.6-8.95 19.18-20 19.18s-20-8.6-20-19.18c0-10.6 8.95-19.17 20-19.17s20 8.58 20 19.17z" stroke="#fe7070" stroke-width="2" fill="url(#l)"/><path d="M2847.5-409.83a6 6 0 0 1 6-6h18a6 6 0 0 1 6 6v18a6 6 0 0 1-6 6h-18a6 6 0 0 1-6-6z" stroke="#000" stroke-opacity="0" stroke-width="3" fill-opacity="0"/><use xlink:href="#m" transform="matrix(1,0,0,1,2852.5,-410.8255578390131) translate(-1.1111111111111072 15.999999999999995)"/><path d="M2735.92-560.25l27.12 11.85" stroke="#979ea8" stroke-width="2" fill="none"/><path d="M2734.95-560.65l1.2-.04-.6 1.38-3.7-1.6.04-.1z" stroke="#979ea8" stroke-width=".05" fill="#979ea8"/><path d="M2777.03-542.3l-14.92-1.46 3.72-8.5z" stroke="#979ea8" stroke-width="2" fill="#979ea8"/><path d="M2780.9-500.2l24.96 12.1" stroke="#979ea8" stroke-width="2" fill="none"/><path d="M2779.95-500.65l1.2-.04-.66 1.4-3.56-1.72z" stroke="#979ea8" stroke-width=".05" fill="#979ea8"/><path d="M2819.6-481.4l-14.87-2.08 4.05-8.34z" stroke="#979ea8" stroke-width="2" fill="#979ea8"/><path d="M2823.4-439.23l22.33 10.4" stroke="#979ea8" stroke-width="2" fill="none"/><path d="M2822.45-439.65l1.2-.04-.64 1.4-3.64-1.7v-.03z" stroke="#979ea8" stroke-width=".05" fill="#979ea8"/><path d="M2859.57-422.37l-14.9-1.82 3.93-8.4z" stroke="#979ea8" stroke-width="2" fill="#979ea8"/><defs><radialGradient gradientUnits="userSpaceOnUse" id="a" fx="2655" fy="-620.83" cx="2655" cy="-620.83" r="20.54"><stop offset="0%" stop-color="#fe7474" stop-opacity=".4"/><stop offset="60%" stop-color="#fe7070" stop-opacity=".6"/><stop offset="100%" stop-color="#fb6f6f"/></radialGradient><path d="M23 0v-37h61v-169l-59 37v-38l62-41h46v211h57V0H23" id="n"/><path d="M139-81c0-46-55-55-73-27H18l9-140h149v37H72l-4 63c44-38 133-4 122 66C201 21 21 35 11-62l49-4c5 18 15 30 39 30 26 0 40-18 40-45" id="o"/><g id="b"><use transform="matrix(0.05555555555555554,0,0,0.05555555555555554,0,0)" xlink:href="#n"/><use transform="matrix(0.05555555555555554,0,0,0.05555555555555554,11.111111111111107,0)" xlink:href="#o"/></g><radialGradient gradientUnits="userSpaceOnUse" id="c" fx="2575" fy="-580.83" cx="2575" cy="-580.83" r="20.54"><stop offset="0%" stop-color="#fe7474" stop-opacity=".4"/><stop offset="60%" stop-color="#fe7070" stop-opacity=".6"/><stop offset="100%" stop-color="#fb6f6f"/></radialGradient><path d="M52 0c1-96 47-148 87-207H15v-41h169v40c-36 62-79 113-81 208H52" id="p"/><use transform="matrix(0.05555555555555554,0,0,0.05555555555555554,0,0)" xlink:href="#p" id="d"/><radialGradient gradientUnits="userSpaceOnUse" id="e" fx="2735" fy="-580.83" cx="2735" cy="-580.83" r="20.54"><stop offset="0%" stop-color="#fe7474" stop-opacity=".4"/><stop offset="60%" stop-color="#fe7070" stop-opacity=".6"/><stop offset="100%" stop-color="#fb6f6f"/></radialGradient><path d="M182-182c0 78-84 86-111 141h115V0H12c-6-101 99-100 120-180 1-22-12-31-33-32-23 0-32 14-35 34l-49-3c5-45 32-70 84-70 51 0 83 22 83 69" id="q"/><path d="M101-251c68 0 84 54 84 127C185-50 166 4 99 4S15-52 14-124c-1-75 17-127 87-127zm-1 216c37-5 36-46 36-89s4-89-36-89c-39 0-36 45-36 89 0 43-3 85 36 89" id="r"/><g id="f"><use transform="matrix(0.05555555555555554,0,0,0.05555555555555554,0,0)" xlink:href="#q"/><use transform="matrix(0.05555555555555554,0,0,0.05555555555555554,11.111111111111107,0)" xlink:href="#r"/></g><radialGradient gradientUnits="userSpaceOnUse" id="h" fx="2780" fy="-520.83" cx="2780" cy="-520.83" r="20.54"><stop offset="0%" stop-color="#fe7474" stop-opacity=".4"/><stop offset="60%" stop-color="#fe7070" stop-opacity=".6"/><stop offset="100%" stop-color="#fb6f6f"/></radialGradient><g id="i"><use transform="matrix(0.05555555555555554,0,0,0.05555555555555554,0,0)" xlink:href="#q"/><use transform="matrix(0.05555555555555554,0,0,0.05555555555555554,11.111111111111107,0)" xlink:href="#n"/></g><radialGradient gradientUnits="userSpaceOnUse" id="j" fx="2822.5" fy="-459.82" cx="2822.5" cy="-459.82" r="20.54"><stop offset="0%" stop-color="#fe7474" stop-opacity=".4"/><stop offset="60%" stop-color="#fe7070" stop-opacity=".6"/><stop offset="100%" stop-color="#fb6f6f"/></radialGradient><g id="k"><use transform="matrix(0.05555555555555554,0,0,0.05555555555555554,0,0)" xlink:href="#q"/><use transform="matrix(0.05555555555555554,0,0,0.05555555555555554,11.111111111111107,0)" xlink:href="#q"/></g><radialGradient gradientUnits="userSpaceOnUse" id="l" fx="2862.5" fy="-400.83" cx="2862.5" cy="-400.83" r="20.54"><stop offset="0%" stop-color="#fe7474" stop-opacity=".4"/><stop offset="60%" stop-color="#fe7070" stop-opacity=".6"/><stop offset="100%" stop-color="#fb6f6f"/></radialGradient><path d="M128-127c34 4 56 21 59 58 7 91-148 94-172 28-4-9-6-17-7-26l51-5c1 24 16 35 40 36 23 0 39-12 38-36-1-31-31-36-65-34v-40c32 2 59-3 59-33 0-20-13-33-34-33s-33 13-35 32l-50-3c6-44 37-68 86-68 50 0 83 20 83 66 0 35-22 52-53 58" id="s"/><g id="m"><use transform="matrix(0.05555555555555554,0,0,0.05555555555555554,0,0)" xlink:href="#q"/><use transform="matrix(0.05555555555555554,0,0,0.05555555555555554,11.111111111111107,0)" xlink:href="#s"/></g></defs></g></svg>