<svg xmlns="http://www.w3.org/2000/svg" xmlns:lucid="lucid" width="382" height="232"><g transform="translate(641 1301)" lucid:page-tab-id="0_0"><path d="M-415-1257.5c0 12.43-10.07 22.5-22.5 22.5s-22.5-10.07-22.5-22.5 10.07-22.5 22.5-22.5 22.5 10.07 22.5 22.5z" stroke="#fe7070" stroke-width="2" fill="url(#a)"/><path d="M-452.5-1266.5a6 6 0 0 1 6-6h18a6 6 0 0 1 6 6v18a6 6 0 0 1-6 6h-18a6 6 0 0 1-6-6z" stroke="#000" stroke-opacity="0" stroke-width="2" fill-opacity="0"/><path d="M-500-1195c0 13.8-11.2 25-25 25s-25-11.2-25-25 11.2-25 25-25 25 11.2 25 25z" stroke="#fe7070" stroke-width="2" fill="url(#b)"/><path d="M-540-1204a6 6 0 0 1 6-6h18a6 6 0 0 1 6 6v18a6 6 0 0 1-6 6h-18a6 6 0 0 1-6-6z" stroke="#000" stroke-opacity="0" stroke-width="2" fill-opacity="0"/><path d="M-330-1195c0 13.8-11.2 25-25 25s-25-11.2-25-25 11.2-25 25-25 25 11.2 25 25z" stroke="#fe7070" stroke-width="2" fill="url(#c)"/><path d="M-370-1204a6 6 0 0 1 6-6h18a6 6 0 0 1 6 6v18a6 6 0 0 1-6 6h-18a6 6 0 0 1-6-6z" stroke="#000" stroke-opacity="0" stroke-width="2" fill-opacity="0"/><path d="M-570-1115c0 13.8-11.2 25-25 25s-25-11.2-25-25 11.2-25 25-25 25 11.2 25 25z" stroke="#fe7070" stroke-width="2" fill="url(#d)"/><path d="M-610-1124a6 6 0 0 1 6-6h18a6 6 0 0 1 6 6v18a6 6 0 0 1-6 6h-18a6 6 0 0 1-6-6z" stroke="#000" stroke-opacity="0" stroke-width="2" fill-opacity="0"/><path d="M-500-1115c0 13.8-11.2 25-25 25s-25-11.2-25-25 11.2-25 25-25 25 11.2 25 25z" stroke="#fe7070" stroke-width="2" fill="url(#e)"/><path d="M-540-1124a6 6 0 0 1 6-6h18a6 6 0 0 1 6 6v18a6 6 0 0 1-6 6h-18a6 6 0 0 1-6-6z" stroke="#000" stroke-opacity="0" stroke-width="2" fill-opacity="0"/><path d="M-430-1115c0 13.8-11.2 25-25 25s-25-11.2-25-25 11.2-25 25-25 25 11.2 25 25z" stroke="#fe7070" stroke-width="2" fill="url(#f)"/><path d="M-470-1124a6 6 0 0 1 6-6h18a6 6 0 0 1 6 6v18a6 6 0 0 1-6 6h-18a6 6 0 0 1-6-6z" stroke="#000" stroke-opacity="0" stroke-width="2" fill-opacity="0"/><path d="M-280-1115c0 13.8-11.2 25-25 25s-25-11.2-25-25 11.2-25 25-25 25 11.2 25 25z" stroke="#fe7070" stroke-width="2" fill="url(#g)"/><path d="M-320-1124a6 6 0 0 1 6-6h18a6 6 0 0 1 6 6v18a6 6 0 0 1-6 6h-18a6 6 0 0 1-6-6z" stroke="#000" stroke-opacity="0" stroke-width="2" fill-opacity="0"/><path d="M-438.34-1233.46l-45.03 28.55" stroke="#6f7681" stroke-width="2" fill="none"/><path d="M-437.83-1232.6l-.97-1.54 1.25.14h.47l1.8-.23z" stroke="#6f7681" stroke-width=".05" fill="#6f7681"/><path d="M-496.26-1196.73l9.56-11.56 4.97 7.84z" stroke="#6f7681" stroke-width="2" fill="#6f7681"/><path d="M-436.68-1233.43l40.45 27.92" stroke="#6f7681" stroke-width="2" fill="none"/><path d="M-437.55-1234h.47l.9-.12-1.04 1.53-2.37-1.63z" stroke="#6f7681" stroke-width=".05" fill="#6f7681"/><path d="M-383.67-1196.84l-14.37-4.3 5.27-7.62z" stroke="#6f7681" stroke-width="2" fill="#6f7681"/><path d="M-525.93-1168.63l-51.9 20.76" stroke="#6f7681" stroke-width="2" fill="none"/><path d="M-521.84-1169.18l-3.74 1.5-.57-1.43 1.14.1 3.12-.26z" stroke="#6f7681" stroke-width=".05" fill="#6f7681"/><path d="M-592-1142.2l11.53-9.6 3.44 8.6z" stroke="#6f7681" stroke-width="2" fill="#6f7681"/><path d="M-525-1168v8.5" stroke="#6f7681" stroke-width="2" fill="none"/><path d="M-525-1169l1-.08v1.1h-2v-1.12z" stroke="#6f7681" stroke-width=".05" fill="#6f7681"/><path d="M-525-1144.24l-4.63-14.27h9.26z" stroke="#6f7681" stroke-width="2" fill="#6f7681"/><path d="M-524.07-1168.63l51.9 20.76" stroke="#6f7681" stroke-width="2" fill="none"/><path d="M-525-1169l1.14-.1-.56 1.4-3.74-1.48.05-.13z" stroke="#6f7681" stroke-width=".05" fill="#6f7681"/><path d="M-458-1142.2l-14.97-1 3.44-8.6z" stroke="#6f7681" stroke-width="2" fill="#6f7681"/><path d="M-354.13-1168.5l33 18.46" stroke="#6f7681" stroke-width="2" fill="none"/><path d="M-355-1169l1.23-.1-.82 1.48-2.9-1.62z" stroke="#6f7681" stroke-width=".05" fill="#6f7681"/><path d="M-307.82-1142.58l-14.72-2.93 4.53-8.1z" stroke="#6f7681" stroke-width="2" fill="#6f7681"/><defs><radialGradient gradientUnits="userSpaceOnUse" id="a" fx="-437.5" fy="-1257.5" cx="-437.5" cy="-1257.5" r="23.11"><stop offset="0%" stop-color="#fe7474" stop-opacity=".4"/><stop offset="60%" stop-color="#fe7070" stop-opacity=".6"/><stop offset="100%" stop-color="#fb6f6f"/></radialGradient><radialGradient gradientUnits="userSpaceOnUse" id="b" fx="-525" fy="-1195" cx="-525" cy="-1195" r="25.67"><stop offset="0%" stop-color="#fe7474" stop-opacity=".4"/><stop offset="60%" stop-color="#fe7070" stop-opacity=".6"/><stop offset="100%" stop-color="#fb6f6f"/></radialGradient><radialGradient gradientUnits="userSpaceOnUse" id="c" fx="-355" fy="-1195" cx="-355" cy="-1195" r="25.67"><stop offset="0%" stop-color="#fe7474" stop-opacity=".4"/><stop offset="60%" stop-color="#fe7070" stop-opacity=".6"/><stop offset="100%" stop-color="#fb6f6f"/></radialGradient><radialGradient gradientUnits="userSpaceOnUse" id="d" fx="-595" fy="-1115" cx="-595" cy="-1115" r="25.67"><stop offset="0%" stop-color="#fe7474" stop-opacity=".4"/><stop offset="60%" stop-color="#fe7070" stop-opacity=".6"/><stop offset="100%" stop-color="#fb6f6f"/></radialGradient><radialGradient gradientUnits="userSpaceOnUse" id="e" fx="-525" fy="-1115" cx="-525" cy="-1115" r="25.67"><stop offset="0%" stop-color="#fe7474" stop-opacity=".4"/><stop offset="60%" stop-color="#fe7070" stop-opacity=".6"/><stop offset="100%" stop-color="#fb6f6f"/></radialGradient><radialGradient gradientUnits="userSpaceOnUse" id="f" fx="-455" fy="-1115" cx="-455" cy="-1115" r="25.67"><stop offset="0%" stop-color="#fe7474" stop-opacity=".4"/><stop offset="60%" stop-color="#fe7070" stop-opacity=".6"/><stop offset="100%" stop-color="#fb6f6f"/></radialGradient><radialGradient gradientUnits="userSpaceOnUse" id="g" fx="-305" fy="-1115" cx="-305" cy="-1115" r="25.67"><stop offset="0%" stop-color="#fe7474" stop-opacity=".4"/><stop offset="60%" stop-color="#fe7070" stop-opacity=".6"/><stop offset="100%" stop-color="#fb6f6f"/></radialGradient></defs></g></svg>