<svg xmlns="http://www.w3.org/2000/svg" xmlns:xlink="http://www.w3.org/1999/xlink" xmlns:lucid="lucid" width="536" height="260.35"><g transform="translate(-2404 261)" lucid:page-tab-id="0_0"><path d="M2580-220.83c0 10.6-8.95 19.18-20 19.18s-20-8.6-20-19.18 8.95-19.17 20-19.17 20 8.6 20 19.17z" stroke="#fe7070" stroke-width="2" fill="url(#a)"/><path d="M2545-229.83a6 6 0 0 1 6-6h18a6 6 0 0 1 6 6v18a6 6 0 0 1-6 6h-18a6 6 0 0 1-6-6z" stroke="#000" stroke-opacity="0" stroke-width="3" fill-opacity="0"/><use xlink:href="#b" transform="matrix(1,0,0,1,2550,-230.82555783901324) translate(4.444444444444446 17.249999999999993)"/><path d="M2500-180.83c0 10.6-8.95 19.18-20 19.18s-20-8.6-20-19.18 8.95-19.17 20-19.17 20 8.6 20 19.17z" stroke="#fe7070" stroke-width="2" fill="url(#c)"/><path d="M2465-189.83a6 6 0 0 1 6-6h18a6 6 0 0 1 6 6v18a6 6 0 0 1-6 6h-18a6 6 0 0 1-6-6z" stroke="#000" stroke-opacity="0" stroke-width="3" fill-opacity="0"/><use xlink:href="#d" transform="matrix(1,0,0,1,2470,-190.82555783901324) translate(4.444444444444446 17.249999999999993)"/><path d="M2660-180.83c0 10.6-8.95 19.18-20 19.18s-20-8.6-20-19.18 8.95-19.17 20-19.17 20 8.6 20 19.17z" stroke="#fe7070" stroke-width="2" fill="url(#e)"/><path d="M2625-189.83a6 6 0 0 1 6-6h18a6 6 0 0 1 6 6v18a6 6 0 0 1-6 6h-18a6 6 0 0 1-6-6z" stroke="#000" stroke-opacity="0" stroke-width="3" fill-opacity="0"/><use xlink:href="#f" transform="matrix(1,0,0,1,2630,-190.82555783901324) translate(4.444444444444446 17.249999999999993)"/><path d="M2465-110.5c0 10.6-8.95 19.17-20 19.17s-20-8.58-20-19.17c0-10.6 8.95-19.18 20-19.18s20 8.6 20 19.18z" stroke="#fe7070" stroke-width="2" fill="url(#g)"/><path d="M2430-119.5a6 6 0 0 1 6-6h18a6 6 0 0 1 6 6v18a6 6 0 0 1-6 6h-18a6 6 0 0 1-6-6z" stroke="#000" stroke-opacity="0" stroke-width="3" fill-opacity="0"/><use xlink:href="#h" transform="matrix(1,0,0,1,2435,-120.50049775984391) translate(4.444444444444446 17.249999999999993)"/><path d="M2540-110.5c0 10.6-8.95 19.17-20 19.17s-20-8.58-20-19.17c0-10.6 8.95-19.18 20-19.18s20 8.6 20 19.18z" stroke="#fe7070" stroke-width="2" fill="url(#i)"/><path d="M2505-119.5a6 6 0 0 1 6-6h18a6 6 0 0 1 6 6v18a6 6 0 0 1-6 6h-18a6 6 0 0 1-6-6z" stroke="#000" stroke-opacity="0" stroke-width="3" fill-opacity="0"/><use xlink:href="#j" transform="matrix(1,0,0,1,2510,-120.50049775984391) translate(4.444444444444446 17.249999999999993)"/><path d="M2695-110.5c0 10.6-8.95 19.17-20 19.17s-20-8.58-20-19.17c0-10.6 8.95-19.18 20-19.18s20 8.6 20 19.18z" stroke="#fe7070" stroke-width="2" fill="url(#k)"/><path d="M2660-119.5a6 6 0 0 1 6-6h18a6 6 0 0 1 6 6v18a6 6 0 0 1-6 6h-18a6 6 0 0 1-6-6z" stroke="#000" stroke-opacity="0" stroke-width="3" fill-opacity="0"/><use xlink:href="#l" transform="matrix(1,0,0,1,2665,-120.50049775984391) translate(4.444444444444446 17.249999999999993)"/><path d="M2630-110.5c0 10.6-8.95 19.17-20 19.17s-20-8.58-20-19.17c0-10.6 8.95-19.18 20-19.18s20 8.6 20 19.18z" stroke="#fe7070" stroke-width="2" fill="url(#m)"/><path d="M2595-119.5a6 6 0 0 1 6-6h18a6 6 0 0 1 6 6v18a6 6 0 0 1-6 6h-18a6 6 0 0 1-6-6z" stroke="#000" stroke-opacity="0" stroke-width="3" fill-opacity="0"/><use xlink:href="#n" transform="matrix(1,0,0,1,2600,-120.50049775984391) translate(4.444444444444446 17.249999999999993)"/><path d="M2559.37-199.38l-40.5 13.6-.65-1.9 40.5-13.6z" stroke="#979ea8" stroke-width=".05" fill="#979ea8"/><path d="M2563.16-200.66l-3.8 1.28-.5-1.4 1.1.13 1.65-.06 1.45-.3z" fill="#979ea8"/><path d="M2563.2-200.64l-3.87 1.3-.5-1.47 1.13.13 1.65-.06 1.47-.3zm-1.6-.04l-1.65.06-1.04-.13.46 1.34 3.77-1.27-.1-.3z" stroke="#979ea8" stroke-width=".05" fill="#979ea8"/><path d="M2519.07-182l-15 .14 12.04-8.93z" fill="#979ea8"/><path d="M2520.45-181.02l-19.45.2 15.62-11.6zm-13.3-1.87l10.53-.1-2.07-6.17z" stroke="#979ea8" stroke-width=".05" fill="#979ea8"/><use xlink:href="#o" transform="matrix(1,0,0,1,2530.5003119827898,-201.78837240640988) translate(0.005 18.26388888888889)"/><path d="M2560.95-200.33l40.5 13.6" stroke="#979ea8" stroke-width="2" fill="none"/><path d="M2559.95-200.65l1.14-.04-.45 1.32-3.8-1.28.1-.36z" stroke="#979ea8" stroke-width=".05" fill="#979ea8"/><path d="M2615.93-181.86l-15-.15 2.96-8.8z" stroke="#979ea8" stroke-width="2" fill="#979ea8"/><path d="M2480.8-160.05l24.4 18.28" stroke="#979ea8" stroke-width="2" fill="none"/><path d="M2479.95-160.65l1.37-.05-1.1 1.46-2.2-1.65z" stroke="#979ea8" stroke-width=".05" fill="#979ea8"/><path d="M2517.4-132.62l-14.18-4.84 5.55-7.42z" stroke="#979ea8" stroke-width="2" fill="#979ea8"/><path d="M2479.24-160l-20.2 17.3" stroke="#979ea8" stroke-width="2" fill="none"/><path d="M2479.95-160.65l1.65-.06-1.73 1.48-1.3-1.52.08-.07z" stroke="#979ea8" stroke-width=".05" fill="#979ea8"/><path d="M2447.46-132.78l7.82-12.8 6.03 7.04z" stroke="#979ea8" stroke-width="2" fill="#979ea8"/><path d="M2639.3-159.94l-16.2 16.2" stroke="#979ea8" stroke-width="2" fill="none"/><path d="M2639.95-160.65l1.52-.05-1.5 1.48-1.4-1.4.17-.18z" stroke="#979ea8" stroke-width=".05" fill="#979ea8"/><path d="M2612.3-132.96l6.8-13.36 6.56 6.55z" stroke="#979ea8" stroke-width="2" fill="#979ea8"/><path d="M2640.76-160l20.2 17.3" stroke="#979ea8" stroke-width="2" fill="none"/><path d="M2639.95-160.65l1.44-.05-1.27 1.48-1.92-1.65z" stroke="#979ea8" stroke-width=".05" fill="#979ea8"/><path d="M2672.54-132.78l-13.85-5.76 6.02-7.04z" stroke="#979ea8" stroke-width="2" fill="#979ea8"/><path d="M2600-40.83c0 10.6-8.95 19.18-20 19.18s-20-8.6-20-19.18c0-10.6 8.95-19.17 20-19.17s20 8.6 20 19.17z" stroke="#fe7070" stroke-width="2" fill="url(#p)"/><path d="M2565-49.83a6 6 0 0 1 6-6h18a6 6 0 0 1 6 6v18a6 6 0 0 1-6 6h-18a6 6 0 0 1-6-6z" stroke="#000" stroke-opacity="0" stroke-width="3" fill-opacity="0"/><use xlink:href="#q" transform="matrix(1,0,0,1,2570,-50.82555783901324) translate(4.444444444444446 17.249999999999993)"/><path d="M2608.7-89.7l-15.62 15.62" stroke="#979ea8" stroke-width="2" fill="none"/><path d="M2609.95-90.32l.82-.03-1.4 1.4-1.4-1.43.17-.17z" stroke="#979ea8" stroke-width=".05" fill="#979ea8"/><path d="M2582.3-63.3l6.8-13.35 6.55 6.55z" stroke="#979ea8" stroke-width="2" fill="#979ea8"/><path d="M2680-205.98a6 6 0 0 1 6-6h228a6 6 0 0 1 6 6v18.33a6 6 0 0 1-6 6h-228a6 6 0 0 1-6-6z" fill="none"/><use xlink:href="#r" transform="matrix(1,0,0,1,2680,-211.97617575719585) translate(15.824110243055557 21.811848958333332)"/><use xlink:href="#s" transform="matrix(1,0,0,1,2680,-211.97617575719585) translate(51.2038845486111 21.811848958333332)"/><path d="M2680-179.83a6 6 0 0 1 6-6h228a6 6 0 0 1 6 6v18.33a6 6 0 0 1-6 6h-228a6 6 0 0 1-6-6z" fill="none"/><use xlink:href="#t" transform="matrix(1,0,0,1,2680,-185.82555783901324) translate(15.824110243055571 21.811848958333332)"/><use xlink:href="#u" transform="matrix(1,0,0,1,2680,-185.82555783901324) translate(51.203884548611114 21.811848958333332)"/><path d="M2680-154a6 6 0 0 1 6-6h228a6 6 0 0 1 6 6v18.32a6 6 0 0 1-6 6h-228a6 6 0 0 1-6-6z" fill="none"/><g><use xlink:href="#v" transform="matrix(1,0,0,1,2680,-160) translate(15.6759982638889 21.811848958333332)"/><use xlink:href="#w" transform="matrix(1,0,0,1,2680,-160) translate(51.35199652777778 21.811848958333332)"/></g><defs><radialGradient gradientUnits="userSpaceOnUse" id="a" fx="2560" fy="-220.83" cx="2560" cy="-220.83" r="20.54"><stop offset="0%" stop-color="#fe7474" stop-opacity=".4"/><stop offset="60%" stop-color="#fe7070" stop-opacity=".6"/><stop offset="100%" stop-color="#fb6f6f"/></radialGradient><path d="M182-182c0 78-84 86-111 141h115V0H12c-6-101 99-100 120-180 1-22-12-31-33-32-23 0-32 14-35 34l-49-3c5-45 32-70 84-70 51 0 83 22 83 69" id="x"/><use transform="matrix(0.05555555555555554,0,0,0.05555555555555554,0,0)" xlink:href="#x" id="b"/><radialGradient gradientUnits="userSpaceOnUse" id="c" fx="2480" fy="-180.83" cx="2480" cy="-180.83" r="20.54"><stop offset="0%" stop-color="#fe7474" stop-opacity=".4"/><stop offset="60%" stop-color="#fe7070" stop-opacity=".6"/><stop offset="100%" stop-color="#fb6f6f"/></radialGradient><path d="M52 0c1-96 47-148 87-207H15v-41h169v40c-36 62-79 113-81 208H52" id="y"/><use transform="matrix(0.05555555555555554,0,0,0.05555555555555554,0,0)" xlink:href="#y" id="d"/><radialGradient gradientUnits="userSpaceOnUse" id="e" fx="2640" fy="-180.83" cx="2640" cy="-180.83" r="20.54"><stop offset="0%" stop-color="#fe7474" stop-opacity=".4"/><stop offset="60%" stop-color="#fe7070" stop-opacity=".6"/><stop offset="100%" stop-color="#fb6f6f"/></radialGradient><path d="M139-81c0-46-55-55-73-27H18l9-140h149v37H72l-4 63c44-38 133-4 122 66C201 21 21 35 11-62l49-4c5 18 15 30 39 30 26 0 40-18 40-45" id="z"/><use transform="matrix(0.05555555555555554,0,0,0.05555555555555554,0,0)" xlink:href="#z" id="f"/><radialGradient gradientUnits="userSpaceOnUse" id="g" fx="2445" fy="-110.5" cx="2445" cy="-110.5" r="20.54"><stop offset="0%" stop-color="#fe7474" stop-opacity=".4"/><stop offset="60%" stop-color="#fe7070" stop-opacity=".6"/><stop offset="100%" stop-color="#fb6f6f"/></radialGradient><path d="M128-127c34 4 56 21 59 58 7 91-148 94-172 28-4-9-6-17-7-26l51-5c1 24 16 35 40 36 23 0 39-12 38-36-1-31-31-36-65-34v-40c32 2 59-3 59-33 0-20-13-33-34-33s-33 13-35 32l-50-3c6-44 37-68 86-68 50 0 83 20 83 66 0 35-22 52-53 58" id="A"/><use transform="matrix(0.05555555555555554,0,0,0.05555555555555554,0,0)" xlink:href="#A" id="h"/><radialGradient gradientUnits="userSpaceOnUse" id="i" fx="2520" fy="-110.5" cx="2520" cy="-110.5" r="20.54"><stop offset="0%" stop-color="#fe7474" stop-opacity=".4"/><stop offset="60%" stop-color="#fe7070" stop-opacity=".6"/><stop offset="100%" stop-color="#fb6f6f"/></radialGradient><path d="M115-159c48 0 72 30 72 78 0 54-30 85-83 85-64 0-91-50-91-122 0-98 58-163 141-120 15 8 21 24 27 44l-47 6c-5-31-48-31-61-4-7 14-11 33-11 60 9-17 28-27 53-27zM102-35c24 0 36-20 36-45s-11-43-37-43c-23 0-36 14-36 38 0 27 11 50 37 50" id="B"/><use transform="matrix(0.05555555555555554,0,0,0.05555555555555554,0,0)" xlink:href="#B" id="j"/><radialGradient gradientUnits="userSpaceOnUse" id="k" fx="2675" fy="-110.5" cx="2675" cy="-110.5" r="20.54"><stop offset="0%" stop-color="#fe7474" stop-opacity=".4"/><stop offset="60%" stop-color="#fe7070" stop-opacity=".6"/><stop offset="100%" stop-color="#fb6f6f"/></radialGradient><path d="M99-251c69 0 84 53 88 123 5 99-61 162-144 118-15-8-21-25-26-45l46-6c4 31 50 33 63 7 7-15 12-36 12-60-9 18-29 28-54 28-48 0-72-32-72-82 0-55 31-83 87-83zm-1 128c24 0 37-16 37-39 0-27-10-51-37-51-25 0-35 19-35 45 0 25 10 45 35 45" id="C"/><use transform="matrix(0.05555555555555554,0,0,0.05555555555555554,0,0)" xlink:href="#C" id="l"/><radialGradient gradientUnits="userSpaceOnUse" id="m" fx="2610" fy="-110.5" cx="2610" cy="-110.5" r="20.54"><stop offset="0%" stop-color="#fe7474" stop-opacity=".4"/><stop offset="60%" stop-color="#fe7070" stop-opacity=".6"/><stop offset="100%" stop-color="#fb6f6f"/></radialGradient><path d="M165-50V0h-47v-50H5v-38l105-160h55v161h33v37h-33zm-47-37l2-116L46-87h72" id="D"/><use transform="matrix(0.05555555555555554,0,0,0.05555555555555554,0,0)" xlink:href="#D" id="n"/><radialGradient gradientUnits="userSpaceOnUse" id="p" fx="2580" fy="-40.83" cx="2580" cy="-40.83" r="20.54"><stop offset="0%" stop-color="#fe7474" stop-opacity=".4"/><stop offset="60%" stop-color="#fe7070" stop-opacity=".6"/><stop offset="100%" stop-color="#fb6f6f"/></radialGradient><path d="M138-131c27 9 52 24 51 61 0 53-36 74-89 74S11-19 11-69c0-35 22-54 51-61-78-25-46-121 38-121 51 0 83 19 83 66 0 30-18 49-45 54zm-38-16c24 0 32-13 32-36 1-23-11-34-32-34-22 0-33 12-32 34 0 22 9 36 32 36zm1 116c27 0 37-17 37-43 0-25-13-39-39-39-24 0-37 15-37 40 0 27 11 42 39 42" id="E"/><use transform="matrix(0.05555555555555554,0,0,0.05555555555555554,0,0)" xlink:href="#E" id="q"/><path fill="#e81313" d="M831-1263c0-71 58-136 130-136 74 0 123 53 152 157 10 35 75 644 68 614 1 225-72 438-183 556C930 1 855 39 768 39 599 39 474-92 393-353c-3 47-4 95-4 143 0 163-49 244-147 244-72 0-133-58-133-131 0-320 86-1036 190-1212 34-58 73-90 124-90 73 0 118 44 138 131 5 24 9 95 9 213 0 174 22 328 41 463 34 243 85 365 152 365 104 0 148-270 148-404 0-120-80-513-80-632" id="F"/><path fill="#e81313" d="M778-1254c0 70-65 137-135 134-18 0-39-2-64-5-26 427-21 510-21 874 81 4 141 53 142 130 0 61-27 103-80 124-41 17-168 30-256 53-46 12-78 17-96 17-70 0-125-70-125-136 0-74 52-123 157-147-21-424-16-476 7-908-97 24-181-41-182-128 0-103 94-155 283-155 83 0 140 0 171 3 133 11 199 59 199 144" id="G"/><path fill="#e81313" d="M225-1384c466-92 901 157 901 592 0 181-86 363-257 546C694-59 516 34 335 34 195 34 125-90 130-239c8-247 30-548 65-893-51-23-77-62-77-117 0-69 34-121 107-135zM415-246c157-43 447-320 442-522-4-173-53-243-174-305-63-32-137-47-219-47-35 270-50 500-49 874" id="H"/><path fill="#e81313" d="M481-727c0 81-72 164-155 164-77 0-159-66-159-147 0-91 53-171 142-171 78 0 172 71 172 154zm19 599c0 84-68 162-154 162-78 0-167-71-167-153 0-77 105-169 179-169 87 0 142 69 142 160" id="I"/><g id="r"><use transform="matrix(0.007595486111111109,0,0,0.007595486111111109,0,0)" xlink:href="#F"/><use transform="matrix(0.007595486111111109,0,0,0.007595486111111109,9.828559027777775,0)" xlink:href="#G"/><use transform="matrix(0.007595486111111109,0,0,0.007595486111111109,16.70247395833333,0)" xlink:href="#H"/><use transform="matrix(0.007595486111111109,0,0,0.007595486111111109,25.763888888888882,0)" xlink:href="#I"/></g><path fill="#e81313" d="M722-1365c155 0 277 78 276 225 0 91-50 195-151 314-48 56-136 140-262 254-171 154-256 259-256 316 0 37 32 55 96 55 103 0 398-64 478-64 48 0 94 55 94 103 0 50-33 87-101 99C773-42 564-1 425 0 221 0 119-76 119-227c0-93 56-204 169-333 46-52 140-144 284-277s216-227 216-283c0-29-23-44-69-44-62 0-148 26-258 77-11 52-41 78-92 78-58 0-103-42-103-100 0-156 283-256 456-256" id="J"/><path fill="#e81313" d="M777-672c57 0 100 48 100 105 0 58-42 105-100 104-73-2-320 16-393 16-130 0-195-37-195-111 0-50 47-104 98-104 25 0 103 5 128 5 66 0 296-15 362-15" id="K"/><path fill="#e81313" d="M152-932c0-55 49-106 104-104 51 2 134 68 177 92 76 43 154 81 227 127 182 114 172 292 6 423-70 56-145 104-215 158-47 36-80 57-101 57-55 0-106-55-106-109 0-46 52-104 158-176s159-121 159-147c0-31-46-65-139-104-180-75-270-148-270-217" id="L"/><path fill="#e81313" d="M200-1365c95 3 162 6 292 6 343 0 515 81 515 243 0 172-258 535-348 706-53 101-82 215-127 338-18 49-50 72-90 72-61 0-126-55-104-125 63-205 151-424 283-648 32-54 84-133 147-241 14-24 20-43 20-56 0-67-104-101-312-101-139 0-364 56-370-92-2-49 45-103 94-102" id="M"/><path fill="#e81313" d="M602-1365c226 0 427 132 427 346 0 137-77 248-230 335 105 61 197 186 199 339 3 281-357 407-648 316-78-24-131-56-167-92-63-64-18-172 66-171 17 0 42 10 75 29 69 40 136 60 203 60 99 0 270-46 270-132 0-65-34-119-101-162-30-30-193-73-257-109-51-48-33-144 39-165 105-30 195-49 270-118 51-47 80-92 80-140 0-76-136-135-220-135-54 0-174 34-292 55-51 9-103-51-103-103 0-108 251-153 389-153" id="N"/><path fill="#e81313" d="M457-877c340-69 656 129 656 435C1113-201 859 0 613 0 335 0 184-205 184-495c0-227 70-468 210-724 53-97 102-146 147-146 52 0 111 45 104 97-8 57-146 305-188 391zm163 674c127 0 293-116 293-242 0-134-166-244-304-244-63 0-133 13-210 39-10 73-15 126-15 160-1 165 79 287 236 287" id="O"/><path fill="#e81313" d="M481-742c281-32 557 107 557 358C1038-128 813 0 362 0 224 0 155-38 155-114c0-61 58-91 174-91 32-1 131 6 163 5 229 0 343-61 343-184 0-118-238-150-395-150-87 0-151-93-191-278-25-117-37-247-37-388 0-70 74-96 155-112 168-33 354-53 560-53 48 0 90 51 90 99 0 50-32 86-99 100-116 25-421 33-500 53 9 158 30 282 63 371" id="P"/><path fill="#e81313" d="M324-1236c5 23-37 369-37 466 0 156 45 234 136 234 188 0 282-184 282-553 11-40 18-100 31-177 11-67 49-99 100-99 69 0 103 44 103 133 0 160-19 698-19 858 0 51 8 229 8 280 0 49-51 94-100 94-77 0-115-76-115-227v-230c-84 79-185 119-303 119-217 0-325-140-325-421 0-92 40-385 36-477-2-55 48-97 103-97 54 0 102 42 100 97" id="Q"/><path fill="#e81313" d="M763-737c119 66 232 201 235 370C1002-138 781 0 539 0 307 0 164-187 164-411c0-153 57-265 171-337-87-71-130-164-130-279-1-207 116-338 324-338 198 0 387 157 387 358 0 119-51 209-153 270zM556-879c82 0 159-51 159-133 0-90-87-154-176-154s-133 55-133 164c0 75 73 123 150 123zM367-406c0 89 78 203 167 203 159 0 239-67 239-201 0-94-135-198-227-198-90 0-179 106-179 196" id="R"/><path fill="#e81313" d="M592-1365c194 7 272 184 272 399 0 120-87 574-93 628-13 114-25 181-30 201C717-46 678 0 625 0c-48 0-101-44-101-92 0-132 51-296 78-415C319-461 53-614 53-877c0-222 314-496 539-488zm-32 194c-138-8-294 169-294 307 0 106 68 159 203 159 53 0 111-8 174-25 14-93 21-185 21-277 1-103-17-159-104-164" id="S"/><g id="s"><use transform="matrix(0.007595486111111109,0,0,0.007595486111111109,0,0)" xlink:href="#J"/><use transform="matrix(0.007595486111111109,0,0,0.007595486111111109,8.932291666666664,0)" xlink:href="#K"/><use transform="matrix(0.007595486111111109,0,0,0.007595486111111109,17.07465277777777,0)" xlink:href="#L"/><use transform="matrix(0.007595486111111109,0,0,0.007595486111111109,23.591579861111104,0)" xlink:href="#M"/><use transform="matrix(0.007595486111111109,0,0,0.007595486111111109,31.794704861111104,0)" xlink:href="#K"/><use transform="matrix(0.007595486111111109,0,0,0.007595486111111109,39.93706597222221,0)" xlink:href="#L"/><use transform="matrix(0.007595486111111109,0,0,0.007595486111111109,46.45399305555554,0)" xlink:href="#N"/><use transform="matrix(0.007595486111111109,0,0,0.007595486111111109,55.492621527777764,0)" xlink:href="#K"/><use transform="matrix(0.007595486111111109,0,0,0.007595486111111109,63.63498263888887,0)" xlink:href="#L"/><use transform="matrix(0.007595486111111109,0,0,0.007595486111111109,70.1519097222222,0)" xlink:href="#O"/><use transform="matrix(0.007595486111111109,0,0,0.007595486111111109,80.00325520833331,0)" xlink:href="#K"/><use transform="matrix(0.007595486111111109,0,0,0.007595486111111109,88.14561631944443,0)" xlink:href="#L"/><use transform="matrix(0.007595486111111109,0,0,0.007595486111111109,94.66254340277776,0)" xlink:href="#P"/><use transform="matrix(0.007595486111111109,0,0,0.007595486111111109,103.76193576388887,0)" xlink:href="#K"/><use transform="matrix(0.007595486111111109,0,0,0.007595486111111109,111.90429687499999,0)" xlink:href="#L"/><use transform="matrix(0.007595486111111109,0,0,0.007595486111111109,118.42122395833331,0)" xlink:href="#Q"/><use transform="matrix(0.007595486111111109,0,0,0.007595486111111109,127.1712239583333,0)" xlink:href="#K"/><use transform="matrix(0.007595486111111109,0,0,0.007595486111111109,135.31358506944443,0)" xlink:href="#L"/><use transform="matrix(0.007595486111111109,0,0,0.007595486111111109,141.83051215277777,0)" xlink:href="#R"/><use transform="matrix(0.007595486111111109,0,0,0.007595486111111109,150.46657986111111,0)" xlink:href="#K"/><use transform="matrix(0.007595486111111109,0,0,0.007595486111111109,158.60894097222223,0)" xlink:href="#L"/><use transform="matrix(0.007595486111111109,0,0,0.007595486111111109,165.12586805555557,0)" xlink:href="#S"/></g><path fill="#fcce14" d="M778-1254c0 70-65 137-135 134-18 0-39-2-64-5-26 427-21 510-21 874 81 4 141 53 142 130 0 61-27 103-80 124-41 17-168 30-256 53-46 12-78 17-96 17-70 0-125-70-125-136 0-74 52-123 157-147-21-424-16-476 7-908-97 24-181-41-182-128 0-103 94-155 283-155 83 0 140 0 171 3 133 11 199 59 199 144" id="T"/><path fill="#fcce14" d="M831-1263c0-71 58-136 130-136 74 0 123 53 152 157 10 35 75 644 68 614 1 225-72 438-183 556C930 1 855 39 768 39 599 39 474-92 393-353c-3 47-4 95-4 143 0 163-49 244-147 244-72 0-133-58-133-131 0-320 86-1036 190-1212 34-58 73-90 124-90 73 0 118 44 138 131 5 24 9 95 9 213 0 174 22 328 41 463 34 243 85 365 152 365 104 0 148-270 148-404 0-120-80-513-80-632" id="U"/><path fill="#fcce14" d="M225-1384c466-92 901 157 901 592 0 181-86 363-257 546C694-59 516 34 335 34 195 34 125-90 130-239c8-247 30-548 65-893-51-23-77-62-77-117 0-69 34-121 107-135zM415-246c157-43 447-320 442-522-4-173-53-243-174-305-63-32-137-47-219-47-35 270-50 500-49 874" id="V"/><path fill="#fcce14" d="M481-727c0 81-72 164-155 164-77 0-159-66-159-147 0-91 53-171 142-171 78 0 172 71 172 154zm19 599c0 84-68 162-154 162-78 0-167-71-167-153 0-77 105-169 179-169 87 0 142 69 142 160" id="W"/><g id="t"><use transform="matrix(0.007595486111111109,0,0,0.007595486111111109,0,0)" xlink:href="#T"/><use transform="matrix(0.007595486111111109,0,0,0.007595486111111109,6.873914930555554,0)" xlink:href="#U"/><use transform="matrix(0.007595486111111109,0,0,0.007595486111111109,16.70247395833333,0)" xlink:href="#V"/><use transform="matrix(0.007595486111111109,0,0,0.007595486111111109,25.763888888888882,0)" xlink:href="#W"/></g><path fill="#fcce14" d="M602-1365c226 0 427 132 427 346 0 137-77 248-230 335 105 61 197 186 199 339 3 281-357 407-648 316-78-24-131-56-167-92-63-64-18-172 66-171 17 0 42 10 75 29 69 40 136 60 203 60 99 0 270-46 270-132 0-65-34-119-101-162-30-30-193-73-257-109-51-48-33-144 39-165 105-30 195-49 270-118 51-47 80-92 80-140 0-76-136-135-220-135-54 0-174 34-292 55-51 9-103-51-103-103 0-108 251-153 389-153" id="X"/><path fill="#fcce14" d="M777-672c57 0 100 48 100 105 0 58-42 105-100 104-73-2-320 16-393 16-130 0-195-37-195-111 0-50 47-104 98-104 25 0 103 5 128 5 66 0 296-15 362-15" id="Y"/><path fill="#fcce14" d="M152-932c0-55 49-106 104-104 51 2 134 68 177 92 76 43 154 81 227 127 182 114 172 292 6 423-70 56-145 104-215 158-47 36-80 57-101 57-55 0-106-55-106-109 0-46 52-104 158-176s159-121 159-147c0-31-46-65-139-104-180-75-270-148-270-217" id="Z"/><path fill="#fcce14" d="M200-1365c95 3 162 6 292 6 343 0 515 81 515 243 0 172-258 535-348 706-53 101-82 215-127 338-18 49-50 72-90 72-61 0-126-55-104-125 63-205 151-424 283-648 32-54 84-133 147-241 14-24 20-43 20-56 0-67-104-101-312-101-139 0-364 56-370-92-2-49 45-103 94-102" id="aa"/><path fill="#fcce14" d="M457-877c340-69 656 129 656 435C1113-201 859 0 613 0 335 0 184-205 184-495c0-227 70-468 210-724 53-97 102-146 147-146 52 0 111 45 104 97-8 57-146 305-188 391zm163 674c127 0 293-116 293-242 0-134-166-244-304-244-63 0-133 13-210 39-10 73-15 126-15 160-1 165 79 287 236 287" id="ab"/><path fill="#fcce14" d="M722-1365c155 0 277 78 276 225 0 91-50 195-151 314-48 56-136 140-262 254-171 154-256 259-256 316 0 37 32 55 96 55 103 0 398-64 478-64 48 0 94 55 94 103 0 50-33 87-101 99C773-42 564-1 425 0 221 0 119-76 119-227c0-93 56-204 169-333 46-52 140-144 284-277s216-227 216-283c0-29-23-44-69-44-62 0-148 26-258 77-11 52-41 78-92 78-58 0-103-42-103-100 0-156 283-256 456-256" id="ac"/><path fill="#fcce14" d="M763-737c119 66 232 201 235 370C1002-138 781 0 539 0 307 0 164-187 164-411c0-153 57-265 171-337-87-71-130-164-130-279-1-207 116-338 324-338 198 0 387 157 387 358 0 119-51 209-153 270zM556-879c82 0 159-51 159-133 0-90-87-154-176-154s-133 55-133 164c0 75 73 123 150 123zM367-406c0 89 78 203 167 203 159 0 239-67 239-201 0-94-135-198-227-198-90 0-179 106-179 196" id="ad"/><path fill="#fcce14" d="M324-1236c5 23-37 369-37 466 0 156 45 234 136 234 188 0 282-184 282-553 11-40 18-100 31-177 11-67 49-99 100-99 69 0 103 44 103 133 0 160-19 698-19 858 0 51 8 229 8 280 0 49-51 94-100 94-77 0-115-76-115-227v-230c-84 79-185 119-303 119-217 0-325-140-325-421 0-92 40-385 36-477-2-55 48-97 103-97 54 0 102 42 100 97" id="ae"/><path fill="#fcce14" d="M481-742c281-32 557 107 557 358C1038-128 813 0 362 0 224 0 155-38 155-114c0-61 58-91 174-91 32-1 131 6 163 5 229 0 343-61 343-184 0-118-238-150-395-150-87 0-151-93-191-278-25-117-37-247-37-388 0-70 74-96 155-112 168-33 354-53 560-53 48 0 90 51 90 99 0 50-32 86-99 100-116 25-421 33-500 53 9 158 30 282 63 371" id="af"/><path fill="#fcce14" d="M592-1365c194 7 272 184 272 399 0 120-87 574-93 628-13 114-25 181-30 201C717-46 678 0 625 0c-48 0-101-44-101-92 0-132 51-296 78-415C319-461 53-614 53-877c0-222 314-496 539-488zm-32 194c-138-8-294 169-294 307 0 106 68 159 203 159 53 0 111-8 174-25 14-93 21-185 21-277 1-103-17-159-104-164" id="ag"/><g id="u"><use transform="matrix(0.007595486111111109,0,0,0.007595486111111109,0,0)" xlink:href="#X"/><use transform="matrix(0.007595486111111109,0,0,0.007595486111111109,9.03862847222222,0)" xlink:href="#Y"/><use transform="matrix(0.007595486111111109,0,0,0.007595486111111109,17.18098958333333,0)" xlink:href="#Z"/><use transform="matrix(0.007595486111111109,0,0,0.007595486111111109,23.69791666666666,0)" xlink:href="#aa"/><use transform="matrix(0.007595486111111109,0,0,0.007595486111111109,31.90104166666666,0)" xlink:href="#Y"/><use transform="matrix(0.007595486111111109,0,0,0.007595486111111109,40.043402777777764,0)" xlink:href="#Z"/><use transform="matrix(0.007595486111111109,0,0,0.007595486111111109,46.5603298611111,0)" xlink:href="#ab"/><use transform="matrix(0.007595486111111109,0,0,0.007595486111111109,56.41167534722221,0)" xlink:href="#Y"/><use transform="matrix(0.007595486111111109,0,0,0.007595486111111109,64.55403645833331,0)" xlink:href="#Z"/><use transform="matrix(0.007595486111111109,0,0,0.007595486111111109,71.07096354166664,0)" xlink:href="#ac"/><use transform="matrix(0.007595486111111109,0,0,0.007595486111111109,80.00325520833331,0)" xlink:href="#Y"/><use transform="matrix(0.007595486111111109,0,0,0.007595486111111109,88.14561631944443,0)" xlink:href="#Z"/><use transform="matrix(0.007595486111111109,0,0,0.007595486111111109,94.66254340277776,0)" xlink:href="#ad"/><use transform="matrix(0.007595486111111109,0,0,0.007595486111111109,103.29861111111109,0)" xlink:href="#Y"/><use transform="matrix(0.007595486111111109,0,0,0.007595486111111109,111.4409722222222,0)" xlink:href="#Z"/><use transform="matrix(0.007595486111111109,0,0,0.007595486111111109,117.95789930555553,0)" xlink:href="#ae"/><use transform="matrix(0.007595486111111109,0,0,0.007595486111111109,126.70789930555553,0)" xlink:href="#Y"/><use transform="matrix(0.007595486111111109,0,0,0.007595486111111109,134.85026041666663,0)" xlink:href="#Z"/><use transform="matrix(0.007595486111111109,0,0,0.007595486111111109,141.36718749999997,0)" xlink:href="#af"/><use transform="matrix(0.007595486111111109,0,0,0.007595486111111109,150.4665798611111,0)" xlink:href="#Y"/><use transform="matrix(0.007595486111111109,0,0,0.007595486111111109,158.6089409722222,0)" xlink:href="#Z"/><use transform="matrix(0.007595486111111109,0,0,0.007595486111111109,165.12586805555554,0)" xlink:href="#ag"/></g><path fill="#008a0e" d="M778-1254c0 70-65 137-135 134-18 0-39-2-64-5-26 427-21 510-21 874 81 4 141 53 142 130 0 61-27 103-80 124-41 17-168 30-256 53-46 12-78 17-96 17-70 0-125-70-125-136 0-74 52-123 157-147-21-424-16-476 7-908-97 24-181-41-182-128 0-103 94-155 283-155 83 0 140 0 171 3 133 11 199 59 199 144" id="ah"/><path fill="#008a0e" d="M241-1384c466-92 901 158 901 592 0 181-86 363-258 546C709-59 531 34 350 34 210 34 140-90 145-239c8-245 31-548 65-893-51-23-77-62-77-117 0-69 35-121 108-135zM413-246c175-41 459-312 459-522 0-174-53-243-174-305-63-32-137-47-218-47-12 65-45 461-67 874" id="ai"/><path fill="#008a0e" d="M838-1263c0-72 57-136 130-136 74 0 123 53 152 157 10 35 75 644 68 614 1 225-72 438-183 556C937 1 862 39 775 39 606 39 480-92 399-353c-2 47-3 95-3 143 0 163-49 244-147 244-72 0-133-58-133-131 0-319 85-1036 189-1212 34-59 74-90 125-90 73 0 118 44 138 131 5 24 9 95 9 213 0 174 22 328 41 463 34 243 85 365 152 365 104 0 148-270 148-404 0-120-80-513-80-632" id="aj"/><path fill="#008a0e" d="M481-727c0 81-72 164-155 164-77 0-159-66-159-147 0-91 53-171 142-171 78 0 172 71 172 154zm19 599c0 84-68 162-154 162-78 0-167-71-167-153 0-77 105-169 179-169 87 0 142 69 142 160" id="ak"/><g id="v"><use transform="matrix(0.007595486111111109,0,0,0.007595486111111109,0,0)" xlink:href="#ah"/><use transform="matrix(0.007595486111111109,0,0,0.007595486111111109,6.873914930555554,0)" xlink:href="#ai"/><use transform="matrix(0.007595486111111109,0,0,0.007595486111111109,16.11762152777777,0)" xlink:href="#aj"/><use transform="matrix(0.007595486111111109,0,0,0.007595486111111109,26.060112847222214,0)" xlink:href="#ak"/></g><path fill="#008a0e" d="M602-1365c226 0 427 132 427 346 0 137-77 248-230 335 105 61 197 186 199 339 3 281-357 407-648 316-78-24-131-56-167-92-63-64-18-172 66-171 17 0 42 10 75 29 69 40 136 60 203 60 99 0 270-46 270-132 0-65-34-119-101-162-30-30-193-73-257-109-51-48-33-144 39-165 105-30 195-49 270-118 51-47 80-92 80-140 0-76-136-135-220-135-54 0-174 34-292 55-51 9-103-51-103-103 0-108 251-153 389-153" id="al"/><path fill="#008a0e" d="M777-672c57 0 100 48 100 105 0 58-42 105-100 104-73-2-320 16-393 16-130 0-195-37-195-111 0-50 47-104 98-104 25 0 103 5 128 5 66 0 296-15 362-15" id="am"/><path fill="#008a0e" d="M152-932c0-55 49-106 104-104 51 2 134 68 177 92 76 43 154 81 227 127 182 114 172 292 6 423-70 56-145 104-215 158-47 36-80 57-101 57-55 0-106-55-106-109 0-46 52-104 158-176s159-121 159-147c0-31-46-65-139-104-180-75-270-148-270-217" id="an"/><path fill="#008a0e" d="M457-877c340-69 656 129 656 435C1113-201 859 0 613 0 335 0 184-205 184-495c0-227 70-468 210-724 53-97 102-146 147-146 52 0 111 45 104 97-8 57-146 305-188 391zm163 674c127 0 293-116 293-242 0-134-166-244-304-244-63 0-133 13-210 39-10 73-15 126-15 160-1 165 79 287 236 287" id="ao"/><path fill="#008a0e" d="M200-1365c95 3 162 6 292 6 343 0 515 81 515 243 0 172-258 535-348 706-53 101-82 215-127 338-18 49-50 72-90 72-61 0-126-55-104-125 63-205 151-424 283-648 32-54 84-133 147-241 14-24 20-43 20-56 0-67-104-101-312-101-139 0-364 56-370-92-2-49 45-103 94-102" id="ap"/><path fill="#008a0e" d="M763-737c119 66 232 201 235 370C1002-138 781 0 539 0 307 0 164-187 164-411c0-153 57-265 171-337-87-71-130-164-130-279-1-207 116-338 324-338 198 0 387 157 387 358 0 119-51 209-153 270zM556-879c82 0 159-51 159-133 0-90-87-154-176-154s-133 55-133 164c0 75 73 123 150 123zM367-406c0 89 78 203 167 203 159 0 239-67 239-201 0-94-135-198-227-198-90 0-179 106-179 196" id="aq"/><path fill="#008a0e" d="M324-1236c5 23-37 369-37 466 0 156 45 234 136 234 188 0 282-184 282-553 11-40 18-100 31-177 11-67 49-99 100-99 69 0 103 44 103 133 0 160-19 698-19 858 0 51 8 229 8 280 0 49-51 94-100 94-77 0-115-76-115-227v-230c-84 79-185 119-303 119-217 0-325-140-325-421 0-92 40-385 36-477-2-55 48-97 103-97 54 0 102 42 100 97" id="ar"/><path fill="#008a0e" d="M592-1365c194 7 272 184 272 399 0 120-87 574-93 628-13 114-25 181-30 201C717-46 678 0 625 0c-48 0-101-44-101-92 0-132 51-296 78-415C319-461 53-614 53-877c0-222 314-496 539-488zm-32 194c-138-8-294 169-294 307 0 106 68 159 203 159 53 0 111-8 174-25 14-93 21-185 21-277 1-103-17-159-104-164" id="as"/><path fill="#008a0e" d="M481-742c281-32 557 107 557 358C1038-128 813 0 362 0 224 0 155-38 155-114c0-61 58-91 174-91 32-1 131 6 163 5 229 0 343-61 343-184 0-118-238-150-395-150-87 0-151-93-191-278-25-117-37-247-37-388 0-70 74-96 155-112 168-33 354-53 560-53 48 0 90 51 90 99 0 50-32 86-99 100-116 25-421 33-500 53 9 158 30 282 63 371" id="at"/><path fill="#008a0e" d="M722-1365c155 0 277 78 276 225 0 91-50 195-151 314-48 56-136 140-262 254-171 154-256 259-256 316 0 37 32 55 96 55 103 0 398-64 478-64 48 0 94 55 94 103 0 50-33 87-101 99C773-42 564-1 425 0 221 0 119-76 119-227c0-93 56-204 169-333 46-52 140-144 284-277s216-227 216-283c0-29-23-44-69-44-62 0-148 26-258 77-11 52-41 78-92 78-58 0-103-42-103-100 0-156 283-256 456-256" id="au"/><g id="w"><use transform="matrix(0.007595486111111109,0,0,0.007595486111111109,0,0)" xlink:href="#al"/><use transform="matrix(0.007595486111111109,0,0,0.007595486111111109,9.03862847222222,0)" xlink:href="#am"/><use transform="matrix(0.007595486111111109,0,0,0.007595486111111109,17.18098958333333,0)" xlink:href="#an"/><use transform="matrix(0.007595486111111109,0,0,0.007595486111111109,23.69791666666666,0)" xlink:href="#ao"/><use transform="matrix(0.007595486111111109,0,0,0.007595486111111109,33.54926215277777,0)" xlink:href="#am"/><use transform="matrix(0.007595486111111109,0,0,0.007595486111111109,41.69162326388888,0)" xlink:href="#an"/><use transform="matrix(0.007595486111111109,0,0,0.007595486111111109,48.208550347222214,0)" xlink:href="#ap"/><use transform="matrix(0.007595486111111109,0,0,0.007595486111111109,56.411675347222214,0)" xlink:href="#am"/><use transform="matrix(0.007595486111111109,0,0,0.007595486111111109,64.55403645833333,0)" xlink:href="#an"/><use transform="matrix(0.007595486111111109,0,0,0.007595486111111109,71.07096354166666,0)" xlink:href="#aq"/><use transform="matrix(0.007595486111111109,0,0,0.007595486111111109,79.70703124999999,0)" xlink:href="#am"/><use transform="matrix(0.007595486111111109,0,0,0.007595486111111109,87.8493923611111,0)" xlink:href="#an"/><use transform="matrix(0.007595486111111109,0,0,0.007595486111111109,94.36631944444443,0)" xlink:href="#ar"/><use transform="matrix(0.007595486111111109,0,0,0.007595486111111109,103.11631944444443,0)" xlink:href="#am"/><use transform="matrix(0.007595486111111109,0,0,0.007595486111111109,111.25868055555554,0)" xlink:href="#an"/><use transform="matrix(0.007595486111111109,0,0,0.007595486111111109,117.77560763888887,0)" xlink:href="#as"/><use transform="matrix(0.007595486111111109,0,0,0.007595486111111109,125.62174479166664,0)" xlink:href="#am"/><use transform="matrix(0.007595486111111109,0,0,0.007595486111111109,133.76410590277774,0)" xlink:href="#an"/><use transform="matrix(0.007595486111111109,0,0,0.007595486111111109,140.2810329861111,0)" xlink:href="#at"/><use transform="matrix(0.007595486111111109,0,0,0.007595486111111109,149.3804253472222,0)" xlink:href="#am"/><use transform="matrix(0.007595486111111109,0,0,0.007595486111111109,157.52278645833331,0)" xlink:href="#an"/><use transform="matrix(0.007595486111111109,0,0,0.007595486111111109,164.03971354166666,0)" xlink:href="#au"/></g></defs></g></svg>