<svg xmlns="http://www.w3.org/2000/svg" xmlns:xlink="http://www.w3.org/1999/xlink" xmlns:lucid="lucid" width="325" height="260.35"><g transform="translate(-2400 261)" lucid:page-tab-id="0_0"><path d="M2580-220.83c0 10.6-8.95 19.18-20 19.18s-20-8.6-20-19.18 8.95-19.17 20-19.17 20 8.6 20 19.17z" stroke="#fe7070" stroke-width="2" fill="url(#a)"/><path d="M2545-229.83a6 6 0 0 1 6-6h18a6 6 0 0 1 6 6v18a6 6 0 0 1-6 6h-18a6 6 0 0 1-6-6z" stroke="#000" stroke-opacity="0" stroke-width="3" fill-opacity="0"/><path d="M2500-180.83c0 10.6-8.95 19.18-20 19.18s-20-8.6-20-19.18 8.95-19.17 20-19.17 20 8.6 20 19.17z" stroke="#fe7070" stroke-width="2" fill="url(#b)"/><path d="M2465-189.83a6 6 0 0 1 6-6h18a6 6 0 0 1 6 6v18a6 6 0 0 1-6 6h-18a6 6 0 0 1-6-6z" stroke="#000" stroke-opacity="0" stroke-width="3" fill-opacity="0"/><path d="M2660-180.83c0 10.6-8.95 19.18-20 19.18s-20-8.6-20-19.18 8.95-19.17 20-19.17 20 8.6 20 19.17z" stroke="#fe7070" stroke-width="2" fill="url(#c)"/><path d="M2625-189.83a6 6 0 0 1 6-6h18a6 6 0 0 1 6 6v18a6 6 0 0 1-6 6h-18a6 6 0 0 1-6-6z" stroke="#000" stroke-opacity="0" stroke-width="3" fill-opacity="0"/><path d="M2465-110.5c0 10.6-8.95 19.17-20 19.17s-20-8.58-20-19.17c0-10.6 8.95-19.18 20-19.18s20 8.6 20 19.18z" stroke="#fe7070" stroke-width="2" fill="url(#d)"/><path d="M2430-119.5a6 6 0 0 1 6-6h18a6 6 0 0 1 6 6v18a6 6 0 0 1-6 6h-18a6 6 0 0 1-6-6z" stroke="#000" stroke-opacity="0" stroke-width="3" fill-opacity="0"/><path d="M2540-110.5c0 10.6-8.95 19.17-20 19.17s-20-8.58-20-19.17c0-10.6 8.95-19.18 20-19.18s20 8.6 20 19.18z" stroke="#fe7070" stroke-width="2" fill="url(#e)"/><path d="M2505-119.5a6 6 0 0 1 6-6h18a6 6 0 0 1 6 6v18a6 6 0 0 1-6 6h-18a6 6 0 0 1-6-6z" stroke="#000" stroke-opacity="0" stroke-width="3" fill-opacity="0"/><path d="M2695-110.5c0 10.6-8.95 19.17-20 19.17s-20-8.58-20-19.17c0-10.6 8.95-19.18 20-19.18s20 8.6 20 19.18z" stroke="#fe7070" stroke-width="2" fill="url(#f)"/><path d="M2660-119.5a6 6 0 0 1 6-6h18a6 6 0 0 1 6 6v18a6 6 0 0 1-6 6h-18a6 6 0 0 1-6-6z" stroke="#000" stroke-opacity="0" stroke-width="3" fill-opacity="0"/><path d="M2630-110.5c0 10.6-8.95 19.17-20 19.17s-20-8.58-20-19.17c0-10.6 8.95-19.18 20-19.18s20 8.6 20 19.18z" stroke="#fe7070" stroke-width="2" fill="url(#g)"/><path d="M2595-119.5a6 6 0 0 1 6-6h18a6 6 0 0 1 6 6v18a6 6 0 0 1-6 6h-18a6 6 0 0 1-6-6z" stroke="#000" stroke-opacity="0" stroke-width="3" fill-opacity="0"/><path d="M2559.37-199.38l-40.5 13.6-.65-1.9 40.5-13.6z" stroke="#979ea8" stroke-width=".05" fill="#979ea8"/><path d="M2563.16-200.66l-3.8 1.28-.5-1.4 1.1.13 1.65-.06 1.45-.3z" fill="#979ea8"/><path d="M2563.2-200.64l-3.87 1.3-.5-1.47 1.13.13 1.65-.06 1.47-.3zm-1.6-.04l-1.65.06-1.04-.13.46 1.34 3.77-1.27-.1-.3z" stroke="#979ea8" stroke-width=".05" fill="#979ea8"/><path d="M2519.07-182l-15 .14 12.04-8.93z" fill="#979ea8"/><path d="M2520.45-181.02l-19.45.2 15.62-11.6zm-13.3-1.87l10.53-.1-2.07-6.17z" stroke="#979ea8" stroke-width=".05" fill="#979ea8"/><use xlink:href="#h" transform="matrix(1,0,0,1,2530.5003119827898,-201.78837240640988) translate(0.005 18.26388888888889)"/><path d="M2560.95-200.33l40.5 13.6" stroke="#979ea8" stroke-width="2" fill="none"/><path d="M2559.95-200.65l1.14-.04-.45 1.32-3.8-1.28.1-.36z" stroke="#979ea8" stroke-width=".05" fill="#979ea8"/><path d="M2615.93-181.86l-15-.15 2.96-8.8z" stroke="#979ea8" stroke-width="2" fill="#979ea8"/><path d="M2480.8-160.05l24.4 18.28" stroke="#979ea8" stroke-width="2" fill="none"/><path d="M2479.95-160.65l1.37-.05-1.1 1.46-2.2-1.65z" stroke="#979ea8" stroke-width=".05" fill="#979ea8"/><path d="M2517.4-132.62l-14.18-4.84 5.55-7.42z" stroke="#979ea8" stroke-width="2" fill="#979ea8"/><path d="M2479.24-160l-20.2 17.3" stroke="#979ea8" stroke-width="2" fill="none"/><path d="M2479.95-160.65l1.65-.06-1.73 1.48-1.3-1.52.08-.07z" stroke="#979ea8" stroke-width=".05" fill="#979ea8"/><path d="M2447.46-132.78l7.82-12.8 6.03 7.04z" stroke="#979ea8" stroke-width="2" fill="#979ea8"/><path d="M2639.3-159.94l-16.2 16.2" stroke="#979ea8" stroke-width="2" fill="none"/><path d="M2639.95-160.65l1.52-.05-1.5 1.48-1.4-1.4.17-.18z" stroke="#979ea8" stroke-width=".05" fill="#979ea8"/><path d="M2612.3-132.96l6.8-13.36 6.56 6.55z" stroke="#979ea8" stroke-width="2" fill="#979ea8"/><path d="M2640.76-160l20.2 17.3" stroke="#979ea8" stroke-width="2" fill="none"/><path d="M2639.95-160.65l1.44-.05-1.27 1.48-1.92-1.65z" stroke="#979ea8" stroke-width=".05" fill="#979ea8"/><path d="M2672.54-132.78l-13.85-5.76 6.02-7.04z" stroke="#979ea8" stroke-width="2" fill="#979ea8"/><path d="M2600-40.83c0 10.6-8.95 19.18-20 19.18s-20-8.6-20-19.18c0-10.6 8.95-19.17 20-19.17s20 8.6 20 19.17z" stroke="#fe7070" stroke-width="2" fill="url(#i)"/><path d="M2565-49.83a6 6 0 0 1 6-6h18a6 6 0 0 1 6 6v18a6 6 0 0 1-6 6h-18a6 6 0 0 1-6-6z" stroke="#000" stroke-opacity="0" stroke-width="3" fill-opacity="0"/><path d="M2608.7-89.7l-15.62 15.62" stroke="#979ea8" stroke-width="2" fill="none"/><path d="M2609.95-90.32l.82-.03-1.4 1.4-1.4-1.43.17-.17z" stroke="#979ea8" stroke-width=".05" fill="#979ea8"/><path d="M2582.3-63.3l6.8-13.35 6.55 6.55z" stroke="#979ea8" stroke-width="2" fill="#979ea8"/><path d="M2505-209.83a6 6 0 0 1 6-6h28a6 6 0 0 1 6 6v8a6 6 0 0 1-6 6h-28a6 6 0 0 1-6-6z" fill="none"/><use xlink:href="#j" transform="matrix(1,0,0,1,2505,-215.82555783901324) translate(9.263780381944446 16.311848958333332)"/><path d="M2580-209.83a6 6 0 0 1 6-6h28a6 6 0 0 1 6 6v8a6 6 0 0 1-6 6h-28a6 6 0 0 1-6-6z" fill="none"/><use xlink:href="#k" transform="matrix(1,0,0,1,2580,-215.82555783901324) translate(7.159830729166671 16.311848958333332)"/><path d="M2420-155.65a6 6 0 0 1 6-6h28a6 6 0 0 1 6 6v8a6 6 0 0 1-6 6h-28a6 6 0 0 1-6-6z" fill="none"/><use xlink:href="#j" transform="matrix(1,0,0,1,2420,-161.65111567802649) translate(9.263780381944446 16.311848958333332)"/><path d="M2505-155.65a6 6 0 0 1 6-6h28a6 6 0 0 1 6 6v8a6 6 0 0 1-6 6h-28a6 6 0 0 1-6-6z" fill="none"/><use xlink:href="#k" transform="matrix(1,0,0,1,2505,-161.65111567802649) translate(7.159830729166671 16.311848958333332)"/><path d="M2585-157.7a6 6 0 0 1 6-6h28a6 6 0 0 1 6 6v8a6 6 0 0 1-6 6h-28a6 6 0 0 1-6-6z" fill="none"/><use xlink:href="#j" transform="matrix(1,0,0,1,2585,-163.70282254680757) translate(9.263780381944446 16.311848958333332)"/><path d="M2665-155.65a6 6 0 0 1 6-6h28a6 6 0 0 1 6 6v8a6 6 0 0 1-6 6h-28a6 6 0 0 1-6-6z" fill="none"/><use xlink:href="#k" transform="matrix(1,0,0,1,2665,-161.65111567802649) translate(7.159830729166671 16.311848958333332)"/><path d="M2555-85.33a6 6 0 0 1 6-6h28a6 6 0 0 1 6 6v8a6 6 0 0 1-6 6h-28a6 6 0 0 1-6-6z" fill="none"/><use xlink:href="#j" transform="matrix(1,0,0,1,2555,-91.32605559885715) translate(9.263780381944446 16.311848958333332)"/><defs><radialGradient gradientUnits="userSpaceOnUse" id="a" fx="2560" fy="-220.83" cx="2560" cy="-220.83" r="20.54"><stop offset="0%" stop-color="#fe7474" stop-opacity=".4"/><stop offset="60%" stop-color="#fe7070" stop-opacity=".6"/><stop offset="100%" stop-color="#fb6f6f"/></radialGradient><radialGradient gradientUnits="userSpaceOnUse" id="b" fx="2480" fy="-180.83" cx="2480" cy="-180.83" r="20.54"><stop offset="0%" stop-color="#fe7474" stop-opacity=".4"/><stop offset="60%" stop-color="#fe7070" stop-opacity=".6"/><stop offset="100%" stop-color="#fb6f6f"/></radialGradient><radialGradient gradientUnits="userSpaceOnUse" id="c" fx="2640" fy="-180.83" cx="2640" cy="-180.83" r="20.54"><stop offset="0%" stop-color="#fe7474" stop-opacity=".4"/><stop offset="60%" stop-color="#fe7070" stop-opacity=".6"/><stop offset="100%" stop-color="#fb6f6f"/></radialGradient><radialGradient gradientUnits="userSpaceOnUse" id="d" fx="2445" fy="-110.5" cx="2445" cy="-110.5" r="20.54"><stop offset="0%" stop-color="#fe7474" stop-opacity=".4"/><stop offset="60%" stop-color="#fe7070" stop-opacity=".6"/><stop offset="100%" stop-color="#fb6f6f"/></radialGradient><radialGradient gradientUnits="userSpaceOnUse" id="e" fx="2520" fy="-110.5" cx="2520" cy="-110.5" r="20.54"><stop offset="0%" stop-color="#fe7474" stop-opacity=".4"/><stop offset="60%" stop-color="#fe7070" stop-opacity=".6"/><stop offset="100%" stop-color="#fb6f6f"/></radialGradient><radialGradient gradientUnits="userSpaceOnUse" id="f" fx="2675" fy="-110.5" cx="2675" cy="-110.5" r="20.54"><stop offset="0%" stop-color="#fe7474" stop-opacity=".4"/><stop offset="60%" stop-color="#fe7070" stop-opacity=".6"/><stop offset="100%" stop-color="#fb6f6f"/></radialGradient><radialGradient gradientUnits="userSpaceOnUse" id="g" fx="2610" fy="-110.5" cx="2610" cy="-110.5" r="20.54"><stop offset="0%" stop-color="#fe7474" stop-opacity=".4"/><stop offset="60%" stop-color="#fe7070" stop-opacity=".6"/><stop offset="100%" stop-color="#fb6f6f"/></radialGradient><radialGradient gradientUnits="userSpaceOnUse" id="i" fx="2580" fy="-40.83" cx="2580" cy="-40.83" r="20.54"><stop offset="0%" stop-color="#fe7474" stop-opacity=".4"/><stop offset="60%" stop-color="#fe7070" stop-opacity=".6"/><stop offset="100%" stop-color="#fb6f6f"/></radialGradient><path fill="#979ea8" d="M270-1365c53 0 101 46 100 99-5 357-80 777-80 1073C290-64 254 0 183 0 132 0 82-50 82-101c0-298 47-662 55-976 2-76 19-138 34-189 19-66 52-99 99-99" id="l"/><path fill="#979ea8" d="M981-266c49-2 92 51 92 99 0 65-78 111-235 140C740-9 634 0 521 0 381 0 189-69 189-191c0-93 52-207 157-340 30-39 126-147 289-324 104-113 157-190 157-232 0-53-70-80-210-80-152 0-488 76-488-91 0-143 266-107 411-107 340 0 510 87 510 261 0 71-44 165-136 278-136 168-404 420-475 602 150 56 400-33 577-42" id="m"/><path fill="#979ea8" d="M584-1365c326 0 553 334 548 674-5 286-156 533-352 633 45 103 67 168 67 196 0 50-51 99-101 99-69 0-122-80-159-239C265 29 72-294 72-614c0-177 41-339 123-487 97-176 227-264 389-264zM713-253c124-77 219-244 219-438 0-191-91-355-215-432-167-102-280-19-367 169-89 192-115 401-19 587 45 85 106 139 183 162-39-95-58-155-58-179 0-50 50-99 100-99 62 0 114 77 157 230" id="n"/><g id="j"><use transform="matrix(0.007595486111111109,0,0,0.007595486111111109,0,0)" xlink:href="#l"/><use transform="matrix(0.007595486111111109,0,0,0.007595486111111109,3.3799913194444438,0)" xlink:href="#m"/><use transform="matrix(0.007595486111111109,0,0,0.007595486111111109,12.259114583333332,0)" xlink:href="#n"/></g><path fill="#979ea8" d="M387-1365c369 0 678 217 678 573 0 172-83 346-249 522C647-90 478 0 307 0 194 0 137-80 137-239c0-257 30-558 68-915-53-11-80-43-80-95 0-56 32-93 97-108 26-6 81-8 165-8zm21 204c-15 76-47 491-72 917 0 13 1 27 2 41 116-22 231-92 346-210 120-123 180-241 180-355-1-196-67-277-209-343-74-35-157-50-247-50" id="o"/><path fill="#979ea8" d="M369 0C201 0 119-119 119-294c0-119 26-272 77-457 80-290 99-377 125-524 7-13 27-26 60-41 71-33 211-49 419-49 129 0 193 36 193 107 0 50-48 105-99 101-142-10-258-9-397 20-11 59-34 158-69 297 146-57 246-85 301-85 53 0 100 43 100 96 0 43-23 80-73 99-127 49-178 54-389 129-29 119-44 224-44 314 0 58 10 87 30 87 66 0 151-30 256-90s173-91 205-91c50 0 101 49 101 99 0 30-19 57-51 87C794-129 500 0 369 0" id="p"/><path fill="#979ea8" d="M432-1365c342 0 623 232 623 568 0 219-132 374-395 466 145 90 217 167 217 230 0 52-52 98-104 96-17 0-39-10-66-29-90-65-203-166-304-203v78C403-53 368 0 299 0c-53 0-99-44-99-97v-374c17-145 25-361 25-650-2 5-10 7-24 7-53 2-99-46-99-99 0-112 194-152 330-152zm257 786c221-128 209-317 21-469-89-71-178-111-268-119-1 97-2 329-2 698 90-27 172-66 249-110" id="q"/><g id="k"><use transform="matrix(0.007595486111111109,0,0,0.007595486111111109,0,0)" xlink:href="#o"/><use transform="matrix(0.007595486111111109,0,0,0.007595486111111109,8.605685763888888,0)" xlink:href="#p"/><use transform="matrix(0.007595486111111109,0,0,0.007595486111111109,17.05946180555555,0)" xlink:href="#q"/></g></defs></g></svg>