<svg xmlns="http://www.w3.org/2000/svg" xmlns:xlink="http://www.w3.org/1999/xlink" xmlns:lucid="lucid" width="1507" height="272.87"><g transform="translate(-2404 261)" lucid:page-tab-id="0_0"><path d="M2580-220.83c0 10.6-8.95 19.18-20 19.18s-20-8.6-20-19.18 8.95-19.17 20-19.17 20 8.6 20 19.17z" stroke="#fe7070" stroke-width="2" fill="url(#a)"/><path d="M2545-229.83a6 6 0 0 1 6-6h18a6 6 0 0 1 6 6v18a6 6 0 0 1-6 6h-18a6 6 0 0 1-6-6z" stroke="#000" stroke-opacity="0" stroke-width="3" fill-opacity="0"/><use xlink:href="#b" transform="matrix(1,0,0,1,2550,-230.82555783901324) translate(-1.1111111111111072 15.999999999999995)"/><path d="M2500-180.83c0 10.6-8.95 19.18-20 19.18s-20-8.6-20-19.18 8.95-19.17 20-19.17 20 8.6 20 19.17z" stroke="#fe7070" stroke-width="2" fill="url(#c)"/><path d="M2465-189.83a6 6 0 0 1 6-6h18a6 6 0 0 1 6 6v18a6 6 0 0 1-6 6h-18a6 6 0 0 1-6-6z" stroke="#000" stroke-opacity="0" stroke-width="3" fill-opacity="0"/><use xlink:href="#d" transform="matrix(1,0,0,1,2470,-190.82555783901324) translate(4.444444444444446 17.249999999999993)"/><path d="M2660-180.83c0 10.6-8.95 19.18-20 19.18s-20-8.6-20-19.18 8.95-19.17 20-19.17 20 8.6 20 19.17z" stroke="#fe7070" stroke-width="2" fill="url(#e)"/><path d="M2625-189.83a6 6 0 0 1 6-6h18a6 6 0 0 1 6 6v18a6 6 0 0 1-6 6h-18a6 6 0 0 1-6-6z" stroke="#000" stroke-opacity="0" stroke-width="3" fill-opacity="0"/><use xlink:href="#f" transform="matrix(1,0,0,1,2630,-190.82555783901324) translate(-1.1111111111111072 15.999999999999995)"/><path d="M2465-110.5c0 10.6-8.95 19.17-20 19.17s-20-8.58-20-19.17c0-10.6 8.95-19.18 20-19.18s20 8.6 20 19.18z" stroke="#fe7070" stroke-width="2" fill="url(#g)"/><path d="M2430-119.5a6 6 0 0 1 6-6h18a6 6 0 0 1 6 6v18a6 6 0 0 1-6 6h-18a6 6 0 0 1-6-6z" stroke="#000" stroke-opacity="0" stroke-width="3" fill-opacity="0"/><use xlink:href="#h" transform="matrix(1,0,0,1,2435,-120.50049775984391) translate(4.444444444444446 17.249999999999993)"/><path d="M2540-110.5c0 10.6-8.95 19.17-20 19.17s-20-8.58-20-19.17c0-10.6 8.95-19.18 20-19.18s20 8.6 20 19.18z" stroke="#fe7070" stroke-width="2" fill="url(#i)"/><path d="M2505-119.5a6 6 0 0 1 6-6h18a6 6 0 0 1 6 6v18a6 6 0 0 1-6 6h-18a6 6 0 0 1-6-6z" stroke="#000" stroke-opacity="0" stroke-width="3" fill-opacity="0"/><use xlink:href="#j" transform="matrix(1,0,0,1,2510,-120.50049775984391) translate(4.444444444444446 17.249999999999993)"/><path d="M2695-110.5c0 10.6-8.95 19.17-20 19.17s-20-8.58-20-19.17c0-10.6 8.95-19.18 20-19.18s20 8.6 20 19.18z" stroke="#fe7070" stroke-width="2" fill="url(#k)"/><path d="M2660-119.5a6 6 0 0 1 6-6h18a6 6 0 0 1 6 6v18a6 6 0 0 1-6 6h-18a6 6 0 0 1-6-6z" stroke="#000" stroke-opacity="0" stroke-width="3" fill-opacity="0"/><use xlink:href="#l" transform="matrix(1,0,0,1,2665,-120.50049775984391) translate(-1.1111111111111072 15.999999999999995)"/><path d="M2630-110.5c0 10.6-8.95 19.17-20 19.17s-20-8.58-20-19.17c0-10.6 8.95-19.18 20-19.18s20 8.6 20 19.18z" stroke="#fe7070" stroke-width="2" fill="url(#m)"/><path d="M2595-119.5a6 6 0 0 1 6-6h18a6 6 0 0 1 6 6v18a6 6 0 0 1-6 6h-18a6 6 0 0 1-6-6z" stroke="#000" stroke-opacity="0" stroke-width="3" fill-opacity="0"/><use xlink:href="#n" transform="matrix(1,0,0,1,2600,-120.50049775984391) translate(-1.1111111111111072 15.999999999999995)"/><path d="M2559.37-199.38l-40.5 13.6-.65-1.9 40.5-13.6z" stroke="#979ea8" stroke-width=".05" fill="#979ea8"/><path d="M2563.16-200.66l-3.8 1.28-.5-1.4 1.1.13 1.65-.06 1.45-.3z" fill="#979ea8"/><path d="M2563.2-200.64l-3.87 1.3-.5-1.47 1.13.13 1.65-.06 1.47-.3zm-1.6-.04l-1.65.06-1.04-.13.46 1.34 3.77-1.27-.1-.3z" stroke="#979ea8" stroke-width=".05" fill="#979ea8"/><path d="M2519.07-182l-15 .14 12.04-8.93z" fill="#979ea8"/><path d="M2520.45-181.02l-19.45.2 15.62-11.6zm-13.3-1.87l10.53-.1-2.07-6.17z" stroke="#979ea8" stroke-width=".05" fill="#979ea8"/><use xlink:href="#o" transform="matrix(1,0,0,1,2530.5003119827898,-201.78837240640988) translate(0.005 18.26388888888889)"/><path d="M2560.95-200.33l40.5 13.6" stroke="#979ea8" stroke-width="2" fill="none"/><path d="M2559.95-200.65l1.14-.04-.45 1.32-3.8-1.28.1-.36z" stroke="#979ea8" stroke-width=".05" fill="#979ea8"/><path d="M2615.93-181.86l-15-.15 2.96-8.8z" stroke="#979ea8" stroke-width="2" fill="#979ea8"/><path d="M2480.8-160.05l24.4 18.28" stroke="#979ea8" stroke-width="2" fill="none"/><path d="M2479.95-160.65l1.37-.05-1.1 1.46-2.2-1.65z" stroke="#979ea8" stroke-width=".05" fill="#979ea8"/><path d="M2517.4-132.62l-14.18-4.84 5.55-7.42z" stroke="#979ea8" stroke-width="2" fill="#979ea8"/><path d="M2479.24-160l-20.2 17.3" stroke="#979ea8" stroke-width="2" fill="none"/><path d="M2479.95-160.65l1.65-.06-1.73 1.48-1.3-1.52.08-.07z" stroke="#979ea8" stroke-width=".05" fill="#979ea8"/><path d="M2447.46-132.78l7.82-12.8 6.03 7.04z" stroke="#979ea8" stroke-width="2" fill="#979ea8"/><path d="M2639.3-159.94l-16.2 16.2" stroke="#979ea8" stroke-width="2" fill="none"/><path d="M2639.95-160.65l1.52-.05-1.5 1.48-1.4-1.4.17-.18z" stroke="#979ea8" stroke-width=".05" fill="#979ea8"/><path d="M2612.3-132.96l6.8-13.36 6.56 6.55z" stroke="#979ea8" stroke-width="2" fill="#979ea8"/><path d="M2640.76-160l20.2 17.3" stroke="#979ea8" stroke-width="2" fill="none"/><path d="M2639.95-160.65l1.44-.05-1.27 1.48-1.92-1.65z" stroke="#979ea8" stroke-width=".05" fill="#979ea8"/><path d="M2672.54-132.78l-13.85-5.76 6.02-7.04z" stroke="#979ea8" stroke-width="2" fill="#979ea8"/><path d="M2600-40.83c0 10.6-8.95 19.18-20 19.18s-20-8.6-20-19.18c0-10.6 8.95-19.17 20-19.17s20 8.6 20 19.17z" stroke="#fe7070" stroke-width="2" fill="url(#p)"/><path d="M2565-49.83a6 6 0 0 1 6-6h18a6 6 0 0 1 6 6v18a6 6 0 0 1-6 6h-18a6 6 0 0 1-6-6z" stroke="#000" stroke-opacity="0" stroke-width="3" fill-opacity="0"/><use xlink:href="#q" transform="matrix(1,0,0,1,2570,-50.82555783901324) translate(-1.1111111111111072 15.999999999999995)"/><path d="M2608.7-89.7l-15.62 15.62" stroke="#979ea8" stroke-width="2" fill="none"/><path d="M2609.95-90.32l.82-.03-1.4 1.4-1.4-1.43.17-.17z" stroke="#979ea8" stroke-width=".05" fill="#979ea8"/><path d="M2582.3-63.3l6.8-13.35 6.55 6.55z" stroke="#979ea8" stroke-width="2" fill="#979ea8"/><path d="M2720-130a3.04 3.04 0 0 1 3.04-3.04h64.25a6 6 0 0 0 6-6V-144a2.18 2.18 0 0 1 3.84-1.4l9 10.8a7.18 7.18 0 0 1 0 9.2l-9 10.8a2.18 2.18 0 0 1-3.85-1.4v-4.96a6 6 0 0 0-6-6h-64.26A3.04 3.04 0 0 1 2720-130z" stroke="#ba23f6" stroke-width="3" fill-opacity="0"/><path d="M2720-188a6 6 0 0 1 6-6h28a6 6 0 0 1 6 6v6a6 6 0 0 1-6 6h-28a6 6 0 0 1-6-6z" fill="none"/><use xlink:href="#r" transform="matrix(1,0,0,1,2720,-194.00000000000003) translate(-8.132222222222207 18.339999999999993)"/><path d="M2820-185c0 10.6-8.95 19.17-20 19.17s-20-8.58-20-19.17c0-10.6 8.95-19.17 20-19.17s20 8.58 20 19.17z" stroke="#e08fff" stroke-width="2" fill="url(#s)"/><path d="M2785-194a6 6 0 0 1 6-6h18a6 6 0 0 1 6 6v18a6 6 0 0 1-6 6h-18a6 6 0 0 1-6-6z" stroke="#000" stroke-opacity="0" stroke-width="3" fill-opacity="0"/><use xlink:href="#t" transform="matrix(1,0,0,1,2790,-195) translate(-1.1111111111111072 15.999999999999995)"/><path d="M2975-216.65c0 10.6-8.95 19.17-20 19.17s-20-8.58-20-19.17c0-10.6 8.95-19.18 20-19.18s20 8.6 20 19.18z" stroke="#fcce14" stroke-width="2" fill="url(#u)"/><path d="M2940-225.65a6 6 0 0 1 6-6h18a6 6 0 0 1 6 6v18a6 6 0 0 1-6 6h-18a6 6 0 0 1-6-6z" stroke="#000" stroke-opacity="0" stroke-width="3" fill-opacity="0"/><use xlink:href="#v" transform="matrix(1,0,0,1,2945,-226.65111567802649) translate(-1.1111111111111072 15.999999999999995)"/><path d="M2895-176.65c0 10.6-8.95 19.17-20 19.17s-20-8.58-20-19.17c0-10.6 8.95-19.18 20-19.18s20 8.6 20 19.18z" stroke="#fe7070" stroke-width="2" fill="url(#w)"/><path d="M2860-185.65a6 6 0 0 1 6-6h18a6 6 0 0 1 6 6v18a6 6 0 0 1-6 6h-18a6 6 0 0 1-6-6z" stroke="#000" stroke-opacity="0" stroke-width="3" fill-opacity="0"/><use xlink:href="#d" transform="matrix(1,0,0,1,2865,-186.65111567802649) translate(4.444444444444446 17.249999999999993)"/><path d="M3055-176.65c0 10.6-8.95 19.17-20 19.17s-20-8.58-20-19.17c0-10.6 8.95-19.18 20-19.18s20 8.6 20 19.18z" stroke="#fe7070" stroke-width="2" fill="url(#x)"/><path d="M3020-185.65a6 6 0 0 1 6-6h18a6 6 0 0 1 6 6v18a6 6 0 0 1-6 6h-18a6 6 0 0 1-6-6z" stroke="#000" stroke-opacity="0" stroke-width="3" fill-opacity="0"/><use xlink:href="#y" transform="matrix(1,0,0,1,3025,-186.65111567802649) translate(-1.1111111111111072 15.999999999999995)"/><path d="M2860-106.33c0 10.6-8.95 19.18-20 19.18s-20-8.6-20-19.18c0-10.6 8.95-19.17 20-19.17s20 8.58 20 19.17z" stroke="#fe7070" stroke-width="2" fill="url(#z)"/><path d="M2825-115.33a6 6 0 0 1 6-6h18a6 6 0 0 1 6 6v18a6 6 0 0 1-6 6h-18a6 6 0 0 1-6-6z" stroke="#000" stroke-opacity="0" stroke-width="3" fill-opacity="0"/><use xlink:href="#A" transform="matrix(1,0,0,1,2830,-116.32605559885715) translate(4.444444444444446 17.249999999999993)"/><path d="M2935-106.33c0 10.6-8.95 19.18-20 19.18s-20-8.6-20-19.18c0-10.6 8.95-19.17 20-19.17s20 8.58 20 19.17z" stroke="#fe7070" stroke-width="2" fill="url(#B)"/><path d="M2900-115.33a6 6 0 0 1 6-6h18a6 6 0 0 1 6 6v18a6 6 0 0 1-6 6h-18a6 6 0 0 1-6-6z" stroke="#000" stroke-opacity="0" stroke-width="3" fill-opacity="0"/><use xlink:href="#j" transform="matrix(1,0,0,1,2905,-116.32605559885715) translate(4.444444444444446 17.249999999999993)"/><path d="M3090-106.33c0 10.6-8.95 19.18-20 19.18s-20-8.6-20-19.18c0-10.6 8.95-19.17 20-19.17s20 8.58 20 19.17z" stroke="#fe7070" stroke-width="2" fill="url(#C)"/><path d="M3055-115.33a6 6 0 0 1 6-6h18a6 6 0 0 1 6 6v18a6 6 0 0 1-6 6h-18a6 6 0 0 1-6-6z" stroke="#000" stroke-opacity="0" stroke-width="3" fill-opacity="0"/><use xlink:href="#D" transform="matrix(1,0,0,1,3060,-116.32605559885715) translate(-1.1111111111111072 15.999999999999995)"/><path d="M3025-106.33c0 10.6-8.95 19.18-20 19.18s-20-8.6-20-19.18c0-10.6 8.95-19.17 20-19.17s20 8.58 20 19.17z" stroke="#fe7070" stroke-width="2" fill="url(#E)"/><path d="M2990-115.33a6 6 0 0 1 6-6h18a6 6 0 0 1 6 6v18a6 6 0 0 1-6 6h-18a6 6 0 0 1-6-6z" stroke="#000" stroke-opacity="0" stroke-width="3" fill-opacity="0"/><use xlink:href="#t" transform="matrix(1,0,0,1,2995,-116.32605559885715) translate(-1.1111111111111072 15.999999999999995)"/><path d="M2954.37-195.2l-40.5 13.6-.65-1.9 40.5-13.6z" stroke="#979ea8" stroke-width=".05" fill="#979ea8"/><path d="M2958.16-196.48l-3.8 1.28-.5-1.4 1.1.13 1.65-.06 1.45-.3z" fill="#979ea8"/><path d="M2958.2-196.47l-3.87 1.3-.5-1.47 1.13.14 1.65-.06 1.47-.3zm-1.6-.04l-1.65.05-1.04-.13.46 1.35 3.77-1.27-.1-.3z" stroke="#979ea8" stroke-width=".05" fill="#979ea8"/><path d="M2914.07-177.83l-15 .15 12.04-8.94z" fill="#979ea8"/><path d="M2915.45-176.85l-19.45.2 15.62-11.6zm-13.3-1.86l10.53-.12-2.07-6.18z" stroke="#979ea8" stroke-width=".05" fill="#979ea8"/><use xlink:href="#o" transform="matrix(1,0,0,1,2925.5003119827898,-197.61393024542312) translate(0.005 18.26388888888889)"/><path d="M2955.95-196.16l40.5 13.62" stroke="#979ea8" stroke-width="2" fill="none"/><path d="M2954.95-196.47l1.14-.04-.45 1.3-3.8-1.28.1-.37z" stroke="#979ea8" stroke-width=".05" fill="#979ea8"/><path d="M3010.93-177.68l-15-.15 2.96-8.8z" stroke="#979ea8" stroke-width="2" fill="#979ea8"/><path d="M2875.8-155.88l24.4 18.28" stroke="#979ea8" stroke-width="2" fill="none"/><path d="M2874.95-156.47l1.37-.05-1.1 1.46-2.2-1.66z" stroke="#979ea8" stroke-width=".05" fill="#979ea8"/><path d="M2912.4-128.44l-14.18-4.85 5.55-7.4z" stroke="#979ea8" stroke-width="2" fill="#979ea8"/><path d="M2874.24-155.83l-20.2 17.3" stroke="#979ea8" stroke-width="2" fill="none"/><path d="M2874.95-156.47l1.65-.06-1.73 1.48-1.3-1.52.08-.07z" stroke="#979ea8" stroke-width=".05" fill="#979ea8"/><path d="M2842.46-128.6l7.82-12.8 6.03 7.03z" stroke="#979ea8" stroke-width="2" fill="#979ea8"/><path d="M3034.3-155.77l-16.2 16.2" stroke="#979ea8" stroke-width="2" fill="none"/><path d="M3034.95-156.47l1.52-.06-1.5 1.5-1.4-1.43.17-.17z" stroke="#979ea8" stroke-width=".05" fill="#979ea8"/><path d="M3007.3-128.8l6.8-13.35 6.56 6.56z" stroke="#979ea8" stroke-width="2" fill="#979ea8"/><path d="M3035.76-155.83l20.2 17.3" stroke="#979ea8" stroke-width="2" fill="none"/><path d="M3034.95-156.47l1.44-.06-1.27 1.48-1.92-1.64z" stroke="#979ea8" stroke-width=".05" fill="#979ea8"/><path d="M3067.54-128.6l-13.85-5.77 6.02-7.04z" stroke="#979ea8" stroke-width="2" fill="#979ea8"/><path d="M2995-36.65c0 10.6-8.95 19.17-20 19.17s-20-8.58-20-19.17c0-10.6 8.95-19.18 20-19.18s20 8.6 20 19.18z" stroke="#fe7070" stroke-width="2" fill="url(#F)"/><path d="M2960-45.65a6 6 0 0 1 6-6h18a6 6 0 0 1 6 6v18a6 6 0 0 1-6 6h-18a6 6 0 0 1-6-6z" stroke="#000" stroke-opacity="0" stroke-width="3" fill-opacity="0"/><use xlink:href="#G" transform="matrix(1,0,0,1,2965,-46.651115678026486) translate(-1.1111111111111072 15.999999999999995)"/><path d="M3003.7-85.5l-15.62 15.6" stroke="#979ea8" stroke-width="2" fill="none"/><path d="M3004.95-86.15l.82-.03-1.4 1.4-1.4-1.42.17-.18z" stroke="#979ea8" stroke-width=".05" fill="#979ea8"/><path d="M2977.3-59.1l6.8-13.38 6.55 6.56z" stroke="#979ea8" stroke-width="2" fill="#979ea8"/><path d="M3115-125.83a3.04 3.04 0 0 1 3.04-3.03h64.25a6 6 0 0 0 6-6v-4.97a2.18 2.18 0 0 1 3.84-1.4l9 10.8a7.18 7.18 0 0 1 0 9.2l-9 10.8a2.18 2.18 0 0 1-3.85-1.4v-4.96a6 6 0 0 0-6-6h-64.26a3.04 3.04 0 0 1-3.04-3.03z" stroke="#ba23f6" stroke-width="3" fill-opacity="0"/><path d="M3375-212.48c0 10.6-8.95 19.18-20 19.18s-20-8.6-20-19.18c0-10.6 8.95-19.17 20-19.17s20 8.58 20 19.17z" stroke="#fe7070" stroke-width="2" fill="url(#H)"/><path d="M3340-221.48a6 6 0 0 1 6-6h18a6 6 0 0 1 6 6v18a6 6 0 0 1-6 6h-18a6 6 0 0 1-6-6z" stroke="#000" stroke-opacity="0" stroke-width="3" fill-opacity="0"/><use xlink:href="#v" transform="matrix(1,0,0,1,3345,-222.47667351703973) translate(-1.1111111111111072 15.999999999999995)"/><path d="M3295-172.48c0 10.6-8.95 19.18-20 19.18s-20-8.6-20-19.18c0-10.6 8.95-19.17 20-19.17s20 8.58 20 19.17z" stroke="#fe7070" stroke-width="2" fill="url(#I)"/><path d="M3260-181.48a6 6 0 0 1 6-6h18a6 6 0 0 1 6 6v18a6 6 0 0 1-6 6h-18a6 6 0 0 1-6-6z" stroke="#000" stroke-opacity="0" stroke-width="3" fill-opacity="0"/><use xlink:href="#d" transform="matrix(1,0,0,1,3265,-182.47667351703973) translate(4.444444444444446 17.249999999999993)"/><path d="M3455-172.48c0 10.6-8.95 19.18-20 19.18s-20-8.6-20-19.18c0-10.6 8.95-19.17 20-19.17s20 8.58 20 19.17z" stroke="#fcce14" stroke-width="2" fill="url(#J)"/><path d="M3420-181.48a6 6 0 0 1 6-6h18a6 6 0 0 1 6 6v18a6 6 0 0 1-6 6h-18a6 6 0 0 1-6-6z" stroke="#000" stroke-opacity="0" stroke-width="3" fill-opacity="0"/><use xlink:href="#y" transform="matrix(1,0,0,1,3425,-182.47667351703973) translate(-1.1111111111111072 15.999999999999995)"/><path d="M3260-102.15c0 10.6-8.95 19.17-20 19.17s-20-8.58-20-19.17c0-10.6 8.95-19.18 20-19.18s20 8.6 20 19.18z" stroke="#fe7070" stroke-width="2" fill="url(#K)"/><path d="M3225-111.15a6 6 0 0 1 6-6h18a6 6 0 0 1 6 6v18a6 6 0 0 1-6 6h-18a6 6 0 0 1-6-6z" stroke="#000" stroke-opacity="0" stroke-width="3" fill-opacity="0"/><use xlink:href="#A" transform="matrix(1,0,0,1,3230,-112.1516134378704) translate(4.444444444444446 17.249999999999993)"/><path d="M3335-102.15c0 10.6-8.95 19.17-20 19.17s-20-8.58-20-19.17c0-10.6 8.95-19.18 20-19.18s20 8.6 20 19.18z" stroke="#fe7070" stroke-width="2" fill="url(#L)"/><path d="M3300-111.15a6 6 0 0 1 6-6h18a6 6 0 0 1 6 6v18a6 6 0 0 1-6 6h-18a6 6 0 0 1-6-6z" stroke="#000" stroke-opacity="0" stroke-width="3" fill-opacity="0"/><use xlink:href="#j" transform="matrix(1,0,0,1,3305,-112.1516134378704) translate(4.444444444444446 17.249999999999993)"/><path d="M3490-102.15c0 10.6-8.95 19.17-20 19.17s-20-8.58-20-19.17c0-10.6 8.95-19.18 20-19.18s20 8.6 20 19.18z" stroke="#fe7070" stroke-width="2" fill="url(#M)"/><path d="M3455-111.15a6 6 0 0 1 6-6h18a6 6 0 0 1 6 6v18a6 6 0 0 1-6 6h-18a6 6 0 0 1-6-6z" stroke="#000" stroke-opacity="0" stroke-width="3" fill-opacity="0"/><use xlink:href="#D" transform="matrix(1,0,0,1,3460,-112.1516134378704) translate(-1.1111111111111072 15.999999999999995)"/><path d="M3425-102.15c0 10.6-8.95 19.17-20 19.17s-20-8.58-20-19.17c0-10.6 8.95-19.18 20-19.18s20 8.6 20 19.18z" stroke="#fe7070" stroke-width="2" fill="url(#N)"/><path d="M3390-111.15a6 6 0 0 1 6-6h18a6 6 0 0 1 6 6v18a6 6 0 0 1-6 6h-18a6 6 0 0 1-6-6z" stroke="#000" stroke-opacity="0" stroke-width="3" fill-opacity="0"/><use xlink:href="#t" transform="matrix(1,0,0,1,3395,-112.1516134378704) translate(-1.1111111111111072 15.999999999999995)"/><path d="M3354.37-191.03l-40.5 13.6-.65-1.9 40.5-13.6z" stroke="#979ea8" stroke-width=".05" fill="#979ea8"/><path d="M3358.16-192.3l-3.8 1.27-.5-1.4 1.1.13 1.65-.06 1.45-.28z" fill="#979ea8"/><path d="M3358.2-192.3l-3.87 1.3-.5-1.47 1.13.15 1.65-.06 1.47-.3zm-1.6-.03l-1.65.06-1.04-.13.46 1.34 3.77-1.26-.1-.3z" stroke="#979ea8" stroke-width=".05" fill="#979ea8"/><path d="M3314.07-173.66l-15 .15 12.04-8.94z" fill="#979ea8"/><path d="M3315.45-172.67l-19.45.2 15.62-11.6zm-13.3-1.87l10.53-.1-2.07-6.18z" stroke="#979ea8" stroke-width=".05" fill="#979ea8"/><use xlink:href="#o" transform="matrix(1,0,0,1,3325.5003119827898,-193.43948808443636) translate(0.005 18.26388888888889)"/><path d="M3355.95-191.98l40.5 13.6" stroke="#979ea8" stroke-width="2" fill="none"/><path d="M3354.95-192.3l1.14-.04-.45 1.3-3.8-1.27.1-.37z" stroke="#979ea8" stroke-width=".05" fill="#979ea8"/><path d="M3410.93-173.5l-15-.16 2.96-8.78z" stroke="#979ea8" stroke-width="2" fill="#979ea8"/><path d="M3275.8-151.7l24.4 18.28" stroke="#979ea8" stroke-width="2" fill="none"/><path d="M3274.95-152.3l1.37-.05-1.1 1.46-2.2-1.64z" stroke="#979ea8" stroke-width=".05" fill="#979ea8"/><path d="M3312.4-124.27l-14.18-4.84 5.55-7.43z" stroke="#979ea8" stroke-width="2" fill="#979ea8"/><path d="M3274.24-151.65l-20.2 17.3" stroke="#979ea8" stroke-width="2" fill="none"/><path d="M3274.95-152.3l1.65-.06-1.73 1.5-1.3-1.53.08-.06z" stroke="#979ea8" stroke-width=".05" fill="#979ea8"/><path d="M3242.46-124.43l7.82-12.8 6.03 7.04z" stroke="#979ea8" stroke-width="2" fill="#979ea8"/><path d="M3434.3-151.6l-16.2 16.2" stroke="#979ea8" stroke-width="2" fill="none"/><path d="M3434.95-152.3l1.52-.05-1.5 1.48-1.4-1.4.17-.18z" stroke="#979ea8" stroke-width=".05" fill="#979ea8"/><path d="M3407.3-124.6l6.8-13.38 6.56 6.56z" stroke="#979ea8" stroke-width="2" fill="#979ea8"/><path d="M3435.76-151.65l20.2 17.3" stroke="#979ea8" stroke-width="2" fill="none"/><path d="M3434.95-152.3l1.44-.05-1.27 1.47-1.92-1.64z" stroke="#979ea8" stroke-width=".05" fill="#979ea8"/><path d="M3467.54-124.43l-13.85-5.76 6.02-7.03z" stroke="#979ea8" stroke-width="2" fill="#979ea8"/><path d="M3395-32.48c0 10.6-8.95 19.18-20 19.18s-20-8.6-20-19.18c0-10.6 8.95-19.17 20-19.17s20 8.58 20 19.17z" stroke="#fe7070" stroke-width="2" fill="url(#O)"/><path d="M3360-41.48a6 6 0 0 1 6-6h18a6 6 0 0 1 6 6v18a6 6 0 0 1-6 6h-18a6 6 0 0 1-6-6z" stroke="#000" stroke-opacity="0" stroke-width="3" fill-opacity="0"/><use xlink:href="#G" transform="matrix(1,0,0,1,3365,-42.47667351703973) translate(-1.1111111111111072 15.999999999999995)"/><path d="M3403.7-81.34l-15.62 15.6" stroke="#979ea8" stroke-width="2" fill="none"/><path d="M3404.95-81.97l.82-.03-1.4 1.4-1.4-1.43.17-.17z" stroke="#979ea8" stroke-width=".05" fill="#979ea8"/><path d="M3377.3-54.94l6.8-13.37 6.55 6.55z" stroke="#979ea8" stroke-width="2" fill="#979ea8"/><path d="M3515-121.65a3.04 3.04 0 0 1 3.04-3.04h64.25a6 6 0 0 0 6-6v-4.95a2.18 2.18 0 0 1 3.84-1.4l9 10.8a7.18 7.18 0 0 1 0 9.2l-9 10.8a2.18 2.18 0 0 1-3.85-1.4v-4.96a6 6 0 0 0-6-6h-64.26a3.04 3.04 0 0 1-3.04-3.05z" stroke="#ba23f6" stroke-width="3" fill-opacity="0"/><path d="M3775-208.3c0 10.6-8.95 19.17-20 19.17s-20-8.58-20-19.17c0-10.6 8.95-19.18 20-19.18s20 8.6 20 19.18z" stroke="#fe7070" stroke-width="2" fill="url(#P)"/><path d="M3740-217.3a6 6 0 0 1 6-6h18a6 6 0 0 1 6 6v18a6 6 0 0 1-6 6h-18a6 6 0 0 1-6-6z" stroke="#000" stroke-opacity="0" stroke-width="3" fill-opacity="0"/><use xlink:href="#v" transform="matrix(1,0,0,1,3745,-218.30223135605297) translate(-1.1111111111111072 15.999999999999995)"/><path d="M3695-168.3c0 10.6-8.95 19.17-20 19.17s-20-8.58-20-19.17c0-10.6 8.95-19.18 20-19.18s20 8.6 20 19.18z" stroke="#fe7070" stroke-width="2" fill="url(#Q)"/><path d="M3660-177.3a6 6 0 0 1 6-6h18a6 6 0 0 1 6 6v18a6 6 0 0 1-6 6h-18a6 6 0 0 1-6-6z" stroke="#000" stroke-opacity="0" stroke-width="3" fill-opacity="0"/><use xlink:href="#d" transform="matrix(1,0,0,1,3665,-178.30223135605297) translate(4.444444444444446 17.249999999999993)"/><path d="M3855-168.3c0 10.6-8.95 19.17-20 19.17s-20-8.58-20-19.17c0-10.6 8.95-19.18 20-19.18s20 8.6 20 19.18z" stroke="#fe7070" stroke-width="2" fill="url(#R)"/><path d="M3820-177.3a6 6 0 0 1 6-6h18a6 6 0 0 1 6 6v18a6 6 0 0 1-6 6h-18a6 6 0 0 1-6-6z" stroke="#000" stroke-opacity="0" stroke-width="3" fill-opacity="0"/><use xlink:href="#y" transform="matrix(1,0,0,1,3825,-178.30223135605297) translate(-1.1111111111111072 15.999999999999995)"/><path d="M3660-97.98c0 10.6-8.95 19.18-20 19.18s-20-8.6-20-19.18c0-10.6 8.95-19.17 20-19.17s20 8.58 20 19.17z" stroke="#fe7070" stroke-width="2" fill="url(#S)"/><path d="M3625-106.98a6 6 0 0 1 6-6h18a6 6 0 0 1 6 6v18a6 6 0 0 1-6 6h-18a6 6 0 0 1-6-6z" stroke="#000" stroke-opacity="0" stroke-width="3" fill-opacity="0"/><use xlink:href="#A" transform="matrix(1,0,0,1,3630,-107.97717127688364) translate(4.444444444444446 17.249999999999993)"/><path d="M3735-97.98c0 10.6-8.95 19.18-20 19.18s-20-8.6-20-19.18c0-10.6 8.95-19.17 20-19.17s20 8.58 20 19.17z" stroke="#fe7070" stroke-width="2" fill="url(#T)"/><path d="M3700-106.98a6 6 0 0 1 6-6h18a6 6 0 0 1 6 6v18a6 6 0 0 1-6 6h-18a6 6 0 0 1-6-6z" stroke="#000" stroke-opacity="0" stroke-width="3" fill-opacity="0"/><use xlink:href="#j" transform="matrix(1,0,0,1,3705,-107.97717127688364) translate(4.444444444444446 17.249999999999993)"/><path d="M3890-97.98c0 10.6-8.95 19.18-20 19.18s-20-8.6-20-19.18c0-10.6 8.95-19.17 20-19.17s20 8.58 20 19.17z" stroke="#fe7070" stroke-width="2" fill="url(#U)"/><path d="M3855-106.98a6 6 0 0 1 6-6h18a6 6 0 0 1 6 6v18a6 6 0 0 1-6 6h-18a6 6 0 0 1-6-6z" stroke="#000" stroke-opacity="0" stroke-width="3" fill-opacity="0"/><use xlink:href="#D" transform="matrix(1,0,0,1,3860,-107.97717127688364) translate(-1.1111111111111072 15.999999999999995)"/><path d="M3825-97.98c0 10.6-8.95 19.18-20 19.18s-20-8.6-20-19.18c0-10.6 8.95-19.17 20-19.17s20 8.58 20 19.17z" stroke="#fcce14" stroke-width="2" fill="url(#V)"/><path d="M3790-106.98a6 6 0 0 1 6-6h18a6 6 0 0 1 6 6v18a6 6 0 0 1-6 6h-18a6 6 0 0 1-6-6z" stroke="#000" stroke-opacity="0" stroke-width="3" fill-opacity="0"/><use xlink:href="#t" transform="matrix(1,0,0,1,3795,-107.97717127688364) translate(-1.1111111111111072 15.999999999999995)"/><path d="M3754.37-186.86l-40.5 13.6-.65-1.88 40.5-13.62z" stroke="#979ea8" stroke-width=".05" fill="#979ea8"/><path d="M3758.16-188.13l-3.8 1.28-.5-1.4 1.1.12 1.65-.05 1.45-.3z" fill="#979ea8"/><path d="M3758.2-188.12l-3.87 1.3-.5-1.47 1.13.15 1.65-.06 1.47-.3zm-1.6-.04l-1.65.06-1.04-.13.46 1.35 3.77-1.27-.1-.3z" stroke="#979ea8" stroke-width=".05" fill="#979ea8"/><path d="M3714.07-169.48l-15 .15 12.04-8.94z" fill="#979ea8"/><path d="M3715.45-168.5l-19.45.2 15.62-11.6zm-13.3-1.86l10.53-.1-2.07-6.2z" stroke="#979ea8" stroke-width=".05" fill="#979ea8"/><use xlink:href="#o" transform="matrix(1,0,0,1,3725.5003119827898,-189.2650459234496) translate(0.005 18.26388888888889)"/><path d="M3755.95-187.8l40.5 13.6" stroke="#979ea8" stroke-width="2" fill="none"/><path d="M3754.95-188.13l1.14-.04-.45 1.32-3.8-1.28.1-.37z" stroke="#979ea8" stroke-width=".05" fill="#979ea8"/><path d="M3810.93-169.33l-15-.15 2.96-8.8z" stroke="#979ea8" stroke-width="2" fill="#979ea8"/><path d="M3675.8-147.53l24.4 18.28" stroke="#979ea8" stroke-width="2" fill="none"/><path d="M3674.95-148.13l1.37-.04-1.1 1.46-2.2-1.67z" stroke="#979ea8" stroke-width=".05" fill="#979ea8"/><path d="M3712.4-120.1l-14.18-4.84 5.55-7.42z" stroke="#979ea8" stroke-width="2" fill="#979ea8"/><path d="M3674.24-147.48l-20.2 17.3" stroke="#979ea8" stroke-width="2" fill="none"/><path d="M3674.95-148.13l1.65-.05-1.73 1.48-1.3-1.52.08-.07z" stroke="#979ea8" stroke-width=".05" fill="#979ea8"/><path d="M3642.46-120.26l7.82-12.8 6.03 7.04z" stroke="#979ea8" stroke-width="2" fill="#979ea8"/><path d="M3834.3-147.42l-16.2 16.2" stroke="#979ea8" stroke-width="2" fill="none"/><path d="M3834.95-148.13l1.52-.05-1.5 1.5-1.4-1.43.17-.18z" stroke="#979ea8" stroke-width=".05" fill="#979ea8"/><path d="M3807.3-120.44l6.8-13.36 6.56 6.56z" stroke="#979ea8" stroke-width="2" fill="#979ea8"/><path d="M3835.76-147.48l20.2 17.3" stroke="#979ea8" stroke-width="2" fill="none"/><path d="M3834.95-148.13l1.44-.05-1.27 1.48-1.92-1.64z" stroke="#979ea8" stroke-width=".05" fill="#979ea8"/><path d="M3867.54-120.26l-13.85-5.76 6.02-7.04z" stroke="#979ea8" stroke-width="2" fill="#979ea8"/><path d="M3795-28.3c0 10.6-8.95 19.17-20 19.17s-20-8.58-20-19.17c0-10.6 8.95-19.18 20-19.18s20 8.6 20 19.18z" stroke="#fe7070" stroke-width="2" fill="url(#W)"/><path d="M3760-37.3a6 6 0 0 1 6-6h18a6 6 0 0 1 6 6v18a6 6 0 0 1-6 6h-18a6 6 0 0 1-6-6z" stroke="#000" stroke-opacity="0" stroke-width="3" fill-opacity="0"/><use xlink:href="#G" transform="matrix(1,0,0,1,3765,-38.30223135605297) translate(-1.1111111111111072 15.999999999999995)"/><path d="M3803.7-77.16l-15.62 15.6" stroke="#979ea8" stroke-width="2" fill="none"/><path d="M3804.95-77.8l.82-.03-1.4 1.4-1.4-1.42.17-.18z" stroke="#979ea8" stroke-width=".05" fill="#979ea8"/><path d="M3777.3-50.77l6.8-13.36 6.55 6.55z" stroke="#979ea8" stroke-width="2" fill="#979ea8"/><defs><radialGradient gradientUnits="userSpaceOnUse" id="a" fx="2560" fy="-220.83" cx="2560" cy="-220.83" r="20.54"><stop offset="0%" stop-color="#fe7474" stop-opacity=".4"/><stop offset="60%" stop-color="#fe7070" stop-opacity=".6"/><stop offset="100%" stop-color="#fb6f6f"/></radialGradient><path d="M23 0v-37h61v-169l-59 37v-38l62-41h46v211h57V0H23" id="X"/><path d="M139-81c0-46-55-55-73-27H18l9-140h149v37H72l-4 63c44-38 133-4 122 66C201 21 21 35 11-62l49-4c5 18 15 30 39 30 26 0 40-18 40-45" id="Y"/><g id="b"><use transform="matrix(0.05555555555555554,0,0,0.05555555555555554,0,0)" xlink:href="#X"/><use transform="matrix(0.05555555555555554,0,0,0.05555555555555554,11.111111111111107,0)" xlink:href="#Y"/></g><radialGradient gradientUnits="userSpaceOnUse" id="c" fx="2480" fy="-180.83" cx="2480" cy="-180.83" r="20.54"><stop offset="0%" stop-color="#fe7474" stop-opacity=".4"/><stop offset="60%" stop-color="#fe7070" stop-opacity=".6"/><stop offset="100%" stop-color="#fb6f6f"/></radialGradient><path d="M115-159c48 0 72 30 72 78 0 54-30 85-83 85-64 0-91-50-91-122 0-98 58-163 141-120 15 8 21 24 27 44l-47 6c-5-31-48-31-61-4-7 14-11 33-11 60 9-17 28-27 53-27zM102-35c24 0 36-20 36-45s-11-43-37-43c-23 0-36 14-36 38 0 27 11 50 37 50" id="Z"/><use transform="matrix(0.05555555555555554,0,0,0.05555555555555554,0,0)" xlink:href="#Z" id="d"/><radialGradient gradientUnits="userSpaceOnUse" id="e" fx="2640" fy="-180.83" cx="2640" cy="-180.83" r="20.54"><stop offset="0%" stop-color="#fe7474" stop-opacity=".4"/><stop offset="60%" stop-color="#fe7070" stop-opacity=".6"/><stop offset="100%" stop-color="#fb6f6f"/></radialGradient><path d="M182-182c0 78-84 86-111 141h115V0H12c-6-101 99-100 120-180 1-22-12-31-33-32-23 0-32 14-35 34l-49-3c5-45 32-70 84-70 51 0 83 22 83 69" id="aa"/><path d="M101-251c68 0 84 54 84 127C185-50 166 4 99 4S15-52 14-124c-1-75 17-127 87-127zm-1 216c37-5 36-46 36-89s4-89-36-89c-39 0-36 45-36 89 0 43-3 85 36 89" id="ab"/><g id="f"><use transform="matrix(0.05555555555555554,0,0,0.05555555555555554,0,0)" xlink:href="#aa"/><use transform="matrix(0.05555555555555554,0,0,0.05555555555555554,11.111111111111107,0)" xlink:href="#ab"/></g><radialGradient gradientUnits="userSpaceOnUse" id="g" fx="2445" fy="-110.5" cx="2445" cy="-110.5" r="20.54"><stop offset="0%" stop-color="#fe7474" stop-opacity=".4"/><stop offset="60%" stop-color="#fe7070" stop-opacity=".6"/><stop offset="100%" stop-color="#fb6f6f"/></radialGradient><path d="M128-127c34 4 56 21 59 58 7 91-148 94-172 28-4-9-6-17-7-26l51-5c1 24 16 35 40 36 23 0 39-12 38-36-1-31-31-36-65-34v-40c32 2 59-3 59-33 0-20-13-33-34-33s-33 13-35 32l-50-3c6-44 37-68 86-68 50 0 83 20 83 66 0 35-22 52-53 58" id="ac"/><use transform="matrix(0.05555555555555554,0,0,0.05555555555555554,0,0)" xlink:href="#ac" id="h"/><radialGradient gradientUnits="userSpaceOnUse" id="i" fx="2520" fy="-110.5" cx="2520" cy="-110.5" r="20.54"><stop offset="0%" stop-color="#fe7474" stop-opacity=".4"/><stop offset="60%" stop-color="#fe7070" stop-opacity=".6"/><stop offset="100%" stop-color="#fb6f6f"/></radialGradient><path d="M52 0c1-96 47-148 87-207H15v-41h169v40c-36 62-79 113-81 208H52" id="ad"/><use transform="matrix(0.05555555555555554,0,0,0.05555555555555554,0,0)" xlink:href="#ad" id="j"/><radialGradient gradientUnits="userSpaceOnUse" id="k" fx="2675" fy="-110.5" cx="2675" cy="-110.5" r="20.54"><stop offset="0%" stop-color="#fe7474" stop-opacity=".4"/><stop offset="60%" stop-color="#fe7070" stop-opacity=".6"/><stop offset="100%" stop-color="#fb6f6f"/></radialGradient><g id="l"><use transform="matrix(0.05555555555555554,0,0,0.05555555555555554,0,0)" xlink:href="#aa"/><use transform="matrix(0.05555555555555554,0,0,0.05555555555555554,11.111111111111107,0)" xlink:href="#ad"/></g><radialGradient gradientUnits="userSpaceOnUse" id="m" fx="2610" fy="-110.5" cx="2610" cy="-110.5" r="20.54"><stop offset="0%" stop-color="#fe7474" stop-opacity=".4"/><stop offset="60%" stop-color="#fe7070" stop-opacity=".6"/><stop offset="100%" stop-color="#fb6f6f"/></radialGradient><path d="M138-131c27 9 52 24 51 61 0 53-36 74-89 74S11-19 11-69c0-35 22-54 51-61-78-25-46-121 38-121 51 0 83 19 83 66 0 30-18 49-45 54zm-38-16c24 0 32-13 32-36 1-23-11-34-32-34-22 0-33 12-32 34 0 22 9 36 32 36zm1 116c27 0 37-17 37-43 0-25-13-39-39-39-24 0-37 15-37 40 0 27 11 42 39 42" id="ae"/><g id="n"><use transform="matrix(0.05555555555555554,0,0,0.05555555555555554,0,0)" xlink:href="#X"/><use transform="matrix(0.05555555555555554,0,0,0.05555555555555554,11.111111111111107,0)" xlink:href="#ae"/></g><radialGradient gradientUnits="userSpaceOnUse" id="p" fx="2580" fy="-40.83" cx="2580" cy="-40.83" r="20.54"><stop offset="0%" stop-color="#fe7474" stop-opacity=".4"/><stop offset="60%" stop-color="#fe7070" stop-opacity=".6"/><stop offset="100%" stop-color="#fb6f6f"/></radialGradient><g id="q"><use transform="matrix(0.05555555555555554,0,0,0.05555555555555554,0,0)" xlink:href="#X"/><use transform="matrix(0.05555555555555554,0,0,0.05555555555555554,11.111111111111107,0)" xlink:href="#Z"/></g><path fill="#e08fff" d="M68-174c-8-157-1-333-1-488 0-23-21-28-12-60 24-87 141-85 256-77 161 12 317 42 251 258-5 17-40 45-44 60 15 30 85 80 98 123 62 108 25 192-76 258C455-45 341-9 207-4 145-2 19-30 19-85c0-36 51-41 49-89zm137-510c-18 6-26 137-16 192 30 22 66 2 112-6 70-13 158-95 159-132 17-68-169-82-255-54zm-15 330c-15 57-2 155 5 215 6 4 6 12 18 11 101-5 211-32 267-82 52-46 58-91 12-140s-73-73-81-73c-39 14-121 48-173 54-15 2-34 14-48 15" id="af"/><path fill="#e08fff" d="M106-737c41-53 131 12 108 86-42 139-71 285-71 455 0 88 72 66 143 48 49-12 128-35 183-63 38-19 36-69 44-119 17-114 31-247 31-354 0-57 26-85 79-85 37 0 55 27 55 81 0 190-34 397-59 573 4 31 20 93-13 105-8 10-30 7-65-8-16-20-33-38-51-54C397-48 305 0 205 0 79 0 5-43 13-176c13-196 50-391 93-561" id="ag"/><path fill="#e08fff" d="M371-533c189 0 256 55 239 237-9 91-67 138-157 205C374-33 301-7 236-7 155-7 13-82 18-160c3-44 62-73 96-38 43 44 152 73 218 29 77-51 166-125 156-169 2-44-67-63-119-62-47 1-108 1-155 3C87-393 13-429 1-531c11-87 101-150 165-187 90-52 160-96 290-87 34 2 118 78 115 115-3 35-23 38-55 45-15 4-26-4-33-24-37-64-116-1-164 12-41 11-154 77-154 113 0 15 14 22 41 22 45 0 127-11 165-11" id="ah"/><path fill="#e08fff" d="M521-275c40-33 108-24 108 34 0 49-75 103-210 183-80 47-247 72-323 10-66-54-95-101-82-218 12-106 41-136 91-224 55-96 145-209 240-278 32-23 68-33 107-33 86 2 108 61 107 158 0 55-15 82-44 82-55 1-25-116-79-110-132 15-229 223-291 334-48 86-31 226 81 218 122-9 217-92 295-156" id="ai"/><path fill="#e08fff" d="M44-443c79-191 208-366 448-366 141 0 239 118 267 253 46 222-61 413-213 490-83 42-221 78-338 30-55-23-106-43-129-82-26-14-80-140-57-202 2-41 8-89 22-123zm103 115c1 136 75 191 208 191 130 0 180-50 241-135 38-53 55-111 55-169 0-109-73-236-179-227-143 12-260 151-311 271-9 24-14 47-14 69" id="aj"/><path fill="#e08fff" d="M95-352c46 0 98-50 98-97 0-70-128-102-164-40-34 59-2 137 66 137zM93-47c47 0 96-50 96-96 0-41-53-72-92-72-54-1-84 29-84 81 0 50 30 87 80 87" id="ak"/><g id="r"><use transform="matrix(0.01555555555555555,0,0,0.01555555555555555,0,0)" xlink:href="#af"/><use transform="matrix(0.01555555555555555,0,0,0.01555555555555555,10.002222222222219,0)" xlink:href="#ag"/><use transform="matrix(0.01555555555555555,0,0,0.01555555555555555,20.937777777777768,0)" xlink:href="#ah"/><use transform="matrix(0.01555555555555555,0,0,0.01555555555555555,30.75333333333332,0)" xlink:href="#ai"/><use transform="matrix(0.01555555555555555,0,0,0.01555555555555555,40.61555555555554,0)" xlink:href="#aj"/><use transform="matrix(0.01555555555555555,0,0,0.01555555555555555,53.10666666666664,0)" xlink:href="#ak"/></g><radialGradient gradientUnits="userSpaceOnUse" id="s" fx="2800" fy="-185" cx="2800" cy="-185" r="20.54"><stop offset="0%" stop-color="#e193ff" stop-opacity=".4"/><stop offset="60%" stop-color="#e08fff" stop-opacity=".6"/><stop offset="100%" stop-color="#dd8dfc"/></radialGradient><g id="t"><use transform="matrix(0.05555555555555554,0,0,0.05555555555555554,0,0)" xlink:href="#X"/><use transform="matrix(0.05555555555555554,0,0,0.05555555555555554,11.111111111111107,0)" xlink:href="#ae"/></g><radialGradient gradientUnits="userSpaceOnUse" id="u" fx="2955" fy="-216.65" cx="2955" cy="-216.65" r="20.54"><stop offset="0%" stop-color="#fcd01b" stop-opacity=".4"/><stop offset="60%" stop-color="#fcce14" stop-opacity=".6"/><stop offset="100%" stop-color="#f9cb14"/></radialGradient><g id="v"><use transform="matrix(0.05555555555555554,0,0,0.05555555555555554,0,0)" xlink:href="#X"/><use transform="matrix(0.05555555555555554,0,0,0.05555555555555554,11.111111111111107,0)" xlink:href="#Y"/></g><radialGradient gradientUnits="userSpaceOnUse" id="w" fx="2875" fy="-176.65" cx="2875" cy="-176.65" r="20.54"><stop offset="0%" stop-color="#fe7474" stop-opacity=".4"/><stop offset="60%" stop-color="#fe7070" stop-opacity=".6"/><stop offset="100%" stop-color="#fb6f6f"/></radialGradient><radialGradient gradientUnits="userSpaceOnUse" id="x" fx="3035" fy="-176.65" cx="3035" cy="-176.65" r="20.54"><stop offset="0%" stop-color="#fe7474" stop-opacity=".4"/><stop offset="60%" stop-color="#fe7070" stop-opacity=".6"/><stop offset="100%" stop-color="#fb6f6f"/></radialGradient><g id="y"><use transform="matrix(0.05555555555555554,0,0,0.05555555555555554,0,0)" xlink:href="#aa"/><use transform="matrix(0.05555555555555554,0,0,0.05555555555555554,11.111111111111107,0)" xlink:href="#ab"/></g><radialGradient gradientUnits="userSpaceOnUse" id="z" fx="2840" fy="-106.33" cx="2840" cy="-106.33" r="20.54"><stop offset="0%" stop-color="#fe7474" stop-opacity=".4"/><stop offset="60%" stop-color="#fe7070" stop-opacity=".6"/><stop offset="100%" stop-color="#fb6f6f"/></radialGradient><use transform="matrix(0.05555555555555554,0,0,0.05555555555555554,0,0)" xlink:href="#ac" id="A"/><radialGradient gradientUnits="userSpaceOnUse" id="B" fx="2915" fy="-106.33" cx="2915" cy="-106.33" r="20.54"><stop offset="0%" stop-color="#fe7474" stop-opacity=".4"/><stop offset="60%" stop-color="#fe7070" stop-opacity=".6"/><stop offset="100%" stop-color="#fb6f6f"/></radialGradient><radialGradient gradientUnits="userSpaceOnUse" id="C" fx="3070" fy="-106.33" cx="3070" cy="-106.33" r="20.54"><stop offset="0%" stop-color="#fe7474" stop-opacity=".4"/><stop offset="60%" stop-color="#fe7070" stop-opacity=".6"/><stop offset="100%" stop-color="#fb6f6f"/></radialGradient><g id="D"><use transform="matrix(0.05555555555555554,0,0,0.05555555555555554,0,0)" xlink:href="#aa"/><use transform="matrix(0.05555555555555554,0,0,0.05555555555555554,11.111111111111107,0)" xlink:href="#ad"/></g><radialGradient gradientUnits="userSpaceOnUse" id="E" fx="3005" fy="-106.33" cx="3005" cy="-106.33" r="20.54"><stop offset="0%" stop-color="#fe7474" stop-opacity=".4"/><stop offset="60%" stop-color="#fe7070" stop-opacity=".6"/><stop offset="100%" stop-color="#fb6f6f"/></radialGradient><radialGradient gradientUnits="userSpaceOnUse" id="F" fx="2975" fy="-36.65" cx="2975" cy="-36.65" r="20.54"><stop offset="0%" stop-color="#fe7474" stop-opacity=".4"/><stop offset="60%" stop-color="#fe7070" stop-opacity=".6"/><stop offset="100%" stop-color="#fb6f6f"/></radialGradient><g id="G"><use transform="matrix(0.05555555555555554,0,0,0.05555555555555554,0,0)" xlink:href="#X"/><use transform="matrix(0.05555555555555554,0,0,0.05555555555555554,11.111111111111107,0)" xlink:href="#Z"/></g><radialGradient gradientUnits="userSpaceOnUse" id="H" fx="3355" fy="-212.48" cx="3355" cy="-212.48" r="20.54"><stop offset="0%" stop-color="#fe7474" stop-opacity=".4"/><stop offset="60%" stop-color="#fe7070" stop-opacity=".6"/><stop offset="100%" stop-color="#fb6f6f"/></radialGradient><radialGradient gradientUnits="userSpaceOnUse" id="I" fx="3275" fy="-172.48" cx="3275" cy="-172.48" r="20.54"><stop offset="0%" stop-color="#fe7474" stop-opacity=".4"/><stop offset="60%" stop-color="#fe7070" stop-opacity=".6"/><stop offset="100%" stop-color="#fb6f6f"/></radialGradient><radialGradient gradientUnits="userSpaceOnUse" id="J" fx="3435" fy="-172.48" cx="3435" cy="-172.48" r="20.54"><stop offset="0%" stop-color="#fcd01b" stop-opacity=".4"/><stop offset="60%" stop-color="#fcce14" stop-opacity=".6"/><stop offset="100%" stop-color="#f9cb14"/></radialGradient><radialGradient gradientUnits="userSpaceOnUse" id="K" fx="3240" fy="-102.15" cx="3240" cy="-102.15" r="20.54"><stop offset="0%" stop-color="#fe7474" stop-opacity=".4"/><stop offset="60%" stop-color="#fe7070" stop-opacity=".6"/><stop offset="100%" stop-color="#fb6f6f"/></radialGradient><radialGradient gradientUnits="userSpaceOnUse" id="L" fx="3315" fy="-102.15" cx="3315" cy="-102.15" r="20.54"><stop offset="0%" stop-color="#fe7474" stop-opacity=".4"/><stop offset="60%" stop-color="#fe7070" stop-opacity=".6"/><stop offset="100%" stop-color="#fb6f6f"/></radialGradient><radialGradient gradientUnits="userSpaceOnUse" id="M" fx="3470" fy="-102.15" cx="3470" cy="-102.15" r="20.54"><stop offset="0%" stop-color="#fe7474" stop-opacity=".4"/><stop offset="60%" stop-color="#fe7070" stop-opacity=".6"/><stop offset="100%" stop-color="#fb6f6f"/></radialGradient><radialGradient gradientUnits="userSpaceOnUse" id="N" fx="3405" fy="-102.15" cx="3405" cy="-102.15" r="20.54"><stop offset="0%" stop-color="#fe7474" stop-opacity=".4"/><stop offset="60%" stop-color="#fe7070" stop-opacity=".6"/><stop offset="100%" stop-color="#fb6f6f"/></radialGradient><radialGradient gradientUnits="userSpaceOnUse" id="O" fx="3375" fy="-32.48" cx="3375" cy="-32.48" r="20.54"><stop offset="0%" stop-color="#fe7474" stop-opacity=".4"/><stop offset="60%" stop-color="#fe7070" stop-opacity=".6"/><stop offset="100%" stop-color="#fb6f6f"/></radialGradient><radialGradient gradientUnits="userSpaceOnUse" id="P" fx="3755" fy="-208.3" cx="3755" cy="-208.3" r="20.54"><stop offset="0%" stop-color="#fe7474" stop-opacity=".4"/><stop offset="60%" stop-color="#fe7070" stop-opacity=".6"/><stop offset="100%" stop-color="#fb6f6f"/></radialGradient><radialGradient gradientUnits="userSpaceOnUse" id="Q" fx="3675" fy="-168.3" cx="3675" cy="-168.3" r="20.54"><stop offset="0%" stop-color="#fe7474" stop-opacity=".4"/><stop offset="60%" stop-color="#fe7070" stop-opacity=".6"/><stop offset="100%" stop-color="#fb6f6f"/></radialGradient><radialGradient gradientUnits="userSpaceOnUse" id="R" fx="3835" fy="-168.3" cx="3835" cy="-168.3" r="20.54"><stop offset="0%" stop-color="#fe7474" stop-opacity=".4"/><stop offset="60%" stop-color="#fe7070" stop-opacity=".6"/><stop offset="100%" stop-color="#fb6f6f"/></radialGradient><radialGradient gradientUnits="userSpaceOnUse" id="S" fx="3640" fy="-97.98" cx="3640" cy="-97.98" r="20.54"><stop offset="0%" stop-color="#fe7474" stop-opacity=".4"/><stop offset="60%" stop-color="#fe7070" stop-opacity=".6"/><stop offset="100%" stop-color="#fb6f6f"/></radialGradient><radialGradient gradientUnits="userSpaceOnUse" id="T" fx="3715" fy="-97.98" cx="3715" cy="-97.98" r="20.54"><stop offset="0%" stop-color="#fe7474" stop-opacity=".4"/><stop offset="60%" stop-color="#fe7070" stop-opacity=".6"/><stop offset="100%" stop-color="#fb6f6f"/></radialGradient><radialGradient gradientUnits="userSpaceOnUse" id="U" fx="3870" fy="-97.98" cx="3870" cy="-97.98" r="20.54"><stop offset="0%" stop-color="#fe7474" stop-opacity=".4"/><stop offset="60%" stop-color="#fe7070" stop-opacity=".6"/><stop offset="100%" stop-color="#fb6f6f"/></radialGradient><radialGradient gradientUnits="userSpaceOnUse" id="V" fx="3805" fy="-97.98" cx="3805" cy="-97.98" r="20.54"><stop offset="0%" stop-color="#fcd01b" stop-opacity=".4"/><stop offset="60%" stop-color="#fcce14" stop-opacity=".6"/><stop offset="100%" stop-color="#f9cb14"/></radialGradient><radialGradient gradientUnits="userSpaceOnUse" id="W" fx="3775" fy="-28.3" cx="3775" cy="-28.3" r="20.54"><stop offset="0%" stop-color="#fe7474" stop-opacity=".4"/><stop offset="60%" stop-color="#fe7070" stop-opacity=".6"/><stop offset="100%" stop-color="#fb6f6f"/></radialGradient></defs></g></svg>