<svg xmlns="http://www.w3.org/2000/svg" xmlns:xlink="http://www.w3.org/1999/xlink" xmlns:lucid="lucid" width="1127" height="267.05"><g transform="translate(-2404 263.5233264829603)" lucid:page-tab-id="0_0"><path d="M2580-220.83c0 10.6-8.95 19.18-20 19.18s-20-8.6-20-19.18 8.95-19.17 20-19.17 20 8.6 20 19.17z" stroke="#fe7070" stroke-width="2" fill="url(#a)"/><path d="M2545-229.83a6 6 0 0 1 6-6h18a6 6 0 0 1 6 6v18a6 6 0 0 1-6 6h-18a6 6 0 0 1-6-6z" stroke="#000" stroke-opacity="0" stroke-width="3" fill-opacity="0"/><use xlink:href="#b" transform="matrix(1,0,0,1,2550,-230.82555783901324) translate(-1.1111111111111072 15.999999999999995)"/><path d="M2500-180.83c0 10.6-8.95 19.18-20 19.18s-20-8.6-20-19.18 8.95-19.17 20-19.17 20 8.6 20 19.17z" stroke="#fe7070" stroke-width="2" fill="url(#c)"/><path d="M2465-189.83a6 6 0 0 1 6-6h18a6 6 0 0 1 6 6v18a6 6 0 0 1-6 6h-18a6 6 0 0 1-6-6z" stroke="#000" stroke-opacity="0" stroke-width="3" fill-opacity="0"/><use xlink:href="#d" transform="matrix(1,0,0,1,2470,-190.82555783901324) translate(4.444444444444446 17.249999999999993)"/><path d="M2660-180.83c0 10.6-8.95 19.18-20 19.18s-20-8.6-20-19.18 8.95-19.17 20-19.17 20 8.6 20 19.17z" stroke="#fe7070" stroke-width="2" fill="url(#e)"/><path d="M2625-189.83a6 6 0 0 1 6-6h18a6 6 0 0 1 6 6v18a6 6 0 0 1-6 6h-18a6 6 0 0 1-6-6z" stroke="#000" stroke-opacity="0" stroke-width="3" fill-opacity="0"/><use xlink:href="#f" transform="matrix(1,0,0,1,2630,-190.82555783901324) translate(-1.1111111111111072 15.999999999999995)"/><path d="M2465-110.5c0 10.6-8.95 19.17-20 19.17s-20-8.58-20-19.17c0-10.6 8.95-19.18 20-19.18s20 8.6 20 19.18z" stroke="#fe7070" stroke-width="2" fill="url(#g)"/><path d="M2430-119.5a6 6 0 0 1 6-6h18a6 6 0 0 1 6 6v18a6 6 0 0 1-6 6h-18a6 6 0 0 1-6-6z" stroke="#000" stroke-opacity="0" stroke-width="3" fill-opacity="0"/><use xlink:href="#h" transform="matrix(1,0,0,1,2435,-120.50049775984391) translate(4.444444444444446 17.249999999999993)"/><path d="M2540-110.5c0 10.6-8.95 19.17-20 19.17s-20-8.58-20-19.17c0-10.6 8.95-19.18 20-19.18s20 8.6 20 19.18z" stroke="#fe7070" stroke-width="2" fill="url(#i)"/><path d="M2505-119.5a6 6 0 0 1 6-6h18a6 6 0 0 1 6 6v18a6 6 0 0 1-6 6h-18a6 6 0 0 1-6-6z" stroke="#000" stroke-opacity="0" stroke-width="3" fill-opacity="0"/><use xlink:href="#j" transform="matrix(1,0,0,1,2510,-120.50049775984391) translate(4.444444444444446 17.249999999999993)"/><path d="M2695-110.5c0 10.6-8.95 19.17-20 19.17s-20-8.58-20-19.17c0-10.6 8.95-19.18 20-19.18s20 8.6 20 19.18z" stroke="#fe7070" stroke-width="2" fill="url(#k)"/><path d="M2660-119.5a6 6 0 0 1 6-6h18a6 6 0 0 1 6 6v18a6 6 0 0 1-6 6h-18a6 6 0 0 1-6-6z" stroke="#000" stroke-opacity="0" stroke-width="3" fill-opacity="0"/><use xlink:href="#l" transform="matrix(1,0,0,1,2665,-120.50049775984391) translate(-1.1111111111111072 15.999999999999995)"/><path d="M2630-110.5c0 10.6-8.95 19.17-20 19.17s-20-8.58-20-19.17c0-10.6 8.95-19.18 20-19.18s20 8.6 20 19.18z" stroke="#fe7070" stroke-width="2" fill="url(#m)"/><path d="M2595-119.5a6 6 0 0 1 6-6h18a6 6 0 0 1 6 6v18a6 6 0 0 1-6 6h-18a6 6 0 0 1-6-6z" stroke="#000" stroke-opacity="0" stroke-width="3" fill-opacity="0"/><use xlink:href="#n" transform="matrix(1,0,0,1,2600,-120.50049775984391) translate(-1.1111111111111072 15.999999999999995)"/><path d="M2559.37-199.38l-40.5 13.6-.65-1.9 40.5-13.6z" stroke="#979ea8" stroke-width=".05" fill="#979ea8"/><path d="M2563.16-200.66l-3.8 1.28-.5-1.4 1.1.13 1.65-.06 1.45-.3z" fill="#979ea8"/><path d="M2563.2-200.64l-3.87 1.3-.5-1.47 1.13.13 1.65-.06 1.47-.3zm-1.6-.04l-1.65.06-1.04-.13.46 1.34 3.77-1.27-.1-.3z" stroke="#979ea8" stroke-width=".05" fill="#979ea8"/><path d="M2519.07-182l-15 .14 12.04-8.93z" fill="#979ea8"/><path d="M2520.45-181.02l-19.45.2 15.62-11.6zm-13.3-1.87l10.53-.1-2.07-6.17z" stroke="#979ea8" stroke-width=".05" fill="#979ea8"/><use xlink:href="#o" transform="matrix(1,0,0,1,2530.5003119827898,-201.78837240640988) translate(0.005 18.26388888888889)"/><path d="M2560.95-200.33l40.5 13.6" stroke="#979ea8" stroke-width="2" fill="none"/><path d="M2559.95-200.65l1.14-.04-.45 1.32-3.8-1.28.1-.36z" stroke="#979ea8" stroke-width=".05" fill="#979ea8"/><path d="M2615.93-181.86l-15-.15 2.96-8.8z" stroke="#979ea8" stroke-width="2" fill="#979ea8"/><path d="M2480.8-160.05l24.4 18.28" stroke="#979ea8" stroke-width="2" fill="none"/><path d="M2479.95-160.65l1.37-.05-1.1 1.46-2.2-1.65z" stroke="#979ea8" stroke-width=".05" fill="#979ea8"/><path d="M2517.4-132.62l-14.18-4.84 5.55-7.42z" stroke="#979ea8" stroke-width="2" fill="#979ea8"/><path d="M2479.24-160l-20.2 17.3" stroke="#979ea8" stroke-width="2" fill="none"/><path d="M2479.95-160.65l1.65-.06-1.73 1.48-1.3-1.52.08-.07z" stroke="#979ea8" stroke-width=".05" fill="#979ea8"/><path d="M2447.46-132.78l7.82-12.8 6.03 7.04z" stroke="#979ea8" stroke-width="2" fill="#979ea8"/><path d="M2639.3-159.94l-16.2 16.2" stroke="#979ea8" stroke-width="2" fill="none"/><path d="M2639.95-160.65l1.52-.05-1.5 1.48-1.4-1.4.17-.18z" stroke="#979ea8" stroke-width=".05" fill="#979ea8"/><path d="M2612.3-132.96l6.8-13.36 6.56 6.55z" stroke="#979ea8" stroke-width="2" fill="#979ea8"/><path d="M2640.76-160l20.2 17.3" stroke="#979ea8" stroke-width="2" fill="none"/><path d="M2639.95-160.65l1.44-.05-1.27 1.48-1.92-1.65z" stroke="#979ea8" stroke-width=".05" fill="#979ea8"/><path d="M2672.54-132.78l-13.85-5.76 6.02-7.04z" stroke="#979ea8" stroke-width="2" fill="#979ea8"/><path d="M2600-40.83c0 10.6-8.95 19.18-20 19.18s-20-8.6-20-19.18c0-10.6 8.95-19.17 20-19.17s20 8.6 20 19.17z" stroke="#fe7070" stroke-width="2" fill="url(#p)"/><path d="M2565-49.83a6 6 0 0 1 6-6h18a6 6 0 0 1 6 6v18a6 6 0 0 1-6 6h-18a6 6 0 0 1-6-6z" stroke="#000" stroke-opacity="0" stroke-width="3" fill-opacity="0"/><use xlink:href="#q" transform="matrix(1,0,0,1,2570,-50.82555783901324) translate(-1.1111111111111072 15.999999999999995)"/><path d="M2608.7-89.7l-15.62 15.62" stroke="#979ea8" stroke-width="2" fill="none"/><path d="M2609.95-90.32l.82-.03-1.4 1.4-1.4-1.43.17-.17z" stroke="#979ea8" stroke-width=".05" fill="#979ea8"/><path d="M2582.3-63.3l6.8-13.35 6.55 6.55z" stroke="#979ea8" stroke-width="2" fill="#979ea8"/><path d="M2995-216.65c0 10.6-8.95 19.17-20 19.17s-20-8.58-20-19.17c0-10.6 8.95-19.18 20-19.18s20 8.6 20 19.18z" stroke="#008a0e" stroke-width="2" fill="url(#r)"/><path d="M2960-225.65a6 6 0 0 1 6-6h18a6 6 0 0 1 6 6v18a6 6 0 0 1-6 6h-18a6 6 0 0 1-6-6z" stroke="#000" stroke-opacity="0" stroke-width="3" fill-opacity="0"/><use xlink:href="#s" transform="matrix(1,0,0,1,2965,-226.65111567802649) translate(-1.1111111111111072 15.999999999999995)"/><path d="M2915-176.65c0 10.6-8.95 19.17-20 19.17s-20-8.58-20-19.17c0-10.6 8.95-19.18 20-19.18s20 8.6 20 19.18z" stroke="#fe7070" stroke-width="2" fill="url(#t)"/><path d="M2880-185.65a6 6 0 0 1 6-6h18a6 6 0 0 1 6 6v18a6 6 0 0 1-6 6h-18a6 6 0 0 1-6-6z" stroke="#000" stroke-opacity="0" stroke-width="3" fill-opacity="0"/><use xlink:href="#d" transform="matrix(1,0,0,1,2885,-186.65111567802649) translate(4.444444444444446 17.249999999999993)"/><path d="M3075-176.65c0 10.6-8.95 19.17-20 19.17s-20-8.58-20-19.17c0-10.6 8.95-19.18 20-19.18s20 8.6 20 19.18z" stroke="#fe7070" stroke-width="2" fill="url(#u)"/><path d="M3040-185.65a6 6 0 0 1 6-6h18a6 6 0 0 1 6 6v18a6 6 0 0 1-6 6h-18a6 6 0 0 1-6-6z" stroke="#000" stroke-opacity="0" stroke-width="3" fill-opacity="0"/><use xlink:href="#v" transform="matrix(1,0,0,1,3045,-186.65111567802649) translate(-1.1111111111111072 15.999999999999995)"/><path d="M2880-106.33c0 10.6-8.95 19.18-20 19.18s-20-8.6-20-19.18c0-10.6 8.95-19.17 20-19.17s20 8.58 20 19.17z" stroke="#fe7070" stroke-width="2" fill="url(#w)"/><path d="M2845-115.33a6 6 0 0 1 6-6h18a6 6 0 0 1 6 6v18a6 6 0 0 1-6 6h-18a6 6 0 0 1-6-6z" stroke="#000" stroke-opacity="0" stroke-width="3" fill-opacity="0"/><use xlink:href="#x" transform="matrix(1,0,0,1,2850,-116.32605559885715) translate(4.444444444444446 17.249999999999993)"/><path d="M3110-106.33c0 10.6-8.95 19.18-20 19.18s-20-8.6-20-19.18c0-10.6 8.95-19.17 20-19.17s20 8.58 20 19.17z" stroke="#fe7070" stroke-width="2" fill="url(#y)"/><path d="M3075-115.33a6 6 0 0 1 6-6h18a6 6 0 0 1 6 6v18a6 6 0 0 1-6 6h-18a6 6 0 0 1-6-6z" stroke="#000" stroke-opacity="0" stroke-width="3" fill-opacity="0"/><use xlink:href="#z" transform="matrix(1,0,0,1,3080,-116.32605559885715) translate(-1.1111111111111072 15.999999999999995)"/><path d="M3045-106.33c0 10.6-8.95 19.18-20 19.18s-20-8.6-20-19.18c0-10.6 8.95-19.17 20-19.17s20 8.58 20 19.17z" stroke="#fe7070" stroke-width="2" fill="url(#A)"/><path d="M3010-115.33a6 6 0 0 1 6-6h18a6 6 0 0 1 6 6v18a6 6 0 0 1-6 6h-18a6 6 0 0 1-6-6z" stroke="#000" stroke-opacity="0" stroke-width="3" fill-opacity="0"/><use xlink:href="#B" transform="matrix(1,0,0,1,3015,-116.32605559885715) translate(-1.1111111111111072 15.999999999999995)"/><path d="M2974.37-195.2l-40.5 13.6-.65-1.9 40.5-13.6z" stroke="#979ea8" stroke-width=".05" fill="#979ea8"/><path d="M2978.16-196.48l-3.8 1.28-.5-1.4 1.1.13 1.65-.06 1.45-.3z" fill="#979ea8"/><path d="M2978.2-196.47l-3.87 1.3-.5-1.47 1.13.14 1.65-.06 1.47-.3zm-1.6-.04l-1.65.05-1.04-.13.46 1.35 3.77-1.27-.1-.3z" stroke="#979ea8" stroke-width=".05" fill="#979ea8"/><path d="M2934.07-177.83l-15 .15 12.04-8.94z" fill="#979ea8"/><path d="M2935.45-176.85l-19.45.2 15.62-11.6zm-13.3-1.86l10.53-.12-2.07-6.18z" stroke="#979ea8" stroke-width=".05" fill="#979ea8"/><use xlink:href="#o" transform="matrix(1,0,0,1,2945.5003119827898,-197.61393024542312) translate(0.005 18.26388888888889)"/><path d="M2975.95-196.16l40.5 13.62" stroke="#979ea8" stroke-width="2" fill="none"/><path d="M2974.95-196.47l1.14-.04-.45 1.3-3.8-1.28.1-.37z" stroke="#979ea8" stroke-width=".05" fill="#979ea8"/><path d="M3030.93-177.68l-15-.15 2.96-8.8z" stroke="#979ea8" stroke-width="2" fill="#979ea8"/><path d="M2895.8-155.88l24.4 18.28" stroke="#979ea8" stroke-width="2" fill="none"/><path d="M2894.95-156.47l1.37-.05-1.1 1.46-2.2-1.66z" stroke="#979ea8" stroke-width=".05" fill="#979ea8"/><path d="M2932.4-128.44l-14.18-4.85 5.55-7.4z" stroke="#979ea8" stroke-width="2" fill="#979ea8"/><path d="M2894.24-155.83l-20.2 17.3" stroke="#979ea8" stroke-width="2" fill="none"/><path d="M2894.95-156.47l1.65-.06-1.73 1.48-1.3-1.52.08-.07z" stroke="#979ea8" stroke-width=".05" fill="#979ea8"/><path d="M2862.46-128.6l7.82-12.8 6.03 7.03z" stroke="#979ea8" stroke-width="2" fill="#979ea8"/><path d="M3054.3-155.77l-16.2 16.2" stroke="#979ea8" stroke-width="2" fill="none"/><path d="M3054.95-156.47l1.52-.06-1.5 1.5-1.4-1.43.17-.17z" stroke="#979ea8" stroke-width=".05" fill="#979ea8"/><path d="M3027.3-128.8l6.8-13.35 6.56 6.56z" stroke="#979ea8" stroke-width="2" fill="#979ea8"/><path d="M3055.76-155.83l20.2 17.3" stroke="#979ea8" stroke-width="2" fill="none"/><path d="M3054.95-156.47l1.44-.06-1.27 1.48-1.92-1.64z" stroke="#979ea8" stroke-width=".05" fill="#979ea8"/><path d="M3087.54-128.6l-13.85-5.77 6.02-7.04z" stroke="#979ea8" stroke-width="2" fill="#979ea8"/><path d="M3015-36.65c0 10.6-8.95 19.17-20 19.17s-20-8.58-20-19.17c0-10.6 8.95-19.18 20-19.18s20 8.6 20 19.18z" stroke="#fcce14" stroke-width="2" fill="url(#C)"/><path d="M2980-45.65a6 6 0 0 1 6-6h18a6 6 0 0 1 6 6v18a6 6 0 0 1-6 6h-18a6 6 0 0 1-6-6z" stroke="#000" stroke-opacity="0" stroke-width="3" fill-opacity="0"/><use xlink:href="#D" transform="matrix(1,0,0,1,2985,-46.651115678026486) translate(-1.1111111111111072 15.999999999999995)"/><path d="M3023.7-85.5l-15.62 15.6" stroke="#979ea8" stroke-width="2" fill="none"/><path d="M3024.95-86.15l.82-.03-1.4 1.4-1.4-1.42.17-.18z" stroke="#979ea8" stroke-width=".05" fill="#979ea8"/><path d="M2997.3-59.1l6.8-13.38 6.55 6.56z" stroke="#979ea8" stroke-width="2" fill="#979ea8"/><path d="M2720-130a3.04 3.04 0 0 1 3.04-3.04h64.25a6 6 0 0 0 6-6V-144a2.18 2.18 0 0 1 3.84-1.4l9 10.8a7.18 7.18 0 0 1 0 9.2l-9 10.8a2.18 2.18 0 0 1-3.85-1.4v-4.96a6 6 0 0 0-6-6h-64.26A3.04 3.04 0 0 1 2720-130z" stroke="#ba23f6" stroke-width="3" fill-opacity="0"/><path d="M2720-188a6 6 0 0 1 6-6h28a6 6 0 0 1 6 6v6a6 6 0 0 1-6 6h-28a6 6 0 0 1-6-6z" fill="none"/><use xlink:href="#E" transform="matrix(1,0,0,1,2720,-194.00000000000003) translate(-20.358888888888877 18.339999999999993)"/><path d="M2829.67-185c0 10.6-8.96 19.17-20 19.17-11.05 0-20-8.58-20-19.17 0-10.6 8.95-19.17 20-19.17 11.04 0 20 8.58 20 19.17z" stroke="#008a0e" stroke-width="2" fill="url(#F)"/><path d="M2794.67-194a6 6 0 0 1 6-6h18a6 6 0 0 1 6 6v18a6 6 0 0 1-6 6h-18a6 6 0 0 1-6-6z" stroke="#000" stroke-opacity="0" stroke-width="3" fill-opacity="0"/><use xlink:href="#s" transform="matrix(1,0,0,1,2799.6666666666665,-195) translate(-1.1111111111111072 15.999999999999995)"/><path d="M2955-106.33c0 10.6-8.95 19.18-20 19.18s-20-8.6-20-19.18c0-10.6 8.95-19.17 20-19.17s20 8.58 20 19.17z" stroke="#635dff" stroke-width="2" fill="url(#G)"/><path d="M2920-115.33a6 6 0 0 1 6-6h18a6 6 0 0 1 6 6v18a6 6 0 0 1-6 6h-18a6 6 0 0 1-6-6z" stroke="#000" stroke-opacity="0" stroke-width="3" fill-opacity="0"/><use xlink:href="#j" transform="matrix(1,0,0,1,2925,-116.32605559885715) translate(4.444444444444446 17.249999999999993)"/><path d="M3395-220c0 10.6-8.95 19.17-20 19.17s-20-8.58-20-19.17c0-10.6 8.95-19.17 20-19.17s20 8.58 20 19.17z" stroke="#635dff" stroke-width="2" fill="url(#H)"/><path d="M3360-229a6 6 0 0 1 6-6h18a6 6 0 0 1 6 6v18a6 6 0 0 1-6 6h-18a6 6 0 0 1-6-6z" stroke="#000" stroke-opacity="0" stroke-width="3" fill-opacity="0"/><use xlink:href="#j" transform="matrix(1,0,0,1,3365,-230) translate(4.444444444444446 17.249999999999993)"/><path d="M3315-180c0 10.6-8.95 19.17-20 19.17s-20-8.58-20-19.17c0-10.6 8.95-19.17 20-19.17s20 8.58 20 19.17z" stroke="#fe7070" stroke-width="2" fill="url(#I)"/><path d="M3280-189a6 6 0 0 1 6-6h18a6 6 0 0 1 6 6v18a6 6 0 0 1-6 6h-18a6 6 0 0 1-6-6z" stroke="#000" stroke-opacity="0" stroke-width="3" fill-opacity="0"/><use xlink:href="#d" transform="matrix(1,0,0,1,3285,-190) translate(4.444444444444446 17.249999999999993)"/><path d="M3475-180c0 10.6-8.95 19.17-20 19.17s-20-8.58-20-19.17c0-10.6 8.95-19.17 20-19.17s20 8.58 20 19.17z" stroke="#fe7070" stroke-width="2" fill="url(#J)"/><path d="M3440-189a6 6 0 0 1 6-6h18a6 6 0 0 1 6 6v18a6 6 0 0 1-6 6h-18a6 6 0 0 1-6-6z" stroke="#000" stroke-opacity="0" stroke-width="3" fill-opacity="0"/><use xlink:href="#v" transform="matrix(1,0,0,1,3445,-190) translate(-1.1111111111111072 15.999999999999995)"/><path d="M3280-109.67c0 10.6-8.95 19.17-20 19.17s-20-8.58-20-19.17c0-10.6 8.95-19.18 20-19.18s20 8.58 20 19.17z" stroke="#fe7070" stroke-width="2" fill="url(#K)"/><path d="M3245-118.67a6 6 0 0 1 6-6h18a6 6 0 0 1 6 6v18a6 6 0 0 1-6 6h-18a6 6 0 0 1-6-6z" stroke="#000" stroke-opacity="0" stroke-width="3" fill-opacity="0"/><use xlink:href="#x" transform="matrix(1,0,0,1,3250,-119.67493992083067) translate(4.444444444444446 17.249999999999993)"/><path d="M3510-109.67c0 10.6-8.95 19.17-20 19.17s-20-8.58-20-19.17c0-10.6 8.95-19.18 20-19.18s20 8.58 20 19.17z" stroke="#fe7070" stroke-width="2" fill="url(#L)"/><path d="M3475-118.67a6 6 0 0 1 6-6h18a6 6 0 0 1 6 6v18a6 6 0 0 1-6 6h-18a6 6 0 0 1-6-6z" stroke="#000" stroke-opacity="0" stroke-width="3" fill-opacity="0"/><use xlink:href="#z" transform="matrix(1,0,0,1,3480,-119.67493992083067) translate(-1.1111111111111072 15.999999999999995)"/><path d="M3445-109.67c0 10.6-8.95 19.17-20 19.17s-20-8.58-20-19.17c0-10.6 8.95-19.18 20-19.18s20 8.58 20 19.17z" stroke="#fe7070" stroke-width="2" fill="url(#M)"/><path d="M3410-118.67a6 6 0 0 1 6-6h18a6 6 0 0 1 6 6v18a6 6 0 0 1-6 6h-18a6 6 0 0 1-6-6z" stroke="#000" stroke-opacity="0" stroke-width="3" fill-opacity="0"/><use xlink:href="#B" transform="matrix(1,0,0,1,3415,-119.67493992083067) translate(-1.1111111111111072 15.999999999999995)"/><path d="M3374.37-198.56l-40.5 13.62-.65-1.9 40.5-13.6z" stroke="#979ea8" stroke-width=".05" fill="#979ea8"/><path d="M3378.16-199.83l-3.8 1.28-.5-1.4 1.1.13 1.65-.06 1.45-.3z" fill="#979ea8"/><path d="M3378.2-199.82l-3.87 1.3-.5-1.47 1.13.15 1.65-.06 1.47-.3zm-1.6-.04l-1.65.06-1.04-.13.46 1.35 3.77-1.27-.1-.3z" stroke="#979ea8" stroke-width=".05" fill="#979ea8"/><path d="M3334.07-181.18l-15 .15 12.04-8.94z" fill="#979ea8"/><path d="M3335.45-180.2l-19.45.2 15.62-11.6zm-13.3-1.86l10.53-.1-2.07-6.2z" stroke="#979ea8" stroke-width=".05" fill="#979ea8"/><use xlink:href="#o" transform="matrix(1,0,0,1,3345.5003119827898,-200.96281456739663) translate(0.005 18.26388888888889)"/><path d="M3375.95-199.5l40.5 13.6" stroke="#979ea8" stroke-width="2" fill="none"/><path d="M3374.95-199.82l1.14-.04-.45 1.3-3.8-1.27.1-.37z" stroke="#979ea8" stroke-width=".05" fill="#979ea8"/><path d="M3430.93-181.03l-15-.15 2.96-8.8z" stroke="#979ea8" stroke-width="2" fill="#979ea8"/><path d="M3294.24-159.17l-20.2 17.28" stroke="#979ea8" stroke-width="2" fill="none"/><path d="M3294.95-159.82l1.65-.06-1.73 1.48-1.3-1.52.08-.07z" stroke="#979ea8" stroke-width=".05" fill="#979ea8"/><path d="M3262.46-131.96l7.82-12.8 6.03 7.05z" stroke="#979ea8" stroke-width="2" fill="#979ea8"/><path d="M3454.3-159.12l-16.2 16.2" stroke="#979ea8" stroke-width="2" fill="none"/><path d="M3454.95-159.82l1.52-.06-1.5 1.5-1.4-1.43.17-.18z" stroke="#979ea8" stroke-width=".05" fill="#979ea8"/><path d="M3427.3-132.14l6.8-13.36 6.56 6.56z" stroke="#979ea8" stroke-width="2" fill="#979ea8"/><path d="M3455.76-159.17l20.2 17.28" stroke="#979ea8" stroke-width="2" fill="none"/><path d="M3454.95-159.82l1.44-.05-1.27 1.47-1.92-1.64z" stroke="#979ea8" stroke-width=".05" fill="#979ea8"/><path d="M3487.54-131.96l-13.85-5.75 6.02-7.06z" stroke="#979ea8" stroke-width="2" fill="#979ea8"/><path d="M3415-40c0 10.6-8.95 19.17-20 19.17s-20-8.58-20-19.17c0-10.6 8.95-19.17 20-19.17s20 8.58 20 19.17z" stroke="#fe7070" stroke-width="2" fill="url(#N)"/><path d="M3380-49a6 6 0 0 1 6-6h18a6 6 0 0 1 6 6v18a6 6 0 0 1-6 6h-18a6 6 0 0 1-6-6z" stroke="#000" stroke-opacity="0" stroke-width="3" fill-opacity="0"/><use xlink:href="#D" transform="matrix(1,0,0,1,3385,-50) translate(-1.1111111111111072 15.999999999999995)"/><path d="M3423.7-88.86l-15.62 15.6" stroke="#979ea8" stroke-width="2" fill="none"/><path d="M3424.95-89.5l.82-.03-1.4 1.4-1.4-1.42.17-.17z" stroke="#979ea8" stroke-width=".05" fill="#979ea8"/><path d="M3397.3-62.46l6.8-13.37 6.55 6.56z" stroke="#979ea8" stroke-width="2" fill="#979ea8"/><path d="M3120-133.35a3.04 3.04 0 0 1 3.04-3.04h64.25a6 6 0 0 0 6-6v-4.95a2.18 2.18 0 0 1 3.84-1.4l9 10.8a7.18 7.18 0 0 1 0 9.2l-9 10.8a2.18 2.18 0 0 1-3.85-1.4v-4.96a6 6 0 0 0-6-6h-64.26a3.04 3.04 0 0 1-3.04-3.05z" stroke="#ba23f6" stroke-width="3" fill-opacity="0"/><path d="M3120.33-226.35a6 6 0 0 1 6-6h28a6 6 0 0 1 6 6v6a6 6 0 0 1-6 6h-28a6 6 0 0 1-6-6z" fill="none"/><use xlink:href="#O" transform="matrix(1,0,0,1,3120.3333333333335,-232.34888432197354) translate(-31.901111111111092 18.339999999999993)"/><path d="M3245.33-223.35c0 10.6-8.95 19.18-20 19.18-11.04 0-20-8.6-20-19.18 0-10.6 8.96-19.17 20-19.17 11.05 0 20 8.58 20 19.17z" stroke="#635dff" stroke-width="2" fill="url(#P)"/><path d="M3210.33-232.35a6 6 0 0 1 6-6h18a6 6 0 0 1 6 6v18a6 6 0 0 1-6 6h-18a6 6 0 0 1-6-6z" stroke="#000" stroke-opacity="0" stroke-width="3" fill-opacity="0"/><use xlink:href="#j" transform="matrix(1,0,0,1,3215.3333333333335,-233.34888432197351) translate(4.444444444444446 17.249999999999993)"/><path d="M3110-185.48a6 6 0 0 1 6-6h28a6 6 0 0 1 6 6v6a6 6 0 0 1-6 6h-28a6 6 0 0 1-6-6z" fill="none"/><use xlink:href="#Q" transform="matrix(1,0,0,1,3110,-191.47667351703976) translate(-18.025555555555542 18.339999999999993)"/><path d="M3219.67-182.48c0 10.6-8.96 19.18-20 19.18-11.05 0-20-8.6-20-19.18 0-10.6 8.95-19.17 20-19.17 11.04 0 20 8.58 20 19.17z" stroke="#fcce14" stroke-width="2" fill="url(#R)"/><path d="M3184.67-191.48a6 6 0 0 1 6-6h18a6 6 0 0 1 6 6v18a6 6 0 0 1-6 6h-18a6 6 0 0 1-6-6z" stroke="#000" stroke-opacity="0" stroke-width="3" fill-opacity="0"/><use xlink:href="#D" transform="matrix(1,0,0,1,3189.6666666666665,-192.47667351703973) translate(-1.1111111111111072 15.999999999999995)"/><defs><radialGradient gradientUnits="userSpaceOnUse" id="a" fx="2560" fy="-220.83" cx="2560" cy="-220.83" r="20.54"><stop offset="0%" stop-color="#fe7474" stop-opacity=".4"/><stop offset="60%" stop-color="#fe7070" stop-opacity=".6"/><stop offset="100%" stop-color="#fb6f6f"/></radialGradient><path d="M23 0v-37h61v-169l-59 37v-38l62-41h46v211h57V0H23" id="S"/><path d="M139-81c0-46-55-55-73-27H18l9-140h149v37H72l-4 63c44-38 133-4 122 66C201 21 21 35 11-62l49-4c5 18 15 30 39 30 26 0 40-18 40-45" id="T"/><g id="b"><use transform="matrix(0.05555555555555554,0,0,0.05555555555555554,0,0)" xlink:href="#S"/><use transform="matrix(0.05555555555555554,0,0,0.05555555555555554,11.111111111111107,0)" xlink:href="#T"/></g><radialGradient gradientUnits="userSpaceOnUse" id="c" fx="2480" fy="-180.83" cx="2480" cy="-180.83" r="20.54"><stop offset="0%" stop-color="#fe7474" stop-opacity=".4"/><stop offset="60%" stop-color="#fe7070" stop-opacity=".6"/><stop offset="100%" stop-color="#fb6f6f"/></radialGradient><path d="M115-159c48 0 72 30 72 78 0 54-30 85-83 85-64 0-91-50-91-122 0-98 58-163 141-120 15 8 21 24 27 44l-47 6c-5-31-48-31-61-4-7 14-11 33-11 60 9-17 28-27 53-27zM102-35c24 0 36-20 36-45s-11-43-37-43c-23 0-36 14-36 38 0 27 11 50 37 50" id="U"/><use transform="matrix(0.05555555555555554,0,0,0.05555555555555554,0,0)" xlink:href="#U" id="d"/><radialGradient gradientUnits="userSpaceOnUse" id="e" fx="2640" fy="-180.83" cx="2640" cy="-180.83" r="20.54"><stop offset="0%" stop-color="#fe7474" stop-opacity=".4"/><stop offset="60%" stop-color="#fe7070" stop-opacity=".6"/><stop offset="100%" stop-color="#fb6f6f"/></radialGradient><path d="M182-182c0 78-84 86-111 141h115V0H12c-6-101 99-100 120-180 1-22-12-31-33-32-23 0-32 14-35 34l-49-3c5-45 32-70 84-70 51 0 83 22 83 69" id="V"/><path d="M101-251c68 0 84 54 84 127C185-50 166 4 99 4S15-52 14-124c-1-75 17-127 87-127zm-1 216c37-5 36-46 36-89s4-89-36-89c-39 0-36 45-36 89 0 43-3 85 36 89" id="W"/><g id="f"><use transform="matrix(0.05555555555555554,0,0,0.05555555555555554,0,0)" xlink:href="#V"/><use transform="matrix(0.05555555555555554,0,0,0.05555555555555554,11.111111111111107,0)" xlink:href="#W"/></g><radialGradient gradientUnits="userSpaceOnUse" id="g" fx="2445" fy="-110.5" cx="2445" cy="-110.5" r="20.54"><stop offset="0%" stop-color="#fe7474" stop-opacity=".4"/><stop offset="60%" stop-color="#fe7070" stop-opacity=".6"/><stop offset="100%" stop-color="#fb6f6f"/></radialGradient><path d="M128-127c34 4 56 21 59 58 7 91-148 94-172 28-4-9-6-17-7-26l51-5c1 24 16 35 40 36 23 0 39-12 38-36-1-31-31-36-65-34v-40c32 2 59-3 59-33 0-20-13-33-34-33s-33 13-35 32l-50-3c6-44 37-68 86-68 50 0 83 20 83 66 0 35-22 52-53 58" id="X"/><use transform="matrix(0.05555555555555554,0,0,0.05555555555555554,0,0)" xlink:href="#X" id="h"/><radialGradient gradientUnits="userSpaceOnUse" id="i" fx="2520" fy="-110.5" cx="2520" cy="-110.5" r="20.54"><stop offset="0%" stop-color="#fe7474" stop-opacity=".4"/><stop offset="60%" stop-color="#fe7070" stop-opacity=".6"/><stop offset="100%" stop-color="#fb6f6f"/></radialGradient><path d="M52 0c1-96 47-148 87-207H15v-41h169v40c-36 62-79 113-81 208H52" id="Y"/><use transform="matrix(0.05555555555555554,0,0,0.05555555555555554,0,0)" xlink:href="#Y" id="j"/><radialGradient gradientUnits="userSpaceOnUse" id="k" fx="2675" fy="-110.5" cx="2675" cy="-110.5" r="20.54"><stop offset="0%" stop-color="#fe7474" stop-opacity=".4"/><stop offset="60%" stop-color="#fe7070" stop-opacity=".6"/><stop offset="100%" stop-color="#fb6f6f"/></radialGradient><g id="l"><use transform="matrix(0.05555555555555554,0,0,0.05555555555555554,0,0)" xlink:href="#V"/><use transform="matrix(0.05555555555555554,0,0,0.05555555555555554,11.111111111111107,0)" xlink:href="#Y"/></g><radialGradient gradientUnits="userSpaceOnUse" id="m" fx="2610" fy="-110.5" cx="2610" cy="-110.5" r="20.54"><stop offset="0%" stop-color="#fe7474" stop-opacity=".4"/><stop offset="60%" stop-color="#fe7070" stop-opacity=".6"/><stop offset="100%" stop-color="#fb6f6f"/></radialGradient><path d="M138-131c27 9 52 24 51 61 0 53-36 74-89 74S11-19 11-69c0-35 22-54 51-61-78-25-46-121 38-121 51 0 83 19 83 66 0 30-18 49-45 54zm-38-16c24 0 32-13 32-36 1-23-11-34-32-34-22 0-33 12-32 34 0 22 9 36 32 36zm1 116c27 0 37-17 37-43 0-25-13-39-39-39-24 0-37 15-37 40 0 27 11 42 39 42" id="Z"/><g id="n"><use transform="matrix(0.05555555555555554,0,0,0.05555555555555554,0,0)" xlink:href="#S"/><use transform="matrix(0.05555555555555554,0,0,0.05555555555555554,11.111111111111107,0)" xlink:href="#Z"/></g><radialGradient gradientUnits="userSpaceOnUse" id="p" fx="2580" fy="-40.83" cx="2580" cy="-40.83" r="20.54"><stop offset="0%" stop-color="#fe7474" stop-opacity=".4"/><stop offset="60%" stop-color="#fe7070" stop-opacity=".6"/><stop offset="100%" stop-color="#fb6f6f"/></radialGradient><g id="q"><use transform="matrix(0.05555555555555554,0,0,0.05555555555555554,0,0)" xlink:href="#S"/><use transform="matrix(0.05555555555555554,0,0,0.05555555555555554,11.111111111111107,0)" xlink:href="#U"/></g><radialGradient gradientUnits="userSpaceOnUse" id="r" fx="2975" fy="-216.65" cx="2975" cy="-216.65" r="20.54"><stop offset="0%" stop-color="#088e16" stop-opacity=".4"/><stop offset="60%" stop-color="#008a0e" stop-opacity=".6"/><stop offset="100%" stop-color="#00880e"/></radialGradient><g id="s"><use transform="matrix(0.05555555555555554,0,0,0.05555555555555554,0,0)" xlink:href="#S"/><use transform="matrix(0.05555555555555554,0,0,0.05555555555555554,11.111111111111107,0)" xlink:href="#T"/></g><radialGradient gradientUnits="userSpaceOnUse" id="t" fx="2895" fy="-176.65" cx="2895" cy="-176.65" r="20.54"><stop offset="0%" stop-color="#fe7474" stop-opacity=".4"/><stop offset="60%" stop-color="#fe7070" stop-opacity=".6"/><stop offset="100%" stop-color="#fb6f6f"/></radialGradient><radialGradient gradientUnits="userSpaceOnUse" id="u" fx="3055" fy="-176.65" cx="3055" cy="-176.65" r="20.54"><stop offset="0%" stop-color="#fe7474" stop-opacity=".4"/><stop offset="60%" stop-color="#fe7070" stop-opacity=".6"/><stop offset="100%" stop-color="#fb6f6f"/></radialGradient><g id="v"><use transform="matrix(0.05555555555555554,0,0,0.05555555555555554,0,0)" xlink:href="#V"/><use transform="matrix(0.05555555555555554,0,0,0.05555555555555554,11.111111111111107,0)" xlink:href="#W"/></g><radialGradient gradientUnits="userSpaceOnUse" id="w" fx="2860" fy="-106.33" cx="2860" cy="-106.33" r="20.54"><stop offset="0%" stop-color="#fe7474" stop-opacity=".4"/><stop offset="60%" stop-color="#fe7070" stop-opacity=".6"/><stop offset="100%" stop-color="#fb6f6f"/></radialGradient><use transform="matrix(0.05555555555555554,0,0,0.05555555555555554,0,0)" xlink:href="#X" id="x"/><radialGradient gradientUnits="userSpaceOnUse" id="y" fx="3090" fy="-106.33" cx="3090" cy="-106.33" r="20.54"><stop offset="0%" stop-color="#fe7474" stop-opacity=".4"/><stop offset="60%" stop-color="#fe7070" stop-opacity=".6"/><stop offset="100%" stop-color="#fb6f6f"/></radialGradient><g id="z"><use transform="matrix(0.05555555555555554,0,0,0.05555555555555554,0,0)" xlink:href="#V"/><use transform="matrix(0.05555555555555554,0,0,0.05555555555555554,11.111111111111107,0)" xlink:href="#Y"/></g><radialGradient gradientUnits="userSpaceOnUse" id="A" fx="3025" fy="-106.33" cx="3025" cy="-106.33" r="20.54"><stop offset="0%" stop-color="#fe7474" stop-opacity=".4"/><stop offset="60%" stop-color="#fe7070" stop-opacity=".6"/><stop offset="100%" stop-color="#fb6f6f"/></radialGradient><g id="B"><use transform="matrix(0.05555555555555554,0,0,0.05555555555555554,0,0)" xlink:href="#S"/><use transform="matrix(0.05555555555555554,0,0,0.05555555555555554,11.111111111111107,0)" xlink:href="#Z"/></g><radialGradient gradientUnits="userSpaceOnUse" id="C" fx="2995" fy="-36.65" cx="2995" cy="-36.65" r="20.54"><stop offset="0%" stop-color="#fcd01b" stop-opacity=".4"/><stop offset="60%" stop-color="#fcce14" stop-opacity=".6"/><stop offset="100%" stop-color="#f9cb14"/></radialGradient><g id="D"><use transform="matrix(0.05555555555555554,0,0,0.05555555555555554,0,0)" xlink:href="#S"/><use transform="matrix(0.05555555555555554,0,0,0.05555555555555554,11.111111111111107,0)" xlink:href="#U"/></g><path fill="#008a0e" d="M330-158c82-22 193-18 286-31 38 11 58 81 24 113-25 24-71 25-116 25-135 0-238 34-358 47C61 7 4-52 15-159c12-113 37-213 32-340-2-59 2-121-2-178-2-44 35-62 81-61 104-31 222-52 345-64 68-7 103 34 111 94 2 12-3 22-9 31-33 14-62 15-103 16-100 2-196 10-270 40h-8c-18 23-11 79-15 106-1 13 5 22 16 25 82-10 176-25 264-12 44 7 78 26 71 72-7 49-76 30-125 30-78 0-138 22-210 29-24 1-35 28-36 52-2 41-10 83-8 126-19 84 122 51 181 35" id="aa"/><path fill="#008a0e" d="M21-302C-7-136 9 24 196-12c147-28 263-93 386-142 57-23 26-120-26-120-111 32-240 115-378 126-13 1-22-26-25-45 30-174 59-350 88-524 10-62-86-124-120-61-39 73-49 196-69 277-19 77-22 145-31 199" id="ab"/><path fill="#008a0e" d="M292-638c-67 2-113 14-176 21-81 9-112-68-58-103 132-46 304-52 470-66l65 5c50 52 43 111-50 111-45 0-75 15-112 18-18 16-19 83-24 152-7 108-21 214-33 322-5 46 36 20 67 20 54 0 81-10 139-16 43 25 50 62 23 110-151 29-311 50-490 79C58 24-8 22 3-44c14-83 161-45 224-90 22-16 24-69 29-107 17-126 33-258 36-397" id="ac"/><path fill="#008a0e" d="M629-645c28 177 9 401 28 582 3 29-18 50-47 50-97 0-67-194-71-306-1-24-4-66-3-92 1-39-15-57-30-33-49 79-88 161-139 243-9 15-21 23-34 23-33 0-70-69-89-115-10-23-57-152-73-152-28 0-27 119-31 162-9 93-16 174-27 265-2 3-35 21-48 20-71-3-50-117-43-176 24-211 38-410 84-595 39-67 121 2 138 59 22 73 63 167 84 249 7 23 13 34 20 34 17 0 54-75 107-225 17-48 42-155 115-96 31 25 52 57 59 103" id="ad"/><path fill="#008a0e" d="M24-128c0-158-18-313-5-472 6-74-11-192 62-191 78 1 88 68 113 130 59 143 102 191 174 297 50 73 81 109 92 109 8 0 12-3 13-9 24-163 3-322-12-477-6-63 62-76 101-37 65 64 45 212 54 340 10 141 7 304-15 413-8 15-20 23-37 23-76 0-203-132-244-200-33-54-79-109-116-169l4 4c-9-20-41-55-54-51-14 102-5 244 6 344 3 30-15 69-41 68-9 0-28-1-56-3-44-28-39-45-39-119" id="ae"/><path fill="#008a0e" d="M103-24C79 10-2-14 8-59c42-186 129-353 193-524 23-62 63-135 99-197 39-38 106-10 109 47 27 100 51 209 81 307 8 25 72 24 72 63 0 44-26 46-37 75 12 83 46 156 55 243 7 63-106 47-114 11-13-58-36-170-57-231-3-4-7-8-9-14-69 4-134 40-198 52-53 21-53 108-81 160-4 16-8 29-18 43zm215-551c-16 18-92 195-73 208 46 2 100-12 123-31-5-30-32-162-38-171-2-3-6-5-12-6" id="af"/><path fill="#008a0e" d="M608-642l-20 77c-36 56-69 94-113 138-49 48-58 40-29 81 33 46 69 89 97 147 44 89 52 141 40 147-3 38-20 49-63 52-68 5-97-106-129-160-40-68-56-162-144-164-53-1-27 78-45 121-7 56-12 123-28 170C157-4 113 24 66-1 46-11 40-39 49-87c19-111 19-139 19-313 0-144 1-187-40-242-27-37-13-94 26-108 103-36 250-59 389-41 63 8 182 85 165 149zm-140 11c-10-39-42-58-96-57-53 12-154 21-179 43-5 9-8 31-8 65 0 151 19 135 127 94 94-36 148-79 156-145" id="ag"/><path fill="#008a0e" d="M95-352c46 0 98-50 98-97 0-70-128-102-164-40-34 59-2 137 66 137zM93-47c47 0 96-50 96-96 0-41-53-72-92-72-54-1-84 29-84 81 0 50 30 87 80 87" id="ah"/><g id="E"><use transform="matrix(0.01555555555555555,0,0,0.01555555555555555,0,0)" xlink:href="#aa"/><use transform="matrix(0.01555555555555555,0,0,0.01555555555555555,10.359999999999996,0)" xlink:href="#ab"/><use transform="matrix(0.01555555555555555,0,0,0.01555555555555555,18.044444444444437,0)" xlink:href="#ac"/><use transform="matrix(0.01555555555555555,0,0,0.01555555555555555,28.279999999999987,0)" xlink:href="#ad"/><use transform="matrix(0.01555555555555555,0,0,0.01555555555555555,38.73333333333332,0)" xlink:href="#ac"/><use transform="matrix(0.01555555555555555,0,0,0.01555555555555555,49.26444444444443,0)" xlink:href="#ae"/><use transform="matrix(0.01555555555555555,0,0,0.01555555555555555,59.235555555555536,0)" xlink:href="#af"/><use transform="matrix(0.01555555555555555,0,0,0.01555555555555555,68.36666666666665,0)" xlink:href="#ag"/><use transform="matrix(0.01555555555555555,0,0,0.01555555555555555,77.55999999999997,0)" xlink:href="#ah"/></g><radialGradient gradientUnits="userSpaceOnUse" id="F" fx="2809.67" fy="-185" cx="2809.67" cy="-185" r="20.54"><stop offset="0%" stop-color="#088e16" stop-opacity=".4"/><stop offset="60%" stop-color="#008a0e" stop-opacity=".6"/><stop offset="100%" stop-color="#00880e"/></radialGradient><radialGradient gradientUnits="userSpaceOnUse" id="G" fx="2935" fy="-106.33" cx="2935" cy="-106.33" r="20.54"><stop offset="0%" stop-color="#6862ff" stop-opacity=".4"/><stop offset="60%" stop-color="#635dff" stop-opacity=".6"/><stop offset="100%" stop-color="#625cfc"/></radialGradient><radialGradient gradientUnits="userSpaceOnUse" id="H" fx="3375" fy="-220" cx="3375" cy="-220" r="20.54"><stop offset="0%" stop-color="#6862ff" stop-opacity=".4"/><stop offset="60%" stop-color="#635dff" stop-opacity=".6"/><stop offset="100%" stop-color="#625cfc"/></radialGradient><radialGradient gradientUnits="userSpaceOnUse" id="I" fx="3295" fy="-180" cx="3295" cy="-180" r="20.54"><stop offset="0%" stop-color="#fe7474" stop-opacity=".4"/><stop offset="60%" stop-color="#fe7070" stop-opacity=".6"/><stop offset="100%" stop-color="#fb6f6f"/></radialGradient><radialGradient gradientUnits="userSpaceOnUse" id="J" fx="3455" fy="-180" cx="3455" cy="-180" r="20.54"><stop offset="0%" stop-color="#fe7474" stop-opacity=".4"/><stop offset="60%" stop-color="#fe7070" stop-opacity=".6"/><stop offset="100%" stop-color="#fb6f6f"/></radialGradient><radialGradient gradientUnits="userSpaceOnUse" id="K" fx="3260" fy="-109.67" cx="3260" cy="-109.67" r="20.54"><stop offset="0%" stop-color="#fe7474" stop-opacity=".4"/><stop offset="60%" stop-color="#fe7070" stop-opacity=".6"/><stop offset="100%" stop-color="#fb6f6f"/></radialGradient><radialGradient gradientUnits="userSpaceOnUse" id="L" fx="3490" fy="-109.67" cx="3490" cy="-109.67" r="20.54"><stop offset="0%" stop-color="#fe7474" stop-opacity=".4"/><stop offset="60%" stop-color="#fe7070" stop-opacity=".6"/><stop offset="100%" stop-color="#fb6f6f"/></radialGradient><radialGradient gradientUnits="userSpaceOnUse" id="M" fx="3425" fy="-109.67" cx="3425" cy="-109.67" r="20.54"><stop offset="0%" stop-color="#fe7474" stop-opacity=".4"/><stop offset="60%" stop-color="#fe7070" stop-opacity=".6"/><stop offset="100%" stop-color="#fb6f6f"/></radialGradient><radialGradient gradientUnits="userSpaceOnUse" id="N" fx="3395" fy="-40" cx="3395" cy="-40" r="20.54"><stop offset="0%" stop-color="#fe7474" stop-opacity=".4"/><stop offset="60%" stop-color="#fe7070" stop-opacity=".6"/><stop offset="100%" stop-color="#fb6f6f"/></radialGradient><path fill="#635dff" d="M23-677c-68-88 127-122 212-122 113 0 253 24 291 82 92 144-48 310-153 365-52 27-102 48-161 69-56 20-53 15-58 80-4 49-8 103-13 153-3 31-19 46-43 46-44 0-65-28-63-81 5-162 8-330 16-486 3-53-4-75-28-106zm415 73c0-44-44-66-132-66-78 0-124 8-135 26-10 16-14 89-14 218 0 44 22 39 57 25 83-34 224-115 224-203" id="ai"/><path fill="#635dff" d="M608-642l-20 77c-36 56-69 94-113 138-49 48-58 40-29 81 33 46 69 89 97 147 44 89 52 141 40 147-3 38-20 49-63 52-68 5-97-106-129-160-40-68-56-162-144-164-53-1-27 78-45 121-7 56-12 123-28 170C157-4 113 24 66-1 46-11 40-39 49-87c19-111 19-139 19-313 0-144 1-187-40-242-27-37-13-94 26-108 103-36 250-59 389-41 63 8 182 85 165 149zm-140 11c-10-39-42-58-96-57-53 12-154 21-179 43-5 9-8 31-8 65 0 151 19 135 127 94 94-36 148-79 156-145" id="aj"/><path fill="#635dff" d="M330-158c82-22 193-18 286-31 38 11 58 81 24 113-25 24-71 25-116 25-135 0-238 34-358 47C61 7 4-52 15-159c12-113 37-213 32-340-2-59 2-121-2-178-2-44 35-62 81-61 104-31 222-52 345-64 68-7 103 34 111 94 2 12-3 22-9 31-33 14-62 15-103 16-100 2-196 10-270 40h-8c-18 23-11 79-15 106-1 13 5 22 16 25 82-10 176-25 264-12 44 7 78 26 71 72-7 49-76 30-125 30-78 0-138 22-210 29-24 1-35 28-36 52-2 41-10 83-8 126-19 84 122 51 181 35" id="ak"/><path fill="#635dff" d="M19-91c0-222 71-428 58-668-3-62 121-44 170-33 118 27 229 50 293 128 44 53 63 97 63 217 0 165-189 328-383 400-36 13-62 45-108 45-66 0-93-23-93-89zm185-582c-30 151-43 322-58 489 5 39 27 28 60 14 129-54 276-147 276-304 0-155-106-203-278-199" id="al"/><path fill="#635dff" d="M521-275c40-33 108-24 108 34 0 49-75 103-210 183-80 47-247 72-323 10-66-54-95-101-82-218 12-106 41-136 91-224 55-96 145-209 240-278 32-23 68-33 107-33 86 2 108 61 107 158 0 55-15 82-44 82-55 1-25-116-79-110-132 15-229 223-291 334-48 86-31 226 81 218 122-9 217-92 295-156" id="am"/><path fill="#635dff" d="M371-533c189 0 256 55 239 237-9 91-67 138-157 205C374-33 301-7 236-7 155-7 13-82 18-160c3-44 62-73 96-38 43 44 152 73 218 29 77-51 166-125 156-169 2-44-67-63-119-62-47 1-108 1-155 3C87-393 13-429 1-531c11-87 101-150 165-187 90-52 160-96 290-87 34 2 118 78 115 115-3 35-23 38-55 45-15 4-26-4-33-24-37-64-116-1-164 12-41 11-154 77-154 113 0 15 14 22 41 22 45 0 127-11 165-11" id="an"/><path fill="#635dff" d="M44-443c79-191 208-366 448-366 141 0 239 118 267 253 46 222-61 413-213 490-83 42-221 78-338 30-55-23-106-43-129-82-26-14-80-140-57-202 2-41 8-89 22-123zm103 115c1 136 75 191 208 191 130 0 180-50 241-135 38-53 55-111 55-169 0-109-73-236-179-227-143 12-260 151-311 271-9 24-14 47-14 69" id="ao"/><path fill="#635dff" d="M95-352c46 0 98-50 98-97 0-70-128-102-164-40-34 59-2 137 66 137zM93-47c47 0 96-50 96-96 0-41-53-72-92-72-54-1-84 29-84 81 0 50 30 87 80 87" id="ap"/><g id="O"><use transform="matrix(0.01555555555555555,0,0,0.01555555555555555,0,0)" xlink:href="#ai"/><use transform="matrix(0.01555555555555555,0,0,0.01555555555555555,8.77333333333333,0)" xlink:href="#aj"/><use transform="matrix(0.01555555555555555,0,0,0.01555555555555555,18.38666666666666,0)" xlink:href="#ak"/><use transform="matrix(0.01555555555555555,0,0,0.01555555555555555,28.746666666666655,0)" xlink:href="#al"/><use transform="matrix(0.01555555555555555,0,0,0.01555555555555555,38.14222222222221,0)" xlink:href="#ak"/><use transform="matrix(0.01555555555555555,0,0,0.01555555555555555,48.5022222222222,0)" xlink:href="#am"/><use transform="matrix(0.01555555555555555,0,0,0.01555555555555555,58.364444444444416,0)" xlink:href="#ak"/><use transform="matrix(0.01555555555555555,0,0,0.01555555555555555,68.72444444444442,0)" xlink:href="#an"/><use transform="matrix(0.01555555555555555,0,0,0.01555555555555555,78.53999999999996,0)" xlink:href="#ao"/><use transform="matrix(0.01555555555555555,0,0,0.01555555555555555,91.03111111111107,0)" xlink:href="#aj"/><use transform="matrix(0.01555555555555555,0,0,0.01555555555555555,100.6444444444444,0)" xlink:href="#ap"/></g><radialGradient gradientUnits="userSpaceOnUse" id="P" fx="3225.33" fy="-223.35" cx="3225.33" cy="-223.35" r="20.54"><stop offset="0%" stop-color="#6862ff" stop-opacity=".4"/><stop offset="60%" stop-color="#635dff" stop-opacity=".6"/><stop offset="100%" stop-color="#625cfc"/></radialGradient><path fill="#fcce14" d="M371-533c189 0 256 55 239 237-9 91-67 138-157 205C374-33 301-7 236-7 155-7 13-82 18-160c3-44 62-73 96-38 43 44 152 73 218 29 77-51 166-125 156-169 2-44-67-63-119-62-47 1-108 1-155 3C87-393 13-429 1-531c11-87 101-150 165-187 90-52 160-96 290-87 34 2 118 78 115 115-3 35-23 38-55 45-15 4-26-4-33-24-37-64-116-1-164 12-41 11-154 77-154 113 0 15 14 22 41 22 45 0 127-11 165-11" id="aq"/><path fill="#fcce14" d="M106-737c41-53 131 12 108 86-42 139-71 285-71 455 0 88 72 66 143 48 49-12 128-35 183-63 38-19 36-69 44-119 17-114 31-247 31-354 0-57 26-85 79-85 37 0 55 27 55 81 0 190-34 397-59 573 4 31 20 93-13 105-8 10-30 7-65-8-16-20-33-38-51-54C397-48 305 0 205 0 79 0 5-43 13-176c13-196 50-391 93-561" id="ar"/><path fill="#fcce14" d="M521-275c40-33 108-24 108 34 0 49-75 103-210 183-80 47-247 72-323 10-66-54-95-101-82-218 12-106 41-136 91-224 55-96 145-209 240-278 32-23 68-33 107-33 86 2 108 61 107 158 0 55-15 82-44 82-55 1-25-116-79-110-132 15-229 223-291 334-48 86-31 226 81 218 122-9 217-92 295-156" id="as"/><path fill="#fcce14" d="M330-158c82-22 193-18 286-31 38 11 58 81 24 113-25 24-71 25-116 25-135 0-238 34-358 47C61 7 4-52 15-159c12-113 37-213 32-340-2-59 2-121-2-178-2-44 35-62 81-61 104-31 222-52 345-64 68-7 103 34 111 94 2 12-3 22-9 31-33 14-62 15-103 16-100 2-196 10-270 40h-8c-18 23-11 79-15 106-1 13 5 22 16 25 82-10 176-25 264-12 44 7 78 26 71 72-7 49-76 30-125 30-78 0-138 22-210 29-24 1-35 28-36 52-2 41-10 83-8 126-19 84 122 51 181 35" id="at"/><path fill="#fcce14" d="M44-443c79-191 208-366 448-366 141 0 239 118 267 253 46 222-61 413-213 490-83 42-221 78-338 30-55-23-106-43-129-82-26-14-80-140-57-202 2-41 8-89 22-123zm103 115c1 136 75 191 208 191 130 0 180-50 241-135 38-53 55-111 55-169 0-109-73-236-179-227-143 12-260 151-311 271-9 24-14 47-14 69" id="au"/><path fill="#fcce14" d="M608-642l-20 77c-36 56-69 94-113 138-49 48-58 40-29 81 33 46 69 89 97 147 44 89 52 141 40 147-3 38-20 49-63 52-68 5-97-106-129-160-40-68-56-162-144-164-53-1-27 78-45 121-7 56-12 123-28 170C157-4 113 24 66-1 46-11 40-39 49-87c19-111 19-139 19-313 0-144 1-187-40-242-27-37-13-94 26-108 103-36 250-59 389-41 63 8 182 85 165 149zm-140 11c-10-39-42-58-96-57-53 12-154 21-179 43-5 9-8 31-8 65 0 151 19 135 127 94 94-36 148-79 156-145" id="av"/><path fill="#fcce14" d="M95-352c46 0 98-50 98-97 0-70-128-102-164-40-34 59-2 137 66 137zM93-47c47 0 96-50 96-96 0-41-53-72-92-72-54-1-84 29-84 81 0 50 30 87 80 87" id="aw"/><g id="Q"><use transform="matrix(0.01555555555555555,0,0,0.01555555555555555,0,0)" xlink:href="#aq"/><use transform="matrix(0.01555555555555555,0,0,0.01555555555555555,9.815555555555552,0)" xlink:href="#ar"/><use transform="matrix(0.01555555555555555,0,0,0.01555555555555555,20.7511111111111,0)" xlink:href="#as"/><use transform="matrix(0.01555555555555555,0,0,0.01555555555555555,30.61333333333332,0)" xlink:href="#at"/><use transform="matrix(0.01555555555555555,0,0,0.01555555555555555,40.973333333333315,0)" xlink:href="#aq"/><use transform="matrix(0.01555555555555555,0,0,0.01555555555555555,50.78888888888886,0)" xlink:href="#au"/><use transform="matrix(0.01555555555555555,0,0,0.01555555555555555,63.27999999999997,0)" xlink:href="#av"/><use transform="matrix(0.01555555555555555,0,0,0.01555555555555555,72.8933333333333,0)" xlink:href="#aw"/></g><radialGradient gradientUnits="userSpaceOnUse" id="R" fx="3199.67" fy="-182.48" cx="3199.67" cy="-182.48" r="20.54"><stop offset="0%" stop-color="#fcd01b" stop-opacity=".4"/><stop offset="60%" stop-color="#fcce14" stop-opacity=".6"/><stop offset="100%" stop-color="#f9cb14"/></radialGradient></defs></g></svg>