<svg xmlns="http://www.w3.org/2000/svg" xmlns:xlink="http://www.w3.org/1999/xlink" xmlns:lucid="lucid" width="1147" height="264.52"><g transform="translate(-2404 261)" lucid:page-tab-id="0_0"><path d="M2580-220.83c0 10.6-8.95 19.18-20 19.18s-20-8.6-20-19.18 8.95-19.17 20-19.17 20 8.6 20 19.17z" stroke="#fe7070" stroke-width="2" fill="url(#a)"/><path d="M2545-229.83a6 6 0 0 1 6-6h18a6 6 0 0 1 6 6v18a6 6 0 0 1-6 6h-18a6 6 0 0 1-6-6z" stroke="#000" stroke-opacity="0" stroke-width="3" fill-opacity="0"/><use xlink:href="#b" transform="matrix(1,0,0,1,2550,-230.82555783901324) translate(-1.1111111111111072 15.999999999999995)"/><path d="M2500-180.83c0 10.6-8.95 19.18-20 19.18s-20-8.6-20-19.18 8.95-19.17 20-19.17 20 8.6 20 19.17z" stroke="#fe7070" stroke-width="2" fill="url(#c)"/><path d="M2465-189.83a6 6 0 0 1 6-6h18a6 6 0 0 1 6 6v18a6 6 0 0 1-6 6h-18a6 6 0 0 1-6-6z" stroke="#000" stroke-opacity="0" stroke-width="3" fill-opacity="0"/><use xlink:href="#d" transform="matrix(1,0,0,1,2470,-190.82555783901324) translate(4.444444444444446 17.249999999999993)"/><path d="M2660-180.83c0 10.6-8.95 19.18-20 19.18s-20-8.6-20-19.18 8.95-19.17 20-19.17 20 8.6 20 19.17z" stroke="#fe7070" stroke-width="2" fill="url(#e)"/><path d="M2625-189.83a6 6 0 0 1 6-6h18a6 6 0 0 1 6 6v18a6 6 0 0 1-6 6h-18a6 6 0 0 1-6-6z" stroke="#000" stroke-opacity="0" stroke-width="3" fill-opacity="0"/><use xlink:href="#f" transform="matrix(1,0,0,1,2630,-190.82555783901324) translate(-1.1111111111111072 15.999999999999995)"/><path d="M2465-110.5c0 10.6-8.95 19.17-20 19.17s-20-8.58-20-19.17c0-10.6 8.95-19.18 20-19.18s20 8.6 20 19.18z" stroke="#fe7070" stroke-width="2" fill="url(#g)"/><path d="M2430-119.5a6 6 0 0 1 6-6h18a6 6 0 0 1 6 6v18a6 6 0 0 1-6 6h-18a6 6 0 0 1-6-6z" stroke="#000" stroke-opacity="0" stroke-width="3" fill-opacity="0"/><use xlink:href="#h" transform="matrix(1,0,0,1,2435,-120.50049775984391) translate(4.444444444444446 17.249999999999993)"/><path d="M2540-110.5c0 10.6-8.95 19.17-20 19.17s-20-8.58-20-19.17c0-10.6 8.95-19.18 20-19.18s20 8.6 20 19.18z" stroke="#fe7070" stroke-width="2" fill="url(#i)"/><path d="M2505-119.5a6 6 0 0 1 6-6h18a6 6 0 0 1 6 6v18a6 6 0 0 1-6 6h-18a6 6 0 0 1-6-6z" stroke="#000" stroke-opacity="0" stroke-width="3" fill-opacity="0"/><use xlink:href="#j" transform="matrix(1,0,0,1,2510,-120.50049775984391) translate(4.444444444444446 17.249999999999993)"/><path d="M2695-110.5c0 10.6-8.95 19.17-20 19.17s-20-8.58-20-19.17c0-10.6 8.95-19.18 20-19.18s20 8.6 20 19.18z" stroke="#fe7070" stroke-width="2" fill="url(#k)"/><path d="M2660-119.5a6 6 0 0 1 6-6h18a6 6 0 0 1 6 6v18a6 6 0 0 1-6 6h-18a6 6 0 0 1-6-6z" stroke="#000" stroke-opacity="0" stroke-width="3" fill-opacity="0"/><use xlink:href="#l" transform="matrix(1,0,0,1,2665,-120.50049775984391) translate(-1.1111111111111072 15.999999999999995)"/><path d="M2630-110.5c0 10.6-8.95 19.17-20 19.17s-20-8.58-20-19.17c0-10.6 8.95-19.18 20-19.18s20 8.6 20 19.18z" stroke="#fe7070" stroke-width="2" fill="url(#m)"/><path d="M2595-119.5a6 6 0 0 1 6-6h18a6 6 0 0 1 6 6v18a6 6 0 0 1-6 6h-18a6 6 0 0 1-6-6z" stroke="#000" stroke-opacity="0" stroke-width="3" fill-opacity="0"/><use xlink:href="#n" transform="matrix(1,0,0,1,2600,-120.50049775984391) translate(-1.1111111111111072 15.999999999999995)"/><path d="M2559.37-199.38l-40.5 13.6-.65-1.9 40.5-13.6z" stroke="#979ea8" stroke-width=".05" fill="#979ea8"/><path d="M2563.16-200.66l-3.8 1.28-.5-1.4 1.1.13 1.65-.06 1.45-.3z" fill="#979ea8"/><path d="M2563.2-200.64l-3.87 1.3-.5-1.47 1.13.13 1.65-.06 1.47-.3zm-1.6-.04l-1.65.06-1.04-.13.46 1.34 3.77-1.27-.1-.3z" stroke="#979ea8" stroke-width=".05" fill="#979ea8"/><path d="M2519.07-182l-15 .14 12.04-8.93z" fill="#979ea8"/><path d="M2520.45-181.02l-19.45.2 15.62-11.6zm-13.3-1.87l10.53-.1-2.07-6.17z" stroke="#979ea8" stroke-width=".05" fill="#979ea8"/><use xlink:href="#o" transform="matrix(1,0,0,1,2530.5003119827898,-201.78837240640988) translate(0.005 18.26388888888889)"/><path d="M2560.95-200.33l40.5 13.6" stroke="#979ea8" stroke-width="2" fill="none"/><path d="M2559.95-200.65l1.14-.04-.45 1.32-3.8-1.28.1-.36z" stroke="#979ea8" stroke-width=".05" fill="#979ea8"/><path d="M2615.93-181.86l-15-.15 2.96-8.8z" stroke="#979ea8" stroke-width="2" fill="#979ea8"/><path d="M2480.8-160.05l24.4 18.28" stroke="#979ea8" stroke-width="2" fill="none"/><path d="M2479.95-160.65l1.37-.05-1.1 1.46-2.2-1.65z" stroke="#979ea8" stroke-width=".05" fill="#979ea8"/><path d="M2517.4-132.62l-14.18-4.84 5.55-7.42z" stroke="#979ea8" stroke-width="2" fill="#979ea8"/><path d="M2479.24-160l-20.2 17.3" stroke="#979ea8" stroke-width="2" fill="none"/><path d="M2479.95-160.65l1.65-.06-1.73 1.48-1.3-1.52.08-.07z" stroke="#979ea8" stroke-width=".05" fill="#979ea8"/><path d="M2447.46-132.78l7.82-12.8 6.03 7.04z" stroke="#979ea8" stroke-width="2" fill="#979ea8"/><path d="M2639.3-159.94l-16.2 16.2" stroke="#979ea8" stroke-width="2" fill="none"/><path d="M2639.95-160.65l1.52-.05-1.5 1.48-1.4-1.4.17-.18z" stroke="#979ea8" stroke-width=".05" fill="#979ea8"/><path d="M2612.3-132.96l6.8-13.36 6.56 6.55z" stroke="#979ea8" stroke-width="2" fill="#979ea8"/><path d="M2640.76-160l20.2 17.3" stroke="#979ea8" stroke-width="2" fill="none"/><path d="M2639.95-160.65l1.44-.05-1.27 1.48-1.92-1.65z" stroke="#979ea8" stroke-width=".05" fill="#979ea8"/><path d="M2672.54-132.78l-13.85-5.76 6.02-7.04z" stroke="#979ea8" stroke-width="2" fill="#979ea8"/><path d="M2600-40.83c0 10.6-8.95 19.18-20 19.18s-20-8.6-20-19.18c0-10.6 8.95-19.17 20-19.17s20 8.6 20 19.17z" stroke="#fe7070" stroke-width="2" fill="url(#p)"/><path d="M2565-49.83a6 6 0 0 1 6-6h18a6 6 0 0 1 6 6v18a6 6 0 0 1-6 6h-18a6 6 0 0 1-6-6z" stroke="#000" stroke-opacity="0" stroke-width="3" fill-opacity="0"/><use xlink:href="#q" transform="matrix(1,0,0,1,2570,-50.82555783901324) translate(-1.1111111111111072 15.999999999999995)"/><path d="M2608.7-89.7l-15.62 15.62" stroke="#979ea8" stroke-width="2" fill="none"/><path d="M2609.95-90.32l.82-.03-1.4 1.4-1.4-1.43.17-.17z" stroke="#979ea8" stroke-width=".05" fill="#979ea8"/><path d="M2582.3-63.3l6.8-13.35 6.55 6.55z" stroke="#979ea8" stroke-width="2" fill="#979ea8"/><path d="M2677.5-185.05a6 6 0 0 1 6-6h108a6 6 0 0 1 6 6v21.57a6 6 0 0 1-6 6h-108a6 6 0 0 1-6-6z" fill="none"/><use xlink:href="#r" transform="matrix(1,0,0,1,2677.5,-191.04888122476711) translate(14.606119791666679 26.01692708333333)"/><path d="M2837.5-171.87c0 10.6-8.95 19.17-20 19.17s-20-8.6-20-19.17c0-10.6 8.95-19.18 20-19.18s20 8.6 20 19.18z" stroke="#008a0e" stroke-width="2" fill="url(#s)"/><path d="M2802.5-180.87a6 6 0 0 1 6-6h18a6 6 0 0 1 6 6v18a6 6 0 0 1-6 6h-18a6 6 0 0 1-6-6z" stroke="#000" stroke-opacity="0" stroke-width="3" fill-opacity="0"/><use xlink:href="#b" transform="matrix(1,0,0,1,2807.5,-181.87443906378036) translate(-1.1111111111111072 15.999999999999995)"/><path d="M2725-120a5 5 0 0 1 5-5h54a6 6 0 0 0 6-6v-5.25a2.3 2.3 0 0 1 4-1.54l12 13.34a6.68 6.68 0 0 1 0 8.92l-12 13.33a2.3 2.3 0 0 1-4-1.55V-109a6 6 0 0 0-6-6h-54a5 5 0 0 1-5-5z" stroke="#d916a8" stroke-width="3" fill-opacity="0"/><path d="M2987.5-216.65c0 10.6-8.95 19.17-20 19.17s-20-8.58-20-19.17c0-10.6 8.95-19.18 20-19.18s20 8.6 20 19.18z" stroke="#fe7070" stroke-width="2" fill="url(#t)"/><path d="M2952.5-225.65a6 6 0 0 1 6-6h18a6 6 0 0 1 6 6v18a6 6 0 0 1-6 6h-18a6 6 0 0 1-6-6z" stroke="#000" stroke-opacity="0" stroke-width="3" fill-opacity="0"/><use xlink:href="#b" transform="matrix(1,0,0,1,2957.5,-226.65111567802649) translate(-1.1111111111111072 15.999999999999995)"/><path d="M2907.5-176.65c0 10.6-8.95 19.17-20 19.17s-20-8.58-20-19.17c0-10.6 8.95-19.18 20-19.18s20 8.6 20 19.18z" stroke="#fe7070" stroke-width="2" fill="url(#u)"/><path d="M2872.5-185.65a6 6 0 0 1 6-6h18a6 6 0 0 1 6 6v18a6 6 0 0 1-6 6h-18a6 6 0 0 1-6-6z" stroke="#000" stroke-opacity="0" stroke-width="3" fill-opacity="0"/><use xlink:href="#d" transform="matrix(1,0,0,1,2877.5,-186.65111567802649) translate(4.444444444444446 17.249999999999993)"/><path d="M3067.5-176.65c0 10.6-8.95 19.17-20 19.17s-20-8.58-20-19.17c0-10.6 8.95-19.18 20-19.18s20 8.6 20 19.18z" stroke="#fe7070" stroke-width="2" fill="url(#v)"/><path d="M3032.5-185.65a6 6 0 0 1 6-6h18a6 6 0 0 1 6 6v18a6 6 0 0 1-6 6h-18a6 6 0 0 1-6-6z" stroke="#000" stroke-opacity="0" stroke-width="3" fill-opacity="0"/><use xlink:href="#f" transform="matrix(1,0,0,1,3037.5,-186.65111567802649) translate(-1.1111111111111072 15.999999999999995)"/><path d="M2872.5-106.33c0 10.6-8.95 19.18-20 19.18s-20-8.6-20-19.18c0-10.6 8.95-19.17 20-19.17s20 8.58 20 19.17z" stroke="#fe7070" stroke-width="2" fill="url(#w)"/><path d="M2837.5-115.33a6 6 0 0 1 6-6h18a6 6 0 0 1 6 6v18a6 6 0 0 1-6 6h-18a6 6 0 0 1-6-6z" stroke="#000" stroke-opacity="0" stroke-width="3" fill-opacity="0"/><use xlink:href="#h" transform="matrix(1,0,0,1,2842.5,-116.32605559885715) translate(4.444444444444446 17.249999999999993)"/><path d="M2947.5-106.33c0 10.6-8.95 19.18-20 19.18s-20-8.6-20-19.18c0-10.6 8.95-19.17 20-19.17s20 8.58 20 19.17z" stroke="#fe7070" stroke-width="2" fill="url(#x)"/><path d="M2912.5-115.33a6 6 0 0 1 6-6h18a6 6 0 0 1 6 6v18a6 6 0 0 1-6 6h-18a6 6 0 0 1-6-6z" stroke="#000" stroke-opacity="0" stroke-width="3" fill-opacity="0"/><use xlink:href="#j" transform="matrix(1,0,0,1,2917.5,-116.32605559885715) translate(4.444444444444446 17.249999999999993)"/><path d="M3102.5-106.33c0 10.6-8.95 19.18-20 19.18s-20-8.6-20-19.18c0-10.6 8.95-19.17 20-19.17s20 8.58 20 19.17z" stroke="#fe7070" stroke-width="2" fill="url(#y)"/><path d="M3067.5-115.33a6 6 0 0 1 6-6h18a6 6 0 0 1 6 6v18a6 6 0 0 1-6 6h-18a6 6 0 0 1-6-6z" stroke="#000" stroke-opacity="0" stroke-width="3" fill-opacity="0"/><use xlink:href="#l" transform="matrix(1,0,0,1,3072.5,-116.32605559885715) translate(-1.1111111111111072 15.999999999999995)"/><path d="M3037.5-106.33c0 10.6-8.95 19.18-20 19.18s-20-8.6-20-19.18c0-10.6 8.95-19.17 20-19.17s20 8.58 20 19.17z" stroke="#fe7070" stroke-width="2" fill="url(#z)"/><path d="M3002.5-115.33a6 6 0 0 1 6-6h18a6 6 0 0 1 6 6v18a6 6 0 0 1-6 6h-18a6 6 0 0 1-6-6z" stroke="#000" stroke-opacity="0" stroke-width="3" fill-opacity="0"/><use xlink:href="#n" transform="matrix(1,0,0,1,3007.5,-116.32605559885715) translate(-1.1111111111111072 15.999999999999995)"/><path d="M2966.87-195.2l-40.5 13.6-.65-1.9 40.5-13.6z" stroke="#979ea8" stroke-width=".05" fill="#979ea8"/><path d="M2970.66-196.48l-3.8 1.28-.5-1.4 1.1.13 1.65-.06 1.45-.3z" fill="#979ea8"/><path d="M2970.7-196.47l-3.87 1.3-.5-1.47 1.13.14 1.65-.06 1.47-.3zm-1.6-.04l-1.65.05-1.04-.13.46 1.35 3.77-1.27-.1-.3z" stroke="#979ea8" stroke-width=".05" fill="#979ea8"/><path d="M2926.57-177.83l-15 .15 12.04-8.94z" fill="#979ea8"/><path d="M2927.95-176.85l-19.45.2 15.62-11.6zm-13.3-1.86l10.53-.12-2.07-6.18z" stroke="#979ea8" stroke-width=".05" fill="#979ea8"/><use xlink:href="#o" transform="matrix(1,0,0,1,2938.0003119827898,-197.61393024542312) translate(0.005 18.26388888888889)"/><path d="M2968.45-196.16l40.5 13.62" stroke="#979ea8" stroke-width="2" fill="none"/><path d="M2967.45-196.47l1.14-.04-.45 1.3-3.8-1.28.1-.37z" stroke="#979ea8" stroke-width=".05" fill="#979ea8"/><path d="M3023.43-177.68l-15-.15 2.96-8.8z" stroke="#979ea8" stroke-width="2" fill="#979ea8"/><path d="M2888.3-155.88l24.4 18.28" stroke="#979ea8" stroke-width="2" fill="none"/><path d="M2887.45-156.47l1.37-.05-1.1 1.46-2.2-1.66z" stroke="#979ea8" stroke-width=".05" fill="#979ea8"/><path d="M2924.9-128.44l-14.18-4.85 5.55-7.4z" stroke="#979ea8" stroke-width="2" fill="#979ea8"/><path d="M2886.74-155.83l-20.2 17.3" stroke="#979ea8" stroke-width="2" fill="none"/><path d="M2887.45-156.47l1.65-.06-1.73 1.48-1.3-1.52.08-.07z" stroke="#979ea8" stroke-width=".05" fill="#979ea8"/><path d="M2854.96-128.6l7.82-12.8 6.03 7.03z" stroke="#979ea8" stroke-width="2" fill="#979ea8"/><path d="M3046.8-155.77l-16.2 16.2" stroke="#979ea8" stroke-width="2" fill="none"/><path d="M3047.45-156.47l1.52-.06-1.5 1.5-1.4-1.43.17-.17z" stroke="#979ea8" stroke-width=".05" fill="#979ea8"/><path d="M3019.8-128.8l6.8-13.35 6.56 6.56z" stroke="#979ea8" stroke-width="2" fill="#979ea8"/><path d="M3048.26-155.83l20.2 17.3" stroke="#979ea8" stroke-width="2" fill="none"/><path d="M3047.45-156.47l1.44-.06-1.27 1.48-1.92-1.64z" stroke="#979ea8" stroke-width=".05" fill="#979ea8"/><path d="M3080.04-128.6l-13.85-5.77 6.02-7.04z" stroke="#979ea8" stroke-width="2" fill="#979ea8"/><path d="M3007.5-36.65c0 10.6-8.95 19.17-20 19.17s-20-8.58-20-19.17c0-10.6 8.95-19.18 20-19.18s20 8.6 20 19.18z" stroke="#fe7070" stroke-width="2" fill="url(#A)"/><path d="M2972.5-45.65a6 6 0 0 1 6-6h18a6 6 0 0 1 6 6v18a6 6 0 0 1-6 6h-18a6 6 0 0 1-6-6z" stroke="#000" stroke-opacity="0" stroke-width="3" fill-opacity="0"/><use xlink:href="#q" transform="matrix(1,0,0,1,2977.5,-46.651115678026486) translate(-1.1111111111111072 15.999999999999995)"/><path d="M3016.2-85.5l-15.62 15.6" stroke="#979ea8" stroke-width="2" fill="none"/><path d="M3017.45-86.15l.82-.03-1.4 1.4-1.4-1.42.17-.18z" stroke="#979ea8" stroke-width=".05" fill="#979ea8"/><path d="M2989.8-59.1l6.8-13.38 6.55 6.56z" stroke="#979ea8" stroke-width="2" fill="#979ea8"/><path d="M3120-120a5 5 0 0 1 5-5h89a6 6 0 0 0 6-6v-5.25a2.3 2.3 0 0 1 4-1.54l12 13.34a6.68 6.68 0 0 1 0 8.92l-12 13.33a2.3 2.3 0 0 1-4-1.55V-109a6 6 0 0 0-6-6h-89a5 5 0 0 1-5-5z" stroke="#d916a8" stroke-width="3" fill-opacity="0"/><path d="M3102.5-225.05a6 6 0 0 1 6-6h108a6 6 0 0 1 6 6v21.57a6 6 0 0 1-6 6h-108a6 6 0 0 1-6-6z" fill="none"/><use xlink:href="#B" transform="matrix(1,0,0,1,3102.5,-231.04888122476711) translate(-3.015407986111093 26.01692708333333)"/><path d="M3090-184.45a6 6 0 0 1 6-6h108a6 6 0 0 1 6 6v21.58a6 6 0 0 1-6 6h-108a6 6 0 0 1-6-6z" fill="none"/><use xlink:href="#C" transform="matrix(1,0,0,1,3090,-190.44664677150774) translate(15.240885416666679 26.01692708333333)"/><path d="M3280-209.62c0 10.6-8.95 19.17-20 19.17s-20-8.58-20-19.17c0-10.6 8.95-19.18 20-19.18s20 8.6 20 19.18z" stroke="#635dff" stroke-width="2" fill="url(#D)"/><path d="M3245-218.62a6 6 0 0 1 6-6h18a6 6 0 0 1 6 6v18a6 6 0 0 1-6 6h-18a6 6 0 0 1-6-6z" stroke="#000" stroke-opacity="0" stroke-width="3" fill-opacity="0"/><use xlink:href="#j" transform="matrix(1,0,0,1,3250,-219.6210889324945) translate(4.444444444444446 17.249999999999993)"/><path d="M3245-168.67c0 10.6-8.95 19.18-20 19.18s-20-8.58-20-19.17c0-10.6 8.95-19.17 20-19.17s20 8.58 20 19.17z" stroke="#fc9432" stroke-width="2" fill="url(#E)"/><path d="M3210-177.67a6 6 0 0 1 6-6h18a6 6 0 0 1 6 6v18a6 6 0 0 1-6 6h-18a6 6 0 0 1-6-6z" stroke="#000" stroke-opacity="0" stroke-width="3" fill-opacity="0"/><use xlink:href="#q" transform="matrix(1,0,0,1,3215,-178.66668152071463) translate(-1.1111111111111072 15.999999999999995)"/><path d="M3415-216.65c0 10.6-8.95 19.17-20 19.17s-20-8.58-20-19.17c0-10.6 8.95-19.18 20-19.18s20 8.6 20 19.18z" stroke="#1071e5" stroke-width="2" fill="url(#F)"/><path d="M3380-225.65a6 6 0 0 1 6-6h18a6 6 0 0 1 6 6v18a6 6 0 0 1-6 6h-18a6 6 0 0 1-6-6z" stroke="#000" stroke-opacity="0" stroke-width="3" fill-opacity="0"/><use xlink:href="#j" transform="matrix(1,0,0,1,3385,-226.65111567802649) translate(4.444444444444446 17.249999999999993)"/><path d="M3335-176.65c0 10.6-8.95 19.17-20 19.17s-20-8.58-20-19.17c0-10.6 8.95-19.18 20-19.18s20 8.6 20 19.18z" stroke="#fe7070" stroke-width="2" fill="url(#G)"/><path d="M3300-185.65a6 6 0 0 1 6-6h18a6 6 0 0 1 6 6v18a6 6 0 0 1-6 6h-18a6 6 0 0 1-6-6z" stroke="#000" stroke-opacity="0" stroke-width="3" fill-opacity="0"/><use xlink:href="#d" transform="matrix(1,0,0,1,3305,-186.65111567802649) translate(4.444444444444446 17.249999999999993)"/><path d="M3495-176.65c0 10.6-8.95 19.17-20 19.17s-20-8.58-20-19.17c0-10.6 8.95-19.18 20-19.18s20 8.6 20 19.18z" stroke="#fe7070" stroke-width="2" fill="url(#H)"/><path d="M3460-185.65a6 6 0 0 1 6-6h18a6 6 0 0 1 6 6v18a6 6 0 0 1-6 6h-18a6 6 0 0 1-6-6z" stroke="#000" stroke-opacity="0" stroke-width="3" fill-opacity="0"/><use xlink:href="#f" transform="matrix(1,0,0,1,3465,-186.65111567802649) translate(-1.1111111111111072 15.999999999999995)"/><path d="M3300-106.33c0 10.6-8.95 19.18-20 19.18s-20-8.6-20-19.18c0-10.6 8.95-19.17 20-19.17s20 8.58 20 19.17z" stroke="#fe7070" stroke-width="2" fill="url(#I)"/><path d="M3265-115.33a6 6 0 0 1 6-6h18a6 6 0 0 1 6 6v18a6 6 0 0 1-6 6h-18a6 6 0 0 1-6-6z" stroke="#000" stroke-opacity="0" stroke-width="3" fill-opacity="0"/><use xlink:href="#h" transform="matrix(1,0,0,1,3270,-116.32605559885715) translate(4.444444444444446 17.249999999999993)"/><path d="M3530-106.33c0 10.6-8.95 19.18-20 19.18s-20-8.6-20-19.18c0-10.6 8.95-19.17 20-19.17s20 8.58 20 19.17z" stroke="#fe7070" stroke-width="2" fill="url(#J)"/><path d="M3495-115.33a6 6 0 0 1 6-6h18a6 6 0 0 1 6 6v18a6 6 0 0 1-6 6h-18a6 6 0 0 1-6-6z" stroke="#000" stroke-opacity="0" stroke-width="3" fill-opacity="0"/><use xlink:href="#l" transform="matrix(1,0,0,1,3500,-116.32605559885715) translate(-1.1111111111111072 15.999999999999995)"/><path d="M3465-106.33c0 10.6-8.95 19.18-20 19.18s-20-8.6-20-19.18c0-10.6 8.95-19.17 20-19.17s20 8.58 20 19.17z" stroke="#fe7070" stroke-width="2" fill="url(#K)"/><path d="M3430-115.33a6 6 0 0 1 6-6h18a6 6 0 0 1 6 6v18a6 6 0 0 1-6 6h-18a6 6 0 0 1-6-6z" stroke="#000" stroke-opacity="0" stroke-width="3" fill-opacity="0"/><use xlink:href="#n" transform="matrix(1,0,0,1,3435,-116.32605559885715) translate(-1.1111111111111072 15.999999999999995)"/><path d="M3394.37-195.2l-40.5 13.6-.65-1.9 40.5-13.6z" stroke="#979ea8" stroke-width=".05" fill="#979ea8"/><path d="M3398.16-196.48l-3.8 1.28-.5-1.4 1.1.13 1.65-.06 1.45-.3z" fill="#979ea8"/><path d="M3398.2-196.47l-3.87 1.3-.5-1.47 1.13.14 1.65-.06 1.47-.3zm-1.6-.04l-1.65.05-1.04-.13.46 1.35 3.77-1.27-.1-.3z" stroke="#979ea8" stroke-width=".05" fill="#979ea8"/><path d="M3354.07-177.83l-15 .15 12.04-8.94z" fill="#979ea8"/><path d="M3355.45-176.85l-19.45.2 15.62-11.6zm-13.3-1.86l10.53-.12-2.07-6.18z" stroke="#979ea8" stroke-width=".05" fill="#979ea8"/><use xlink:href="#o" transform="matrix(1,0,0,1,3365.5003119827898,-197.61393024542312) translate(0.005 18.26388888888889)"/><path d="M3395.95-196.16l40.5 13.62" stroke="#979ea8" stroke-width="2" fill="none"/><path d="M3394.95-196.47l1.14-.04-.45 1.3-3.8-1.28.1-.37z" stroke="#979ea8" stroke-width=".05" fill="#979ea8"/><path d="M3450.93-177.68l-15-.15 2.96-8.8z" stroke="#979ea8" stroke-width="2" fill="#979ea8"/><path d="M3314.24-155.83l-20.2 17.3" stroke="#979ea8" stroke-width="2" fill="none"/><path d="M3314.95-156.47l1.65-.06-1.73 1.48-1.3-1.52.08-.07z" stroke="#979ea8" stroke-width=".05" fill="#979ea8"/><path d="M3282.46-128.6l7.82-12.8 6.03 7.03z" stroke="#979ea8" stroke-width="2" fill="#979ea8"/><path d="M3474.3-155.77l-16.2 16.2" stroke="#979ea8" stroke-width="2" fill="none"/><path d="M3474.95-156.47l1.52-.06-1.5 1.5-1.4-1.43.17-.17z" stroke="#979ea8" stroke-width=".05" fill="#979ea8"/><path d="M3447.3-128.8l6.8-13.35 6.56 6.56z" stroke="#979ea8" stroke-width="2" fill="#979ea8"/><path d="M3475.76-155.83l20.2 17.3" stroke="#979ea8" stroke-width="2" fill="none"/><path d="M3474.95-156.47l1.44-.06-1.27 1.48-1.92-1.64z" stroke="#979ea8" stroke-width=".05" fill="#979ea8"/><path d="M3507.54-128.6l-13.85-5.77 6.02-7.04z" stroke="#979ea8" stroke-width="2" fill="#979ea8"/><path d="M3435-36.65c0 10.6-8.95 19.17-20 19.17s-20-8.58-20-19.17c0-10.6 8.95-19.18 20-19.18s20 8.6 20 19.18z" stroke="#fe7070" stroke-width="2" fill="url(#L)"/><path d="M3400-45.65a6 6 0 0 1 6-6h18a6 6 0 0 1 6 6v18a6 6 0 0 1-6 6h-18a6 6 0 0 1-6-6z" stroke="#000" stroke-opacity="0" stroke-width="3" fill-opacity="0"/><use xlink:href="#q" transform="matrix(1,0,0,1,3405,-46.651115678026486) translate(-1.1111111111111072 15.999999999999995)"/><path d="M3443.7-85.5l-15.62 15.6" stroke="#979ea8" stroke-width="2" fill="none"/><path d="M3444.95-86.15l.82-.03-1.4 1.4-1.4-1.42.17-.18z" stroke="#979ea8" stroke-width=".05" fill="#979ea8"/><path d="M3417.3-59.1l6.8-13.38 6.55 6.56z" stroke="#979ea8" stroke-width="2" fill="#979ea8"/><path d="M2500-40.83c0 10.6-8.95 19.18-20 19.18s-20-8.6-20-19.18c0-10.6 8.95-19.17 20-19.17s20 8.6 20 19.17z" stroke="#fe7070" stroke-width="2" fill="url(#M)"/><path d="M2465-49.83a6 6 0 0 1 6-6h18a6 6 0 0 1 6 6v18a6 6 0 0 1-6 6h-18a6 6 0 0 1-6-6z" stroke="#000" stroke-opacity="0" stroke-width="3" fill-opacity="0"/><use xlink:href="#N" transform="matrix(1,0,0,1,2470,-50.82555783901324) translate(4.444444444444446 17.249999999999993)"/><path d="M2519.48-89.47L2506.6-68.3" stroke="#979ea8" stroke-width="2" fill="none"/><path d="M2519.95-90.32l1.25-.05-.88 1.44-1.7-1.04.3-.48z" stroke="#979ea8" stroke-width=".05" fill="#979ea8"/><path d="M2498.67-55.25l3.45-14.6 7.92 4.82z" stroke="#979ea8" stroke-width="2" fill="#979ea8"/><path d="M2907.5-36.65c0 10.6-8.95 19.17-20 19.17s-20-8.58-20-19.17c0-10.6 8.95-19.18 20-19.18s20 8.6 20 19.18z" stroke="#fe7070" stroke-width="2" fill="url(#O)"/><path d="M2872.5-45.65a6 6 0 0 1 6-6h18a6 6 0 0 1 6 6v18a6 6 0 0 1-6 6h-18a6 6 0 0 1-6-6z" stroke="#000" stroke-opacity="0" stroke-width="3" fill-opacity="0"/><use xlink:href="#N" transform="matrix(1,0,0,1,2877.5,-46.651115678026486) translate(4.444444444444446 17.249999999999993)"/><path d="M2927-85.94l-13.02 21.75M2926.97-85.92l.53-.88" stroke="#979ea8" stroke-width="2" fill="none"/><path d="M2906.15-51.1l3.34-14.6 7.95 4.74z" stroke="#979ea8" stroke-width="2" fill="#979ea8"/><path d="M3375-106.33c0 10.6-8.95 19.18-20 19.18s-20-8.6-20-19.18c0-10.6 8.95-19.17 20-19.17s20 8.58 20 19.17z" stroke="#fe7070" stroke-width="2" fill="url(#P)"/><path d="M3340-115.33a6 6 0 0 1 6-6h18a6 6 0 0 1 6 6v18a6 6 0 0 1-6 6h-18a6 6 0 0 1-6-6z" stroke="#000" stroke-opacity="0" stroke-width="3" fill-opacity="0"/><use xlink:href="#N" transform="matrix(1,0,0,1,3345,-116.32605559885715) translate(4.444444444444446 17.249999999999993)"/><path d="M3315.8-155.88l24.4 18.28M3315.82-155.86l-.82-.62" stroke="#979ea8" stroke-width="2" fill="none"/><path d="M3352.4-128.44l-14.18-4.85 5.55-7.4z" stroke="#979ea8" stroke-width="2" fill="#979ea8"/><defs><radialGradient gradientUnits="userSpaceOnUse" id="a" fx="2560" fy="-220.83" cx="2560" cy="-220.83" r="20.54"><stop offset="0%" stop-color="#fe7474" stop-opacity=".4"/><stop offset="60%" stop-color="#fe7070" stop-opacity=".6"/><stop offset="100%" stop-color="#fb6f6f"/></radialGradient><path d="M23 0v-37h61v-169l-59 37v-38l62-41h46v211h57V0H23" id="Q"/><path d="M139-81c0-46-55-55-73-27H18l9-140h149v37H72l-4 63c44-38 133-4 122 66C201 21 21 35 11-62l49-4c5 18 15 30 39 30 26 0 40-18 40-45" id="R"/><g id="b"><use transform="matrix(0.05555555555555554,0,0,0.05555555555555554,0,0)" xlink:href="#Q"/><use transform="matrix(0.05555555555555554,0,0,0.05555555555555554,11.111111111111107,0)" xlink:href="#R"/></g><radialGradient gradientUnits="userSpaceOnUse" id="c" fx="2480" fy="-180.83" cx="2480" cy="-180.83" r="20.54"><stop offset="0%" stop-color="#fe7474" stop-opacity=".4"/><stop offset="60%" stop-color="#fe7070" stop-opacity=".6"/><stop offset="100%" stop-color="#fb6f6f"/></radialGradient><path d="M52 0c1-96 47-148 87-207H15v-41h169v40c-36 62-79 113-81 208H52" id="S"/><use transform="matrix(0.05555555555555554,0,0,0.05555555555555554,0,0)" xlink:href="#S" id="d"/><radialGradient gradientUnits="userSpaceOnUse" id="e" fx="2640" fy="-180.83" cx="2640" cy="-180.83" r="20.54"><stop offset="0%" stop-color="#fe7474" stop-opacity=".4"/><stop offset="60%" stop-color="#fe7070" stop-opacity=".6"/><stop offset="100%" stop-color="#fb6f6f"/></radialGradient><path d="M182-182c0 78-84 86-111 141h115V0H12c-6-101 99-100 120-180 1-22-12-31-33-32-23 0-32 14-35 34l-49-3c5-45 32-70 84-70 51 0 83 22 83 69" id="T"/><path d="M101-251c68 0 84 54 84 127C185-50 166 4 99 4S15-52 14-124c-1-75 17-127 87-127zm-1 216c37-5 36-46 36-89s4-89-36-89c-39 0-36 45-36 89 0 43-3 85 36 89" id="U"/><g id="f"><use transform="matrix(0.05555555555555554,0,0,0.05555555555555554,0,0)" xlink:href="#T"/><use transform="matrix(0.05555555555555554,0,0,0.05555555555555554,11.111111111111107,0)" xlink:href="#U"/></g><radialGradient gradientUnits="userSpaceOnUse" id="g" fx="2445" fy="-110.5" cx="2445" cy="-110.5" r="20.54"><stop offset="0%" stop-color="#fe7474" stop-opacity=".4"/><stop offset="60%" stop-color="#fe7070" stop-opacity=".6"/><stop offset="100%" stop-color="#fb6f6f"/></radialGradient><path d="M128-127c34 4 56 21 59 58 7 91-148 94-172 28-4-9-6-17-7-26l51-5c1 24 16 35 40 36 23 0 39-12 38-36-1-31-31-36-65-34v-40c32 2 59-3 59-33 0-20-13-33-34-33s-33 13-35 32l-50-3c6-44 37-68 86-68 50 0 83 20 83 66 0 35-22 52-53 58" id="V"/><use transform="matrix(0.05555555555555554,0,0,0.05555555555555554,0,0)" xlink:href="#V" id="h"/><radialGradient gradientUnits="userSpaceOnUse" id="i" fx="2520" fy="-110.5" cx="2520" cy="-110.5" r="20.54"><stop offset="0%" stop-color="#fe7474" stop-opacity=".4"/><stop offset="60%" stop-color="#fe7070" stop-opacity=".6"/><stop offset="100%" stop-color="#fb6f6f"/></radialGradient><path d="M115-159c48 0 72 30 72 78 0 54-30 85-83 85-64 0-91-50-91-122 0-98 58-163 141-120 15 8 21 24 27 44l-47 6c-5-31-48-31-61-4-7 14-11 33-11 60 9-17 28-27 53-27zM102-35c24 0 36-20 36-45s-11-43-37-43c-23 0-36 14-36 38 0 27 11 50 37 50" id="W"/><use transform="matrix(0.05555555555555554,0,0,0.05555555555555554,0,0)" xlink:href="#W" id="j"/><radialGradient gradientUnits="userSpaceOnUse" id="k" fx="2675" fy="-110.5" cx="2675" cy="-110.5" r="20.54"><stop offset="0%" stop-color="#fe7474" stop-opacity=".4"/><stop offset="60%" stop-color="#fe7070" stop-opacity=".6"/><stop offset="100%" stop-color="#fb6f6f"/></radialGradient><g id="l"><use transform="matrix(0.05555555555555554,0,0,0.05555555555555554,0,0)" xlink:href="#T"/><use transform="matrix(0.05555555555555554,0,0,0.05555555555555554,11.111111111111107,0)" xlink:href="#S"/></g><radialGradient gradientUnits="userSpaceOnUse" id="m" fx="2610" fy="-110.5" cx="2610" cy="-110.5" r="20.54"><stop offset="0%" stop-color="#fe7474" stop-opacity=".4"/><stop offset="60%" stop-color="#fe7070" stop-opacity=".6"/><stop offset="100%" stop-color="#fb6f6f"/></radialGradient><path d="M138-131c27 9 52 24 51 61 0 53-36 74-89 74S11-19 11-69c0-35 22-54 51-61-78-25-46-121 38-121 51 0 83 19 83 66 0 30-18 49-45 54zm-38-16c24 0 32-13 32-36 1-23-11-34-32-34-22 0-33 12-32 34 0 22 9 36 32 36zm1 116c27 0 37-17 37-43 0-25-13-39-39-39-24 0-37 15-37 40 0 27 11 42 39 42" id="X"/><g id="n"><use transform="matrix(0.05555555555555554,0,0,0.05555555555555554,0,0)" xlink:href="#Q"/><use transform="matrix(0.05555555555555554,0,0,0.05555555555555554,11.111111111111107,0)" xlink:href="#X"/></g><radialGradient gradientUnits="userSpaceOnUse" id="p" fx="2580" fy="-40.83" cx="2580" cy="-40.83" r="20.54"><stop offset="0%" stop-color="#fe7474" stop-opacity=".4"/><stop offset="60%" stop-color="#fe7070" stop-opacity=".6"/><stop offset="100%" stop-color="#fb6f6f"/></radialGradient><g id="q"><use transform="matrix(0.05555555555555554,0,0,0.05555555555555554,0,0)" xlink:href="#Q"/><use transform="matrix(0.05555555555555554,0,0,0.05555555555555554,11.111111111111107,0)" xlink:href="#W"/></g><path fill="#008a0e" d="M369 0C201 0 119-119 119-294c0-119 26-272 77-457 80-290 99-377 125-524 7-13 27-26 60-41 71-33 211-49 419-49 129 0 193 36 193 107 0 50-48 105-99 101-142-10-258-9-397 20-11 59-34 158-69 297 146-57 246-85 301-85 53 0 100 43 100 96 0 43-23 80-73 99-127 49-178 54-389 129-29 119-44 224-44 314 0 58 10 87 30 87 66 0 151-30 256-90s173-91 205-91c50 0 101 49 101 99 0 30-19 57-51 87C794-129 500 0 369 0" id="Y"/><path fill="#008a0e" d="M759-451c68-46 151 19 151 87 0 27-17 54-48 86C767-182 491 0 329 0 186 0 114-109 114-326c0-169 46-507 46-695 0-139-8-341 120-344 53-2 103 46 101 99-4-2-27 472-40 636-16 198-27 312-27 343 0 57 11 86 32 86 61 0 169-62 325-185 19-16 49-38 88-65" id="Z"/><path fill="#008a0e" d="M270-1365c53 0 101 46 100 99-5 357-80 777-80 1073C290-64 254 0 183 0 132 0 82-50 82-101c0-298 47-662 55-976 2-76 19-138 34-189 19-66 52-99 99-99" id="aa"/><path fill="#008a0e" d="M188 0C127 1 82-61 96-128c102-498 136-682 239-1056 16-58 29-97 39-118 39-81 152-87 186 3 8 21 18 60 27 118 29 181 79 412 149 693 44-195 133-594 228-824 15-37 48-53 86-53 50 0 89 31 100 97 19 117 18 225 53 381 45 201 158 605 162 785 1 54-41 102-95 102-46 0-83-20-96-65-38-130-44-258-87-432-40-161-61-264-70-309-35 138-86 345-147 622-13 58-23 96-30 117-29 83-132 87-176 19-11-18-25-49-39-97-63-219-122-453-173-703-35 145-85 365-140 660-11 60-19 101-29 123-20 43-51 65-95 65" id="ab"/><path fill="#008a0e" d="M829-1263c0-55 42-106 96-102 141 10 133 224 150 372 25 219 36 341 36 365 0 117-18 227-55 328C983-97 875 5 732 5 532 5 402-187 343-570c-16 123-24 243-24 360C319-70 282 0 207 0c-53 0-99-44-99-97 0-315 85-1025 186-1197 27-46 56-71 93-71 53 0 88 33 105 99 5 21 8 92 8 213 0 153 26 313 55 481 43 253 101 379 172 379 116 0 183-303 183-438 0-120-81-513-81-632" id="ac"/><path fill="#008a0e" d="M922-654c-9 182 20 369 29 555 5 90-140 139-183 58-2-3-13-31-31-85-54-160-191-263-414-306-19 75-30 243-58 360-12 50-51 72-98 72-55 0-99-53-99-108 1-366 195-896 360-1117 69-92 141-140 222-140 182 0 273 207 273 621 0 19 1 49-1 90zM724-476v-400c-20-103-13-145-35-225-11-40-25-60-40-60-32 0-83 65-154 195-56 103-99 215-130 336 137 27 256 79 359 154" id="ad"/><path fill="#008a0e" d="M432-1365c342 0 623 232 623 568 0 219-132 374-395 466 145 90 217 167 217 230 0 52-52 98-104 96-17 0-39-10-66-29-90-65-203-166-304-203v78C403-53 368 0 299 0c-53 0-99-44-99-97v-374c17-145 25-361 25-650-2 5-10 7-24 7-53 2-99-46-99-99 0-112 194-152 330-152zm257 786c221-128 209-317 21-469-89-71-178-111-268-119-1 97-2 329-2 698 90-27 172-66 249-110" id="ae"/><path fill="#008a0e" d="M268-847c61 0 138 58 138 120s-57 130-121 130c-60 0-125-53-125-113 0-72 40-137 108-137zm-96 728c0-58 89-135 145-135 72 0 108 42 108 126C399-70 383-1 305 0c-62 1-133-56-133-119" id="af"/><g id="r"><use transform="matrix(0.01085069444444444,0,0,0.01085069444444444,0,0)" xlink:href="#Y"/><use transform="matrix(0.01085069444444444,0,0,0.01085069444444444,12.076822916666663,0)" xlink:href="#Z"/><use transform="matrix(0.01085069444444444,0,0,0.01085069444444444,22.01605902777777,0)" xlink:href="#aa"/><use transform="matrix(0.01085069444444444,0,0,0.01085069444444444,26.844618055555546,0)" xlink:href="#ab"/><use transform="matrix(0.01085069444444444,0,0,0.01085069444444444,42.7517361111111,0)" xlink:href="#aa"/><use transform="matrix(0.01085069444444444,0,0,0.01085069444444444,47.58029513888888,0)" xlink:href="#ac"/><use transform="matrix(0.01085069444444444,0,0,0.01085069444444444,60.861545138888864,0)" xlink:href="#ad"/><use transform="matrix(0.01085069444444444,0,0,0.01085069444444444,72.45008680555553,0)" xlink:href="#ae"/><use transform="matrix(0.01085069444444444,0,0,0.01085069444444444,84.54861111111109,0)" xlink:href="#af"/></g><radialGradient gradientUnits="userSpaceOnUse" id="s" fx="2817.5" fy="-171.87" cx="2817.5" cy="-171.87" r="20.54"><stop offset="0%" stop-color="#088e16" stop-opacity=".4"/><stop offset="60%" stop-color="#008a0e" stop-opacity=".6"/><stop offset="100%" stop-color="#00880e"/></radialGradient><radialGradient gradientUnits="userSpaceOnUse" id="t" fx="2967.5" fy="-216.65" cx="2967.5" cy="-216.65" r="20.54"><stop offset="0%" stop-color="#fe7474" stop-opacity=".4"/><stop offset="60%" stop-color="#fe7070" stop-opacity=".6"/><stop offset="100%" stop-color="#fb6f6f"/></radialGradient><radialGradient gradientUnits="userSpaceOnUse" id="u" fx="2887.5" fy="-176.65" cx="2887.5" cy="-176.65" r="20.54"><stop offset="0%" stop-color="#fe7474" stop-opacity=".4"/><stop offset="60%" stop-color="#fe7070" stop-opacity=".6"/><stop offset="100%" stop-color="#fb6f6f"/></radialGradient><radialGradient gradientUnits="userSpaceOnUse" id="v" fx="3047.5" fy="-176.65" cx="3047.5" cy="-176.65" r="20.54"><stop offset="0%" stop-color="#fe7474" stop-opacity=".4"/><stop offset="60%" stop-color="#fe7070" stop-opacity=".6"/><stop offset="100%" stop-color="#fb6f6f"/></radialGradient><radialGradient gradientUnits="userSpaceOnUse" id="w" fx="2852.5" fy="-106.33" cx="2852.5" cy="-106.33" r="20.54"><stop offset="0%" stop-color="#fe7474" stop-opacity=".4"/><stop offset="60%" stop-color="#fe7070" stop-opacity=".6"/><stop offset="100%" stop-color="#fb6f6f"/></radialGradient><radialGradient gradientUnits="userSpaceOnUse" id="x" fx="2927.5" fy="-106.33" cx="2927.5" cy="-106.33" r="20.54"><stop offset="0%" stop-color="#fe7474" stop-opacity=".4"/><stop offset="60%" stop-color="#fe7070" stop-opacity=".6"/><stop offset="100%" stop-color="#fb6f6f"/></radialGradient><radialGradient gradientUnits="userSpaceOnUse" id="y" fx="3082.5" fy="-106.33" cx="3082.5" cy="-106.33" r="20.54"><stop offset="0%" stop-color="#fe7474" stop-opacity=".4"/><stop offset="60%" stop-color="#fe7070" stop-opacity=".6"/><stop offset="100%" stop-color="#fb6f6f"/></radialGradient><radialGradient gradientUnits="userSpaceOnUse" id="z" fx="3017.5" fy="-106.33" cx="3017.5" cy="-106.33" r="20.54"><stop offset="0%" stop-color="#fe7474" stop-opacity=".4"/><stop offset="60%" stop-color="#fe7070" stop-opacity=".6"/><stop offset="100%" stop-color="#fb6f6f"/></radialGradient><radialGradient gradientUnits="userSpaceOnUse" id="A" fx="2987.5" fy="-36.65" cx="2987.5" cy="-36.65" r="20.54"><stop offset="0%" stop-color="#fe7474" stop-opacity=".4"/><stop offset="60%" stop-color="#fe7070" stop-opacity=".6"/><stop offset="100%" stop-color="#fb6f6f"/></radialGradient><path fill="#1071e5" d="M488-1365c273 0 550 113 550 360 0 140-81 265-244 374-130 87-276 146-439 180-8 56-16 299-32 372-12 53-47 79-94 79-53 0-99-48-99-101 0-200 54-864 49-1044-37-23-56-56-56-99 0-39 25-69 73-90s145-31 292-31zm348 355c0-132-280-161-454-151-1 136-1 303-1 501 100-31 192-72 276-122 119-70 179-146 179-228" id="ag"/><path fill="#1071e5" d="M432-1365c342 0 623 232 623 568 0 219-132 374-395 466 145 90 217 167 217 230 0 52-52 98-104 96-17 0-39-10-66-29-90-65-203-166-304-203v78C403-53 368 0 299 0c-53 0-99-44-99-97v-374c17-145 25-361 25-650-2 5-10 7-24 7-53 2-99-46-99-99 0-112 194-152 330-152zm257 786c221-128 209-317 21-469-89-71-178-111-268-119-1 97-2 329-2 698 90-27 172-66 249-110" id="ah"/><path fill="#1071e5" d="M369 0C201 0 119-119 119-294c0-119 26-272 77-457 80-290 99-377 125-524 7-13 27-26 60-41 71-33 211-49 419-49 129 0 193 36 193 107 0 50-48 105-99 101-142-10-258-9-397 20-11 59-34 158-69 297 146-57 246-85 301-85 53 0 100 43 100 96 0 43-23 80-73 99-127 49-178 54-389 129-29 119-44 224-44 314 0 58 10 87 30 87 66 0 151-30 256-90s173-91 205-91c50 0 101 49 101 99 0 30-19 57-51 87C794-129 500 0 369 0" id="ai"/><path fill="#1071e5" d="M387-1365c369 0 678 217 678 573 0 172-83 346-249 522C647-90 478 0 307 0 194 0 137-80 137-239c0-257 30-558 68-915-53-11-80-43-80-95 0-56 32-93 97-108 26-6 81-8 165-8zm21 204c-15 76-47 491-72 917 0 13 1 27 2 41 116-22 231-92 346-210 120-123 180-241 180-355-1-196-67-277-209-343-74-35-157-50-247-50" id="aj"/><path fill="#1071e5" d="M773-362c52-3 103 50 103 101 0 27-17 56-48 89C762-102 548 0 418 0 210 0 81-204 84-422c3-221 73-486 152-640 103-201 220-303 358-303 167 0 251 128 251 385 0 123-35 185-106 185-48 0-101-46-99-94 2-77 27-278-39-278-46 0-94 47-150 138-89 144-168 415-168 602 0 146 56 219 169 219 46 0 106-26 180-77s122-77 141-77" id="ak"/><path fill="#1071e5" d="M196-1063c0-251 371-378 608-255 71 37 119 87 150 151 35 73-14 152-87 150-26 0-63-25-111-73s-102-72-162-72c-72 0-200 37-200 99 0 43 47 111 142 203 145 142 234 232 266 271 95 116 142 225 142 328C944-95 791 0 613 0 494 0 170-60 118-111c-29-29-48-55-48-87-1-69 67-120 140-92h-2c162 59 305 89 429 89 69 0 104-25 104-75 0-69-47-151-142-245-86-86-177-167-261-254-98-100-142-199-142-288" id="al"/><path fill="#1071e5" d="M609-1364c323 0 519 229 519 557 0 183-51 357-152 522C860-95 716 0 544 0 271 0 97-283 97-570c0-191 38-362 113-512 95-188 228-282 399-282zm319 550c0-231-116-347-349-347-81 0-151 81-210 243-48 132-72 248-72 348 0 161 47 272 142 333 35 23 69 34 100 34 113 0 208-76 287-229 68-131 102-258 102-382" id="am"/><path fill="#1071e5" d="M268-847c61 0 138 58 138 120s-57 130-121 130c-60 0-125-53-125-113 0-72 40-137 108-137zm-96 728c0-58 89-135 145-135 72 0 108 42 108 126C399-70 383-1 305 0c-62 1-133-56-133-119" id="an"/><g id="B"><use transform="matrix(0.01085069444444444,0,0,0.01085069444444444,0,0)" xlink:href="#ag"/><use transform="matrix(0.01085069444444444,0,0,0.01085069444444444,11.501736111111107,0)" xlink:href="#ah"/><use transform="matrix(0.01085069444444444,0,0,0.01085069444444444,23.817274305555546,0)" xlink:href="#ai"/><use transform="matrix(0.01085069444444444,0,0,0.01085069444444444,35.89409722222221,0)" xlink:href="#aj"/><use transform="matrix(0.01085069444444444,0,0,0.01085069444444444,48.18793402777776,0)" xlink:href="#ai"/><use transform="matrix(0.01085069444444444,0,0,0.01085069444444444,60.26475694444442,0)" xlink:href="#ak"/><use transform="matrix(0.01085069444444444,0,0,0.01085069444444444,70.76822916666664,0)" xlink:href="#ai"/><use transform="matrix(0.01085069444444444,0,0,0.01085069444444444,82.8450520833333,0)" xlink:href="#al"/><use transform="matrix(0.01085069444444444,0,0,0.01085069444444444,94.45529513888886,0)" xlink:href="#am"/><use transform="matrix(0.01085069444444444,0,0,0.01085069444444444,107.69314236111107,0)" xlink:href="#ah"/><use transform="matrix(0.01085069444444444,0,0,0.01085069444444444,119.79166666666663,0)" xlink:href="#an"/></g><path fill="#fc9432" d="M196-1063c0-251 371-378 608-255 71 37 119 87 150 151 35 73-14 152-87 150-26 0-63-25-111-73s-102-72-162-72c-72 0-200 37-200 99 0 43 47 111 142 203 145 142 234 232 266 271 95 116 142 225 142 328C944-95 791 0 613 0 494 0 170-60 118-111c-29-29-48-55-48-87-1-69 67-120 140-92h-2c162 59 305 89 429 89 69 0 104-25 104-75 0-69-47-151-142-245-86-86-177-167-261-254-98-100-142-199-142-288" id="ao"/><path fill="#fc9432" d="M806-1260c0-54 39-105 95-105 43 0 76 24 99 73 18 39 27 131 27 277 0 274-20 484-61 631C894-128 756 0 553 0 384 0 262-90 188-270c-51-126-77-289-77-488 0-289 18-467 53-534 26-49 59-73 99-73 53 0 105 52 99 104-14 128-48 300-48 513 0 128 14 239 41 332 41 144 108 216 201 216 105 0 180-98 226-293 29-124 44-265 44-422 0-66-20-279-20-345" id="ap"/><path fill="#fc9432" d="M768-362c52-3 102 50 102 101 0 27-17 56-47 89C758-102 542 0 413 0 205 0 76-203 79-422c3-220 72-486 151-640 103-201 221-303 359-303 167 0 251 128 251 385 0 123-35 185-106 185-48 0-101-46-99-94 2-77 27-279-39-278-99 4-207 230-243 339-48 149-75 282-75 401 0 146 56 219 169 219 45 0 105-26 180-77s122-77 141-77" id="aq"/><path fill="#fc9432" d="M362 0C195 0 113-120 113-294c0-119 25-272 76-457 80-290 99-377 125-524 7-13 27-26 60-41 71-33 211-49 420-49 128 0 192 36 192 107 0 50-48 105-99 101-142-10-258-9-397 20-11 59-33 158-68 297 145-57 245-85 300-85 53 0 101 43 101 96 0 43-23 79-74 99-127 49-178 54-389 129-29 119-44 224-44 314 0 58 10 87 30 87 66 0 151-30 256-90s173-91 205-91c51 0 101 49 101 99 0 30-19 57-51 87C788-129 492 0 362 0" id="ar"/><path fill="#fc9432" d="M608-1364c322 0 518 229 518 557 0 183-50 357-151 522C858-95 714 0 543 0 269 0 96-283 96-570c0-191 37-362 112-512 94-188 228-282 400-282zm319 550c0-231-117-347-350-347-81 0-151 81-210 243-48 132-72 248-72 348 0 161 47 272 142 333 35 23 69 34 101 34 113 0 207-77 286-229 68-131 103-258 103-382" id="as"/><path fill="#fc9432" d="M430-1365c342 0 623 231 623 568 0 219-131 374-394 466 145 90 217 167 217 230 0 52-53 98-105 96-17 0-39-10-66-29-90-66-201-166-304-203v78C401-53 366 0 297 0c-53 0-99-44-99-97v-374c17-145 26-361 26-650-3 5-11 7-24 7-53 2-99-46-99-99 0-112 193-152 329-152zm258 786c221-128 209-317 20-469-89-71-178-111-268-119-1 97-1 329-1 698 89-27 172-65 249-110" id="at"/><path fill="#fc9432" d="M268-847c61 0 138 58 138 120s-57 130-121 130c-60 0-125-53-125-113 0-72 40-137 108-137zm-96 728c0-58 89-135 145-135 72 0 108 42 108 126C399-70 383-1 305 0c-62 1-133-56-133-119" id="au"/><g id="C"><use transform="matrix(0.01085069444444444,0,0,0.01085069444444444,0,0)" xlink:href="#ao"/><use transform="matrix(0.01085069444444444,0,0,0.01085069444444444,11.588541666666663,0)" xlink:href="#ap"/><use transform="matrix(0.01085069444444444,0,0,0.01085069444444444,23.925781249999993,0)" xlink:href="#aq"/><use transform="matrix(0.01085069444444444,0,0,0.01085069444444444,34.29904513888888,0)" xlink:href="#ar"/><use transform="matrix(0.01085069444444444,0,0,0.01085069444444444,46.20225694444443,0)" xlink:href="#ao"/><use transform="matrix(0.01085069444444444,0,0,0.01085069444444444,57.79079861111109,0)" xlink:href="#as"/><use transform="matrix(0.01085069444444444,0,0,0.01085069444444444,70.99609374999997,0)" xlink:href="#at"/><use transform="matrix(0.01085069444444444,0,0,0.01085069444444444,83.27907986111109,0)" xlink:href="#au"/></g><radialGradient gradientUnits="userSpaceOnUse" id="D" fx="3260" fy="-209.62" cx="3260" cy="-209.62" r="20.54"><stop offset="0%" stop-color="#6862ff" stop-opacity=".4"/><stop offset="60%" stop-color="#635dff" stop-opacity=".6"/><stop offset="100%" stop-color="#625cfc"/></radialGradient><radialGradient gradientUnits="userSpaceOnUse" id="E" fx="3225" fy="-168.67" cx="3225" cy="-168.67" r="20.54"><stop offset="0%" stop-color="#fc9738" stop-opacity=".4"/><stop offset="60%" stop-color="#fc9432" stop-opacity=".6"/><stop offset="100%" stop-color="#f99231"/></radialGradient><radialGradient gradientUnits="userSpaceOnUse" id="F" fx="3395" fy="-216.65" cx="3395" cy="-216.65" r="20.54"><stop offset="0%" stop-color="#1775e6" stop-opacity=".4"/><stop offset="60%" stop-color="#1071e5" stop-opacity=".6"/><stop offset="100%" stop-color="#1070e2"/></radialGradient><radialGradient gradientUnits="userSpaceOnUse" id="G" fx="3315" fy="-176.65" cx="3315" cy="-176.65" r="20.54"><stop offset="0%" stop-color="#fe7474" stop-opacity=".4"/><stop offset="60%" stop-color="#fe7070" stop-opacity=".6"/><stop offset="100%" stop-color="#fb6f6f"/></radialGradient><radialGradient gradientUnits="userSpaceOnUse" id="H" fx="3475" fy="-176.65" cx="3475" cy="-176.65" r="20.54"><stop offset="0%" stop-color="#fe7474" stop-opacity=".4"/><stop offset="60%" stop-color="#fe7070" stop-opacity=".6"/><stop offset="100%" stop-color="#fb6f6f"/></radialGradient><radialGradient gradientUnits="userSpaceOnUse" id="I" fx="3280" fy="-106.33" cx="3280" cy="-106.33" r="20.54"><stop offset="0%" stop-color="#fe7474" stop-opacity=".4"/><stop offset="60%" stop-color="#fe7070" stop-opacity=".6"/><stop offset="100%" stop-color="#fb6f6f"/></radialGradient><radialGradient gradientUnits="userSpaceOnUse" id="J" fx="3510" fy="-106.33" cx="3510" cy="-106.33" r="20.54"><stop offset="0%" stop-color="#fe7474" stop-opacity=".4"/><stop offset="60%" stop-color="#fe7070" stop-opacity=".6"/><stop offset="100%" stop-color="#fb6f6f"/></radialGradient><radialGradient gradientUnits="userSpaceOnUse" id="K" fx="3445" fy="-106.33" cx="3445" cy="-106.33" r="20.54"><stop offset="0%" stop-color="#fe7474" stop-opacity=".4"/><stop offset="60%" stop-color="#fe7070" stop-opacity=".6"/><stop offset="100%" stop-color="#fb6f6f"/></radialGradient><radialGradient gradientUnits="userSpaceOnUse" id="L" fx="3415" fy="-36.65" cx="3415" cy="-36.65" r="20.54"><stop offset="0%" stop-color="#fe7474" stop-opacity=".4"/><stop offset="60%" stop-color="#fe7070" stop-opacity=".6"/><stop offset="100%" stop-color="#fb6f6f"/></radialGradient><radialGradient gradientUnits="userSpaceOnUse" id="M" fx="2480" fy="-40.83" cx="2480" cy="-40.83" r="20.54"><stop offset="0%" stop-color="#fe7474" stop-opacity=".4"/><stop offset="60%" stop-color="#fe7070" stop-opacity=".6"/><stop offset="100%" stop-color="#fb6f6f"/></radialGradient><use transform="matrix(0.05555555555555554,0,0,0.05555555555555554,0,0)" xlink:href="#R" id="N"/><radialGradient gradientUnits="userSpaceOnUse" id="O" fx="2887.5" fy="-36.65" cx="2887.5" cy="-36.65" r="20.54"><stop offset="0%" stop-color="#fe7474" stop-opacity=".4"/><stop offset="60%" stop-color="#fe7070" stop-opacity=".6"/><stop offset="100%" stop-color="#fb6f6f"/></radialGradient><radialGradient gradientUnits="userSpaceOnUse" id="P" fx="3355" fy="-106.33" cx="3355" cy="-106.33" r="20.54"><stop offset="0%" stop-color="#fe7474" stop-opacity=".4"/><stop offset="60%" stop-color="#fe7070" stop-opacity=".6"/><stop offset="100%" stop-color="#fb6f6f"/></radialGradient></defs></g></svg>