<svg xmlns="http://www.w3.org/2000/svg" xmlns:xlink="http://www.w3.org/1999/xlink" xmlns:lucid="lucid" width="1221.5" height="241.24"><g transform="translate(-2439 300.7363651306799)" lucid:page-tab-id="0_0"><path d="M2580-220.83c0 10.6-8.95 19.18-20 19.18s-20-8.6-20-19.18 8.95-19.17 20-19.17 20 8.6 20 19.17z" stroke="#635dff" stroke-width="2" fill="url(#a)"/><path d="M2545-229.83a6 6 0 0 1 6-6h18a6 6 0 0 1 6 6v18a6 6 0 0 1-6 6h-18a6 6 0 0 1-6-6z" stroke="#000" stroke-opacity="0" stroke-width="3" fill-opacity="0"/><use xlink:href="#b" transform="matrix(1,0,0,1,2550,-230.82555783901324) translate(-1.1111111111111072 15.999999999999995)"/><path d="M2500-180.83c0 10.6-8.95 19.18-20 19.18s-20-8.6-20-19.18 8.95-19.17 20-19.17 20 8.6 20 19.17z" stroke="#fcce14" stroke-width="2" fill="url(#c)"/><path d="M2465-189.83a6 6 0 0 1 6-6h18a6 6 0 0 1 6 6v18a6 6 0 0 1-6 6h-18a6 6 0 0 1-6-6z" stroke="#000" stroke-opacity="0" stroke-width="3" fill-opacity="0"/><use xlink:href="#d" transform="matrix(1,0,0,1,2470,-190.82555783901324) translate(4.444444444444446 17.249999999999993)"/><path d="M2660-180.83c0 10.6-8.95 19.18-20 19.18s-20-8.6-20-19.18 8.95-19.17 20-19.17 20 8.6 20 19.17z" stroke="#e81313" stroke-width="2" fill="url(#e)"/><path d="M2625-189.83a6 6 0 0 1 6-6h18a6 6 0 0 1 6 6v18a6 6 0 0 1-6 6h-18a6 6 0 0 1-6-6z" stroke="#000" stroke-opacity="0" stroke-width="3" fill-opacity="0"/><use xlink:href="#f" transform="matrix(1,0,0,1,2630,-190.82555783901324) translate(-1.1111111111111072 15.999999999999995)"/><path d="M2559.37-199.38l-40.5 13.6-.65-1.9 40.5-13.6z" stroke="#979ea8" stroke-width=".05" fill="#979ea8"/><path d="M2563.16-200.66l-3.8 1.28-.5-1.4 1.1.13 1.65-.06 1.45-.3z" fill="#979ea8"/><path d="M2563.2-200.64l-3.87 1.3-.5-1.47 1.13.13 1.65-.06 1.47-.3zm-1.6-.04l-1.65.06-1.04-.13.46 1.34 3.77-1.27-.1-.3z" stroke="#979ea8" stroke-width=".05" fill="#979ea8"/><path d="M2519.07-182l-15 .14 12.04-8.93z" fill="#979ea8"/><path d="M2520.45-181.02l-19.45.2 15.62-11.6zm-13.3-1.87l10.53-.1-2.07-6.17z" stroke="#979ea8" stroke-width=".05" fill="#979ea8"/><use xlink:href="#g" transform="matrix(1,0,0,1,2530.5003119827898,-201.78837240640988) translate(0.005 18.26388888888889)"/><path d="M2560.95-200.33l40.5 13.6" stroke="#979ea8" stroke-width="2" fill="none"/><path d="M2559.95-200.65l1.14-.04-.45 1.32-3.8-1.28.1-.36z" stroke="#979ea8" stroke-width=".05" fill="#979ea8"/><path d="M2615.93-181.86l-15-.15 2.96-8.8z" stroke="#979ea8" stroke-width="2" fill="#979ea8"/><path d="M2700-272.82a6 6 0 0 1 6-6h288a6 6 0 0 1 6 6V-86a6 6 0 0 1-6 6h-288a6 6 0 0 1-6-6z" stroke="#6f7681" fill="#fcce14"/><path d="M2720-234.3a6 6 0 0 1 6-6h108a6 6 0 0 1 6 6v18.6a6 6 0 0 1-6 6h-108a6 6 0 0 1-6-6z" stroke="#000" fill="#fff7a1"/><use xlink:href="#h" transform="matrix(1,0,0,1,2725,-235.28645833333334) translate(8.368055555555571 16.85069444444444)"/><path d="M2710-272.82a6 6 0 0 1 6-6h138a6 6 0 0 1 6 6v35.64a6 6 0 0 1-6 6h-138a6 6 0 0 1-6-6z" stroke="#000" stroke-opacity="0" fill-opacity="0"/><use xlink:href="#i" transform="matrix(1,0,0,1,2715,-273.8216145833333) translate(1.939019097222257 23.105468749999993)"/><use xlink:href="#j" transform="matrix(1,0,0,1,2715,-273.8216145833333) translate(72.68012152777777 23.105468749999993)"/><path d="M2720-178.4a6 6 0 0 1 6-6h108a6 6 0 0 1 6 6v18a6 6 0 0 1-6 6h-108a6 6 0 0 1-6-6z" stroke="#000" fill="#fff7a1"/><use xlink:href="#k" transform="matrix(1,0,0,1,2725,-179.41080729166666) translate(37.46202256944445 14.845920138888886)"/><path d="M2710-217.23a6 6 0 0 1 6-6h128a6 6 0 0 1 6 6v35.64a6 6 0 0 1-6 6h-128a6 6 0 0 1-6-6z" stroke="#000" stroke-opacity="0" fill-opacity="0"/><use xlink:href="#i" transform="matrix(1,0,0,1,2715,-218.23242187499997) translate(6.1051432291667 23.105468749999993)"/><use xlink:href="#l" transform="matrix(1,0,0,1,2715,-218.23242187499997) translate(76.84624565972221 23.105468749999993)"/><path d="M2720-122.82a6 6 0 0 1 6-6h108a6 6 0 0 1 6 6v18a6 6 0 0 1-6 6h-108a6 6 0 0 1-6-6z" stroke="#000" fill="#fff7a1"/><use xlink:href="#k" transform="matrix(1,0,0,1,2725,-123.82161458333331) translate(37.46202256944445 14.845920138888886)"/><path d="M2710-161.64a6 6 0 0 1 6-6h128a6 6 0 0 1 6 6V-126a6 6 0 0 1-6 6h-128a6 6 0 0 1-6-6z" stroke="#000" stroke-opacity="0" fill-opacity="0"/><use xlink:href="#i" transform="matrix(1,0,0,1,2715,-162.64322916666666) translate(4.602322048611143 23.105468749999993)"/><use xlink:href="#m" transform="matrix(1,0,0,1,2715,-162.64322916666666) translate(75.34342447916666 23.105468749999993)"/><path d="M2860-178.4a6 6 0 0 1 6-6h108a6 6 0 0 1 6 6v18a6 6 0 0 1-6 6h-108a6 6 0 0 1-6-6z" stroke="#000" fill="#fff7a1"/><use xlink:href="#n" transform="matrix(1,0,0,1,2865,-179.41080729166666) translate(13.942599826388893 14.845920138888886)"/><path d="M2850-217.23a6 6 0 0 1 6-6h128a6 6 0 0 1 6 6v35.64a6 6 0 0 1-6 6h-128a6 6 0 0 1-6-6z" stroke="#000" stroke-opacity="0" fill-opacity="0"/><use xlink:href="#o" transform="matrix(1,0,0,1,2855,-218.23242187499997) translate(24.318033854166686 23.105468749999993)"/><use xlink:href="#p" transform="matrix(1,0,0,1,2855,-218.23242187499997) translate(55.64398871527778 23.105468749999993)"/><path d="M3020-272.82a6 6 0 0 1 6-6h288a6 6 0 0 1 6 6V-86a6 6 0 0 1-6 6h-288a6 6 0 0 1-6-6z" stroke="#6f7681" fill="#e81313"/><path d="M3040-234.3a6 6 0 0 1 6-6h108a6 6 0 0 1 6 6v18.6a6 6 0 0 1-6 6h-108a6 6 0 0 1-6-6z" stroke="#000" fill="#fe7070"/><use xlink:href="#q" transform="matrix(1,0,0,1,3045,-235.28645833333331) translate(8.368055555555571 16.85069444444444)"/><path d="M3030-272.82a6 6 0 0 1 6-6h138a6 6 0 0 1 6 6v35.64a6 6 0 0 1-6 6h-138a6 6 0 0 1-6-6z" stroke="#000" stroke-opacity="0" fill-opacity="0"/><use xlink:href="#i" transform="matrix(1,0,0,1,3035,-273.8216145833333) translate(1.939019097222257 23.105468749999993)"/><use xlink:href="#j" transform="matrix(1,0,0,1,3035,-273.8216145833333) translate(72.68012152777777 23.105468749999993)"/><path d="M3040-178.4a6 6 0 0 1 6-6h108a6 6 0 0 1 6 6v18a6 6 0 0 1-6 6h-108a6 6 0 0 1-6-6z" stroke="#000" fill="#fe7070"/><use xlink:href="#k" transform="matrix(1,0,0,1,3045,-179.41080729166663) translate(37.46202256944445 14.845920138888886)"/><path d="M3030-217.23a6 6 0 0 1 6-6h128a6 6 0 0 1 6 6v35.64a6 6 0 0 1-6 6h-128a6 6 0 0 1-6-6z" stroke="#000" stroke-opacity="0" fill-opacity="0"/><use xlink:href="#i" transform="matrix(1,0,0,1,3035,-218.23242187499994) translate(6.1051432291667 23.105468749999993)"/><use xlink:href="#l" transform="matrix(1,0,0,1,3035,-218.23242187499994) translate(76.84624565972221 23.105468749999993)"/><path d="M3040-122.82a6 6 0 0 1 6-6h108a6 6 0 0 1 6 6v18a6 6 0 0 1-6 6h-108a6 6 0 0 1-6-6z" stroke="#000" fill="#fe7070"/><use xlink:href="#k" transform="matrix(1,0,0,1,3045,-123.82161458333329) translate(37.46202256944445 14.845920138888886)"/><path d="M3030-161.64a6 6 0 0 1 6-6h128a6 6 0 0 1 6 6V-126a6 6 0 0 1-6 6h-128a6 6 0 0 1-6-6z" stroke="#000" stroke-opacity="0" fill-opacity="0"/><use xlink:href="#i" transform="matrix(1,0,0,1,3035,-162.64322916666663) translate(4.602322048611143 23.105468749999993)"/><use xlink:href="#m" transform="matrix(1,0,0,1,3035,-162.64322916666663) translate(75.34342447916666 23.105468749999993)"/><path d="M3180-178.4a6 6 0 0 1 6-6h108a6 6 0 0 1 6 6v18a6 6 0 0 1-6 6h-108a6 6 0 0 1-6-6z" stroke="#000" fill="#fe7070"/><use xlink:href="#r" transform="matrix(1,0,0,1,3185,-179.41080729166663) translate(14.39453125 14.845920138888886)"/><path d="M3170-217.23a6 6 0 0 1 6-6h128a6 6 0 0 1 6 6v35.64a6 6 0 0 1-6 6h-128a6 6 0 0 1-6-6z" stroke="#000" stroke-opacity="0" fill-opacity="0"/><use xlink:href="#o" transform="matrix(1,0,0,1,3175,-218.23242187499994) translate(24.318033854166686 23.105468749999993)"/><use xlink:href="#p" transform="matrix(1,0,0,1,3175,-218.23242187499994) translate(55.64398871527778 23.105468749999993)"/><path d="M3340-274.24a6 6 0 0 1 6-6h288a6 6 0 0 1 6 6v186.82a6 6 0 0 1-6 6h-288a6 6 0 0 1-6-6z" stroke="#6f7681" fill="#635dff"/><path d="M3360-235.7a6 6 0 0 1 6-6h108a6 6 0 0 1 6 6v18.57a6 6 0 0 1-6 6h-108a6 6 0 0 1-6-6z" stroke="#000" fill="#6db1ff"/><use xlink:href="#s" transform="matrix(1,0,0,1,3365,-236.70120888067993) translate(7.916666666666686 16.85069444444444)"/><path d="M3350-274.24a6 6 0 0 1 6-6h138a6 6 0 0 1 6 6v35.65a6 6 0 0 1-6 6h-138a6 6 0 0 1-6-6z" stroke="#000" stroke-opacity="0" fill-opacity="0"/><use xlink:href="#i" transform="matrix(1,0,0,1,3355,-275.2363651306799) translate(1.939019097222257 23.105468749999993)"/><use xlink:href="#j" transform="matrix(1,0,0,1,3355,-275.2363651306799) translate(72.68012152777777 23.105468749999993)"/><path d="M3360-180.1a6 6 0 0 1 6-6h108a6 6 0 0 1 6 6v18.56a6 6 0 0 1-6 6h-108a6 6 0 0 1-6-6z" stroke="#000" fill="#6db1ff"/><use xlink:href="#h" transform="matrix(1,0,0,1,3365,-181.11201617234659) translate(8.368055555555571 16.85069444444444)"/><path d="M3350-218.65a6 6 0 0 1 6-6h128a6 6 0 0 1 6 6V-183a6 6 0 0 1-6 6h-128a6 6 0 0 1-6-6z" stroke="#000" stroke-opacity="0" fill-opacity="0"/><use xlink:href="#i" transform="matrix(1,0,0,1,3355,-219.64717242234656) translate(6.1051432291667 23.105468749999993)"/><use xlink:href="#l" transform="matrix(1,0,0,1,3355,-219.64717242234656) translate(76.84624565972221 23.105468749999993)"/><path d="M3360-124.52a6 6 0 0 1 6-6h108a6 6 0 0 1 6 6v18.57a6 6 0 0 1-6 6h-108a6 6 0 0 1-6-6z" stroke="#000" fill="#6db1ff"/><g><use xlink:href="#q" transform="matrix(1,0,0,1,3365,-125.52282346401324) translate(8.368055555555571 16.85069444444444)"/></g><path d="M3350-163.06a6 6 0 0 1 6-6h128a6 6 0 0 1 6 6v35.64a6 6 0 0 1-6 6h-128a6 6 0 0 1-6-6z" stroke="#000" stroke-opacity="0" fill-opacity="0"/><g><use xlink:href="#i" transform="matrix(1,0,0,1,3355,-164.05797971401324) translate(4.602322048611143 23.105468749999993)"/><use xlink:href="#m" transform="matrix(1,0,0,1,3355,-164.05797971401324) translate(75.34342447916666 23.105468749999993)"/></g><path d="M3500-179.83a6 6 0 0 1 6-6h108a6 6 0 0 1 6 6v18a6 6 0 0 1-6 6h-108a6 6 0 0 1-6-6z" stroke="#000" fill="#6db1ff"/><g><use xlink:href="#t" transform="matrix(1,0,0,1,3505,-180.82555783901324) translate(15.568033854166671 14.845920138888886)"/></g><path d="M3490-218.65a6 6 0 0 1 6-6h128a6 6 0 0 1 6 6V-183a6 6 0 0 1-6 6h-128a6 6 0 0 1-6-6z" stroke="#000" stroke-opacity="0" fill-opacity="0"/><g><use xlink:href="#o" transform="matrix(1,0,0,1,3495,-219.64717242234656) translate(24.318033854166686 23.105468749999993)"/><use xlink:href="#p" transform="matrix(1,0,0,1,3495,-219.64717242234656) translate(55.64398871527778 23.105468749999993)"/></g><defs><radialGradient gradientUnits="userSpaceOnUse" id="a" fx="2560" fy="-220.83" cx="2560" cy="-220.83" r="20.54"><stop offset="0%" stop-color="#6862ff" stop-opacity=".4"/><stop offset="60%" stop-color="#635dff" stop-opacity=".6"/><stop offset="100%" stop-color="#625cfc"/></radialGradient><path d="M23 0v-37h61v-169l-59 37v-38l62-41h46v211h57V0H23" id="u"/><path d="M139-81c0-46-55-55-73-27H18l9-140h149v37H72l-4 63c44-38 133-4 122 66C201 21 21 35 11-62l49-4c5 18 15 30 39 30 26 0 40-18 40-45" id="v"/><g id="b"><use transform="matrix(0.05555555555555554,0,0,0.05555555555555554,0,0)" xlink:href="#u"/><use transform="matrix(0.05555555555555554,0,0,0.05555555555555554,11.111111111111107,0)" xlink:href="#v"/></g><radialGradient gradientUnits="userSpaceOnUse" id="c" fx="2480" fy="-180.83" cx="2480" cy="-180.83" r="20.54"><stop offset="0%" stop-color="#fcd01b" stop-opacity=".4"/><stop offset="60%" stop-color="#fcce14" stop-opacity=".6"/><stop offset="100%" stop-color="#f9cb14"/></radialGradient><path d="M115-159c48 0 72 30 72 78 0 54-30 85-83 85-64 0-91-50-91-122 0-98 58-163 141-120 15 8 21 24 27 44l-47 6c-5-31-48-31-61-4-7 14-11 33-11 60 9-17 28-27 53-27zM102-35c24 0 36-20 36-45s-11-43-37-43c-23 0-36 14-36 38 0 27 11 50 37 50" id="w"/><use transform="matrix(0.05555555555555554,0,0,0.05555555555555554,0,0)" xlink:href="#w" id="d"/><radialGradient gradientUnits="userSpaceOnUse" id="e" fx="2640" fy="-180.83" cx="2640" cy="-180.83" r="20.54"><stop offset="0%" stop-color="#e91a1a" stop-opacity=".4"/><stop offset="60%" stop-color="#e81313" stop-opacity=".6"/><stop offset="100%" stop-color="#e51313"/></radialGradient><path d="M182-182c0 78-84 86-111 141h115V0H12c-6-101 99-100 120-180 1-22-12-31-33-32-23 0-32 14-35 34l-49-3c5-45 32-70 84-70 51 0 83 22 83 69" id="x"/><path d="M101-251c68 0 84 54 84 127C185-50 166 4 99 4S15-52 14-124c-1-75 17-127 87-127zm-1 216c37-5 36-46 36-89s4-89-36-89c-39 0-36 45-36 89 0 43-3 85 36 89" id="y"/><g id="f"><use transform="matrix(0.05555555555555554,0,0,0.05555555555555554,0,0)" xlink:href="#x"/><use transform="matrix(0.05555555555555554,0,0,0.05555555555555554,11.111111111111107,0)" xlink:href="#y"/></g><path d="M593-112c147-102 148-459 107-694-21-121-67-219-141-278-56-45-132-48-190-8-149 104-147 457-109 689 20 123 62 222 136 282 55 45 138 50 197 9zm74-1073c247 158 282 757 101 1028C703-59 608 30 461 30c-227 0-318-189-361-388-74-338 17-693 227-826 99-63 242-64 340-1" id="z"/><path d="M451-887c-43 7-97 6-97 49 0 10 7 23 19 39l161 222 154-222c31-32 25-73-21-80-15-2-32-6-53-8v-43h381v43c-99 7-155 33-196 90L589-502l267 365c37 47 83 85 160 94V0H614v-43c40-6 91-4 94-45 0-11-7-25-20-43L490-400 301-131c-50 68 34 86 98 88V0H20v-43c82-11 135-41 173-94l243-338c-87-118-171-239-261-355-30-38-78-52-144-57v-43h420v43" id="A"/><path d="M264-754c103-29 265-40 360 4 125 58 212 167 212 340 0 198-90 336-228 404-103 50-240 45-352 2-61-23-120-61-178-115l35-67c90 60 169 116 305 116 174 0 258-125 258-297 0-188-85-303-273-303-91 0-162 38-219 80l-47-33c30-186 67-381 82-582h436c48 0 87-6 121-18l29 29c-31 43-70 87-111 119H307c-8 105-26 226-43 321" id="B"/><path d="M600-1485c99-12 185-40 264-65l31 30c1 442-9 888 1 1326 1 47 0 102 56 94 17-3 46-12 86-27l13 43C976-39 923 30 829 30c-22 0-40-15-54-45s-23-81-28-154C662-73 586 30 416 30c-165 0-251-137-304-275-51-133-34-327 28-435 84-144 195-280 411-280 87 0 134 18 194 63-2-152 5-318-3-465-4-76-62-77-142-84v-39zM487-100c124 0 184-97 258-161v-469c-39-70-122-120-225-120-208 0-290 158-290 375 0 165 69 286 170 349 30 19 60 26 87 26" id="C"/><path d="M104-948c11-83 25-181 43-257h705l33 38C728-799 568-429 432-44c-48 34-96 57-162 74L229-3c197-342 345-698 504-1072-161 1-324-1-483 1-31 7-43 26-62 56-12 20-24 49-38 88" id="D"/><g id="h"><use transform="matrix(0.008680555555555552,0,0,0.008680555555555552,0,0)" xlink:href="#z"/><use transform="matrix(0.008680555555555552,0,0,0.008680555555555552,8.342013888888886,0)" xlink:href="#A"/><use transform="matrix(0.008680555555555552,0,0,0.008680555555555552,17.282986111111107,0)" xlink:href="#B"/><use transform="matrix(0.008680555555555552,0,0,0.008680555555555552,25.624999999999996,0)" xlink:href="#B"/><use transform="matrix(0.008680555555555552,0,0,0.008680555555555552,33.96701388888888,0)" xlink:href="#B"/><use transform="matrix(0.008680555555555552,0,0,0.008680555555555552,42.309027777777764,0)" xlink:href="#B"/><use transform="matrix(0.008680555555555552,0,0,0.008680555555555552,50.65104166666665,0)" xlink:href="#B"/><use transform="matrix(0.008680555555555552,0,0,0.008680555555555552,58.993055555555536,0)" xlink:href="#C"/><use transform="matrix(0.008680555555555552,0,0,0.008680555555555552,68.2378472222222,0)" xlink:href="#D"/><use transform="matrix(0.008680555555555552,0,0,0.008680555555555552,76.57986111111109,0)" xlink:href="#D"/><use transform="matrix(0.008680555555555552,0,0,0.008680555555555552,84.92187499999997,0)" xlink:href="#z"/></g><path d="M829-1263c0-55 42-106 96-102 141 10 133 224 150 372 25 219 36 341 36 365 0 117-18 227-55 328C983-97 875 5 732 5 532 5 402-187 343-570c-16 123-24 243-24 360C319-70 282 0 207 0c-53 0-99-44-99-97 0-315 85-1025 186-1197 27-46 56-71 93-71 53 0 88 33 105 99 5 21 8 92 8 213 0 153 26 313 55 481 43 253 101 379 172 379 116 0 183-303 183-438 0-120-81-513-81-632" id="E"/><path d="M609-1364c323 0 519 229 519 557 0 183-51 357-152 522C860-95 716 0 544 0 271 0 97-283 97-570c0-191 38-362 113-512 95-188 228-282 399-282zm319 550c0-231-116-347-349-347-81 0-151 81-210 243-48 132-72 248-72 348 0 161 47 272 142 333 35 23 69 34 100 34 113 0 208-76 287-229 68-131 102-258 102-382" id="F"/><path d="M387-1365c369 0 678 217 678 573 0 172-83 346-249 522C647-90 478 0 307 0 194 0 137-80 137-239c0-257 30-558 68-915-53-11-80-43-80-95 0-56 32-93 97-108 26-6 81-8 165-8zm21 204c-15 76-47 491-72 917 0 13 1 27 2 41 116-22 231-92 346-210 120-123 180-241 180-355-1-196-67-277-209-343-74-35-157-50-247-50" id="G"/><path d="M823 0H220v-137h603V0" id="H"/><path d="M922-654c-9 182 20 369 29 555 5 90-140 139-183 58-2-3-13-31-31-85-54-160-191-263-414-306-19 75-30 243-58 360-12 50-51 72-98 72-55 0-99-53-99-108 1-366 195-896 360-1117 69-92 141-140 222-140 182 0 273 207 273 621 0 19 1 49-1 90zM724-476v-400c-20-103-13-145-35-225-11-40-25-60-40-60-32 0-83 65-154 195-56 103-99 215-130 336 137 27 256 79 359 154" id="I"/><path d="M111-254c0-80 75-479 73-483 3-23 17-167 40-434-41-20-62-51-62-94 0-67 48-100 145-100 431 0 647 127 647 380 0 161-86 280-258 359 120 81 180 177 180 290 0 173-116 256-272 302C530-12 459 0 391 0 204 0 111-85 111-254zm642-722c0-105-210-177-326-186-9 140-24 282-43 426 246-59 369-139 369-240zm-77 638c-27-89-136-153-326-193-27 162-48 229-34 323 82 18 157 3 237-24 75-26 116-61 123-106" id="J"/><path d="M46-1227c0-128 188-119 328-120 79-1 391-35 488-35 99 0 148 35 148 105 0 65-48 98-145 98-76 0-153 3-232 8 1 179-14 796-13 976C622-79 604-4 510 0c-53 2-99-44-99-97v-270c21-312 24-505 22-785-143 13-240 20-291 20-64 0-96-32-96-95" id="K"/><path d="M1021-1184c53-3 105 49 105 102 0 34-17 65-50 92-66 55-173 113-257 159 72 44 176 114 307 218 35 28 50 61 50 94 2 72-88 134-155 87-54-37-154-111-243-172v159c2 58-48 100-106 100-57 0-104-43-104-100v-227c-42 35-107 88-196 157-26 20-50 29-72 29-54 2-109-53-109-108 0-49 87-132 260-251-106-80-133-101-202-177-21-23-31-47-31-69-2-54 56-107 110-107 21 0 45 8 68 27 38 32 92 82 167 145-8-163-12-244-12-244-3-50 57-95 106-95 56 0 90 34 104 102 7 37 12 108 12 213 62-35 183-130 248-134" id="L"/><g id="i"><use transform="matrix(0.005425347222222219,0,0,0.005425347222222219,0,0)" xlink:href="#E"/><use transform="matrix(0.005425347222222219,0,0,0.005425347222222219,6.6406249999999964,0)" xlink:href="#F"/><use transform="matrix(0.005425347222222219,0,0,0.005425347222222219,13.259548611111104,0)" xlink:href="#G"/><use transform="matrix(0.005425347222222219,0,0,0.005425347222222219,19.40646701388888,0)" xlink:href="#F"/><use transform="matrix(0.005425347222222219,0,0,0.005425347222222219,26.025390624999986,0)" xlink:href="#H"/><use transform="matrix(0.005425347222222219,0,0,0.005425347222222219,31.71115451388887,0)" xlink:href="#I"/><use transform="matrix(0.005425347222222219,0,0,0.005425347222222219,37.5054253472222,0)" xlink:href="#J"/><use transform="matrix(0.005425347222222219,0,0,0.005425347222222219,42.990451388888864,0)" xlink:href="#J"/><use transform="matrix(0.005425347222222219,0,0,0.005425347222222219,48.62196180555553,0)" xlink:href="#H"/><use transform="matrix(0.005425347222222219,0,0,0.005425347222222219,54.307725694444414,0)" xlink:href="#K"/><use transform="matrix(0.005425347222222219,0,0,0.005425347222222219,60.04774305555552,0)" xlink:href="#L"/></g><path d="M920-744c0 218 15 427 27 645 5 89-139 139-182 58-3-3-13-32-31-85-53-161-192-263-415-306-18 75-30 243-58 360-12 50-50 72-97 72-56 0-99-53-99-108 1-367 194-896 360-1117 69-92 141-140 222-140 182 0 273 207 273 621zM720-476v-400c-19-103-12-145-34-225-11-40-25-60-41-60-32 0-83 65-153 195-56 103-99 215-130 336 137 27 256 79 358 154" id="M"/><path d="M773-362c52-3 103 50 103 101 0 27-17 56-48 89C762-102 548 0 418 0 210 0 81-204 84-422c3-221 73-486 152-640 103-201 220-303 358-303 167 0 251 128 251 385 0 123-35 185-106 185-48 0-101-46-99-94 2-77 27-278-39-278-46 0-94 47-150 138-89 144-168 415-168 602 0 146 56 219 169 219 46 0 106-26 180-77s122-77 141-77" id="N"/><path d="M807-1260c0-54 40-105 96-105 43 0 76 24 99 73 18 39 27 131 27 277 0 274-20 485-61 631C895-128 757 0 555 0 385 0 262-90 189-270c-51-126-76-289-76-488 0-289 18-467 53-534 26-49 59-73 99-73 52 0 105 52 99 104-14 128-48 300-48 513 0 128 14 239 41 332 41 144 108 216 201 216 105 0 179-98 225-293 29-124 45-265 45-422 0-66-21-279-21-345" id="O"/><path d="M759-451c68-46 151 19 151 87 0 27-17 54-48 86C767-182 491 0 329 0 186 0 114-109 114-326c0-169 46-507 46-695 0-139-8-341 120-344 53-2 103 46 101 99-4-2-27 472-40 636-16 198-27 312-27 343 0 57 11 86 32 86 61 0 169-62 325-185 19-16 49-38 88-65" id="P"/><g id="j"><use transform="matrix(0.005425347222222219,0,0,0.005425347222222219,0,0)" xlink:href="#E"/><use transform="matrix(0.005425347222222219,0,0,0.005425347222222219,6.6406249999999964,0)" xlink:href="#F"/><use transform="matrix(0.005425347222222219,0,0,0.005425347222222219,13.259548611111104,0)" xlink:href="#G"/><use transform="matrix(0.005425347222222219,0,0,0.005425347222222219,19.40646701388888,0)" xlink:href="#F"/><use transform="matrix(0.005425347222222219,0,0,0.005425347222222219,26.025390624999986,0)" xlink:href="#H"/><use transform="matrix(0.005425347222222219,0,0,0.005425347222222219,31.71115451388887,0)" xlink:href="#M"/><use transform="matrix(0.005425347222222219,0,0,0.005425347222222219,37.440321180555536,0)" xlink:href="#N"/><use transform="matrix(0.005425347222222219,0,0,0.005425347222222219,42.69205729166664,0)" xlink:href="#K"/><use transform="matrix(0.005425347222222219,0,0,0.005425347222222219,48.43207465277775,0)" xlink:href="#O"/><use transform="matrix(0.005425347222222219,0,0,0.005425347222222219,54.616970486111086,0)" xlink:href="#I"/><use transform="matrix(0.005425347222222219,0,0,0.005425347222222219,60.4112413194444,0)" xlink:href="#P"/></g><path d="M195-1149c-39-38-85-58-145-68v-43c78 1 162-3 236 2 36 15 48 43 72 76l657 906v-879c0-8-11-18-33-31s-59-24-112-31v-43h410v43c-48 7-84 16-108 29s-37 24-37 33V30c-55-6-97-20-119-51L315-993v889c0 8 11 18 33 31s60 23 112 30V0H50v-43c49-6 86-15 110-28s35-24 35-33v-1045" id="Q"/><path d="M355-494c3 248 105 409 350 409 207 0 295-186 295-398v-672c0-8-12-18-36-30s-61-23-109-32v-43h420v43c-45 9-81 20-107 31s-38 22-38 31v631c-6 330-141 554-464 554-304 0-471-165-471-474v-711c0-8-13-18-37-30s-60-23-108-32v-43h450v43c-45 9-80 20-106 31s-39 22-39 31v661" id="R"/><path d="M684-90c146 10 180-66 217-172l43 18c-7 89-24 179-41 244H50v-43c45-9 80-20 106-31s39-21 39-30v-1051c0-8-13-18-37-30s-60-23-108-32v-43h450v43c-45 9-80 20-106 31s-39 22-39 31v991c9 77 99 74 186 74h143" id="S"/><g id="k"><use transform="matrix(0.007595486111111109,0,0,0.007595486111111109,0,0)" xlink:href="#Q"/><use transform="matrix(0.007595486111111109,0,0,0.007595486111111109,10.094401041666664,0)" xlink:href="#R"/><use transform="matrix(0.007595486111111109,0,0,0.007595486111111109,20.26475694444444,0)" xlink:href="#S"/><use transform="matrix(0.007595486111111109,0,0,0.007595486111111109,27.67035590277777,0)" xlink:href="#S"/></g><path d="M270-1365c53 0 101 46 100 99-5 357-80 777-80 1073C290-64 254 0 183 0 132 0 82-50 82-101c0-298 47-662 55-976 2-76 19-138 34-189 19-66 52-99 99-99" id="T"/><path d="M981-266c49-2 92 51 92 99 0 65-78 111-235 140C740-9 634 0 521 0 381 0 189-69 189-191c0-93 52-207 157-340 30-39 126-147 289-324 104-113 157-190 157-232 0-53-70-80-210-80-152 0-488 76-488-91 0-143 266-107 411-107 340 0 510 87 510 261 0 71-44 165-136 278-136 168-404 420-475 602 150 56 400-33 577-42" id="U"/><path d="M584-1365c326 0 553 334 548 674-5 286-156 533-352 633 45 103 67 168 67 196 0 50-51 99-101 99-69 0-122-80-159-239C265 29 72-294 72-614c0-177 41-339 123-487 97-176 227-264 389-264zM713-253c124-77 219-244 219-438 0-191-91-355-215-432-167-102-280-19-367 169-89 192-115 401-19 587 45 85 106 139 183 162-39-95-58-155-58-179 0-50 50-99 100-99 62 0 114 77 157 230" id="V"/><g id="l"><use transform="matrix(0.005425347222222219,0,0,0.005425347222222219,0,0)" xlink:href="#E"/><use transform="matrix(0.005425347222222219,0,0,0.005425347222222219,6.6406249999999964,0)" xlink:href="#F"/><use transform="matrix(0.005425347222222219,0,0,0.005425347222222219,13.259548611111104,0)" xlink:href="#G"/><use transform="matrix(0.005425347222222219,0,0,0.005425347222222219,19.40646701388888,0)" xlink:href="#F"/><use transform="matrix(0.005425347222222219,0,0,0.005425347222222219,26.025390624999986,0)" xlink:href="#H"/><use transform="matrix(0.005425347222222219,0,0,0.005425347222222219,31.71115451388887,0)" xlink:href="#T"/><use transform="matrix(0.005425347222222219,0,0,0.005425347222222219,34.12543402777776,0)" xlink:href="#U"/><use transform="matrix(0.005425347222222219,0,0,0.005425347222222219,40.46766493055553,0)" xlink:href="#V"/></g><path d="M369 0C201 0 119-119 119-294c0-119 26-272 77-457 80-290 99-377 125-524 7-13 27-26 60-41 71-33 211-49 419-49 129 0 193 36 193 107 0 50-48 105-99 101-142-10-258-9-397 20-11 59-34 158-69 297 146-57 246-85 301-85 53 0 100 43 100 96 0 43-23 80-73 99-127 49-178 54-389 129-29 119-44 224-44 314 0 58 10 87 30 87 66 0 151-30 256-90s173-91 205-91c50 0 101 49 101 99 0 30-19 57-51 87C794-129 500 0 369 0" id="W"/><path d="M432-1365c342 0 623 232 623 568 0 219-132 374-395 466 145 90 217 167 217 230 0 52-52 98-104 96-17 0-39-10-66-29-90-65-203-166-304-203v78C403-53 368 0 299 0c-53 0-99-44-99-97v-374c17-145 25-361 25-650-2 5-10 7-24 7-53 2-99-46-99-99 0-112 194-152 330-152zm257 786c221-128 209-317 21-469-89-71-178-111-268-119-1 97-2 329-2 698 90-27 172-66 249-110" id="X"/><g id="m"><use transform="matrix(0.005425347222222219,0,0,0.005425347222222219,0,0)" xlink:href="#E"/><use transform="matrix(0.005425347222222219,0,0,0.005425347222222219,6.6406249999999964,0)" xlink:href="#F"/><use transform="matrix(0.005425347222222219,0,0,0.005425347222222219,13.259548611111104,0)" xlink:href="#G"/><use transform="matrix(0.005425347222222219,0,0,0.005425347222222219,19.40646701388888,0)" xlink:href="#F"/><use transform="matrix(0.005425347222222219,0,0,0.005425347222222219,26.025390624999986,0)" xlink:href="#H"/><use transform="matrix(0.005425347222222219,0,0,0.005425347222222219,31.71115451388887,0)" xlink:href="#G"/><use transform="matrix(0.005425347222222219,0,0,0.005425347222222219,37.85807291666664,0)" xlink:href="#W"/><use transform="matrix(0.005425347222222219,0,0,0.005425347222222219,43.89648437499997,0)" xlink:href="#X"/></g><path d="M637-901c-26 37-60 77-98 101-49-23-102-36-189-35v733c20 27 66 28 110 40 26 7 60 12 99 19V0H60v-43c46-8 80-17 104-29s36-22 36-30v-733H66l-21-28 78-67h77c-4-206 28-357 123-458 76-80 165-162 306-162 70 0 128 40 170 71 45 34-12 63-31 82-20 20-53 42-78 54-47-38-97-74-170-82-101 14-128 103-153 206-17 68-18 189-17 289h258" id="Y"/><path d="M702-616c0-134-64-239-206-239-165 0-232 127-260 275h428c31-1 38-6 38-36zm158 421C745-83 676 34 465 30 275 26 169-94 112-242c-53-136-32-337 26-447 68-129 169-238 330-265 260-43 390 140 398 397-25 28-71 51-110 67H230c4 167 66 294 174 358 36 21 77 32 122 32 145-2 206-68 297-136 15 7 29 29 37 41" id="Z"/><g id="n"><use transform="matrix(0.007595486111111109,0,0,0.007595486111111109,0,0)" xlink:href="#z"/><use transform="matrix(0.007595486111111109,0,0,0.007595486111111109,7.299262152777776,0)" xlink:href="#A"/><use transform="matrix(0.007595486111111109,0,0,0.007595486111111109,15.122612847222218,0)" xlink:href="#D"/><use transform="matrix(0.007595486111111109,0,0,0.007595486111111109,22.421874999999993,0)" xlink:href="#Y"/><use transform="matrix(0.007595486111111109,0,0,0.007595486111111109,27.26019965277777,0)" xlink:href="#Y"/><use transform="matrix(0.007595486111111109,0,0,0.007595486111111109,32.09852430555555,0)" xlink:href="#Y"/><use transform="matrix(0.007595486111111109,0,0,0.007595486111111109,36.93684895833333,0)" xlink:href="#Y"/><use transform="matrix(0.007595486111111109,0,0,0.007595486111111109,41.77517361111111,0)" xlink:href="#Y"/><use transform="matrix(0.007595486111111109,0,0,0.007595486111111109,46.613498263888886,0)" xlink:href="#Y"/><use transform="matrix(0.007595486111111109,0,0,0.007595486111111109,51.451822916666664,0)" xlink:href="#C"/><use transform="matrix(0.007595486111111109,0,0,0.007595486111111109,59.541015625,0)" xlink:href="#Z"/><use transform="matrix(0.007595486111111109,0,0,0.007595486111111109,66.72634548611111,0)" xlink:href="#C"/><use transform="matrix(0.007595486111111109,0,0,0.007595486111111109,74.81553819444444,0)" xlink:href="#z"/></g><path d="M925-1365c52 0 103 46 101 97 0 23-38 113-113 270-125 261-227 519-304 774-21 71-38 117-49 139-29 57-63 85-104 85-109-1-156-321-181-456-30-165-184-659-203-805-7-52 44-104 97-104 40 0 72 25 99 73 46 84 66 250 92 370 23 106 68 262 121 471 71-167 173-418 306-754 20-51 35-86 46-104 25-37 55-56 92-56" id="aa"/><g id="o"><use transform="matrix(0.005425347222222219,0,0,0.005425347222222219,0,0)" xlink:href="#aa"/><use transform="matrix(0.005425347222222219,0,0,0.005425347222222219,5.45247395833333,0)" xlink:href="#F"/><use transform="matrix(0.005425347222222219,0,0,0.005425347222222219,12.071397569444438,0)" xlink:href="#T"/><use transform="matrix(0.005425347222222219,0,0,0.005425347222222219,14.485677083333325,0)" xlink:href="#G"/><use transform="matrix(0.005425347222222219,0,0,0.005425347222222219,20.6325954861111,0)" xlink:href="#L"/></g><path d="M188 0C127 1 82-61 96-128c102-498 136-682 239-1056 16-58 29-97 39-118 39-81 152-87 186 3 8 21 18 60 27 118 29 181 79 412 149 693 44-195 133-594 228-824 15-37 48-53 86-53 50 0 89 31 100 97 19 117 18 225 53 381 45 201 158 605 162 785 1 54-41 102-95 102-46 0-83-20-96-65-38-130-44-258-87-432-40-161-61-264-70-309-35 138-86 345-147 622-13 58-23 96-30 117-29 83-132 87-176 19-11-18-25-49-39-97-63-219-122-453-173-703-35 145-85 365-140 660-11 60-19 101-29 123-20 43-51 65-95 65" id="ab"/><g id="p"><use transform="matrix(0.005425347222222219,0,0,0.005425347222222219,0,0)" xlink:href="#W"/><use transform="matrix(0.005425347222222219,0,0,0.005425347222222219,6.03841145833333,0)" xlink:href="#P"/><use transform="matrix(0.005425347222222219,0,0,0.005425347222222219,11.008029513888882,0)" xlink:href="#W"/><use transform="matrix(0.005425347222222219,0,0,0.005425347222222219,17.046440972222214,0)" xlink:href="#ab"/><use transform="matrix(0.005425347222222219,0,0,0.005425347222222219,24.999999999999986,0)" xlink:href="#W"/><use transform="matrix(0.005425347222222219,0,0,0.005425347222222219,31.03841145833331,0)" xlink:href="#E"/><use transform="matrix(0.005425347222222219,0,0,0.005425347222222219,37.679036458333314,0)" xlink:href="#K"/><use transform="matrix(0.005425347222222219,0,0,0.005425347222222219,43.41905381944442,0)" xlink:href="#F"/></g><g id="q"><use transform="matrix(0.008680555555555552,0,0,0.008680555555555552,0,0)" xlink:href="#z"/><use transform="matrix(0.008680555555555552,0,0,0.008680555555555552,8.342013888888886,0)" xlink:href="#A"/><use transform="matrix(0.008680555555555552,0,0,0.008680555555555552,17.282986111111107,0)" xlink:href="#B"/><use transform="matrix(0.008680555555555552,0,0,0.008680555555555552,25.624999999999996,0)" xlink:href="#B"/><use transform="matrix(0.008680555555555552,0,0,0.008680555555555552,33.96701388888888,0)" xlink:href="#B"/><use transform="matrix(0.008680555555555552,0,0,0.008680555555555552,42.309027777777764,0)" xlink:href="#B"/><use transform="matrix(0.008680555555555552,0,0,0.008680555555555552,50.65104166666665,0)" xlink:href="#B"/><use transform="matrix(0.008680555555555552,0,0,0.008680555555555552,58.993055555555536,0)" xlink:href="#C"/><use transform="matrix(0.008680555555555552,0,0,0.008680555555555552,68.2378472222222,0)" xlink:href="#D"/><use transform="matrix(0.008680555555555552,0,0,0.008680555555555552,76.57986111111109,0)" xlink:href="#B"/><use transform="matrix(0.008680555555555552,0,0,0.008680555555555552,84.92187499999997,0)" xlink:href="#z"/></g><path d="M585-1040L213-460h372v-580zm289 610c-26 41-44 53-79 80h-70v246c7 29 40 33 71 44 18 6 41 11 68 17V0H375v-43c82-16 147-23 201-55 6-5 9-11 9-17v-235H88l-33-33 496-791c51-21 92-48 137-71l37 35v750h123" id="ac"/><g id="r"><use transform="matrix(0.007595486111111109,0,0,0.007595486111111109,0,0)" xlink:href="#z"/><use transform="matrix(0.007595486111111109,0,0,0.007595486111111109,7.299262152777776,0)" xlink:href="#A"/><use transform="matrix(0.007595486111111109,0,0,0.007595486111111109,15.122612847222218,0)" xlink:href="#D"/><use transform="matrix(0.007595486111111109,0,0,0.007595486111111109,22.421874999999993,0)" xlink:href="#Y"/><use transform="matrix(0.007595486111111109,0,0,0.007595486111111109,27.26019965277777,0)" xlink:href="#Y"/><use transform="matrix(0.007595486111111109,0,0,0.007595486111111109,32.09852430555555,0)" xlink:href="#Y"/><use transform="matrix(0.007595486111111109,0,0,0.007595486111111109,36.93684895833333,0)" xlink:href="#Y"/><use transform="matrix(0.007595486111111109,0,0,0.007595486111111109,41.77517361111111,0)" xlink:href="#Y"/><use transform="matrix(0.007595486111111109,0,0,0.007595486111111109,46.613498263888886,0)" xlink:href="#Y"/><use transform="matrix(0.007595486111111109,0,0,0.007595486111111109,51.451822916666664,0)" xlink:href="#C"/><use transform="matrix(0.007595486111111109,0,0,0.007595486111111109,59.541015625,0)" xlink:href="#Z"/><use transform="matrix(0.007595486111111109,0,0,0.007595486111111109,66.72634548611111,0)" xlink:href="#Z"/><use transform="matrix(0.007595486111111109,0,0,0.007595486111111109,73.91167534722223,0)" xlink:href="#ac"/></g><path d="M451-1141c-115 0-176 80-176 191 0 146 153 170 258 225 77-58 134-108 134-213 0-137-79-203-216-203zM500-70c141 0 207-100 207-239 0-186-143-240-273-301-93 72-180 139-180 295 0 153 91 245 246 245zm113-618c131 65 254 144 254 336C867-168 749-59 612 0c-91 39-222 41-313 4C183-42 94-132 94-285c0-191 134-281 263-359-108-53-212-113-212-271 0-206 149-320 357-320 186 0 315 85 315 266 0 148-112 210-204 281" id="ad"/><g id="s"><use transform="matrix(0.008680555555555552,0,0,0.008680555555555552,0,0)" xlink:href="#z"/><use transform="matrix(0.008680555555555552,0,0,0.008680555555555552,8.342013888888886,0)" xlink:href="#A"/><use transform="matrix(0.008680555555555552,0,0,0.008680555555555552,17.282986111111107,0)" xlink:href="#B"/><use transform="matrix(0.008680555555555552,0,0,0.008680555555555552,25.624999999999996,0)" xlink:href="#B"/><use transform="matrix(0.008680555555555552,0,0,0.008680555555555552,33.96701388888888,0)" xlink:href="#B"/><use transform="matrix(0.008680555555555552,0,0,0.008680555555555552,42.309027777777764,0)" xlink:href="#B"/><use transform="matrix(0.008680555555555552,0,0,0.008680555555555552,50.65104166666665,0)" xlink:href="#B"/><use transform="matrix(0.008680555555555552,0,0,0.008680555555555552,58.993055555555536,0)" xlink:href="#C"/><use transform="matrix(0.008680555555555552,0,0,0.008680555555555552,68.2378472222222,0)" xlink:href="#ad"/><use transform="matrix(0.008680555555555552,0,0,0.008680555555555552,76.57986111111109,0)" xlink:href="#C"/><use transform="matrix(0.008680555555555552,0,0,0.008680555555555552,85.82465277777774,0)" xlink:href="#z"/></g><g id="t"><use transform="matrix(0.007595486111111109,0,0,0.007595486111111109,0,0)" xlink:href="#z"/><use transform="matrix(0.007595486111111109,0,0,0.007595486111111109,7.299262152777776,0)" xlink:href="#A"/><use transform="matrix(0.007595486111111109,0,0,0.007595486111111109,15.122612847222218,0)" xlink:href="#D"/><use transform="matrix(0.007595486111111109,0,0,0.007595486111111109,22.421874999999993,0)" xlink:href="#Y"/><use transform="matrix(0.007595486111111109,0,0,0.007595486111111109,27.26019965277777,0)" xlink:href="#Y"/><use transform="matrix(0.007595486111111109,0,0,0.007595486111111109,32.09852430555555,0)" xlink:href="#Y"/><use transform="matrix(0.007595486111111109,0,0,0.007595486111111109,36.93684895833333,0)" xlink:href="#Y"/><use transform="matrix(0.007595486111111109,0,0,0.007595486111111109,41.77517361111111,0)" xlink:href="#Y"/><use transform="matrix(0.007595486111111109,0,0,0.007595486111111109,46.613498263888886,0)" xlink:href="#Y"/><use transform="matrix(0.007595486111111109,0,0,0.007595486111111109,51.451822916666664,0)" xlink:href="#C"/><use transform="matrix(0.007595486111111109,0,0,0.007595486111111109,59.541015625,0)" xlink:href="#Z"/><use transform="matrix(0.007595486111111109,0,0,0.007595486111111109,66.72634548611111,0)" xlink:href="#Y"/><use transform="matrix(0.007595486111111109,0,0,0.007595486111111109,71.56467013888889,0)" xlink:href="#z"/></g></defs></g></svg>